<?xml version="1.0" encoding="UTF-8" standalone="no"?>
<!DOCTYPE svg PUBLIC "-//W3C//DTD SVG 1.1//EN"
 "http://www.w3.org/Graphics/SVG/1.1/DTD/svg11.dtd">
<!-- Generated by graphviz version 2.30.1 (20201013.1554)
 -->
<!-- Title: snakemake_dag Pages: 1 -->
<svg width="1754pt" height="1058pt"
 viewBox="0.00 0.00 1754.00 1058.00" xmlns="http://www.w3.org/2000/svg" xmlns:xlink="http://www.w3.org/1999/xlink">
<g id="graph0" class="graph" transform="scale(1 1) rotate(0) translate(4 1054)">
<title>snakemake_dag</title>
<polygon fill="white" stroke="white" points="-4,5 -4,-1054 1751,-1054 1751,5 -4,5"/>
<!-- 0 -->
<g id="node1" class="node"><title>0</title>
<path fill="none" stroke="#bed856" stroke-width="2" d="M610,-36C610,-36 580,-36 580,-36 574,-36 568,-30 568,-24 568,-24 568,-12 568,-12 568,-6 574,-0 580,-0 580,-0 610,-0 610,-0 616,-0 622,-6 622,-12 622,-12 622,-24 622,-24 622,-30 616,-36 610,-36"/>
<text text-anchor="middle" x="595" y="-15.5" font-family="sans" font-size="10.00">all</text>
</g>
<!-- 1 -->
<g id="node2" class="node"><title>1</title>
<path fill="none" stroke="#56c1d8" stroke-width="2" d="M553,-108C553,-108 523,-108 523,-108 517,-108 511,-102 511,-96 511,-96 511,-84 511,-84 511,-78 517,-72 523,-72 523,-72 553,-72 553,-72 559,-72 565,-78 565,-84 565,-84 565,-96 565,-96 565,-102 559,-108 553,-108"/>
<text text-anchor="middle" x="538" y="-87.5" font-family="sans" font-size="10.00">busco</text>
</g>
<!-- 1&#45;&gt;0 -->
<g id="edge1" class="edge"><title>1&#45;&gt;0</title>
<path fill="none" stroke="grey" stroke-width="2" d="M552.09,-71.6966C558.923,-63.3046 567.257,-53.0705 574.756,-43.8613"/>
<polygon fill="grey" stroke="grey" points="577.472,-46.0687 581.072,-36.1043 572.044,-41.6487 577.472,-46.0687"/>
</g>
<!-- 2 -->
<g id="node3" class="node"><title>2</title>
<path fill="none" stroke="#568ad8" stroke-width="2" d="M686,-252C686,-252 570,-252 570,-252 564,-252 558,-246 558,-240 558,-240 558,-228 558,-228 558,-222 564,-216 570,-216 570,-216 686,-216 686,-216 692,-216 698,-222 698,-228 698,-228 698,-240 698,-240 698,-246 692,-252 686,-252"/>
<text text-anchor="middle" x="628" y="-231.5" font-family="sans" font-size="10.00">extract_contiglenght_301</text>
</g>
<!-- 2&#45;&gt;1 -->
<g id="edge4" class="edge"><title>2&#45;&gt;1</title>
<path fill="none" stroke="grey" stroke-width="2" d="M593.994,-215.848C579.822,-207.017 564.487,-194.94 555,-180 543.298,-161.573 539.287,-136.972 538.068,-118.306"/>
<polygon fill="grey" stroke="grey" points="541.556,-117.935 537.636,-108.092 534.562,-118.231 541.556,-117.935"/>
</g>
<!-- 51 -->
<g id="node52" class="node"><title>51</title>
<path fill="none" stroke="#d85656" stroke-width="2" d="M613.25,-180C613.25,-180 576.75,-180 576.75,-180 570.75,-180 564.75,-174 564.75,-168 564.75,-168 564.75,-156 564.75,-156 564.75,-150 570.75,-144 576.75,-144 576.75,-144 613.25,-144 613.25,-144 619.25,-144 625.25,-150 625.25,-156 625.25,-156 625.25,-168 625.25,-168 625.25,-174 619.25,-180 613.25,-180"/>
<text text-anchor="middle" x="595" y="-159.5" font-family="sans" font-size="10.00">transrate</text>
</g>
<!-- 2&#45;&gt;51 -->
<g id="edge97" class="edge"><title>2&#45;&gt;51</title>
<path fill="none" stroke="grey" stroke-width="2" d="M619.843,-215.697C616.086,-207.728 611.547,-198.1 607.382,-189.264"/>
<polygon fill="grey" stroke="grey" points="610.494,-187.657 603.063,-180.104 604.162,-190.642 610.494,-187.657"/>
</g>
<!-- 53 -->
<g id="node54" class="node"><title>53</title>
<path fill="none" stroke="#56d8d8" stroke-width="2" d="M750,-180C750,-180 656,-180 656,-180 650,-180 644,-174 644,-168 644,-168 644,-156 644,-156 644,-150 650,-144 656,-144 656,-144 750,-144 750,-144 756,-144 762,-150 762,-156 762,-156 762,-168 762,-168 762,-174 756,-180 750,-180"/>
<text text-anchor="middle" x="703" y="-159.5" font-family="sans" font-size="10.00">salmon_index_quant</text>
</g>
<!-- 2&#45;&gt;53 -->
<g id="edge102" class="edge"><title>2&#45;&gt;53</title>
<path fill="none" stroke="grey" stroke-width="2" d="M646.539,-215.697C655.803,-207.05 667.162,-196.449 677.257,-187.027"/>
<polygon fill="grey" stroke="grey" points="679.751,-189.486 684.674,-180.104 674.975,-184.369 679.751,-189.486"/>
</g>
<!-- 3 -->
<g id="node4" class="node"><title>3</title>
<path fill="none" stroke="#56a2d8" stroke-width="2" d="M716,-324C716,-324 674,-324 674,-324 668,-324 662,-318 662,-312 662,-312 662,-300 662,-300 662,-294 668,-288 674,-288 674,-288 716,-288 716,-288 722,-288 728,-294 728,-300 728,-300 728,-312 728,-312 728,-318 722,-324 716,-324"/>
<text text-anchor="middle" x="695" y="-303.5" font-family="sans" font-size="10.00">cd_hit_est</text>
</g>
<!-- 3&#45;&gt;2 -->
<g id="edge5" class="edge"><title>3&#45;&gt;2</title>
<path fill="none" stroke="grey" stroke-width="2" d="M678.438,-287.697C670.325,-279.22 660.412,-268.864 651.529,-259.583"/>
<polygon fill="grey" stroke="grey" points="653.814,-256.908 644.371,-252.104 648.757,-261.749 653.814,-256.908"/>
</g>
<!-- 4 -->
<g id="node5" class="node"><title>4</title>
<path fill="none" stroke="#d8bc56" stroke-width="2" d="M860,-396C860,-396 830,-396 830,-396 824,-396 818,-390 818,-384 818,-384 818,-372 818,-372 818,-366 824,-360 830,-360 830,-360 860,-360 860,-360 866,-360 872,-366 872,-372 872,-372 872,-384 872,-384 872,-390 866,-396 860,-396"/>
<text text-anchor="middle" x="845" y="-375.5" font-family="sans" font-size="10.00">trinity</text>
</g>
<!-- 4&#45;&gt;3 -->
<g id="edge6" class="edge"><title>4&#45;&gt;3</title>
<path fill="none" stroke="grey" stroke-width="2" d="M817.836,-364.324C795.429,-353.867 763.245,-338.848 737.442,-326.806"/>
<polygon fill="grey" stroke="grey" points="738.795,-323.576 728.254,-322.518 735.835,-329.919 738.795,-323.576"/>
</g>
<!-- 5 -->
<g id="node6" class="node"><title>5</title>
<path fill="none" stroke="#a7d856" stroke-width="2" d="M398,-468C398,-468 368,-468 368,-468 362,-468 356,-462 356,-456 356,-456 356,-444 356,-444 356,-438 362,-432 368,-432 368,-432 398,-432 398,-432 404,-432 410,-438 410,-444 410,-444 410,-456 410,-456 410,-462 404,-468 398,-468"/>
<text text-anchor="middle" x="383" y="-447.5" font-family="sans" font-size="10.00">merge</text>
</g>
<!-- 5&#45;&gt;4 -->
<g id="edge7" class="edge"><title>5&#45;&gt;4</title>
<path fill="none" stroke="grey" stroke-width="2" d="M410.074,-448.095C477.648,-445.3 658.737,-434.51 804,-396 805.257,-395.667 806.526,-395.304 807.801,-394.916"/>
<polygon fill="grey" stroke="grey" points="809.246,-398.12 817.56,-391.553 806.965,-391.502 809.246,-398.12"/>
</g>
<!-- 52 -->
<g id="node53" class="node"><title>52</title>
<path fill="none" stroke="#d88d56" stroke-width="2" d="M857.25,-108C857.25,-108 722.75,-108 722.75,-108 716.75,-108 710.75,-102 710.75,-96 710.75,-96 710.75,-84 710.75,-84 710.75,-78 716.75,-72 722.75,-72 722.75,-72 857.25,-72 857.25,-72 863.25,-72 869.25,-78 869.25,-84 869.25,-84 869.25,-96 869.25,-96 869.25,-102 863.25,-108 857.25,-108"/>
<text text-anchor="middle" x="790" y="-87.5" font-family="sans" font-size="10.00">salmon_quant_transcriptome</text>
</g>
<!-- 5&#45;&gt;52 -->
<g id="edge99" class="edge"><title>5&#45;&gt;52</title>
<path fill="none" stroke="grey" stroke-width="2" d="M410.02,-445.56C500.921,-433.244 790,-387.73 790,-307 790,-307 790,-307 790,-233 790,-192.996 790,-146.653 790,-118.08"/>
<polygon fill="grey" stroke="grey" points="793.5,-118.049 790,-108.049 786.5,-118.049 793.5,-118.049"/>
</g>
<!-- 6 -->
<g id="node7" class="node"><title>6</title>
<path fill="none" stroke="#56d8a2" stroke-width="2" d="M362,-540C362,-540 306,-540 306,-540 300,-540 294,-534 294,-528 294,-528 294,-516 294,-516 294,-510 300,-504 306,-504 306,-504 362,-504 362,-504 368,-504 374,-510 374,-516 374,-516 374,-528 374,-528 374,-534 368,-540 362,-540"/>
<text text-anchor="middle" x="334" y="-525" font-family="sans" font-size="10.00">contfree_ngs</text>
<text text-anchor="middle" x="334" y="-514" font-family="sans" font-size="10.00">part: 00</text>
</g>
<!-- 6&#45;&gt;5 -->
<g id="edge10" class="edge"><title>6&#45;&gt;5</title>
<path fill="none" stroke="grey" stroke-width="2" d="M346.112,-503.697C351.868,-495.474 358.862,-485.483 365.206,-476.421"/>
<polygon fill="grey" stroke="grey" points="368.16,-478.304 371.027,-468.104 362.425,-474.29 368.16,-478.304"/>
</g>
<!-- 7 -->
<g id="node8" class="node"><title>7</title>
<path fill="none" stroke="#d6d856" stroke-width="2" d="M322,-612C322,-612 198,-612 198,-612 192,-612 186,-606 186,-600 186,-600 186,-588 186,-588 186,-582 192,-576 198,-576 198,-576 322,-576 322,-576 328,-576 334,-582 334,-588 334,-588 334,-600 334,-600 334,-606 328,-612 322,-612"/>
<text text-anchor="middle" x="260" y="-591.5" font-family="sans" font-size="10.00">create_index_contfree_ngs</text>
</g>
<!-- 7&#45;&gt;6 -->
<g id="edge16" class="edge"><title>7&#45;&gt;6</title>
<path fill="none" stroke="grey" stroke-width="2" d="M278.292,-575.697C287.433,-567.05 298.64,-556.449 308.6,-547.027"/>
<polygon fill="grey" stroke="grey" points="311.059,-549.519 315.918,-540.104 306.248,-544.434 311.059,-549.519"/>
</g>
<!-- 20 -->
<g id="node21" class="node"><title>20</title>
<path fill="none" stroke="#56d8a2" stroke-width="2" d="M460,-540C460,-540 404,-540 404,-540 398,-540 392,-534 392,-528 392,-528 392,-516 392,-516 392,-510 398,-504 404,-504 404,-504 460,-504 460,-504 466,-504 472,-510 472,-516 472,-516 472,-528 472,-528 472,-534 466,-540 460,-540"/>
<text text-anchor="middle" x="432" y="-525" font-family="sans" font-size="10.00">contfree_ngs</text>
<text text-anchor="middle" x="432" y="-514" font-family="sans" font-size="10.00">part: 01</text>
</g>
<!-- 7&#45;&gt;20 -->
<g id="edge33" class="edge"><title>7&#45;&gt;20</title>
<path fill="none" stroke="grey" stroke-width="2" d="M302.076,-575.876C326.328,-566.006 356.949,-553.544 382.372,-543.197"/>
<polygon fill="grey" stroke="grey" points="383.894,-546.357 391.837,-539.345 381.256,-539.873 383.894,-546.357"/>
</g>
<!-- 21 -->
<g id="node22" class="node"><title>21</title>
<path fill="none" stroke="#56d8a2" stroke-width="2" d="M558,-540C558,-540 502,-540 502,-540 496,-540 490,-534 490,-528 490,-528 490,-516 490,-516 490,-510 496,-504 502,-504 502,-504 558,-504 558,-504 564,-504 570,-510 570,-516 570,-516 570,-528 570,-528 570,-534 564,-540 558,-540"/>
<text text-anchor="middle" x="530" y="-525" font-family="sans" font-size="10.00">contfree_ngs</text>
<text text-anchor="middle" x="530" y="-514" font-family="sans" font-size="10.00">part: 02</text>
</g>
<!-- 7&#45;&gt;21 -->
<g id="edge35" class="edge"><title>7&#45;&gt;21</title>
<path fill="none" stroke="grey" stroke-width="2" d="M334.147,-577.137C374.836,-567.983 426.309,-555.673 480.251,-540.084"/>
<polygon fill="grey" stroke="grey" points="481.374,-543.402 489.992,-537.24 479.412,-536.683 481.374,-543.402"/>
</g>
<!-- 22 -->
<g id="node23" class="node"><title>22</title>
<path fill="none" stroke="#56d8a2" stroke-width="2" d="M68,-540C68,-540 12,-540 12,-540 6,-540 0,-534 0,-528 0,-528 0,-516 0,-516 0,-510 6,-504 12,-504 12,-504 68,-504 68,-504 74,-504 80,-510 80,-516 80,-516 80,-528 80,-528 80,-534 74,-540 68,-540"/>
<text text-anchor="middle" x="40" y="-525" font-family="sans" font-size="10.00">contfree_ngs</text>
<text text-anchor="middle" x="40" y="-514" font-family="sans" font-size="10.00">part: 03</text>
</g>
<!-- 7&#45;&gt;22 -->
<g id="edge37" class="edge"><title>7&#45;&gt;22</title>
<path fill="none" stroke="grey" stroke-width="2" d="M203.238,-575.927C172.162,-566.459 132.771,-554.263 89.6298,-540.16"/>
<polygon fill="grey" stroke="grey" points="90.6672,-536.817 80.0745,-537.025 88.4851,-543.468 90.6672,-536.817"/>
</g>
<!-- 23 -->
<g id="node24" class="node"><title>23</title>
<path fill="none" stroke="#56d8a2" stroke-width="2" d="M166,-540C166,-540 110,-540 110,-540 104,-540 98,-534 98,-528 98,-528 98,-516 98,-516 98,-510 104,-504 110,-504 110,-504 166,-504 166,-504 172,-504 178,-510 178,-516 178,-516 178,-528 178,-528 178,-534 172,-540 166,-540"/>
<text text-anchor="middle" x="138" y="-525" font-family="sans" font-size="10.00">contfree_ngs</text>
<text text-anchor="middle" x="138" y="-514" font-family="sans" font-size="10.00">part: 04</text>
</g>
<!-- 7&#45;&gt;23 -->
<g id="edge39" class="edge"><title>7&#45;&gt;23</title>
<path fill="none" stroke="grey" stroke-width="2" d="M230.155,-575.876C214.056,-566.639 193.999,-555.131 176.712,-545.212"/>
<polygon fill="grey" stroke="grey" points="178.375,-542.131 167.959,-540.19 174.891,-548.202 178.375,-542.131"/>
</g>
<!-- 24 -->
<g id="node25" class="node"><title>24</title>
<path fill="none" stroke="#56d8a2" stroke-width="2" d="M264,-540C264,-540 208,-540 208,-540 202,-540 196,-534 196,-528 196,-528 196,-516 196,-516 196,-510 202,-504 208,-504 208,-504 264,-504 264,-504 270,-504 276,-510 276,-516 276,-516 276,-528 276,-528 276,-534 270,-540 264,-540"/>
<text text-anchor="middle" x="236" y="-525" font-family="sans" font-size="10.00">contfree_ngs</text>
<text text-anchor="middle" x="236" y="-514" font-family="sans" font-size="10.00">part: 05</text>
</g>
<!-- 7&#45;&gt;24 -->
<g id="edge41" class="edge"><title>7&#45;&gt;24</title>
<path fill="none" stroke="grey" stroke-width="2" d="M254.067,-575.697C251.394,-567.898 248.174,-558.509 245.199,-549.829"/>
<polygon fill="grey" stroke="grey" points="248.418,-548.429 241.864,-540.104 241.797,-550.699 248.418,-548.429"/>
</g>
<!-- 8 -->
<g id="node9" class="node"><title>8</title>
<path fill="none" stroke="#56d873" stroke-width="2" d="M535,-828C535,-828 505,-828 505,-828 499,-828 493,-822 493,-816 493,-816 493,-804 493,-804 493,-798 499,-792 505,-792 505,-792 535,-792 535,-792 541,-792 547,-798 547,-804 547,-804 547,-816 547,-816 547,-822 541,-828 535,-828"/>
<text text-anchor="middle" x="520" y="-807.5" font-family="sans" font-size="10.00">bbduk</text>
</g>
<!-- 8&#45;&gt;7 -->
<g id="edge18" class="edge"><title>8&#45;&gt;7</title>
<path fill="none" stroke="grey" stroke-width="2" d="M492.95,-804.384C461.516,-797.933 409.323,-783.753 373,-756 325.13,-719.425 289.574,-656.803 272.094,-621.401"/>
<polygon fill="grey" stroke="grey" points="275.144,-619.669 267.647,-612.183 268.839,-622.71 275.144,-619.669"/>
</g>
<!-- 18 -->
<g id="node19" class="node"><title>18</title>
<path fill="none" stroke="#88d856" stroke-width="2" d="M452,-684C452,-684 422,-684 422,-684 416,-684 410,-678 410,-672 410,-672 410,-660 410,-660 410,-654 416,-648 422,-648 422,-648 452,-648 452,-648 458,-648 464,-654 464,-660 464,-660 464,-672 464,-672 464,-678 458,-684 452,-684"/>
<text text-anchor="middle" x="437" y="-663.5" font-family="sans" font-size="10.00">kraken</text>
</g>
<!-- 8&#45;&gt;18 -->
<g id="edge31" class="edge"><title>8&#45;&gt;18</title>
<path fill="none" stroke="grey" stroke-width="2" d="M519.625,-791.709C518.497,-772.824 514.509,-742.296 501,-720 493.792,-708.103 482.934,-697.649 472.199,-689.239"/>
<polygon fill="grey" stroke="grey" points="474.193,-686.361 464.076,-683.216 470.024,-691.984 474.193,-686.361"/>
</g>
<!-- 19 -->
<g id="node20" class="node"><title>19</title>
<path fill="none" stroke="#5673d8" stroke-width="2" d="M480,-756C480,-756 394,-756 394,-756 388,-756 382,-750 382,-744 382,-744 382,-732 382,-732 382,-726 388,-720 394,-720 394,-720 480,-720 480,-720 486,-720 492,-726 492,-732 492,-732 492,-744 492,-744 492,-750 486,-756 480,-756"/>
<text text-anchor="middle" x="437" y="-735.5" font-family="sans" font-size="10.00">fastqc_after_bbduk</text>
</g>
<!-- 8&#45;&gt;19 -->
<g id="edge32" class="edge"><title>8&#45;&gt;19</title>
<path fill="none" stroke="grey" stroke-width="2" d="M499.483,-791.697C489.131,-782.965 476.414,-772.24 465.161,-762.75"/>
<polygon fill="grey" stroke="grey" points="467.182,-759.876 457.281,-756.104 462.669,-765.227 467.182,-759.876"/>
</g>
<!-- 9 -->
<g id="node10" class="node"><title>9</title>
<path fill="none" stroke="#d8a456" stroke-width="2" d="M590,-900C590,-900 560,-900 560,-900 554,-900 548,-894 548,-888 548,-888 548,-876 548,-876 548,-870 554,-864 560,-864 560,-864 590,-864 590,-864 596,-864 602,-870 602,-876 602,-876 602,-888 602,-888 602,-894 596,-900 590,-900"/>
<text text-anchor="middle" x="575" y="-879.5" font-family="sans" font-size="10.00">fastqc</text>
</g>
<!-- 9&#45;&gt;8 -->
<g id="edge19" class="edge"><title>9&#45;&gt;8</title>
<path fill="none" stroke="grey" stroke-width="2" d="M561.404,-863.697C554.877,-855.389 546.932,-845.277 539.753,-836.141"/>
<polygon fill="grey" stroke="grey" points="542.369,-833.805 533.439,-828.104 536.865,-838.13 542.369,-833.805"/>
</g>
<!-- 10 -->
<g id="node11" class="node"><title>10</title>
<path fill="none" stroke="#70d856" stroke-width="2" d="M623,-1049.5C623,-1049.5 527,-1049.5 527,-1049.5 521,-1049.5 515,-1043.5 515,-1037.5 515,-1037.5 515,-1020.5 515,-1020.5 515,-1014.5 521,-1008.5 527,-1008.5 527,-1008.5 623,-1008.5 623,-1008.5 629,-1008.5 635,-1014.5 635,-1020.5 635,-1020.5 635,-1037.5 635,-1037.5 635,-1043.5 629,-1049.5 623,-1049.5"/>
<text text-anchor="middle" x="575" y="-1037.5" font-family="sans" font-size="10.00">download_fastq</text>
<text text-anchor="middle" x="575" y="-1026.5" font-family="sans" font-size="10.00">genotype: Rio</text>
<text text-anchor="middle" x="575" y="-1015.5" font-family="sans" font-size="10.00">sample: SRR6257144</text>
</g>
<!-- 10&#45;&gt;8 -->
<g id="edge20" class="edge"><title>10&#45;&gt;8</title>
<path fill="none" stroke="grey" stroke-width="2" d="M568.992,-1008.15C561.502,-983.077 548.525,-938.546 539,-900 533.915,-879.423 528.942,-855.971 525.36,-838.308"/>
<polygon fill="grey" stroke="grey" points="528.718,-837.253 523.32,-828.136 521.854,-838.629 528.718,-837.253"/>
</g>
<!-- 10&#45;&gt;9 -->
<g id="edge22" class="edge"><title>10&#45;&gt;9</title>
<path fill="none" stroke="grey" stroke-width="2" d="M575,-1008.44C575,-983.22 575,-939.194 575,-910.578"/>
<polygon fill="grey" stroke="grey" points="578.5,-910.436 575,-900.436 571.5,-910.436 578.5,-910.436"/>
</g>
<!-- 12 -->
<g id="node13" class="node"><title>12</title>
<path fill="none" stroke="#56d8c1" stroke-width="2" d="M808,-972C808,-972 746,-972 746,-972 740,-972 734,-966 734,-960 734,-960 734,-948 734,-948 734,-942 740,-936 746,-936 746,-936 808,-936 808,-936 814,-936 820,-942 820,-948 820,-948 820,-960 820,-960 820,-966 814,-972 808,-972"/>
<text text-anchor="middle" x="777" y="-951.5" font-family="sans" font-size="10.00">salmon_quant</text>
</g>
<!-- 10&#45;&gt;12 -->
<g id="edge26" class="edge"><title>10&#45;&gt;12</title>
<path fill="none" stroke="grey" stroke-width="2" d="M629.132,-1008.44C658.636,-997.775 694.996,-984.635 724.277,-974.053"/>
<polygon fill="grey" stroke="grey" points="725.7,-977.261 733.916,-970.57 723.321,-970.677 725.7,-977.261"/>
</g>
<!-- 11 -->
<g id="node12" class="node"><title>11</title>
<path fill="none" stroke="#59d856" stroke-width="2" d="M912.25,-900C912.25,-900 849.75,-900 849.75,-900 843.75,-900 837.75,-894 837.75,-888 837.75,-888 837.75,-876 837.75,-876 837.75,-870 843.75,-864 849.75,-864 849.75,-864 912.25,-864 912.25,-864 918.25,-864 924.25,-870 924.25,-876 924.25,-876 924.25,-888 924.25,-888 924.25,-894 918.25,-900 912.25,-900"/>
<text text-anchor="middle" x="881" y="-879.5" font-family="sans" font-size="10.00">filter_stranded</text>
</g>
<!-- 11&#45;&gt;8 -->
<g id="edge21" class="edge"><title>11&#45;&gt;8</title>
<path fill="none" stroke="grey" stroke-width="2" d="M837.455,-872.556C765.896,-858.681 624.671,-831.296 557.369,-818.246"/>
<polygon fill="grey" stroke="grey" points="557.707,-814.747 547.224,-816.279 556.375,-821.619 557.707,-814.747"/>
</g>
<!-- 28 -->
<g id="node29" class="node"><title>28</title>
<path fill="none" stroke="#56d873" stroke-width="2" d="M896,-828C896,-828 866,-828 866,-828 860,-828 854,-822 854,-816 854,-816 854,-804 854,-804 854,-798 860,-792 866,-792 866,-792 896,-792 896,-792 902,-792 908,-798 908,-804 908,-804 908,-816 908,-816 908,-822 902,-828 896,-828"/>
<text text-anchor="middle" x="881" y="-807.5" font-family="sans" font-size="10.00">bbduk</text>
</g>
<!-- 11&#45;&gt;28 -->
<g id="edge54" class="edge"><title>11&#45;&gt;28</title>
<path fill="none" stroke="grey" stroke-width="2" d="M881,-863.697C881,-855.983 881,-846.712 881,-838.112"/>
<polygon fill="grey" stroke="grey" points="884.5,-838.104 881,-828.104 877.5,-838.104 884.5,-838.104"/>
</g>
<!-- 41 -->
<g id="node42" class="node"><title>41</title>
<path fill="none" stroke="#56d873" stroke-width="2" d="M1189,-828C1189,-828 1159,-828 1159,-828 1153,-828 1147,-822 1147,-816 1147,-816 1147,-804 1147,-804 1147,-798 1153,-792 1159,-792 1159,-792 1189,-792 1189,-792 1195,-792 1201,-798 1201,-804 1201,-804 1201,-816 1201,-816 1201,-822 1195,-828 1189,-828"/>
<text text-anchor="middle" x="1174" y="-807.5" font-family="sans" font-size="10.00">bbduk</text>
</g>
<!-- 11&#45;&gt;41 -->
<g id="edge81" class="edge"><title>11&#45;&gt;41</title>
<path fill="none" stroke="grey" stroke-width="2" d="M924.549,-870.596C982.208,-856.821 1082.89,-832.767 1137.03,-819.832"/>
<polygon fill="grey" stroke="grey" points="1137.99,-823.203 1146.9,-817.475 1136.36,-816.394 1137.99,-823.203"/>
</g>
<!-- 12&#45;&gt;11 -->
<g id="edge23" class="edge"><title>12&#45;&gt;11</title>
<path fill="none" stroke="grey" stroke-width="2" d="M802.441,-935.876C815.787,-926.893 832.324,-915.763 846.778,-906.034"/>
<polygon fill="grey" stroke="grey" points="849.119,-908.677 855.461,-900.19 845.211,-902.87 849.119,-908.677"/>
</g>
<!-- 13 -->
<g id="node14" class="node"><title>13</title>
<path fill="none" stroke="#56d8c1" stroke-width="2" d="M912,-972C912,-972 850,-972 850,-972 844,-972 838,-966 838,-960 838,-960 838,-948 838,-948 838,-942 844,-936 850,-936 850,-936 912,-936 912,-936 918,-936 924,-942 924,-948 924,-948 924,-960 924,-960 924,-966 918,-972 912,-972"/>
<text text-anchor="middle" x="881" y="-951.5" font-family="sans" font-size="10.00">salmon_quant</text>
</g>
<!-- 13&#45;&gt;11 -->
<g id="edge24" class="edge"><title>13&#45;&gt;11</title>
<path fill="none" stroke="grey" stroke-width="2" d="M881,-935.697C881,-927.983 881,-918.712 881,-910.112"/>
<polygon fill="grey" stroke="grey" points="884.5,-910.104 881,-900.104 877.5,-910.104 884.5,-910.104"/>
</g>
<!-- 14 -->
<g id="node15" class="node"><title>14</title>
<path fill="none" stroke="#70d856" stroke-width="2" d="M929,-1049.5C929,-1049.5 833,-1049.5 833,-1049.5 827,-1049.5 821,-1043.5 821,-1037.5 821,-1037.5 821,-1020.5 821,-1020.5 821,-1014.5 827,-1008.5 833,-1008.5 833,-1008.5 929,-1008.5 929,-1008.5 935,-1008.5 941,-1014.5 941,-1020.5 941,-1020.5 941,-1037.5 941,-1037.5 941,-1043.5 935,-1049.5 929,-1049.5"/>
<text text-anchor="middle" x="881" y="-1037.5" font-family="sans" font-size="10.00">download_fastq</text>
<text text-anchor="middle" x="881" y="-1026.5" font-family="sans" font-size="10.00">genotype: Rio</text>
<text text-anchor="middle" x="881" y="-1015.5" font-family="sans" font-size="10.00">sample: SRR6257146</text>
</g>
<!-- 14&#45;&gt;13 -->
<g id="edge27" class="edge"><title>14&#45;&gt;13</title>
<path fill="none" stroke="grey" stroke-width="2" d="M881,-1008.44C881,-1000.39 881,-990.933 881,-982.228"/>
<polygon fill="grey" stroke="grey" points="884.5,-982.13 881,-972.13 877.5,-982.13 884.5,-982.13"/>
</g>
<!-- 14&#45;&gt;28 -->
<g id="edge53" class="edge"><title>14&#45;&gt;28</title>
<path fill="none" stroke="grey" stroke-width="2" d="M820.863,-1022.96C786.723,-1016.67 746.607,-1002.71 725,-972 682.998,-912.296 786.279,-853.655 844.505,-826.567"/>
<polygon fill="grey" stroke="grey" points="846.129,-829.674 853.778,-822.342 843.227,-823.304 846.129,-829.674"/>
</g>
<!-- 29 -->
<g id="node30" class="node"><title>29</title>
<path fill="none" stroke="#d8a456" stroke-width="2" d="M1045,-900C1045,-900 1015,-900 1015,-900 1009,-900 1003,-894 1003,-888 1003,-888 1003,-876 1003,-876 1003,-870 1009,-864 1015,-864 1015,-864 1045,-864 1045,-864 1051,-864 1057,-870 1057,-876 1057,-876 1057,-888 1057,-888 1057,-894 1051,-900 1045,-900"/>
<text text-anchor="middle" x="1030" y="-879.5" font-family="sans" font-size="10.00">fastqc</text>
</g>
<!-- 14&#45;&gt;29 -->
<g id="edge55" class="edge"><title>14&#45;&gt;29</title>
<path fill="none" stroke="grey" stroke-width="2" d="M941.137,-1022.96C975.277,-1016.67 1015.39,-1002.71 1037,-972 1049.62,-954.055 1046.15,-928.743 1040.51,-909.698"/>
<polygon fill="grey" stroke="grey" points="1043.81,-908.513 1037.35,-900.115 1037.16,-910.709 1043.81,-908.513"/>
</g>
<!-- 15 -->
<g id="node16" class="node"><title>15</title>
<path fill="none" stroke="#56d8c1" stroke-width="2" d="M1016,-972C1016,-972 954,-972 954,-972 948,-972 942,-966 942,-960 942,-960 942,-948 942,-948 942,-942 948,-936 954,-936 954,-936 1016,-936 1016,-936 1022,-936 1028,-942 1028,-948 1028,-948 1028,-960 1028,-960 1028,-966 1022,-972 1016,-972"/>
<text text-anchor="middle" x="985" y="-951.5" font-family="sans" font-size="10.00">salmon_quant</text>
</g>
<!-- 15&#45;&gt;11 -->
<g id="edge25" class="edge"><title>15&#45;&gt;11</title>
<path fill="none" stroke="grey" stroke-width="2" d="M959.559,-935.876C946.213,-926.893 929.676,-915.763 915.222,-906.034"/>
<polygon fill="grey" stroke="grey" points="916.789,-902.87 906.539,-900.19 912.881,-908.677 916.789,-902.87"/>
</g>
<!-- 16 -->
<g id="node17" class="node"><title>16</title>
<path fill="none" stroke="#70d856" stroke-width="2" d="M1167,-1049.5C1167,-1049.5 1071,-1049.5 1071,-1049.5 1065,-1049.5 1059,-1043.5 1059,-1037.5 1059,-1037.5 1059,-1020.5 1059,-1020.5 1059,-1014.5 1065,-1008.5 1071,-1008.5 1071,-1008.5 1167,-1008.5 1167,-1008.5 1173,-1008.5 1179,-1014.5 1179,-1020.5 1179,-1020.5 1179,-1037.5 1179,-1037.5 1179,-1043.5 1173,-1049.5 1167,-1049.5"/>
<text text-anchor="middle" x="1119" y="-1037.5" font-family="sans" font-size="10.00">download_fastq</text>
<text text-anchor="middle" x="1119" y="-1026.5" font-family="sans" font-size="10.00">genotype: Rio</text>
<text text-anchor="middle" x="1119" y="-1015.5" font-family="sans" font-size="10.00">sample: SRR6257142</text>
</g>
<!-- 16&#45;&gt;15 -->
<g id="edge28" class="edge"><title>16&#45;&gt;15</title>
<path fill="none" stroke="grey" stroke-width="2" d="M1083.09,-1008.44C1065.32,-998.755 1043.79,-987.029 1025.44,-977.031"/>
<polygon fill="grey" stroke="grey" points="1026.9,-973.84 1016.44,-972.13 1023.55,-979.987 1026.9,-973.84"/>
</g>
<!-- 16&#45;&gt;41 -->
<g id="edge80" class="edge"><title>16&#45;&gt;41</title>
<path fill="none" stroke="grey" stroke-width="2" d="M1118.31,-1008.37C1117.84,-976.871 1119.57,-913.567 1138,-864 1141.57,-854.405 1147.22,-844.859 1153,-836.567"/>
<polygon fill="grey" stroke="grey" points="1155.88,-838.559 1158.99,-828.43 1150.25,-834.41 1155.88,-838.559"/>
</g>
<!-- 42 -->
<g id="node43" class="node"><title>42</title>
<path fill="none" stroke="#d8a456" stroke-width="2" d="M1189,-900C1189,-900 1159,-900 1159,-900 1153,-900 1147,-894 1147,-888 1147,-888 1147,-876 1147,-876 1147,-870 1153,-864 1159,-864 1159,-864 1189,-864 1189,-864 1195,-864 1201,-870 1201,-876 1201,-876 1201,-888 1201,-888 1201,-894 1195,-900 1189,-900"/>
<text text-anchor="middle" x="1174" y="-879.5" font-family="sans" font-size="10.00">fastqc</text>
</g>
<!-- 16&#45;&gt;42 -->
<g id="edge82" class="edge"><title>16&#45;&gt;42</title>
<path fill="none" stroke="grey" stroke-width="2" d="M1126.42,-1008.44C1136.07,-982.998 1152.98,-938.417 1163.82,-909.825"/>
<polygon fill="grey" stroke="grey" points="1167.11,-911.028 1167.39,-900.436 1160.57,-908.545 1167.11,-911.028"/>
</g>
<!-- 17 -->
<g id="node18" class="node"><title>17</title>
<path fill="none" stroke="#d86e56" stroke-width="2" d="M453.25,-612C453.25,-612 364.75,-612 364.75,-612 358.75,-612 352.75,-606 352.75,-600 352.75,-600 352.75,-588 352.75,-588 352.75,-582 358.75,-576 364.75,-576 364.75,-576 453.25,-576 453.25,-576 459.25,-576 465.25,-582 465.25,-588 465.25,-588 465.25,-600 465.25,-600 465.25,-606 459.25,-612 453.25,-612"/>
<text text-anchor="middle" x="409" y="-591.5" font-family="sans" font-size="10.00">split_kraken_output</text>
</g>
<!-- 17&#45;&gt;6 -->
<g id="edge17" class="edge"><title>17&#45;&gt;6</title>
<path fill="none" stroke="grey" stroke-width="2" d="M390.461,-575.697C381.197,-567.05 369.838,-556.449 359.743,-547.027"/>
<polygon fill="grey" stroke="grey" points="362.025,-544.369 352.326,-540.104 357.249,-549.486 362.025,-544.369"/>
</g>
<!-- 17&#45;&gt;20 -->
<g id="edge34" class="edge"><title>17&#45;&gt;20</title>
<path fill="none" stroke="grey" stroke-width="2" d="M414.685,-575.697C417.248,-567.898 420.333,-558.509 423.185,-549.829"/>
<polygon fill="grey" stroke="grey" points="426.584,-550.697 426.38,-540.104 419.933,-548.512 426.584,-550.697"/>
</g>
<!-- 17&#45;&gt;21 -->
<g id="edge36" class="edge"><title>17&#45;&gt;21</title>
<path fill="none" stroke="grey" stroke-width="2" d="M438.6,-575.876C454.567,-566.639 474.46,-555.131 491.606,-545.212"/>
<polygon fill="grey" stroke="grey" points="493.383,-548.227 500.286,-540.19 489.878,-542.168 493.383,-548.227"/>
</g>
<!-- 17&#45;&gt;22 -->
<g id="edge38" class="edge"><title>17&#45;&gt;22</title>
<path fill="none" stroke="grey" stroke-width="2" d="M352.569,-578.024C349.34,-577.305 346.133,-576.624 343,-576 234.343,-554.376 201.661,-566.099 90.1478,-540.014"/>
<polygon fill="grey" stroke="grey" points="90.7323,-536.555 80.1927,-537.635 89.1053,-543.363 90.7323,-536.555"/>
</g>
<!-- 17&#45;&gt;23 -->
<g id="edge40" class="edge"><title>17&#45;&gt;23</title>
<path fill="none" stroke="grey" stroke-width="2" d="M352.498,-578.346C349.287,-577.545 346.104,-576.758 343,-576 276.845,-559.849 257.06,-559.673 187.891,-540.109"/>
<polygon fill="grey" stroke="grey" points="188.844,-536.742 178.267,-537.354 186.917,-543.471 188.844,-536.742"/>
</g>
<!-- 17&#45;&gt;24 -->
<g id="edge42" class="edge"><title>17&#45;&gt;24</title>
<path fill="none" stroke="grey" stroke-width="2" d="M366.679,-575.876C342.198,-565.97 311.263,-553.453 285.637,-543.085"/>
<polygon fill="grey" stroke="grey" points="286.683,-539.732 276.101,-539.226 284.058,-546.221 286.683,-539.732"/>
</g>
<!-- 18&#45;&gt;17 -->
<g id="edge29" class="edge"><title>18&#45;&gt;17</title>
<path fill="none" stroke="grey" stroke-width="2" d="M430.079,-647.697C426.925,-639.813 423.122,-630.304 419.619,-621.546"/>
<polygon fill="grey" stroke="grey" points="422.805,-620.089 415.842,-612.104 416.306,-622.689 422.805,-620.089"/>
</g>
<!-- 19&#45;&gt;18 -->
<g id="edge30" class="edge"><title>19&#45;&gt;18</title>
<path fill="none" stroke="grey" stroke-width="2" d="M437,-719.697C437,-711.983 437,-702.712 437,-694.112"/>
<polygon fill="grey" stroke="grey" points="440.5,-694.104 437,-684.104 433.5,-694.104 440.5,-694.104"/>
</g>
<!-- 20&#45;&gt;5 -->
<g id="edge11" class="edge"><title>20&#45;&gt;5</title>
<path fill="none" stroke="grey" stroke-width="2" d="M419.888,-503.697C414.132,-495.474 407.138,-485.483 400.794,-476.421"/>
<polygon fill="grey" stroke="grey" points="403.575,-474.29 394.973,-468.104 397.84,-478.304 403.575,-474.29"/>
</g>
<!-- 21&#45;&gt;5 -->
<g id="edge12" class="edge"><title>21&#45;&gt;5</title>
<path fill="none" stroke="grey" stroke-width="2" d="M494.04,-503.876C471.43,-493.11 442.342,-479.258 419.61,-468.433"/>
<polygon fill="grey" stroke="grey" points="420.828,-465.137 410.294,-463.997 417.818,-471.457 420.828,-465.137"/>
</g>
<!-- 22&#45;&gt;5 -->
<g id="edge13" class="edge"><title>22&#45;&gt;5</title>
<path fill="none" stroke="grey" stroke-width="2" d="M80.2237,-506.488C83.1779,-505.594 86.1255,-504.753 89,-504 179.969,-480.175 289.559,-463.512 345.759,-455.817"/>
<polygon fill="grey" stroke="grey" points="346.499,-459.249 355.941,-454.442 345.562,-452.312 346.499,-459.249"/>
</g>
<!-- 23&#45;&gt;5 -->
<g id="edge14" class="edge"><title>23&#45;&gt;5</title>
<path fill="none" stroke="grey" stroke-width="2" d="M178.036,-506.855C181.062,-505.864 184.074,-504.902 187,-504 242.004,-487.044 306.581,-470.156 346.141,-460.148"/>
<polygon fill="grey" stroke="grey" points="347.038,-463.531 355.88,-457.695 345.328,-456.743 347.038,-463.531"/>
</g>
<!-- 24&#45;&gt;5 -->
<g id="edge15" class="edge"><title>24&#45;&gt;5</title>
<path fill="none" stroke="grey" stroke-width="2" d="M271.96,-503.876C294.57,-493.11 323.658,-479.258 346.39,-468.433"/>
<polygon fill="grey" stroke="grey" points="348.182,-471.457 355.706,-463.997 345.172,-465.137 348.182,-471.457"/>
</g>
<!-- 25 -->
<g id="node26" class="node"><title>25</title>
<path fill="none" stroke="#a7d856" stroke-width="2" d="M888,-468C888,-468 858,-468 858,-468 852,-468 846,-462 846,-456 846,-456 846,-444 846,-444 846,-438 852,-432 858,-432 858,-432 888,-432 888,-432 894,-432 900,-438 900,-444 900,-444 900,-456 900,-456 900,-462 894,-468 888,-468"/>
<text text-anchor="middle" x="873" y="-447.5" font-family="sans" font-size="10.00">merge</text>
</g>
<!-- 25&#45;&gt;4 -->
<g id="edge8" class="edge"><title>25&#45;&gt;4</title>
<path fill="none" stroke="grey" stroke-width="2" d="M866.079,-431.697C862.925,-423.813 859.122,-414.304 855.619,-405.546"/>
<polygon fill="grey" stroke="grey" points="858.805,-404.089 851.842,-396.104 852.306,-406.689 858.805,-404.089"/>
</g>
<!-- 25&#45;&gt;52 -->
<g id="edge100" class="edge"><title>25&#45;&gt;52</title>
<path fill="none" stroke="grey" stroke-width="2" d="M878.464,-431.713C886.353,-405.175 900,-352.672 900,-307 900,-307 900,-307 900,-233 900,-182.761 856.436,-139.517 824.139,-114.361"/>
<polygon fill="grey" stroke="grey" points="825.88,-111.289 815.79,-108.058 821.663,-116.876 825.88,-111.289"/>
</g>
<!-- 26 -->
<g id="node27" class="node"><title>26</title>
<path fill="none" stroke="#56d8a2" stroke-width="2" d="M950,-540C950,-540 894,-540 894,-540 888,-540 882,-534 882,-528 882,-528 882,-516 882,-516 882,-510 888,-504 894,-504 894,-504 950,-504 950,-504 956,-504 962,-510 962,-516 962,-516 962,-528 962,-528 962,-534 956,-540 950,-540"/>
<text text-anchor="middle" x="922" y="-525" font-family="sans" font-size="10.00">contfree_ngs</text>
<text text-anchor="middle" x="922" y="-514" font-family="sans" font-size="10.00">part: 00</text>
</g>
<!-- 26&#45;&gt;25 -->
<g id="edge43" class="edge"><title>26&#45;&gt;25</title>
<path fill="none" stroke="grey" stroke-width="2" d="M909.888,-503.697C904.132,-495.474 897.138,-485.483 890.794,-476.421"/>
<polygon fill="grey" stroke="grey" points="893.575,-474.29 884.973,-468.104 887.84,-478.304 893.575,-474.29"/>
</g>
<!-- 27 -->
<g id="node28" class="node"><title>27</title>
<path fill="none" stroke="#d6d856" stroke-width="2" d="M860,-612C860,-612 736,-612 736,-612 730,-612 724,-606 724,-600 724,-600 724,-588 724,-588 724,-582 730,-576 736,-576 736,-576 860,-576 860,-576 866,-576 872,-582 872,-588 872,-588 872,-600 872,-600 872,-606 866,-612 860,-612"/>
<text text-anchor="middle" x="798" y="-591.5" font-family="sans" font-size="10.00">create_index_contfree_ngs</text>
</g>
<!-- 27&#45;&gt;26 -->
<g id="edge49" class="edge"><title>27&#45;&gt;26</title>
<path fill="none" stroke="grey" stroke-width="2" d="M828.334,-575.876C844.697,-566.639 865.083,-555.131 882.654,-545.212"/>
<polygon fill="grey" stroke="grey" points="884.562,-548.154 891.55,-540.19 881.121,-542.058 884.562,-548.154"/>
</g>
<!-- 33 -->
<g id="node34" class="node"><title>33</title>
<path fill="none" stroke="#56d8a2" stroke-width="2" d="M1048,-540C1048,-540 992,-540 992,-540 986,-540 980,-534 980,-528 980,-528 980,-516 980,-516 980,-510 986,-504 992,-504 992,-504 1048,-504 1048,-504 1054,-504 1060,-510 1060,-516 1060,-516 1060,-528 1060,-528 1060,-534 1054,-540 1048,-540"/>
<text text-anchor="middle" x="1020" y="-525" font-family="sans" font-size="10.00">contfree_ngs</text>
<text text-anchor="middle" x="1020" y="-514" font-family="sans" font-size="10.00">part: 01</text>
</g>
<!-- 27&#45;&gt;33 -->
<g id="edge60" class="edge"><title>27&#45;&gt;33</title>
<path fill="none" stroke="grey" stroke-width="2" d="M855.439,-575.979C886.883,-566.528 926.735,-554.334 970.285,-540.182"/>
<polygon fill="grey" stroke="grey" points="971.508,-543.465 979.929,-537.036 969.337,-536.81 971.508,-543.465"/>
</g>
<!-- 34 -->
<g id="node35" class="node"><title>34</title>
<path fill="none" stroke="#56d8a2" stroke-width="2" d="M1146,-540C1146,-540 1090,-540 1090,-540 1084,-540 1078,-534 1078,-528 1078,-528 1078,-516 1078,-516 1078,-510 1084,-504 1090,-504 1090,-504 1146,-504 1146,-504 1152,-504 1158,-510 1158,-516 1158,-516 1158,-528 1158,-528 1158,-534 1152,-540 1146,-540"/>
<text text-anchor="middle" x="1118" y="-525" font-family="sans" font-size="10.00">contfree_ngs</text>
<text text-anchor="middle" x="1118" y="-514" font-family="sans" font-size="10.00">part: 02</text>
</g>
<!-- 27&#45;&gt;34 -->
<g id="edge62" class="edge"><title>27&#45;&gt;34</title>
<path fill="none" stroke="grey" stroke-width="2" d="M872.202,-577.753C875.173,-577.158 878.114,-576.572 881,-576 961.354,-560.078 985.076,-561.838 1067.92,-540.097"/>
<polygon fill="grey" stroke="grey" points="1069,-543.43 1077.77,-537.476 1067.2,-536.666 1069,-543.43"/>
</g>
<!-- 35 -->
<g id="node36" class="node"><title>35</title>
<path fill="none" stroke="#56d8a2" stroke-width="2" d="M656,-540C656,-540 600,-540 600,-540 594,-540 588,-534 588,-528 588,-528 588,-516 588,-516 588,-510 594,-504 600,-504 600,-504 656,-504 656,-504 662,-504 668,-510 668,-516 668,-516 668,-528 668,-528 668,-534 662,-540 656,-540"/>
<text text-anchor="middle" x="628" y="-525" font-family="sans" font-size="10.00">contfree_ngs</text>
<text text-anchor="middle" x="628" y="-514" font-family="sans" font-size="10.00">part: 03</text>
</g>
<!-- 27&#45;&gt;35 -->
<g id="edge64" class="edge"><title>27&#45;&gt;35</title>
<path fill="none" stroke="grey" stroke-width="2" d="M756.413,-575.876C732.618,-566.078 702.618,-553.725 677.6,-543.423"/>
<polygon fill="grey" stroke="grey" points="678.858,-540.156 668.278,-539.585 676.193,-546.629 678.858,-540.156"/>
</g>
<!-- 36 -->
<g id="node37" class="node"><title>36</title>
<path fill="none" stroke="#56d8a2" stroke-width="2" d="M754,-540C754,-540 698,-540 698,-540 692,-540 686,-534 686,-528 686,-528 686,-516 686,-516 686,-510 692,-504 698,-504 698,-504 754,-504 754,-504 760,-504 766,-510 766,-516 766,-516 766,-528 766,-528 766,-534 760,-540 754,-540"/>
<text text-anchor="middle" x="726" y="-525" font-family="sans" font-size="10.00">contfree_ngs</text>
<text text-anchor="middle" x="726" y="-514" font-family="sans" font-size="10.00">part: 04</text>
</g>
<!-- 27&#45;&gt;36 -->
<g id="edge66" class="edge"><title>27&#45;&gt;36</title>
<path fill="none" stroke="grey" stroke-width="2" d="M780.202,-575.697C771.396,-567.135 760.618,-556.656 750.999,-547.304"/>
<polygon fill="grey" stroke="grey" points="753.203,-544.566 743.593,-540.104 748.323,-549.585 753.203,-544.566"/>
</g>
<!-- 37 -->
<g id="node38" class="node"><title>37</title>
<path fill="none" stroke="#56d8a2" stroke-width="2" d="M852,-540C852,-540 796,-540 796,-540 790,-540 784,-534 784,-528 784,-528 784,-516 784,-516 784,-510 790,-504 796,-504 796,-504 852,-504 852,-504 858,-504 864,-510 864,-516 864,-516 864,-528 864,-528 864,-534 858,-540 852,-540"/>
<text text-anchor="middle" x="824" y="-525" font-family="sans" font-size="10.00">contfree_ngs</text>
<text text-anchor="middle" x="824" y="-514" font-family="sans" font-size="10.00">part: 05</text>
</g>
<!-- 27&#45;&gt;37 -->
<g id="edge68" class="edge"><title>27&#45;&gt;37</title>
<path fill="none" stroke="grey" stroke-width="2" d="M804.427,-575.697C807.355,-567.813 810.887,-558.304 814.14,-549.546"/>
<polygon fill="grey" stroke="grey" points="817.446,-550.697 817.647,-540.104 810.884,-548.26 817.446,-550.697"/>
</g>
<!-- 28&#45;&gt;27 -->
<g id="edge51" class="edge"><title>28&#45;&gt;27</title>
<path fill="none" stroke="grey" stroke-width="2" d="M853.993,-793.569C840.586,-784.431 825.481,-771.587 817,-756 793.938,-713.614 793.244,-655.791 795.301,-622.217"/>
<polygon fill="grey" stroke="grey" points="798.793,-622.45 796.041,-612.219 791.813,-621.934 798.793,-622.45"/>
</g>
<!-- 31 -->
<g id="node32" class="node"><title>31</title>
<path fill="none" stroke="#88d856" stroke-width="2" d="M962,-684C962,-684 932,-684 932,-684 926,-684 920,-678 920,-672 920,-672 920,-660 920,-660 920,-654 926,-648 932,-648 932,-648 962,-648 962,-648 968,-648 974,-654 974,-660 974,-660 974,-672 974,-672 974,-678 968,-684 962,-684"/>
<text text-anchor="middle" x="947" y="-663.5" font-family="sans" font-size="10.00">kraken</text>
</g>
<!-- 28&#45;&gt;31 -->
<g id="edge58" class="edge"><title>28&#45;&gt;31</title>
<path fill="none" stroke="grey" stroke-width="2" d="M908.283,-794.101C921.947,-785.04 937.206,-772.102 945,-756 954.288,-736.812 954.148,-712.465 952.043,-694.088"/>
<polygon fill="grey" stroke="grey" points="955.489,-693.458 950.633,-684.041 948.557,-694.431 955.489,-693.458"/>
</g>
<!-- 32 -->
<g id="node33" class="node"><title>32</title>
<path fill="none" stroke="#5673d8" stroke-width="2" d="M924,-756C924,-756 838,-756 838,-756 832,-756 826,-750 826,-744 826,-744 826,-732 826,-732 826,-726 832,-720 838,-720 838,-720 924,-720 924,-720 930,-720 936,-726 936,-732 936,-732 936,-744 936,-744 936,-750 930,-756 924,-756"/>
<text text-anchor="middle" x="881" y="-735.5" font-family="sans" font-size="10.00">fastqc_after_bbduk</text>
</g>
<!-- 28&#45;&gt;32 -->
<g id="edge59" class="edge"><title>28&#45;&gt;32</title>
<path fill="none" stroke="grey" stroke-width="2" d="M881,-791.697C881,-783.983 881,-774.712 881,-766.112"/>
<polygon fill="grey" stroke="grey" points="884.5,-766.104 881,-756.104 877.5,-766.104 884.5,-766.104"/>
</g>
<!-- 29&#45;&gt;28 -->
<g id="edge52" class="edge"><title>29&#45;&gt;28</title>
<path fill="none" stroke="grey" stroke-width="2" d="M1002.67,-868.161C978.727,-856.912 943.74,-840.475 917.423,-828.111"/>
<polygon fill="grey" stroke="grey" points="918.695,-824.842 908.156,-823.758 915.718,-831.178 918.695,-824.842"/>
</g>
<!-- 30 -->
<g id="node31" class="node"><title>30</title>
<path fill="none" stroke="#d86e56" stroke-width="2" d="M991.25,-612C991.25,-612 902.75,-612 902.75,-612 896.75,-612 890.75,-606 890.75,-600 890.75,-600 890.75,-588 890.75,-588 890.75,-582 896.75,-576 902.75,-576 902.75,-576 991.25,-576 991.25,-576 997.25,-576 1003.25,-582 1003.25,-588 1003.25,-588 1003.25,-600 1003.25,-600 1003.25,-606 997.25,-612 991.25,-612"/>
<text text-anchor="middle" x="947" y="-591.5" font-family="sans" font-size="10.00">split_kraken_output</text>
</g>
<!-- 30&#45;&gt;26 -->
<g id="edge50" class="edge"><title>30&#45;&gt;26</title>
<path fill="none" stroke="grey" stroke-width="2" d="M940.82,-575.697C938.005,-567.813 934.609,-558.304 931.481,-549.546"/>
<polygon fill="grey" stroke="grey" points="934.768,-548.345 928.109,-540.104 928.176,-550.699 934.768,-548.345"/>
</g>
<!-- 30&#45;&gt;33 -->
<g id="edge61" class="edge"><title>30&#45;&gt;33</title>
<path fill="none" stroke="grey" stroke-width="2" d="M965.045,-575.697C974.062,-567.05 985.118,-556.449 994.943,-547.027"/>
<polygon fill="grey" stroke="grey" points="997.367,-549.552 1002.16,-540.104 992.522,-544.499 997.367,-549.552"/>
</g>
<!-- 30&#45;&gt;34 -->
<g id="edge63" class="edge"><title>30&#45;&gt;34</title>
<path fill="none" stroke="grey" stroke-width="2" d="M988.831,-575.876C1012.85,-566.042 1043.16,-553.635 1068.38,-543.31"/>
<polygon fill="grey" stroke="grey" points="1069.85,-546.493 1077.78,-539.465 1067.2,-540.014 1069.85,-546.493"/>
</g>
<!-- 30&#45;&gt;35 -->
<g id="edge65" class="edge"><title>30&#45;&gt;35</title>
<path fill="none" stroke="grey" stroke-width="2" d="M890.543,-578.151C887.32,-577.399 884.122,-576.677 881,-576 794.096,-557.169 767.886,-562.737 678.007,-540.042"/>
<polygon fill="grey" stroke="grey" points="678.777,-536.626 668.221,-537.524 677.033,-543.405 678.777,-536.626"/>
</g>
<!-- 30&#45;&gt;36 -->
<g id="edge67" class="edge"><title>30&#45;&gt;36</title>
<path fill="none" stroke="grey" stroke-width="2" d="M890.681,-576.189C859.32,-566.702 819.365,-554.41 775.734,-540.192"/>
<polygon fill="grey" stroke="grey" points="776.665,-536.814 766.073,-537.031 774.489,-543.467 776.665,-536.814"/>
</g>
<!-- 30&#45;&gt;37 -->
<g id="edge69" class="edge"><title>30&#45;&gt;37</title>
<path fill="none" stroke="grey" stroke-width="2" d="M916.911,-575.876C900.68,-566.639 880.458,-555.131 863.029,-545.212"/>
<polygon fill="grey" stroke="grey" points="864.627,-542.094 854.205,-540.19 861.165,-548.178 864.627,-542.094"/>
</g>
<!-- 31&#45;&gt;30 -->
<g id="edge56" class="edge"><title>31&#45;&gt;30</title>
<path fill="none" stroke="grey" stroke-width="2" d="M947,-647.697C947,-639.983 947,-630.712 947,-622.112"/>
<polygon fill="grey" stroke="grey" points="950.5,-622.104 947,-612.104 943.5,-622.104 950.5,-622.104"/>
</g>
<!-- 32&#45;&gt;31 -->
<g id="edge57" class="edge"><title>32&#45;&gt;31</title>
<path fill="none" stroke="grey" stroke-width="2" d="M897.315,-719.697C905.307,-711.22 915.072,-700.864 923.822,-691.583"/>
<polygon fill="grey" stroke="grey" points="926.559,-693.781 930.873,-684.104 921.466,-688.979 926.559,-693.781"/>
</g>
<!-- 33&#45;&gt;25 -->
<g id="edge44" class="edge"><title>33&#45;&gt;25</title>
<path fill="none" stroke="grey" stroke-width="2" d="M984.04,-503.876C961.43,-493.11 932.342,-479.258 909.61,-468.433"/>
<polygon fill="grey" stroke="grey" points="910.828,-465.137 900.294,-463.997 907.818,-471.457 910.828,-465.137"/>
</g>
<!-- 34&#45;&gt;25 -->
<g id="edge45" class="edge"><title>34&#45;&gt;25</title>
<path fill="none" stroke="grey" stroke-width="2" d="M1077.96,-506.855C1074.94,-505.864 1071.93,-504.902 1069,-504 1014,-487.044 949.419,-470.156 909.859,-460.148"/>
<polygon fill="grey" stroke="grey" points="910.672,-456.743 900.12,-457.695 908.962,-463.531 910.672,-456.743"/>
</g>
<!-- 35&#45;&gt;25 -->
<g id="edge46" class="edge"><title>35&#45;&gt;25</title>
<path fill="none" stroke="grey" stroke-width="2" d="M668.036,-506.855C671.062,-505.864 674.074,-504.902 677,-504 732.004,-487.044 796.581,-470.156 836.141,-460.148"/>
<polygon fill="grey" stroke="grey" points="837.038,-463.531 845.88,-457.695 835.328,-456.743 837.038,-463.531"/>
</g>
<!-- 36&#45;&gt;25 -->
<g id="edge47" class="edge"><title>36&#45;&gt;25</title>
<path fill="none" stroke="grey" stroke-width="2" d="M761.96,-503.876C784.57,-493.11 813.658,-479.258 836.39,-468.433"/>
<polygon fill="grey" stroke="grey" points="838.182,-471.457 845.706,-463.997 835.172,-465.137 838.182,-471.457"/>
</g>
<!-- 37&#45;&gt;25 -->
<g id="edge48" class="edge"><title>37&#45;&gt;25</title>
<path fill="none" stroke="grey" stroke-width="2" d="M836.112,-503.697C841.868,-495.474 848.862,-485.483 855.206,-476.421"/>
<polygon fill="grey" stroke="grey" points="858.16,-478.304 861.027,-468.104 852.425,-474.29 858.16,-478.304"/>
</g>
<!-- 38 -->
<g id="node39" class="node"><title>38</title>
<path fill="none" stroke="#a7d856" stroke-width="2" d="M1378,-468C1378,-468 1348,-468 1348,-468 1342,-468 1336,-462 1336,-456 1336,-456 1336,-444 1336,-444 1336,-438 1342,-432 1348,-432 1348,-432 1378,-432 1378,-432 1384,-432 1390,-438 1390,-444 1390,-444 1390,-456 1390,-456 1390,-462 1384,-468 1378,-468"/>
<text text-anchor="middle" x="1363" y="-447.5" font-family="sans" font-size="10.00">merge</text>
</g>
<!-- 38&#45;&gt;4 -->
<g id="edge9" class="edge"><title>38&#45;&gt;4</title>
<path fill="none" stroke="grey" stroke-width="2" d="M1335.88,-445.335C1249.61,-433.678 981.421,-397.435 882.308,-384.042"/>
<polygon fill="grey" stroke="grey" points="882.542,-380.542 872.164,-382.671 881.605,-387.479 882.542,-380.542"/>
</g>
<!-- 38&#45;&gt;52 -->
<g id="edge101" class="edge"><title>38&#45;&gt;52</title>
<path fill="none" stroke="grey" stroke-width="2" d="M1335.59,-444.079C1278.06,-432.005 1150,-395.22 1150,-307 1150,-307 1150,-307 1150,-233 1150,-174.933 985.873,-130.542 879.259,-107.832"/>
<polygon fill="grey" stroke="grey" points="879.955,-104.402 869.449,-105.768 878.515,-111.252 879.955,-104.402"/>
</g>
<!-- 39 -->
<g id="node40" class="node"><title>39</title>
<path fill="none" stroke="#56d8a2" stroke-width="2" d="M1538,-540C1538,-540 1482,-540 1482,-540 1476,-540 1470,-534 1470,-528 1470,-528 1470,-516 1470,-516 1470,-510 1476,-504 1482,-504 1482,-504 1538,-504 1538,-504 1544,-504 1550,-510 1550,-516 1550,-516 1550,-528 1550,-528 1550,-534 1544,-540 1538,-540"/>
<text text-anchor="middle" x="1510" y="-525" font-family="sans" font-size="10.00">contfree_ngs</text>
<text text-anchor="middle" x="1510" y="-514" font-family="sans" font-size="10.00">part: 00</text>
</g>
<!-- 39&#45;&gt;38 -->
<g id="edge70" class="edge"><title>39&#45;&gt;38</title>
<path fill="none" stroke="grey" stroke-width="2" d="M1474.04,-503.876C1451.43,-493.11 1422.34,-479.258 1399.61,-468.433"/>
<polygon fill="grey" stroke="grey" points="1400.83,-465.137 1390.29,-463.997 1397.82,-471.457 1400.83,-465.137"/>
</g>
<!-- 40 -->
<g id="node41" class="node"><title>40</title>
<path fill="none" stroke="#d6d856" stroke-width="2" d="M1399,-612C1399,-612 1275,-612 1275,-612 1269,-612 1263,-606 1263,-600 1263,-600 1263,-588 1263,-588 1263,-582 1269,-576 1275,-576 1275,-576 1399,-576 1399,-576 1405,-576 1411,-582 1411,-588 1411,-588 1411,-600 1411,-600 1411,-606 1405,-612 1399,-612"/>
<text text-anchor="middle" x="1337" y="-591.5" font-family="sans" font-size="10.00">create_index_contfree_ngs</text>
</g>
<!-- 40&#45;&gt;39 -->
<g id="edge76" class="edge"><title>40&#45;&gt;39</title>
<path fill="none" stroke="grey" stroke-width="2" d="M1379.32,-575.876C1403.8,-565.97 1434.74,-553.453 1460.36,-543.085"/>
<polygon fill="grey" stroke="grey" points="1461.94,-546.221 1469.9,-539.226 1459.32,-539.732 1461.94,-546.221"/>
</g>
<!-- 46 -->
<g id="node47" class="node"><title>46</title>
<path fill="none" stroke="#56d8a2" stroke-width="2" d="M1636,-540C1636,-540 1580,-540 1580,-540 1574,-540 1568,-534 1568,-528 1568,-528 1568,-516 1568,-516 1568,-510 1574,-504 1580,-504 1580,-504 1636,-504 1636,-504 1642,-504 1648,-510 1648,-516 1648,-516 1648,-528 1648,-528 1648,-534 1642,-540 1636,-540"/>
<text text-anchor="middle" x="1608" y="-525" font-family="sans" font-size="10.00">contfree_ngs</text>
<text text-anchor="middle" x="1608" y="-514" font-family="sans" font-size="10.00">part: 01</text>
</g>
<!-- 40&#45;&gt;46 -->
<g id="edge87" class="edge"><title>40&#45;&gt;46</title>
<path fill="none" stroke="grey" stroke-width="2" d="M1411.23,-577.221C1452.14,-568.07 1503.96,-555.739 1558.2,-540.097"/>
<polygon fill="grey" stroke="grey" points="1559.37,-543.401 1567.99,-537.244 1557.41,-536.68 1559.37,-543.401"/>
</g>
<!-- 47 -->
<g id="node48" class="node"><title>47</title>
<path fill="none" stroke="#56d8a2" stroke-width="2" d="M1734,-540C1734,-540 1678,-540 1678,-540 1672,-540 1666,-534 1666,-528 1666,-528 1666,-516 1666,-516 1666,-510 1672,-504 1678,-504 1678,-504 1734,-504 1734,-504 1740,-504 1746,-510 1746,-516 1746,-516 1746,-528 1746,-528 1746,-534 1740,-540 1734,-540"/>
<text text-anchor="middle" x="1706" y="-525" font-family="sans" font-size="10.00">contfree_ngs</text>
<text text-anchor="middle" x="1706" y="-514" font-family="sans" font-size="10.00">part: 02</text>
</g>
<!-- 40&#45;&gt;47 -->
<g id="edge89" class="edge"><title>40&#45;&gt;47</title>
<path fill="none" stroke="grey" stroke-width="2" d="M1411.18,-577.611C1414.15,-577.056 1417.1,-576.516 1420,-576 1521.71,-557.871 1551.77,-565.092 1655.83,-540.044"/>
<polygon fill="grey" stroke="grey" points="1656.92,-543.381 1665.8,-537.602 1655.25,-536.582 1656.92,-543.381"/>
</g>
<!-- 48 -->
<g id="node49" class="node"><title>48</title>
<path fill="none" stroke="#56d8a2" stroke-width="2" d="M1244,-540C1244,-540 1188,-540 1188,-540 1182,-540 1176,-534 1176,-528 1176,-528 1176,-516 1176,-516 1176,-510 1182,-504 1188,-504 1188,-504 1244,-504 1244,-504 1250,-504 1256,-510 1256,-516 1256,-516 1256,-528 1256,-528 1256,-534 1250,-540 1244,-540"/>
<text text-anchor="middle" x="1216" y="-525" font-family="sans" font-size="10.00">contfree_ngs</text>
<text text-anchor="middle" x="1216" y="-514" font-family="sans" font-size="10.00">part: 03</text>
</g>
<!-- 40&#45;&gt;48 -->
<g id="edge91" class="edge"><title>40&#45;&gt;48</title>
<path fill="none" stroke="grey" stroke-width="2" d="M1307.4,-575.876C1291.43,-566.639 1271.54,-555.131 1254.39,-545.212"/>
<polygon fill="grey" stroke="grey" points="1256.12,-542.168 1245.71,-540.19 1252.62,-548.227 1256.12,-542.168"/>
</g>
<!-- 49 -->
<g id="node50" class="node"><title>49</title>
<path fill="none" stroke="#56d8a2" stroke-width="2" d="M1342,-540C1342,-540 1286,-540 1286,-540 1280,-540 1274,-534 1274,-528 1274,-528 1274,-516 1274,-516 1274,-510 1280,-504 1286,-504 1286,-504 1342,-504 1342,-504 1348,-504 1354,-510 1354,-516 1354,-516 1354,-528 1354,-528 1354,-534 1348,-540 1342,-540"/>
<text text-anchor="middle" x="1314" y="-525" font-family="sans" font-size="10.00">contfree_ngs</text>
<text text-anchor="middle" x="1314" y="-514" font-family="sans" font-size="10.00">part: 04</text>
</g>
<!-- 40&#45;&gt;49 -->
<g id="edge93" class="edge"><title>40&#45;&gt;49</title>
<path fill="none" stroke="grey" stroke-width="2" d="M1331.31,-575.697C1328.75,-567.898 1325.67,-558.509 1322.82,-549.829"/>
<polygon fill="grey" stroke="grey" points="1326.07,-548.512 1319.62,-540.104 1319.42,-550.697 1326.07,-548.512"/>
</g>
<!-- 50 -->
<g id="node51" class="node"><title>50</title>
<path fill="none" stroke="#56d8a2" stroke-width="2" d="M1440,-540C1440,-540 1384,-540 1384,-540 1378,-540 1372,-534 1372,-528 1372,-528 1372,-516 1372,-516 1372,-510 1378,-504 1384,-504 1384,-504 1440,-504 1440,-504 1446,-504 1452,-510 1452,-516 1452,-516 1452,-528 1452,-528 1452,-534 1446,-540 1440,-540"/>
<text text-anchor="middle" x="1412" y="-525" font-family="sans" font-size="10.00">contfree_ngs</text>
<text text-anchor="middle" x="1412" y="-514" font-family="sans" font-size="10.00">part: 05</text>
</g>
<!-- 40&#45;&gt;50 -->
<g id="edge95" class="edge"><title>40&#45;&gt;50</title>
<path fill="none" stroke="grey" stroke-width="2" d="M1355.54,-575.697C1364.8,-567.05 1376.16,-556.449 1386.26,-547.027"/>
<polygon fill="grey" stroke="grey" points="1388.75,-549.486 1393.67,-540.104 1383.98,-544.369 1388.75,-549.486"/>
</g>
<!-- 41&#45;&gt;40 -->
<g id="edge78" class="edge"><title>41&#45;&gt;40</title>
<path fill="none" stroke="grey" stroke-width="2" d="M1174.47,-791.768C1175.69,-772.934 1179.75,-742.452 1193,-720 1218.95,-676.031 1265.89,-639.674 1299.12,-617.714"/>
<polygon fill="grey" stroke="grey" points="1301.18,-620.549 1307.67,-612.177 1297.37,-614.673 1301.18,-620.549"/>
</g>
<!-- 44 -->
<g id="node45" class="node"><title>44</title>
<path fill="none" stroke="#88d856" stroke-width="2" d="M1355,-684C1355,-684 1325,-684 1325,-684 1319,-684 1313,-678 1313,-672 1313,-672 1313,-660 1313,-660 1313,-654 1319,-648 1325,-648 1325,-648 1355,-648 1355,-648 1361,-648 1367,-654 1367,-660 1367,-660 1367,-672 1367,-672 1367,-678 1361,-684 1355,-684"/>
<text text-anchor="middle" x="1340" y="-663.5" font-family="sans" font-size="10.00">kraken</text>
</g>
<!-- 41&#45;&gt;44 -->
<g id="edge85" class="edge"><title>41&#45;&gt;44</title>
<path fill="none" stroke="grey" stroke-width="2" d="M1201.18,-806.981C1234.51,-802.996 1290.32,-791.156 1321,-756 1335.73,-739.126 1339.97,-713.652 1340.82,-694.275"/>
<polygon fill="grey" stroke="grey" points="1344.32,-694.289 1341,-684.23 1337.33,-694.169 1344.32,-694.289"/>
</g>
<!-- 45 -->
<g id="node46" class="node"><title>45</title>
<path fill="none" stroke="#5673d8" stroke-width="2" d="M1300,-756C1300,-756 1214,-756 1214,-756 1208,-756 1202,-750 1202,-744 1202,-744 1202,-732 1202,-732 1202,-726 1208,-720 1214,-720 1214,-720 1300,-720 1300,-720 1306,-720 1312,-726 1312,-732 1312,-732 1312,-744 1312,-744 1312,-750 1306,-756 1300,-756"/>
<text text-anchor="middle" x="1257" y="-735.5" font-family="sans" font-size="10.00">fastqc_after_bbduk</text>
</g>
<!-- 41&#45;&gt;45 -->
<g id="edge86" class="edge"><title>41&#45;&gt;45</title>
<path fill="none" stroke="grey" stroke-width="2" d="M1194.52,-791.697C1204.87,-782.965 1217.59,-772.24 1228.84,-762.75"/>
<polygon fill="grey" stroke="grey" points="1231.33,-765.227 1236.72,-756.104 1226.82,-759.876 1231.33,-765.227"/>
</g>
<!-- 42&#45;&gt;41 -->
<g id="edge79" class="edge"><title>42&#45;&gt;41</title>
<path fill="none" stroke="grey" stroke-width="2" d="M1174,-863.697C1174,-855.983 1174,-846.712 1174,-838.112"/>
<polygon fill="grey" stroke="grey" points="1177.5,-838.104 1174,-828.104 1170.5,-838.104 1177.5,-838.104"/>
</g>
<!-- 43 -->
<g id="node44" class="node"><title>43</title>
<path fill="none" stroke="#d86e56" stroke-width="2" d="M1530.25,-612C1530.25,-612 1441.75,-612 1441.75,-612 1435.75,-612 1429.75,-606 1429.75,-600 1429.75,-600 1429.75,-588 1429.75,-588 1429.75,-582 1435.75,-576 1441.75,-576 1441.75,-576 1530.25,-576 1530.25,-576 1536.25,-576 1542.25,-582 1542.25,-588 1542.25,-588 1542.25,-600 1542.25,-600 1542.25,-606 1536.25,-612 1530.25,-612"/>
<text text-anchor="middle" x="1486" y="-591.5" font-family="sans" font-size="10.00">split_kraken_output</text>
</g>
<!-- 43&#45;&gt;39 -->
<g id="edge77" class="edge"><title>43&#45;&gt;39</title>
<path fill="none" stroke="grey" stroke-width="2" d="M1491.93,-575.697C1494.61,-567.898 1497.83,-558.509 1500.8,-549.829"/>
<polygon fill="grey" stroke="grey" points="1504.2,-550.699 1504.14,-540.104 1497.58,-548.429 1504.2,-550.699"/>
</g>
<!-- 43&#45;&gt;46 -->
<g id="edge88" class="edge"><title>43&#45;&gt;46</title>
<path fill="none" stroke="grey" stroke-width="2" d="M1515.84,-575.876C1531.94,-566.639 1552,-555.131 1569.29,-545.212"/>
<polygon fill="grey" stroke="grey" points="1571.11,-548.202 1578.04,-540.19 1567.63,-542.131 1571.11,-548.202"/>
</g>
<!-- 43&#45;&gt;47 -->
<g id="edge90" class="edge"><title>43&#45;&gt;47</title>
<path fill="none" stroke="grey" stroke-width="2" d="M1542.37,-576.045C1573.5,-566.563 1613.06,-554.319 1656.34,-540.17"/>
<polygon fill="grey" stroke="grey" points="1657.51,-543.468 1665.93,-537.025 1655.33,-536.817 1657.51,-543.468"/>
</g>
<!-- 43&#45;&gt;48 -->
<g id="edge92" class="edge"><title>43&#45;&gt;48</title>
<path fill="none" stroke="grey" stroke-width="2" d="M1429.5,-578.352C1426.29,-577.549 1423.1,-576.76 1420,-576 1354.39,-559.934 1334.7,-559.613 1266.03,-540.142"/>
<polygon fill="grey" stroke="grey" points="1266.58,-536.66 1256,-537.264 1264.65,-543.388 1266.58,-536.66"/>
</g>
<!-- 43&#45;&gt;49 -->
<g id="edge94" class="edge"><title>43&#45;&gt;49</title>
<path fill="none" stroke="grey" stroke-width="2" d="M1443.92,-575.876C1419.67,-566.006 1389.05,-553.544 1363.63,-543.197"/>
<polygon fill="grey" stroke="grey" points="1364.74,-539.873 1354.16,-539.345 1362.11,-546.357 1364.74,-539.873"/>
</g>
<!-- 43&#45;&gt;50 -->
<g id="edge96" class="edge"><title>43&#45;&gt;50</title>
<path fill="none" stroke="grey" stroke-width="2" d="M1467.71,-575.697C1458.57,-567.05 1447.36,-556.449 1437.4,-547.027"/>
<polygon fill="grey" stroke="grey" points="1439.75,-544.434 1430.08,-540.104 1434.94,-549.519 1439.75,-544.434"/>
</g>
<!-- 44&#45;&gt;43 -->
<g id="edge83" class="edge"><title>44&#45;&gt;43</title>
<path fill="none" stroke="grey" stroke-width="2" d="M1367.12,-651.998C1387.96,-642.006 1417.19,-627.991 1441.45,-616.36"/>
<polygon fill="grey" stroke="grey" points="1442.97,-619.511 1450.48,-612.032 1439.95,-613.199 1442.97,-619.511"/>
</g>
<!-- 45&#45;&gt;44 -->
<g id="edge84" class="edge"><title>45&#45;&gt;44</title>
<path fill="none" stroke="grey" stroke-width="2" d="M1277.52,-719.697C1287.87,-710.965 1300.59,-700.24 1311.84,-690.75"/>
<polygon fill="grey" stroke="grey" points="1314.33,-693.227 1319.72,-684.104 1309.82,-687.876 1314.33,-693.227"/>
</g>
<!-- 46&#45;&gt;38 -->
<g id="edge71" class="edge"><title>46&#45;&gt;38</title>
<path fill="none" stroke="grey" stroke-width="2" d="M1567.96,-506.855C1564.94,-505.864 1561.93,-504.902 1559,-504 1504,-487.044 1439.42,-470.156 1399.86,-460.148"/>
<polygon fill="grey" stroke="grey" points="1400.67,-456.743 1390.12,-457.695 1398.96,-463.531 1400.67,-456.743"/>
</g>
<!-- 47&#45;&gt;38 -->
<g id="edge72" class="edge"><title>47&#45;&gt;38</title>
<path fill="none" stroke="grey" stroke-width="2" d="M1665.78,-506.488C1662.82,-505.594 1659.87,-504.753 1657,-504 1566.03,-480.175 1456.44,-463.512 1400.24,-455.817"/>
<polygon fill="grey" stroke="grey" points="1400.44,-452.312 1390.06,-454.442 1399.5,-459.249 1400.44,-452.312"/>
</g>
<!-- 48&#45;&gt;38 -->
<g id="edge73" class="edge"><title>48&#45;&gt;38</title>
<path fill="none" stroke="grey" stroke-width="2" d="M1251.96,-503.876C1274.57,-493.11 1303.66,-479.258 1326.39,-468.433"/>
<polygon fill="grey" stroke="grey" points="1328.18,-471.457 1335.71,-463.997 1325.17,-465.137 1328.18,-471.457"/>
</g>
<!-- 49&#45;&gt;38 -->
<g id="edge74" class="edge"><title>49&#45;&gt;38</title>
<path fill="none" stroke="grey" stroke-width="2" d="M1326.11,-503.697C1331.87,-495.474 1338.86,-485.483 1345.21,-476.421"/>
<polygon fill="grey" stroke="grey" points="1348.16,-478.304 1351.03,-468.104 1342.42,-474.29 1348.16,-478.304"/>
</g>
<!-- 50&#45;&gt;38 -->
<g id="edge75" class="edge"><title>50&#45;&gt;38</title>
<path fill="none" stroke="grey" stroke-width="2" d="M1399.89,-503.697C1394.13,-495.474 1387.14,-485.483 1380.79,-476.421"/>
<polygon fill="grey" stroke="grey" points="1383.58,-474.29 1374.97,-468.104 1377.84,-478.304 1383.58,-474.29"/>
</g>
<!-- 51&#45;&gt;0 -->
<g id="edge2" class="edge"><title>51&#45;&gt;0</title>
<path fill="none" stroke="grey" stroke-width="2" d="M595,-143.871C595,-119.67 595,-75.2108 595,-46.3932"/>
<polygon fill="grey" stroke="grey" points="598.5,-46.1892 595,-36.1893 591.5,-46.1893 598.5,-46.1892"/>
</g>
<!-- 52&#45;&gt;0 -->
<g id="edge3" class="edge"><title>52&#45;&gt;0</title>
<path fill="none" stroke="grey" stroke-width="2" d="M742.298,-71.8761C708.214,-59.641 663.032,-43.4219 631.738,-32.188"/>
<polygon fill="grey" stroke="grey" points="632.692,-28.8117 622.097,-28.7272 630.327,-35.4001 632.692,-28.8117"/>
</g>
<!-- 53&#45;&gt;52 -->
<g id="edge98" class="edge"><title>53&#45;&gt;52</title>
<path fill="none" stroke="grey" stroke-width="2" d="M724.506,-143.697C735.463,-134.881 748.946,-124.032 760.825,-114.474"/>
<polygon fill="grey" stroke="grey" points="763.145,-117.1 768.742,-108.104 758.756,-111.646 763.145,-117.1"/>
</g>
</g>
</svg>
