<?xml version="1.0" encoding="UTF-8" standalone="no"?>
<!DOCTYPE svg PUBLIC "-//W3C//DTD SVG 1.1//EN"
 "http://www.w3.org/Graphics/SVG/1.1/DTD/svg11.dtd">
<!-- Generated by graphviz version 2.30.1 (20201013.1554)
 -->
<!-- Title: snakemake_dag Pages: 1 -->
<svg width="1848pt" height="914pt"
 viewBox="0.00 0.00 1848.00 914.00" xmlns="http://www.w3.org/2000/svg" xmlns:xlink="http://www.w3.org/1999/xlink">
<g id="graph0" class="graph" transform="scale(1 1) rotate(0) translate(4 910)">
<title>snakemake_dag</title>
<polygon fill="white" stroke="white" points="-4,5 -4,-910 1845,-910 1845,5 -4,5"/>
<!-- 0 -->
<g id="node1" class="node"><title>0</title>
<path fill="none" stroke="#5692d8" stroke-width="2" d="M640,-36C640,-36 610,-36 610,-36 604,-36 598,-30 598,-24 598,-24 598,-12 598,-12 598,-6 604,-0 610,-0 610,-0 640,-0 640,-0 646,-0 652,-6 652,-12 652,-12 652,-24 652,-24 652,-30 646,-36 640,-36"/>
<text text-anchor="middle" x="625" y="-15.5" font-family="sans" font-size="10.00">all</text>
</g>
<!-- 1 -->
<g id="node2" class="node"><title>1</title>
<path fill="none" stroke="#d89556" stroke-width="2" d="M288,-396C288,-396 258,-396 258,-396 252,-396 246,-390 246,-384 246,-384 246,-372 246,-372 246,-366 252,-360 258,-360 258,-360 288,-360 288,-360 294,-360 300,-366 300,-372 300,-372 300,-384 300,-384 300,-390 294,-396 288,-396"/>
<text text-anchor="middle" x="273" y="-375.5" font-family="sans" font-size="10.00">fastqc</text>
</g>
<!-- 1&#45;&gt;0 -->
<g id="edge1" class="edge"><title>1&#45;&gt;0</title>
<path fill="none" stroke="grey" stroke-width="2" d="M300.382,-373.013C360.757,-362.516 500,-328.203 500,-235 500,-235 500,-235 500,-161 500,-106.573 552.378,-63.1079 589.324,-39.2192"/>
<polygon fill="grey" stroke="grey" points="591.264,-42.1337 597.877,-33.8557 587.545,-36.2032 591.264,-42.1337"/>
</g>
<!-- 2 -->
<g id="node3" class="node"><title>2</title>
<path fill="none" stroke="#d8b456" stroke-width="2" d="M642,-905.5C642,-905.5 546,-905.5 546,-905.5 540,-905.5 534,-899.5 534,-893.5 534,-893.5 534,-876.5 534,-876.5 534,-870.5 540,-864.5 546,-864.5 546,-864.5 642,-864.5 642,-864.5 648,-864.5 654,-870.5 654,-876.5 654,-876.5 654,-893.5 654,-893.5 654,-899.5 648,-905.5 642,-905.5"/>
<text text-anchor="middle" x="594" y="-893.5" font-family="sans" font-size="10.00">download_fastq</text>
<text text-anchor="middle" x="594" y="-882.5" font-family="sans" font-size="10.00">genotype: Rio</text>
<text text-anchor="middle" x="594" y="-871.5" font-family="sans" font-size="10.00">sample: SRR6257144</text>
</g>
<!-- 2&#45;&gt;1 -->
<g id="edge7" class="edge"><title>2&#45;&gt;1</title>
<path fill="none" stroke="grey" stroke-width="2" d="M533.97,-881.045C390.201,-872.335 38,-840.627 38,-739 38,-739 38,-739 38,-521 38,-429.826 169.181,-395.624 235.522,-384.158"/>
<polygon fill="grey" stroke="grey" points="236.281,-387.58 245.583,-382.507 235.148,-380.672 236.281,-387.58"/>
</g>
<!-- 14 -->
<g id="node15" class="node"><title>14</title>
<path fill="none" stroke="#56d8c1" stroke-width="2" d="M855,-828C855,-828 825,-828 825,-828 819,-828 813,-822 813,-816 813,-816 813,-804 813,-804 813,-798 819,-792 825,-792 825,-792 855,-792 855,-792 861,-792 867,-798 867,-804 867,-804 867,-816 867,-816 867,-822 861,-828 855,-828"/>
<text text-anchor="middle" x="840" y="-807.5" font-family="sans" font-size="10.00">bbduk</text>
</g>
<!-- 2&#45;&gt;14 -->
<g id="edge25" class="edge"><title>2&#45;&gt;14</title>
<path fill="none" stroke="grey" stroke-width="2" d="M654.178,-866.142C700.762,-852.319 763.778,-833.619 803.146,-821.936"/>
<polygon fill="grey" stroke="grey" points="804.272,-825.253 812.863,-819.053 802.281,-818.542 804.272,-825.253"/>
</g>
<!-- 3 -->
<g id="node4" class="node"><title>3</title>
<path fill="none" stroke="#d89556" stroke-width="2" d="M1551,-324C1551,-324 1521,-324 1521,-324 1515,-324 1509,-318 1509,-312 1509,-312 1509,-300 1509,-300 1509,-294 1515,-288 1521,-288 1521,-288 1551,-288 1551,-288 1557,-288 1563,-294 1563,-300 1563,-300 1563,-312 1563,-312 1563,-318 1557,-324 1551,-324"/>
<text text-anchor="middle" x="1536" y="-303.5" font-family="sans" font-size="10.00">fastqc</text>
</g>
<!-- 3&#45;&gt;0 -->
<g id="edge2" class="edge"><title>3&#45;&gt;0</title>
<path fill="none" stroke="grey" stroke-width="2" d="M1508.76,-289.74C1451.67,-258.329 1314.61,-185.888 1192,-144 1053.64,-96.7327 1013.8,-103.397 871,-72 797.061,-55.7431 710.506,-37.2107 662.292,-26.9321"/>
<polygon fill="grey" stroke="grey" points="662.828,-23.4678 652.318,-24.807 661.369,-30.3141 662.828,-23.4678"/>
</g>
<!-- 4 -->
<g id="node5" class="node"><title>4</title>
<path fill="none" stroke="#d8b456" stroke-width="2" d="M1818,-905.5C1818,-905.5 1722,-905.5 1722,-905.5 1716,-905.5 1710,-899.5 1710,-893.5 1710,-893.5 1710,-876.5 1710,-876.5 1710,-870.5 1716,-864.5 1722,-864.5 1722,-864.5 1818,-864.5 1818,-864.5 1824,-864.5 1830,-870.5 1830,-876.5 1830,-876.5 1830,-893.5 1830,-893.5 1830,-899.5 1824,-905.5 1818,-905.5"/>
<text text-anchor="middle" x="1770" y="-893.5" font-family="sans" font-size="10.00">download_fastq</text>
<text text-anchor="middle" x="1770" y="-882.5" font-family="sans" font-size="10.00">genotype: Rio</text>
<text text-anchor="middle" x="1770" y="-871.5" font-family="sans" font-size="10.00">sample: SRR6257146</text>
</g>
<!-- 4&#45;&gt;3 -->
<g id="edge8" class="edge"><title>4&#45;&gt;3</title>
<path fill="none" stroke="grey" stroke-width="2" d="M1786.59,-864.329C1807.29,-837.715 1840,-787.919 1840,-739 1840,-739 1840,-739 1840,-449 1840,-332.625 1654.86,-311.406 1573.54,-307.7"/>
<polygon fill="grey" stroke="grey" points="1573.37,-304.19 1563.25,-307.299 1573.1,-311.185 1573.37,-304.19"/>
</g>
<!-- 26 -->
<g id="node27" class="node"><title>26</title>
<path fill="none" stroke="#56d8c1" stroke-width="2" d="M1675,-828C1675,-828 1645,-828 1645,-828 1639,-828 1633,-822 1633,-816 1633,-816 1633,-804 1633,-804 1633,-798 1639,-792 1645,-792 1645,-792 1675,-792 1675,-792 1681,-792 1687,-798 1687,-804 1687,-804 1687,-816 1687,-816 1687,-822 1681,-828 1675,-828"/>
<text text-anchor="middle" x="1660" y="-807.5" font-family="sans" font-size="10.00">bbduk</text>
</g>
<!-- 4&#45;&gt;26 -->
<g id="edge49" class="edge"><title>4&#45;&gt;26</title>
<path fill="none" stroke="grey" stroke-width="2" d="M1740.52,-864.437C1726.26,-854.976 1709.07,-843.563 1694.23,-833.718"/>
<polygon fill="grey" stroke="grey" points="1696.08,-830.743 1685.81,-828.13 1692.21,-836.575 1696.08,-830.743"/>
</g>
<!-- 5 -->
<g id="node6" class="node"><title>5</title>
<path fill="none" stroke="#d89556" stroke-width="2" d="M232,-252C232,-252 202,-252 202,-252 196,-252 190,-246 190,-240 190,-240 190,-228 190,-228 190,-222 196,-216 202,-216 202,-216 232,-216 232,-216 238,-216 244,-222 244,-228 244,-228 244,-240 244,-240 244,-246 238,-252 232,-252"/>
<text text-anchor="middle" x="217" y="-231.5" font-family="sans" font-size="10.00">fastqc</text>
</g>
<!-- 5&#45;&gt;0 -->
<g id="edge3" class="edge"><title>5&#45;&gt;0</title>
<path fill="none" stroke="grey" stroke-width="2" d="M242.131,-215.91C288.766,-184.669 392.475,-117.386 486,-72 519.671,-55.6601 559.762,-40.8362 588.216,-31.0478"/>
<polygon fill="grey" stroke="grey" points="589.424,-34.3339 597.765,-27.8013 587.171,-27.7064 589.424,-34.3339"/>
</g>
<!-- 6 -->
<g id="node7" class="node"><title>6</title>
<path fill="none" stroke="#d8b456" stroke-width="2" d="M149,-905.5C149,-905.5 53,-905.5 53,-905.5 47,-905.5 41,-899.5 41,-893.5 41,-893.5 41,-876.5 41,-876.5 41,-870.5 47,-864.5 53,-864.5 53,-864.5 149,-864.5 149,-864.5 155,-864.5 161,-870.5 161,-876.5 161,-876.5 161,-893.5 161,-893.5 161,-899.5 155,-905.5 149,-905.5"/>
<text text-anchor="middle" x="101" y="-893.5" font-family="sans" font-size="10.00">download_fastq</text>
<text text-anchor="middle" x="101" y="-882.5" font-family="sans" font-size="10.00">genotype: Rio</text>
<text text-anchor="middle" x="101" y="-871.5" font-family="sans" font-size="10.00">sample: SRR6257142</text>
</g>
<!-- 6&#45;&gt;5 -->
<g id="edge9" class="edge"><title>6&#45;&gt;5</title>
<path fill="none" stroke="grey" stroke-width="2" d="M75.5134,-864.454C45.593,-839.084 0,-791.767 0,-739 0,-739 0,-739 0,-377 0,-292.091 117.765,-255.221 179.785,-241.69"/>
<polygon fill="grey" stroke="grey" points="180.88,-245.038 189.956,-239.572 179.452,-238.185 180.88,-245.038"/>
</g>
<!-- 38 -->
<g id="node39" class="node"><title>38</title>
<path fill="none" stroke="#56d8c1" stroke-width="2" d="M241,-828C241,-828 211,-828 211,-828 205,-828 199,-822 199,-816 199,-816 199,-804 199,-804 199,-798 205,-792 211,-792 211,-792 241,-792 241,-792 247,-792 253,-798 253,-804 253,-804 253,-816 253,-816 253,-822 247,-828 241,-828"/>
<text text-anchor="middle" x="226" y="-807.5" font-family="sans" font-size="10.00">bbduk</text>
</g>
<!-- 6&#45;&gt;38 -->
<g id="edge73" class="edge"><title>6&#45;&gt;38</title>
<path fill="none" stroke="grey" stroke-width="2" d="M134.498,-864.437C151.618,-854.439 172.468,-842.263 189.939,-832.059"/>
<polygon fill="grey" stroke="grey" points="191.86,-834.991 198.73,-826.926 188.33,-828.946 191.86,-834.991"/>
</g>
<!-- 7 -->
<g id="node8" class="node"><title>7</title>
<path fill="none" stroke="#56d8a2" stroke-width="2" d="M612,-108C612,-108 582,-108 582,-108 576,-108 570,-102 570,-96 570,-96 570,-84 570,-84 570,-78 576,-72 582,-72 582,-72 612,-72 612,-72 618,-72 624,-78 624,-84 624,-84 624,-96 624,-96 624,-102 618,-108 612,-108"/>
<text text-anchor="middle" x="597" y="-87.5" font-family="sans" font-size="10.00">busco</text>
</g>
<!-- 7&#45;&gt;0 -->
<g id="edge4" class="edge"><title>7&#45;&gt;0</title>
<path fill="none" stroke="grey" stroke-width="2" d="M603.921,-71.6966C607.075,-63.8132 610.878,-54.3042 614.381,-45.5464"/>
<polygon fill="grey" stroke="grey" points="617.694,-46.689 618.158,-36.1043 611.195,-44.0892 617.694,-46.689"/>
</g>
<!-- 8 -->
<g id="node9" class="node"><title>8</title>
<path fill="none" stroke="#88d856" stroke-width="2" d="M725,-252C725,-252 609,-252 609,-252 603,-252 597,-246 597,-240 597,-240 597,-228 597,-228 597,-222 603,-216 609,-216 609,-216 725,-216 725,-216 731,-216 737,-222 737,-228 737,-228 737,-240 737,-240 737,-246 731,-252 725,-252"/>
<text text-anchor="middle" x="667" y="-231.5" font-family="sans" font-size="10.00">extract_contiglenght_301</text>
</g>
<!-- 8&#45;&gt;7 -->
<g id="edge10" class="edge"><title>8&#45;&gt;7</title>
<path fill="none" stroke="grey" stroke-width="2" d="M644.967,-215.824C634.326,-206.373 622.309,-193.779 615,-180 604.811,-160.792 600.376,-136.446 598.453,-118.074"/>
<polygon fill="grey" stroke="grey" points="601.933,-117.694 597.586,-108.032 594.959,-118.296 601.933,-117.694"/>
</g>
<!-- 47 -->
<g id="node48" class="node"><title>47</title>
<path fill="none" stroke="#d85656" stroke-width="2" d="M673.25,-180C673.25,-180 636.75,-180 636.75,-180 630.75,-180 624.75,-174 624.75,-168 624.75,-168 624.75,-156 624.75,-156 624.75,-150 630.75,-144 636.75,-144 636.75,-144 673.25,-144 673.25,-144 679.25,-144 685.25,-150 685.25,-156 685.25,-156 685.25,-168 685.25,-168 685.25,-174 679.25,-180 673.25,-180"/>
<text text-anchor="middle" x="655" y="-159.5" font-family="sans" font-size="10.00">transrate</text>
</g>
<!-- 8&#45;&gt;47 -->
<g id="edge88" class="edge"><title>8&#45;&gt;47</title>
<path fill="none" stroke="grey" stroke-width="2" d="M664.034,-215.697C662.711,-207.983 661.122,-198.712 659.648,-190.112"/>
<polygon fill="grey" stroke="grey" points="663.072,-189.369 657.932,-180.104 656.172,-190.552 663.072,-189.369"/>
</g>
<!-- 49 -->
<g id="node50" class="node"><title>49</title>
<path fill="none" stroke="#56d0d8" stroke-width="2" d="M850,-180C850,-180 716,-180 716,-180 710,-180 704,-174 704,-168 704,-168 704,-156 704,-156 704,-150 710,-144 716,-144 716,-144 850,-144 850,-144 856,-144 862,-150 862,-156 862,-156 862,-168 862,-168 862,-174 856,-180 850,-180"/>
<text text-anchor="middle" x="783" y="-159.5" font-family="sans" font-size="10.00">salmon_transcriptome_index</text>
</g>
<!-- 8&#45;&gt;49 -->
<g id="edge93" class="edge"><title>8&#45;&gt;49</title>
<path fill="none" stroke="grey" stroke-width="2" d="M695.377,-215.876C710.544,-206.724 729.405,-195.342 745.739,-185.485"/>
<polygon fill="grey" stroke="grey" points="747.761,-188.353 754.514,-180.19 744.144,-182.36 747.761,-188.353"/>
</g>
<!-- 9 -->
<g id="node10" class="node"><title>9</title>
<path fill="none" stroke="#56d882" stroke-width="2" d="M774,-324C774,-324 732,-324 732,-324 726,-324 720,-318 720,-312 720,-312 720,-300 720,-300 720,-294 726,-288 732,-288 732,-288 774,-288 774,-288 780,-288 786,-294 786,-300 786,-300 786,-312 786,-312 786,-318 780,-324 774,-324"/>
<text text-anchor="middle" x="753" y="-303.5" font-family="sans" font-size="10.00">cd_hit_est</text>
</g>
<!-- 9&#45;&gt;8 -->
<g id="edge11" class="edge"><title>9&#45;&gt;8</title>
<path fill="none" stroke="grey" stroke-width="2" d="M731.742,-287.697C720.911,-278.881 707.582,-268.032 695.84,-258.474"/>
<polygon fill="grey" stroke="grey" points="697.979,-255.703 688.014,-252.104 693.56,-261.132 697.979,-255.703"/>
</g>
<!-- 10 -->
<g id="node11" class="node"><title>10</title>
<path fill="none" stroke="#9fd856" stroke-width="2" d="M814,-396C814,-396 784,-396 784,-396 778,-396 772,-390 772,-384 772,-384 772,-372 772,-372 772,-366 778,-360 784,-360 784,-360 814,-360 814,-360 820,-360 826,-366 826,-372 826,-372 826,-384 826,-384 826,-390 820,-396 814,-396"/>
<text text-anchor="middle" x="799" y="-375.5" font-family="sans" font-size="10.00">trinity</text>
</g>
<!-- 10&#45;&gt;9 -->
<g id="edge12" class="edge"><title>10&#45;&gt;9</title>
<path fill="none" stroke="grey" stroke-width="2" d="M787.629,-359.697C782.282,-351.559 775.796,-341.689 769.889,-332.701"/>
<polygon fill="grey" stroke="grey" points="772.657,-330.539 764.24,-324.104 766.807,-334.384 772.657,-330.539"/>
</g>
<!-- 11 -->
<g id="node12" class="node"><title>11</title>
<path fill="none" stroke="#d87556" stroke-width="2" d="M905,-468C905,-468 875,-468 875,-468 869,-468 863,-462 863,-456 863,-456 863,-444 863,-444 863,-438 869,-432 875,-432 875,-432 905,-432 905,-432 911,-432 917,-438 917,-444 917,-444 917,-456 917,-456 917,-462 911,-468 905,-468"/>
<text text-anchor="middle" x="890" y="-447.5" font-family="sans" font-size="10.00">merge</text>
</g>
<!-- 11&#45;&gt;10 -->
<g id="edge13" class="edge"><title>11&#45;&gt;10</title>
<path fill="none" stroke="grey" stroke-width="2" d="M867.506,-431.697C856.045,-422.881 841.942,-412.032 829.516,-402.474"/>
<polygon fill="grey" stroke="grey" points="831.296,-399.427 821.236,-396.104 827.028,-404.976 831.296,-399.427"/>
</g>
<!-- 48 -->
<g id="node49" class="node"><title>48</title>
<path fill="none" stroke="#56d863" stroke-width="2" d="M850.25,-108C850.25,-108 715.75,-108 715.75,-108 709.75,-108 703.75,-102 703.75,-96 703.75,-96 703.75,-84 703.75,-84 703.75,-78 709.75,-72 715.75,-72 715.75,-72 850.25,-72 850.25,-72 856.25,-72 862.25,-78 862.25,-84 862.25,-84 862.25,-96 862.25,-96 862.25,-102 856.25,-108 850.25,-108"/>
<text text-anchor="middle" x="783" y="-87.5" font-family="sans" font-size="10.00">salmon_transcriptome_quant</text>
</g>
<!-- 11&#45;&gt;48 -->
<g id="edge90" class="edge"><title>11&#45;&gt;48</title>
<path fill="none" stroke="grey" stroke-width="2" d="M890,-431.951C890,-405.292 890,-352.115 890,-307 890,-307 890,-307 890,-233 890,-192.553 894.485,-176.93 871,-144 861.911,-131.255 848.709,-121.019 835.284,-113.07"/>
<polygon fill="grey" stroke="grey" points="836.911,-109.971 826.47,-108.173 833.512,-116.09 836.911,-109.971"/>
</g>
<!-- 12 -->
<g id="node13" class="node"><title>12</title>
<path fill="none" stroke="#5673d8" stroke-width="2" d="M722,-540C722,-540 666,-540 666,-540 660,-540 654,-534 654,-528 654,-528 654,-516 654,-516 654,-510 660,-504 666,-504 666,-504 722,-504 722,-504 728,-504 734,-510 734,-516 734,-516 734,-528 734,-528 734,-534 728,-540 722,-540"/>
<text text-anchor="middle" x="694" y="-525" font-family="sans" font-size="10.00">contfree_ngs</text>
<text text-anchor="middle" x="694" y="-514" font-family="sans" font-size="10.00">part: 00</text>
</g>
<!-- 12&#45;&gt;11 -->
<g id="edge16" class="edge"><title>12&#45;&gt;11</title>
<path fill="none" stroke="grey" stroke-width="2" d="M734.136,-506.666C769.1,-494.179 819.373,-476.224 853.287,-464.112"/>
<polygon fill="grey" stroke="grey" points="854.582,-467.366 862.822,-460.706 852.227,-460.774 854.582,-467.366"/>
</g>
<!-- 13 -->
<g id="node14" class="node"><title>13</title>
<path fill="none" stroke="#56b1d8" stroke-width="2" d="M1050,-612C1050,-612 926,-612 926,-612 920,-612 914,-606 914,-600 914,-600 914,-588 914,-588 914,-582 920,-576 926,-576 926,-576 1050,-576 1050,-576 1056,-576 1062,-582 1062,-588 1062,-588 1062,-600 1062,-600 1062,-606 1056,-612 1050,-612"/>
<text text-anchor="middle" x="988" y="-591.5" font-family="sans" font-size="10.00">create_index_contfree_ngs</text>
</g>
<!-- 13&#45;&gt;12 -->
<g id="edge22" class="edge"><title>13&#45;&gt;12</title>
<path fill="none" stroke="grey" stroke-width="2" d="M913.83,-577.983C858.49,-566.602 786.558,-551.394 744.123,-540.106"/>
<polygon fill="grey" stroke="grey" points="744.824,-536.669 734.254,-537.398 742.972,-543.42 744.824,-536.669"/>
</g>
<!-- 18 -->
<g id="node19" class="node"><title>18</title>
<path fill="none" stroke="#5673d8" stroke-width="2" d="M820,-540C820,-540 764,-540 764,-540 758,-540 752,-534 752,-528 752,-528 752,-516 752,-516 752,-510 758,-504 764,-504 764,-504 820,-504 820,-504 826,-504 832,-510 832,-516 832,-516 832,-528 832,-528 832,-534 826,-540 820,-540"/>
<text text-anchor="middle" x="792" y="-525" font-family="sans" font-size="10.00">contfree_ngs</text>
<text text-anchor="middle" x="792" y="-514" font-family="sans" font-size="10.00">part: 01</text>
</g>
<!-- 13&#45;&gt;18 -->
<g id="edge30" class="edge"><title>13&#45;&gt;18</title>
<path fill="none" stroke="grey" stroke-width="2" d="M940.304,-575.966C910.447,-565.303 872.045,-551.587 841.799,-540.785"/>
<polygon fill="grey" stroke="grey" points="842.881,-537.455 832.287,-537.388 840.527,-544.048 842.881,-537.455"/>
</g>
<!-- 19 -->
<g id="node20" class="node"><title>19</title>
<path fill="none" stroke="#5673d8" stroke-width="2" d="M918,-540C918,-540 862,-540 862,-540 856,-540 850,-534 850,-528 850,-528 850,-516 850,-516 850,-510 856,-504 862,-504 862,-504 918,-504 918,-504 924,-504 930,-510 930,-516 930,-516 930,-528 930,-528 930,-534 924,-540 918,-540"/>
<text text-anchor="middle" x="890" y="-525" font-family="sans" font-size="10.00">contfree_ngs</text>
<text text-anchor="middle" x="890" y="-514" font-family="sans" font-size="10.00">part: 02</text>
</g>
<!-- 13&#45;&gt;19 -->
<g id="edge32" class="edge"><title>13&#45;&gt;19</title>
<path fill="none" stroke="grey" stroke-width="2" d="M964.027,-575.876C951.45,-566.893 935.868,-555.763 922.248,-546.034"/>
<polygon fill="grey" stroke="grey" points="924.237,-543.154 914.066,-540.19 920.169,-548.85 924.237,-543.154"/>
</g>
<!-- 20 -->
<g id="node21" class="node"><title>20</title>
<path fill="none" stroke="#5673d8" stroke-width="2" d="M1016,-540C1016,-540 960,-540 960,-540 954,-540 948,-534 948,-528 948,-528 948,-516 948,-516 948,-510 954,-504 960,-504 960,-504 1016,-504 1016,-504 1022,-504 1028,-510 1028,-516 1028,-516 1028,-528 1028,-528 1028,-534 1022,-540 1016,-540"/>
<text text-anchor="middle" x="988" y="-525" font-family="sans" font-size="10.00">contfree_ngs</text>
<text text-anchor="middle" x="988" y="-514" font-family="sans" font-size="10.00">part: 03</text>
</g>
<!-- 13&#45;&gt;20 -->
<g id="edge34" class="edge"><title>13&#45;&gt;20</title>
<path fill="none" stroke="grey" stroke-width="2" d="M988,-575.697C988,-567.983 988,-558.712 988,-550.112"/>
<polygon fill="grey" stroke="grey" points="991.5,-550.104 988,-540.104 984.5,-550.104 991.5,-550.104"/>
</g>
<!-- 21 -->
<g id="node22" class="node"><title>21</title>
<path fill="none" stroke="#5673d8" stroke-width="2" d="M1114,-540C1114,-540 1058,-540 1058,-540 1052,-540 1046,-534 1046,-528 1046,-528 1046,-516 1046,-516 1046,-510 1052,-504 1058,-504 1058,-504 1114,-504 1114,-504 1120,-504 1126,-510 1126,-516 1126,-516 1126,-528 1126,-528 1126,-534 1120,-540 1114,-540"/>
<text text-anchor="middle" x="1086" y="-525" font-family="sans" font-size="10.00">contfree_ngs</text>
<text text-anchor="middle" x="1086" y="-514" font-family="sans" font-size="10.00">part: 04</text>
</g>
<!-- 13&#45;&gt;21 -->
<g id="edge36" class="edge"><title>13&#45;&gt;21</title>
<path fill="none" stroke="grey" stroke-width="2" d="M1011.97,-575.876C1024.55,-566.893 1040.13,-555.763 1053.75,-546.034"/>
<polygon fill="grey" stroke="grey" points="1055.83,-548.85 1061.93,-540.19 1051.76,-543.154 1055.83,-548.85"/>
</g>
<!-- 22 -->
<g id="node23" class="node"><title>22</title>
<path fill="none" stroke="#5673d8" stroke-width="2" d="M1212,-540C1212,-540 1156,-540 1156,-540 1150,-540 1144,-534 1144,-528 1144,-528 1144,-516 1144,-516 1144,-510 1150,-504 1156,-504 1156,-504 1212,-504 1212,-504 1218,-504 1224,-510 1224,-516 1224,-516 1224,-528 1224,-528 1224,-534 1218,-540 1212,-540"/>
<text text-anchor="middle" x="1184" y="-525" font-family="sans" font-size="10.00">contfree_ngs</text>
<text text-anchor="middle" x="1184" y="-514" font-family="sans" font-size="10.00">part: 05</text>
</g>
<!-- 13&#45;&gt;22 -->
<g id="edge38" class="edge"><title>13&#45;&gt;22</title>
<path fill="none" stroke="grey" stroke-width="2" d="M1035.7,-575.966C1065.55,-565.303 1103.96,-551.587 1134.2,-540.785"/>
<polygon fill="grey" stroke="grey" points="1135.47,-544.048 1143.71,-537.388 1133.12,-537.455 1135.47,-544.048"/>
</g>
<!-- 14&#45;&gt;13 -->
<g id="edge24" class="edge"><title>14&#45;&gt;13</title>
<path fill="none" stroke="grey" stroke-width="2" d="M852.421,-791.884C859.892,-781.537 869.56,-768.058 878,-756 911.359,-708.342 949.498,-652.12 970.969,-620.306"/>
<polygon fill="grey" stroke="grey" points="973.875,-622.256 976.564,-612.008 968.072,-618.342 973.875,-622.256"/>
</g>
<!-- 16 -->
<g id="node17" class="node"><title>16</title>
<path fill="none" stroke="#bed856" stroke-width="2" d="M854,-684C854,-684 824,-684 824,-684 818,-684 812,-678 812,-672 812,-672 812,-660 812,-660 812,-654 818,-648 824,-648 824,-648 854,-648 854,-648 860,-648 866,-654 866,-660 866,-660 866,-672 866,-672 866,-678 860,-684 854,-684"/>
<text text-anchor="middle" x="839" y="-663.5" font-family="sans" font-size="10.00">kraken</text>
</g>
<!-- 14&#45;&gt;16 -->
<g id="edge28" class="edge"><title>14&#45;&gt;16</title>
<path fill="none" stroke="grey" stroke-width="2" d="M849.131,-791.88C854.007,-781.756 859.507,-768.506 862,-756 865.127,-740.309 865.253,-735.666 862,-720 860.124,-710.965 856.626,-701.579 852.914,-693.261"/>
<polygon fill="grey" stroke="grey" points="855.999,-691.598 848.542,-684.072 849.678,-694.606 855.999,-691.598"/>
</g>
<!-- 17 -->
<g id="node18" class="node"><title>17</title>
<path fill="none" stroke="#d8d356" stroke-width="2" d="M841,-756C841,-756 755,-756 755,-756 749,-756 743,-750 743,-744 743,-744 743,-732 743,-732 743,-726 749,-720 755,-720 755,-720 841,-720 841,-720 847,-720 853,-726 853,-732 853,-732 853,-744 853,-744 853,-750 847,-756 841,-756"/>
<text text-anchor="middle" x="798" y="-735.5" font-family="sans" font-size="10.00">fastqc_after_bbduk</text>
</g>
<!-- 14&#45;&gt;17 -->
<g id="edge29" class="edge"><title>14&#45;&gt;17</title>
<path fill="none" stroke="grey" stroke-width="2" d="M829.618,-791.697C824.735,-783.559 818.813,-773.689 813.421,-764.701"/>
<polygon fill="grey" stroke="grey" points="816.409,-762.879 808.263,-756.104 810.406,-766.48 816.409,-762.879"/>
</g>
<!-- 15 -->
<g id="node16" class="node"><title>15</title>
<path fill="none" stroke="#68d856" stroke-width="2" d="M883.25,-612C883.25,-612 794.75,-612 794.75,-612 788.75,-612 782.75,-606 782.75,-600 782.75,-600 782.75,-588 782.75,-588 782.75,-582 788.75,-576 794.75,-576 794.75,-576 883.25,-576 883.25,-576 889.25,-576 895.25,-582 895.25,-588 895.25,-588 895.25,-600 895.25,-600 895.25,-606 889.25,-612 883.25,-612"/>
<text text-anchor="middle" x="839" y="-591.5" font-family="sans" font-size="10.00">split_kraken_output</text>
</g>
<!-- 15&#45;&gt;12 -->
<g id="edge23" class="edge"><title>15&#45;&gt;12</title>
<path fill="none" stroke="grey" stroke-width="2" d="M803.529,-575.876C783.883,-566.392 759.278,-554.513 738.368,-544.419"/>
<polygon fill="grey" stroke="grey" points="739.883,-541.264 729.356,-540.068 736.84,-547.568 739.883,-541.264"/>
</g>
<!-- 15&#45;&gt;18 -->
<g id="edge31" class="edge"><title>15&#45;&gt;18</title>
<path fill="none" stroke="grey" stroke-width="2" d="M827.382,-575.697C821.861,-567.474 815.153,-557.483 809.068,-548.421"/>
<polygon fill="grey" stroke="grey" points="811.965,-546.456 803.484,-540.104 806.153,-550.358 811.965,-546.456"/>
</g>
<!-- 15&#45;&gt;19 -->
<g id="edge33" class="edge"><title>15&#45;&gt;19</title>
<path fill="none" stroke="grey" stroke-width="2" d="M851.607,-575.697C857.597,-567.474 864.876,-557.483 871.479,-548.421"/>
<polygon fill="grey" stroke="grey" points="874.478,-550.248 877.538,-540.104 868.821,-546.126 874.478,-550.248"/>
</g>
<!-- 15&#45;&gt;20 -->
<g id="edge35" class="edge"><title>15&#45;&gt;20</title>
<path fill="none" stroke="grey" stroke-width="2" d="M875.45,-575.876C895.638,-566.392 920.921,-554.513 942.408,-544.419"/>
<polygon fill="grey" stroke="grey" points="944.106,-547.488 951.669,-540.068 941.13,-541.153 944.106,-547.488"/>
</g>
<!-- 15&#45;&gt;21 -->
<g id="edge37" class="edge"><title>15&#45;&gt;21</title>
<path fill="none" stroke="grey" stroke-width="2" d="M895.301,-578.415C939.854,-566.792 999.392,-551.059 1036.21,-540.108"/>
<polygon fill="grey" stroke="grey" points="1037.41,-543.403 1045.97,-537.154 1035.38,-536.704 1037.41,-543.403"/>
</g>
<!-- 15&#45;&gt;22 -->
<g id="edge39" class="edge"><title>15&#45;&gt;22</title>
<path fill="none" stroke="grey" stroke-width="2" d="M895.442,-578.079C898.668,-577.345 901.871,-576.646 905,-576 1003.16,-555.725 1032.77,-564.463 1133.79,-540.055"/>
<polygon fill="grey" stroke="grey" points="1134.92,-543.38 1143.8,-537.587 1133.25,-536.584 1134.92,-543.38"/>
</g>
<!-- 16&#45;&gt;15 -->
<g id="edge26" class="edge"><title>16&#45;&gt;15</title>
<path fill="none" stroke="grey" stroke-width="2" d="M839,-647.697C839,-639.983 839,-630.712 839,-622.112"/>
<polygon fill="grey" stroke="grey" points="842.5,-622.104 839,-612.104 835.5,-622.104 842.5,-622.104"/>
</g>
<!-- 17&#45;&gt;16 -->
<g id="edge27" class="edge"><title>17&#45;&gt;16</title>
<path fill="none" stroke="grey" stroke-width="2" d="M808.135,-719.697C812.852,-711.644 818.562,-701.894 823.782,-692.982"/>
<polygon fill="grey" stroke="grey" points="826.948,-694.502 828.982,-684.104 820.908,-690.964 826.948,-694.502"/>
</g>
<!-- 18&#45;&gt;11 -->
<g id="edge17" class="edge"><title>18&#45;&gt;11</title>
<path fill="none" stroke="grey" stroke-width="2" d="M815.973,-503.876C828.55,-494.893 844.132,-483.763 857.752,-474.034"/>
<polygon fill="grey" stroke="grey" points="859.831,-476.85 865.934,-468.19 855.763,-471.154 859.831,-476.85"/>
</g>
<!-- 19&#45;&gt;11 -->
<g id="edge18" class="edge"><title>19&#45;&gt;11</title>
<path fill="none" stroke="grey" stroke-width="2" d="M890,-503.697C890,-495.983 890,-486.712 890,-478.112"/>
<polygon fill="grey" stroke="grey" points="893.5,-478.104 890,-468.104 886.5,-478.104 893.5,-478.104"/>
</g>
<!-- 20&#45;&gt;11 -->
<g id="edge19" class="edge"><title>20&#45;&gt;11</title>
<path fill="none" stroke="grey" stroke-width="2" d="M964.027,-503.876C951.45,-494.893 935.868,-483.763 922.248,-474.034"/>
<polygon fill="grey" stroke="grey" points="924.237,-471.154 914.066,-468.19 920.169,-476.85 924.237,-471.154"/>
</g>
<!-- 21&#45;&gt;11 -->
<g id="edge20" class="edge"><title>21&#45;&gt;11</title>
<path fill="none" stroke="grey" stroke-width="2" d="M1045.86,-506.666C1010.9,-494.179 960.627,-476.224 926.713,-464.112"/>
<polygon fill="grey" stroke="grey" points="927.773,-460.774 917.178,-460.706 925.418,-467.366 927.773,-460.774"/>
</g>
<!-- 22&#45;&gt;11 -->
<g id="edge21" class="edge"><title>22&#45;&gt;11</title>
<path fill="none" stroke="grey" stroke-width="2" d="M1143.75,-506.602C1140.8,-505.681 1137.86,-504.803 1135,-504 1062.2,-483.577 975.358,-466.462 927.074,-457.573"/>
<polygon fill="grey" stroke="grey" points="927.555,-454.103 917.089,-455.751 926.298,-460.989 927.555,-454.103"/>
</g>
<!-- 23 -->
<g id="node24" class="node"><title>23</title>
<path fill="none" stroke="#d87556" stroke-width="2" d="M1444,-468C1444,-468 1414,-468 1414,-468 1408,-468 1402,-462 1402,-456 1402,-456 1402,-444 1402,-444 1402,-438 1408,-432 1414,-432 1414,-432 1444,-432 1444,-432 1450,-432 1456,-438 1456,-444 1456,-444 1456,-456 1456,-456 1456,-462 1450,-468 1444,-468"/>
<text text-anchor="middle" x="1429" y="-447.5" font-family="sans" font-size="10.00">merge</text>
</g>
<!-- 23&#45;&gt;10 -->
<g id="edge14" class="edge"><title>23&#45;&gt;10</title>
<path fill="none" stroke="grey" stroke-width="2" d="M1401.93,-445.992C1301.78,-434.865 952.106,-396.012 836.456,-383.162"/>
<polygon fill="grey" stroke="grey" points="836.649,-379.662 826.323,-382.036 835.875,-386.619 836.649,-379.662"/>
</g>
<!-- 23&#45;&gt;48 -->
<g id="edge91" class="edge"><title>23&#45;&gt;48</title>
<path fill="none" stroke="grey" stroke-width="2" d="M1401.66,-446.388C1336.61,-438.519 1178,-408.885 1178,-307 1178,-307 1178,-307 1178,-233 1178,-199.543 974.724,-141.011 859.821,-110.599"/>
<polygon fill="grey" stroke="grey" points="860.568,-107.177 850.006,-108.013 858.784,-113.946 860.568,-107.177"/>
</g>
<!-- 24 -->
<g id="node25" class="node"><title>24</title>
<path fill="none" stroke="#5673d8" stroke-width="2" d="M1702,-540C1702,-540 1646,-540 1646,-540 1640,-540 1634,-534 1634,-528 1634,-528 1634,-516 1634,-516 1634,-510 1640,-504 1646,-504 1646,-504 1702,-504 1702,-504 1708,-504 1714,-510 1714,-516 1714,-516 1714,-528 1714,-528 1714,-534 1708,-540 1702,-540"/>
<text text-anchor="middle" x="1674" y="-525" font-family="sans" font-size="10.00">contfree_ngs</text>
<text text-anchor="middle" x="1674" y="-514" font-family="sans" font-size="10.00">part: 00</text>
</g>
<!-- 24&#45;&gt;23 -->
<g id="edge40" class="edge"><title>24&#45;&gt;23</title>
<path fill="none" stroke="grey" stroke-width="2" d="M1633.96,-506.855C1630.94,-505.864 1627.93,-504.902 1625,-504 1570,-487.044 1505.42,-470.156 1465.86,-460.148"/>
<polygon fill="grey" stroke="grey" points="1466.67,-456.743 1456.12,-457.695 1464.96,-463.531 1466.67,-456.743"/>
</g>
<!-- 25 -->
<g id="node26" class="node"><title>25</title>
<path fill="none" stroke="#56b1d8" stroke-width="2" d="M1540,-612C1540,-612 1416,-612 1416,-612 1410,-612 1404,-606 1404,-600 1404,-600 1404,-588 1404,-588 1404,-582 1410,-576 1416,-576 1416,-576 1540,-576 1540,-576 1546,-576 1552,-582 1552,-588 1552,-588 1552,-600 1552,-600 1552,-606 1546,-612 1540,-612"/>
<text text-anchor="middle" x="1478" y="-591.5" font-family="sans" font-size="10.00">create_index_contfree_ngs</text>
</g>
<!-- 25&#45;&gt;24 -->
<g id="edge46" class="edge"><title>25&#45;&gt;24</title>
<path fill="none" stroke="grey" stroke-width="2" d="M1525.7,-575.966C1555.55,-565.303 1593.96,-551.587 1624.2,-540.785"/>
<polygon fill="grey" stroke="grey" points="1625.47,-544.048 1633.71,-537.388 1623.12,-537.455 1625.47,-544.048"/>
</g>
<!-- 30 -->
<g id="node31" class="node"><title>30</title>
<path fill="none" stroke="#5673d8" stroke-width="2" d="M1800,-540C1800,-540 1744,-540 1744,-540 1738,-540 1732,-534 1732,-528 1732,-528 1732,-516 1732,-516 1732,-510 1738,-504 1744,-504 1744,-504 1800,-504 1800,-504 1806,-504 1812,-510 1812,-516 1812,-516 1812,-528 1812,-528 1812,-534 1806,-540 1800,-540"/>
<text text-anchor="middle" x="1772" y="-525" font-family="sans" font-size="10.00">contfree_ngs</text>
<text text-anchor="middle" x="1772" y="-514" font-family="sans" font-size="10.00">part: 01</text>
</g>
<!-- 25&#45;&gt;30 -->
<g id="edge54" class="edge"><title>25&#45;&gt;30</title>
<path fill="none" stroke="grey" stroke-width="2" d="M1552.2,-577.422C1611.18,-564.97 1688.15,-548.543 1721.77,-540.051"/>
<polygon fill="grey" stroke="grey" points="1722.98,-543.35 1731.75,-537.398 1721.18,-536.585 1722.98,-543.35"/>
</g>
<!-- 31 -->
<g id="node32" class="node"><title>31</title>
<path fill="none" stroke="#5673d8" stroke-width="2" d="M1310,-540C1310,-540 1254,-540 1254,-540 1248,-540 1242,-534 1242,-528 1242,-528 1242,-516 1242,-516 1242,-510 1248,-504 1254,-504 1254,-504 1310,-504 1310,-504 1316,-504 1322,-510 1322,-516 1322,-516 1322,-528 1322,-528 1322,-534 1316,-540 1310,-540"/>
<text text-anchor="middle" x="1282" y="-525" font-family="sans" font-size="10.00">contfree_ngs</text>
<text text-anchor="middle" x="1282" y="-514" font-family="sans" font-size="10.00">part: 02</text>
</g>
<!-- 25&#45;&gt;31 -->
<g id="edge56" class="edge"><title>25&#45;&gt;31</title>
<path fill="none" stroke="grey" stroke-width="2" d="M1430.3,-575.966C1400.45,-565.303 1362.04,-551.587 1331.8,-540.785"/>
<polygon fill="grey" stroke="grey" points="1332.88,-537.455 1322.29,-537.388 1330.53,-544.048 1332.88,-537.455"/>
</g>
<!-- 32 -->
<g id="node33" class="node"><title>32</title>
<path fill="none" stroke="#5673d8" stroke-width="2" d="M1408,-540C1408,-540 1352,-540 1352,-540 1346,-540 1340,-534 1340,-528 1340,-528 1340,-516 1340,-516 1340,-510 1346,-504 1352,-504 1352,-504 1408,-504 1408,-504 1414,-504 1420,-510 1420,-516 1420,-516 1420,-528 1420,-528 1420,-534 1414,-540 1408,-540"/>
<text text-anchor="middle" x="1380" y="-525" font-family="sans" font-size="10.00">contfree_ngs</text>
<text text-anchor="middle" x="1380" y="-514" font-family="sans" font-size="10.00">part: 03</text>
</g>
<!-- 25&#45;&gt;32 -->
<g id="edge58" class="edge"><title>25&#45;&gt;32</title>
<path fill="none" stroke="grey" stroke-width="2" d="M1454.03,-575.876C1441.45,-566.893 1425.87,-555.763 1412.25,-546.034"/>
<polygon fill="grey" stroke="grey" points="1414.24,-543.154 1404.07,-540.19 1410.17,-548.85 1414.24,-543.154"/>
</g>
<!-- 33 -->
<g id="node34" class="node"><title>33</title>
<path fill="none" stroke="#5673d8" stroke-width="2" d="M1506,-540C1506,-540 1450,-540 1450,-540 1444,-540 1438,-534 1438,-528 1438,-528 1438,-516 1438,-516 1438,-510 1444,-504 1450,-504 1450,-504 1506,-504 1506,-504 1512,-504 1518,-510 1518,-516 1518,-516 1518,-528 1518,-528 1518,-534 1512,-540 1506,-540"/>
<text text-anchor="middle" x="1478" y="-525" font-family="sans" font-size="10.00">contfree_ngs</text>
<text text-anchor="middle" x="1478" y="-514" font-family="sans" font-size="10.00">part: 04</text>
</g>
<!-- 25&#45;&gt;33 -->
<g id="edge60" class="edge"><title>25&#45;&gt;33</title>
<path fill="none" stroke="grey" stroke-width="2" d="M1478,-575.697C1478,-567.983 1478,-558.712 1478,-550.112"/>
<polygon fill="grey" stroke="grey" points="1481.5,-550.104 1478,-540.104 1474.5,-550.104 1481.5,-550.104"/>
</g>
<!-- 34 -->
<g id="node35" class="node"><title>34</title>
<path fill="none" stroke="#5673d8" stroke-width="2" d="M1604,-540C1604,-540 1548,-540 1548,-540 1542,-540 1536,-534 1536,-528 1536,-528 1536,-516 1536,-516 1536,-510 1542,-504 1548,-504 1548,-504 1604,-504 1604,-504 1610,-504 1616,-510 1616,-516 1616,-516 1616,-528 1616,-528 1616,-534 1610,-540 1604,-540"/>
<text text-anchor="middle" x="1576" y="-525" font-family="sans" font-size="10.00">contfree_ngs</text>
<text text-anchor="middle" x="1576" y="-514" font-family="sans" font-size="10.00">part: 05</text>
</g>
<!-- 25&#45;&gt;34 -->
<g id="edge62" class="edge"><title>25&#45;&gt;34</title>
<path fill="none" stroke="grey" stroke-width="2" d="M1501.97,-575.876C1514.55,-566.893 1530.13,-555.763 1543.75,-546.034"/>
<polygon fill="grey" stroke="grey" points="1545.83,-548.85 1551.93,-540.19 1541.76,-543.154 1545.83,-548.85"/>
</g>
<!-- 26&#45;&gt;25 -->
<g id="edge48" class="edge"><title>26&#45;&gt;25</title>
<path fill="none" stroke="grey" stroke-width="2" d="M1645.41,-791.849C1613.33,-754.127 1536.54,-663.827 1499.16,-619.876"/>
<polygon fill="grey" stroke="grey" points="1501.8,-617.583 1492.66,-612.232 1496.47,-622.118 1501.8,-617.583"/>
</g>
<!-- 28 -->
<g id="node29" class="node"><title>28</title>
<path fill="none" stroke="#bed856" stroke-width="2" d="M1642,-684C1642,-684 1612,-684 1612,-684 1606,-684 1600,-678 1600,-672 1600,-672 1600,-660 1600,-660 1600,-654 1606,-648 1612,-648 1612,-648 1642,-648 1642,-648 1648,-648 1654,-654 1654,-660 1654,-660 1654,-672 1654,-672 1654,-678 1648,-684 1642,-684"/>
<text text-anchor="middle" x="1627" y="-663.5" font-family="sans" font-size="10.00">kraken</text>
</g>
<!-- 26&#45;&gt;28 -->
<g id="edge52" class="edge"><title>26&#45;&gt;28</title>
<path fill="none" stroke="grey" stroke-width="2" d="M1651.44,-791.747C1646.76,-781.579 1641.26,-768.329 1638,-756 1632.64,-735.71 1629.88,-712.114 1628.46,-694.317"/>
<polygon fill="grey" stroke="grey" points="1631.95,-694.052 1627.76,-684.323 1624.97,-694.544 1631.95,-694.052"/>
</g>
<!-- 29 -->
<g id="node30" class="node"><title>29</title>
<path fill="none" stroke="#d8d356" stroke-width="2" d="M1745,-756C1745,-756 1659,-756 1659,-756 1653,-756 1647,-750 1647,-744 1647,-744 1647,-732 1647,-732 1647,-726 1653,-720 1659,-720 1659,-720 1745,-720 1745,-720 1751,-720 1757,-726 1757,-732 1757,-732 1757,-744 1757,-744 1757,-750 1751,-756 1745,-756"/>
<text text-anchor="middle" x="1702" y="-735.5" font-family="sans" font-size="10.00">fastqc_after_bbduk</text>
</g>
<!-- 26&#45;&gt;29 -->
<g id="edge53" class="edge"><title>26&#45;&gt;29</title>
<path fill="none" stroke="grey" stroke-width="2" d="M1670.38,-791.697C1675.26,-783.559 1681.19,-773.689 1686.58,-764.701"/>
<polygon fill="grey" stroke="grey" points="1689.59,-766.48 1691.74,-756.104 1683.59,-762.879 1689.59,-766.48"/>
</g>
<!-- 27 -->
<g id="node28" class="node"><title>27</title>
<path fill="none" stroke="#68d856" stroke-width="2" d="M1671.25,-612C1671.25,-612 1582.75,-612 1582.75,-612 1576.75,-612 1570.75,-606 1570.75,-600 1570.75,-600 1570.75,-588 1570.75,-588 1570.75,-582 1576.75,-576 1582.75,-576 1582.75,-576 1671.25,-576 1671.25,-576 1677.25,-576 1683.25,-582 1683.25,-588 1683.25,-588 1683.25,-600 1683.25,-600 1683.25,-606 1677.25,-612 1671.25,-612"/>
<text text-anchor="middle" x="1627" y="-591.5" font-family="sans" font-size="10.00">split_kraken_output</text>
</g>
<!-- 27&#45;&gt;24 -->
<g id="edge47" class="edge"><title>27&#45;&gt;24</title>
<path fill="none" stroke="grey" stroke-width="2" d="M1638.62,-575.697C1644.14,-567.474 1650.85,-557.483 1656.93,-548.421"/>
<polygon fill="grey" stroke="grey" points="1659.85,-550.358 1662.52,-540.104 1654.04,-546.456 1659.85,-550.358"/>
</g>
<!-- 27&#45;&gt;30 -->
<g id="edge55" class="edge"><title>27&#45;&gt;30</title>
<path fill="none" stroke="grey" stroke-width="2" d="M1662.47,-575.876C1682.12,-566.392 1706.72,-554.513 1727.63,-544.419"/>
<polygon fill="grey" stroke="grey" points="1729.16,-547.568 1736.64,-540.068 1726.12,-541.264 1729.16,-547.568"/>
</g>
<!-- 27&#45;&gt;31 -->
<g id="edge57" class="edge"><title>27&#45;&gt;31</title>
<path fill="none" stroke="grey" stroke-width="2" d="M1570.56,-578.079C1567.33,-577.345 1564.13,-576.646 1561,-576 1462.84,-555.725 1433.23,-564.463 1332.21,-540.055"/>
<polygon fill="grey" stroke="grey" points="1332.75,-536.584 1322.2,-537.587 1331.08,-543.38 1332.75,-536.584"/>
</g>
<!-- 27&#45;&gt;32 -->
<g id="edge59" class="edge"><title>27&#45;&gt;32</title>
<path fill="none" stroke="grey" stroke-width="2" d="M1570.7,-578.415C1526.15,-566.792 1466.61,-551.059 1429.79,-540.108"/>
<polygon fill="grey" stroke="grey" points="1430.62,-536.704 1420.03,-537.154 1428.59,-543.403 1430.62,-536.704"/>
</g>
<!-- 27&#45;&gt;33 -->
<g id="edge61" class="edge"><title>27&#45;&gt;33</title>
<path fill="none" stroke="grey" stroke-width="2" d="M1590.55,-575.876C1570.36,-566.392 1545.08,-554.513 1523.59,-544.419"/>
<polygon fill="grey" stroke="grey" points="1524.87,-541.153 1514.33,-540.068 1521.89,-547.488 1524.87,-541.153"/>
</g>
<!-- 27&#45;&gt;34 -->
<g id="edge63" class="edge"><title>27&#45;&gt;34</title>
<path fill="none" stroke="grey" stroke-width="2" d="M1614.39,-575.697C1608.4,-567.474 1601.12,-557.483 1594.52,-548.421"/>
<polygon fill="grey" stroke="grey" points="1597.18,-546.126 1588.46,-540.104 1591.52,-550.248 1597.18,-546.126"/>
</g>
<!-- 28&#45;&gt;27 -->
<g id="edge50" class="edge"><title>28&#45;&gt;27</title>
<path fill="none" stroke="grey" stroke-width="2" d="M1627,-647.697C1627,-639.983 1627,-630.712 1627,-622.112"/>
<polygon fill="grey" stroke="grey" points="1630.5,-622.104 1627,-612.104 1623.5,-622.104 1630.5,-622.104"/>
</g>
<!-- 29&#45;&gt;28 -->
<g id="edge51" class="edge"><title>29&#45;&gt;28</title>
<path fill="none" stroke="grey" stroke-width="2" d="M1683.46,-719.697C1674.2,-711.05 1662.84,-700.449 1652.74,-691.027"/>
<polygon fill="grey" stroke="grey" points="1655.02,-688.369 1645.33,-684.104 1650.25,-693.486 1655.02,-688.369"/>
</g>
<!-- 30&#45;&gt;23 -->
<g id="edge41" class="edge"><title>30&#45;&gt;23</title>
<path fill="none" stroke="grey" stroke-width="2" d="M1731.78,-506.488C1728.82,-505.594 1725.87,-504.753 1723,-504 1632.03,-480.175 1522.44,-463.512 1466.24,-455.817"/>
<polygon fill="grey" stroke="grey" points="1466.44,-452.312 1456.06,-454.442 1465.5,-459.249 1466.44,-452.312"/>
</g>
<!-- 31&#45;&gt;23 -->
<g id="edge42" class="edge"><title>31&#45;&gt;23</title>
<path fill="none" stroke="grey" stroke-width="2" d="M1317.96,-503.876C1340.57,-493.11 1369.66,-479.258 1392.39,-468.433"/>
<polygon fill="grey" stroke="grey" points="1394.18,-471.457 1401.71,-463.997 1391.17,-465.137 1394.18,-471.457"/>
</g>
<!-- 32&#45;&gt;23 -->
<g id="edge43" class="edge"><title>32&#45;&gt;23</title>
<path fill="none" stroke="grey" stroke-width="2" d="M1392.11,-503.697C1397.87,-495.474 1404.86,-485.483 1411.21,-476.421"/>
<polygon fill="grey" stroke="grey" points="1414.16,-478.304 1417.03,-468.104 1408.42,-474.29 1414.16,-478.304"/>
</g>
<!-- 33&#45;&gt;23 -->
<g id="edge44" class="edge"><title>33&#45;&gt;23</title>
<path fill="none" stroke="grey" stroke-width="2" d="M1465.89,-503.697C1460.13,-495.474 1453.14,-485.483 1446.79,-476.421"/>
<polygon fill="grey" stroke="grey" points="1449.58,-474.29 1440.97,-468.104 1443.84,-478.304 1449.58,-474.29"/>
</g>
<!-- 34&#45;&gt;23 -->
<g id="edge45" class="edge"><title>34&#45;&gt;23</title>
<path fill="none" stroke="grey" stroke-width="2" d="M1540.04,-503.876C1517.43,-493.11 1488.34,-479.258 1465.61,-468.433"/>
<polygon fill="grey" stroke="grey" points="1466.83,-465.137 1456.29,-463.997 1463.82,-471.457 1466.83,-465.137"/>
</g>
<!-- 35 -->
<g id="node36" class="node"><title>35</title>
<path fill="none" stroke="#d87556" stroke-width="2" d="M464,-468C464,-468 434,-468 434,-468 428,-468 422,-462 422,-456 422,-456 422,-444 422,-444 422,-438 428,-432 434,-432 434,-432 464,-432 464,-432 470,-432 476,-438 476,-444 476,-444 476,-456 476,-456 476,-462 470,-468 464,-468"/>
<text text-anchor="middle" x="449" y="-447.5" font-family="sans" font-size="10.00">merge</text>
</g>
<!-- 35&#45;&gt;10 -->
<g id="edge15" class="edge"><title>35&#45;&gt;10</title>
<path fill="none" stroke="grey" stroke-width="2" d="M476.173,-443.565C538.325,-431.135 690.937,-400.613 761.767,-386.447"/>
<polygon fill="grey" stroke="grey" points="762.484,-389.873 771.603,-384.479 761.111,-383.009 762.484,-389.873"/>
</g>
<!-- 35&#45;&gt;48 -->
<g id="edge92" class="edge"><title>35&#45;&gt;48</title>
<path fill="none" stroke="grey" stroke-width="2" d="M471.011,-431.875C499.63,-407.497 546,-359.844 546,-307 546,-307 546,-307 546,-233 546,-161.452 626.463,-125.072 693.622,-107.168"/>
<polygon fill="grey" stroke="grey" points="694.604,-110.53 703.423,-104.659 692.867,-103.749 694.604,-110.53"/>
</g>
<!-- 36 -->
<g id="node37" class="node"><title>36</title>
<path fill="none" stroke="#5673d8" stroke-width="2" d="M526,-540C526,-540 470,-540 470,-540 464,-540 458,-534 458,-528 458,-528 458,-516 458,-516 458,-510 464,-504 470,-504 470,-504 526,-504 526,-504 532,-504 538,-510 538,-516 538,-516 538,-528 538,-528 538,-534 532,-540 526,-540"/>
<text text-anchor="middle" x="498" y="-525" font-family="sans" font-size="10.00">contfree_ngs</text>
<text text-anchor="middle" x="498" y="-514" font-family="sans" font-size="10.00">part: 00</text>
</g>
<!-- 36&#45;&gt;35 -->
<g id="edge64" class="edge"><title>36&#45;&gt;35</title>
<path fill="none" stroke="grey" stroke-width="2" d="M485.888,-503.697C480.132,-495.474 473.138,-485.483 466.794,-476.421"/>
<polygon fill="grey" stroke="grey" points="469.575,-474.29 460.973,-468.104 463.84,-478.304 469.575,-474.29"/>
</g>
<!-- 37 -->
<g id="node38" class="node"><title>37</title>
<path fill="none" stroke="#56b1d8" stroke-width="2" d="M462,-612C462,-612 338,-612 338,-612 332,-612 326,-606 326,-600 326,-600 326,-588 326,-588 326,-582 332,-576 338,-576 338,-576 462,-576 462,-576 468,-576 474,-582 474,-588 474,-588 474,-600 474,-600 474,-606 468,-612 462,-612"/>
<text text-anchor="middle" x="400" y="-591.5" font-family="sans" font-size="10.00">create_index_contfree_ngs</text>
</g>
<!-- 37&#45;&gt;36 -->
<g id="edge70" class="edge"><title>37&#45;&gt;36</title>
<path fill="none" stroke="grey" stroke-width="2" d="M423.973,-575.876C436.55,-566.893 452.132,-555.763 465.752,-546.034"/>
<polygon fill="grey" stroke="grey" points="467.831,-548.85 473.934,-540.19 463.763,-543.154 467.831,-548.85"/>
</g>
<!-- 42 -->
<g id="node43" class="node"><title>42</title>
<path fill="none" stroke="#5673d8" stroke-width="2" d="M624,-540C624,-540 568,-540 568,-540 562,-540 556,-534 556,-528 556,-528 556,-516 556,-516 556,-510 562,-504 568,-504 568,-504 624,-504 624,-504 630,-504 636,-510 636,-516 636,-516 636,-528 636,-528 636,-534 630,-540 624,-540"/>
<text text-anchor="middle" x="596" y="-525" font-family="sans" font-size="10.00">contfree_ngs</text>
<text text-anchor="middle" x="596" y="-514" font-family="sans" font-size="10.00">part: 01</text>
</g>
<!-- 37&#45;&gt;42 -->
<g id="edge78" class="edge"><title>37&#45;&gt;42</title>
<path fill="none" stroke="grey" stroke-width="2" d="M447.696,-575.966C477.553,-565.303 515.955,-551.587 546.201,-540.785"/>
<polygon fill="grey" stroke="grey" points="547.473,-544.048 555.713,-537.388 545.119,-537.455 547.473,-544.048"/>
</g>
<!-- 43 -->
<g id="node44" class="node"><title>43</title>
<path fill="none" stroke="#5673d8" stroke-width="2" d="M134,-540C134,-540 78,-540 78,-540 72,-540 66,-534 66,-528 66,-528 66,-516 66,-516 66,-510 72,-504 78,-504 78,-504 134,-504 134,-504 140,-504 146,-510 146,-516 146,-516 146,-528 146,-528 146,-534 140,-540 134,-540"/>
<text text-anchor="middle" x="106" y="-525" font-family="sans" font-size="10.00">contfree_ngs</text>
<text text-anchor="middle" x="106" y="-514" font-family="sans" font-size="10.00">part: 02</text>
</g>
<!-- 37&#45;&gt;43 -->
<g id="edge80" class="edge"><title>37&#45;&gt;43</title>
<path fill="none" stroke="grey" stroke-width="2" d="M325.83,-577.983C270.49,-566.602 198.558,-551.394 156.123,-540.106"/>
<polygon fill="grey" stroke="grey" points="156.824,-536.669 146.254,-537.398 154.972,-543.42 156.824,-536.669"/>
</g>
<!-- 44 -->
<g id="node45" class="node"><title>44</title>
<path fill="none" stroke="#5673d8" stroke-width="2" d="M232,-540C232,-540 176,-540 176,-540 170,-540 164,-534 164,-528 164,-528 164,-516 164,-516 164,-510 170,-504 176,-504 176,-504 232,-504 232,-504 238,-504 244,-510 244,-516 244,-516 244,-528 244,-528 244,-534 238,-540 232,-540"/>
<text text-anchor="middle" x="204" y="-525" font-family="sans" font-size="10.00">contfree_ngs</text>
<text text-anchor="middle" x="204" y="-514" font-family="sans" font-size="10.00">part: 03</text>
</g>
<!-- 37&#45;&gt;44 -->
<g id="edge82" class="edge"><title>37&#45;&gt;44</title>
<path fill="none" stroke="grey" stroke-width="2" d="M352.304,-575.966C322.447,-565.303 284.045,-551.587 253.799,-540.785"/>
<polygon fill="grey" stroke="grey" points="254.881,-537.455 244.287,-537.388 252.527,-544.048 254.881,-537.455"/>
</g>
<!-- 45 -->
<g id="node46" class="node"><title>45</title>
<path fill="none" stroke="#5673d8" stroke-width="2" d="M330,-540C330,-540 274,-540 274,-540 268,-540 262,-534 262,-528 262,-528 262,-516 262,-516 262,-510 268,-504 274,-504 274,-504 330,-504 330,-504 336,-504 342,-510 342,-516 342,-516 342,-528 342,-528 342,-534 336,-540 330,-540"/>
<text text-anchor="middle" x="302" y="-525" font-family="sans" font-size="10.00">contfree_ngs</text>
<text text-anchor="middle" x="302" y="-514" font-family="sans" font-size="10.00">part: 04</text>
</g>
<!-- 37&#45;&gt;45 -->
<g id="edge84" class="edge"><title>37&#45;&gt;45</title>
<path fill="none" stroke="grey" stroke-width="2" d="M376.027,-575.876C363.45,-566.893 347.868,-555.763 334.248,-546.034"/>
<polygon fill="grey" stroke="grey" points="336.237,-543.154 326.066,-540.19 332.169,-548.85 336.237,-543.154"/>
</g>
<!-- 46 -->
<g id="node47" class="node"><title>46</title>
<path fill="none" stroke="#5673d8" stroke-width="2" d="M428,-540C428,-540 372,-540 372,-540 366,-540 360,-534 360,-528 360,-528 360,-516 360,-516 360,-510 366,-504 372,-504 372,-504 428,-504 428,-504 434,-504 440,-510 440,-516 440,-516 440,-528 440,-528 440,-534 434,-540 428,-540"/>
<text text-anchor="middle" x="400" y="-525" font-family="sans" font-size="10.00">contfree_ngs</text>
<text text-anchor="middle" x="400" y="-514" font-family="sans" font-size="10.00">part: 05</text>
</g>
<!-- 37&#45;&gt;46 -->
<g id="edge86" class="edge"><title>37&#45;&gt;46</title>
<path fill="none" stroke="grey" stroke-width="2" d="M400,-575.697C400,-567.983 400,-558.712 400,-550.112"/>
<polygon fill="grey" stroke="grey" points="403.5,-550.104 400,-540.104 396.5,-550.104 403.5,-550.104"/>
</g>
<!-- 38&#45;&gt;37 -->
<g id="edge72" class="edge"><title>38&#45;&gt;37</title>
<path fill="none" stroke="grey" stroke-width="2" d="M253.386,-801.067C276.718,-793.066 309.75,-778.623 331,-756 367.227,-717.432 386.084,-656.915 394.448,-622.103"/>
<polygon fill="grey" stroke="grey" points="397.9,-622.705 396.714,-612.177 391.076,-621.147 397.9,-622.705"/>
</g>
<!-- 40 -->
<g id="node41" class="node"><title>40</title>
<path fill="none" stroke="#bed856" stroke-width="2" d="M266,-684C266,-684 236,-684 236,-684 230,-684 224,-678 224,-672 224,-672 224,-660 224,-660 224,-654 230,-648 236,-648 236,-648 266,-648 266,-648 272,-648 278,-654 278,-660 278,-660 278,-672 278,-672 278,-678 272,-684 266,-684"/>
<text text-anchor="middle" x="251" y="-663.5" font-family="sans" font-size="10.00">kraken</text>
</g>
<!-- 38&#45;&gt;40 -->
<g id="edge76" class="edge"><title>38&#45;&gt;40</title>
<path fill="none" stroke="grey" stroke-width="2" d="M215.394,-791.907C205.526,-773.717 193.643,-744.272 203,-720 207.103,-709.358 214.443,-699.528 222.169,-691.298"/>
<polygon fill="grey" stroke="grey" points="224.67,-693.747 229.29,-684.213 219.733,-688.785 224.67,-693.747"/>
</g>
<!-- 41 -->
<g id="node42" class="node"><title>41</title>
<path fill="none" stroke="#d8d356" stroke-width="2" d="M310,-756C310,-756 224,-756 224,-756 218,-756 212,-750 212,-744 212,-744 212,-732 212,-732 212,-726 218,-720 224,-720 224,-720 310,-720 310,-720 316,-720 322,-726 322,-732 322,-732 322,-744 322,-744 322,-750 316,-756 310,-756"/>
<text text-anchor="middle" x="267" y="-735.5" font-family="sans" font-size="10.00">fastqc_after_bbduk</text>
</g>
<!-- 38&#45;&gt;41 -->
<g id="edge77" class="edge"><title>38&#45;&gt;41</title>
<path fill="none" stroke="grey" stroke-width="2" d="M236.135,-791.697C240.852,-783.644 246.562,-773.894 251.782,-764.982"/>
<polygon fill="grey" stroke="grey" points="254.948,-766.502 256.982,-756.104 248.908,-762.964 254.948,-766.502"/>
</g>
<!-- 39 -->
<g id="node40" class="node"><title>39</title>
<path fill="none" stroke="#68d856" stroke-width="2" d="M295.25,-612C295.25,-612 206.75,-612 206.75,-612 200.75,-612 194.75,-606 194.75,-600 194.75,-600 194.75,-588 194.75,-588 194.75,-582 200.75,-576 206.75,-576 206.75,-576 295.25,-576 295.25,-576 301.25,-576 307.25,-582 307.25,-588 307.25,-588 307.25,-600 307.25,-600 307.25,-606 301.25,-612 295.25,-612"/>
<text text-anchor="middle" x="251" y="-591.5" font-family="sans" font-size="10.00">split_kraken_output</text>
</g>
<!-- 39&#45;&gt;36 -->
<g id="edge71" class="edge"><title>39&#45;&gt;36</title>
<path fill="none" stroke="grey" stroke-width="2" d="M307.301,-578.415C351.854,-566.792 411.392,-551.059 448.214,-540.108"/>
<polygon fill="grey" stroke="grey" points="449.411,-543.403 457.966,-537.154 447.381,-536.704 449.411,-543.403"/>
</g>
<!-- 39&#45;&gt;42 -->
<g id="edge79" class="edge"><title>39&#45;&gt;42</title>
<path fill="none" stroke="grey" stroke-width="2" d="M307.442,-578.079C310.668,-577.345 313.871,-576.646 317,-576 415.162,-555.725 444.774,-564.463 545.792,-540.055"/>
<polygon fill="grey" stroke="grey" points="546.925,-543.38 555.796,-537.587 545.248,-536.584 546.925,-543.38"/>
</g>
<!-- 39&#45;&gt;43 -->
<g id="edge81" class="edge"><title>39&#45;&gt;43</title>
<path fill="none" stroke="grey" stroke-width="2" d="M215.529,-575.876C195.883,-566.392 171.278,-554.513 150.368,-544.419"/>
<polygon fill="grey" stroke="grey" points="151.883,-541.264 141.356,-540.068 148.84,-547.568 151.883,-541.264"/>
</g>
<!-- 39&#45;&gt;44 -->
<g id="edge83" class="edge"><title>39&#45;&gt;44</title>
<path fill="none" stroke="grey" stroke-width="2" d="M239.382,-575.697C233.861,-567.474 227.153,-557.483 221.068,-548.421"/>
<polygon fill="grey" stroke="grey" points="223.965,-546.456 215.484,-540.104 218.153,-550.358 223.965,-546.456"/>
</g>
<!-- 39&#45;&gt;45 -->
<g id="edge85" class="edge"><title>39&#45;&gt;45</title>
<path fill="none" stroke="grey" stroke-width="2" d="M263.607,-575.697C269.597,-567.474 276.876,-557.483 283.479,-548.421"/>
<polygon fill="grey" stroke="grey" points="286.478,-550.248 289.538,-540.104 280.821,-546.126 286.478,-550.248"/>
</g>
<!-- 39&#45;&gt;46 -->
<g id="edge87" class="edge"><title>39&#45;&gt;46</title>
<path fill="none" stroke="grey" stroke-width="2" d="M287.45,-575.876C307.638,-566.392 332.921,-554.513 354.408,-544.419"/>
<polygon fill="grey" stroke="grey" points="356.106,-547.488 363.669,-540.068 353.13,-541.153 356.106,-547.488"/>
</g>
<!-- 40&#45;&gt;39 -->
<g id="edge74" class="edge"><title>40&#45;&gt;39</title>
<path fill="none" stroke="grey" stroke-width="2" d="M251,-647.697C251,-639.983 251,-630.712 251,-622.112"/>
<polygon fill="grey" stroke="grey" points="254.5,-622.104 251,-612.104 247.5,-622.104 254.5,-622.104"/>
</g>
<!-- 41&#45;&gt;40 -->
<g id="edge75" class="edge"><title>41&#45;&gt;40</title>
<path fill="none" stroke="grey" stroke-width="2" d="M263.045,-719.697C261.282,-711.983 259.163,-702.712 257.197,-694.112"/>
<polygon fill="grey" stroke="grey" points="260.55,-693.073 254.91,-684.104 253.726,-694.633 260.55,-693.073"/>
</g>
<!-- 42&#45;&gt;35 -->
<g id="edge65" class="edge"><title>42&#45;&gt;35</title>
<path fill="none" stroke="grey" stroke-width="2" d="M560.04,-503.876C537.43,-493.11 508.342,-479.258 485.61,-468.433"/>
<polygon fill="grey" stroke="grey" points="486.828,-465.137 476.294,-463.997 483.818,-471.457 486.828,-465.137"/>
</g>
<!-- 43&#45;&gt;35 -->
<g id="edge66" class="edge"><title>43&#45;&gt;35</title>
<path fill="none" stroke="grey" stroke-width="2" d="M146.224,-506.488C149.178,-505.594 152.126,-504.753 155,-504 245.969,-480.175 355.559,-463.512 411.759,-455.817"/>
<polygon fill="grey" stroke="grey" points="412.499,-459.249 421.941,-454.442 411.562,-452.312 412.499,-459.249"/>
</g>
<!-- 44&#45;&gt;35 -->
<g id="edge67" class="edge"><title>44&#45;&gt;35</title>
<path fill="none" stroke="grey" stroke-width="2" d="M244.036,-506.855C247.062,-505.864 250.074,-504.902 253,-504 308.004,-487.044 372.581,-470.156 412.141,-460.148"/>
<polygon fill="grey" stroke="grey" points="413.038,-463.531 421.88,-457.695 411.328,-456.743 413.038,-463.531"/>
</g>
<!-- 45&#45;&gt;35 -->
<g id="edge68" class="edge"><title>45&#45;&gt;35</title>
<path fill="none" stroke="grey" stroke-width="2" d="M337.96,-503.876C360.57,-493.11 389.658,-479.258 412.39,-468.433"/>
<polygon fill="grey" stroke="grey" points="414.182,-471.457 421.706,-463.997 411.172,-465.137 414.182,-471.457"/>
</g>
<!-- 46&#45;&gt;35 -->
<g id="edge69" class="edge"><title>46&#45;&gt;35</title>
<path fill="none" stroke="grey" stroke-width="2" d="M412.112,-503.697C417.868,-495.474 424.862,-485.483 431.206,-476.421"/>
<polygon fill="grey" stroke="grey" points="434.16,-478.304 437.027,-468.104 428.425,-474.29 434.16,-478.304"/>
</g>
<!-- 47&#45;&gt;0 -->
<g id="edge5" class="edge"><title>47&#45;&gt;0</title>
<path fill="none" stroke="grey" stroke-width="2" d="M651.381,-143.871C646.246,-119.564 636.793,-74.8187 630.707,-46.0132"/>
<polygon fill="grey" stroke="grey" points="634.123,-45.2498 628.632,-36.1893 627.274,-46.6968 634.123,-45.2498"/>
</g>
<!-- 48&#45;&gt;0 -->
<g id="edge6" class="edge"><title>48&#45;&gt;0</title>
<path fill="none" stroke="grey" stroke-width="2" d="M744.349,-71.8761C719.185,-60.7276 686.556,-46.2715 661.775,-35.2929"/>
<polygon fill="grey" stroke="grey" points="662.919,-31.9713 652.358,-31.1206 660.083,-38.3714 662.919,-31.9713"/>
</g>
<!-- 49&#45;&gt;48 -->
<g id="edge89" class="edge"><title>49&#45;&gt;48</title>
<path fill="none" stroke="grey" stroke-width="2" d="M783,-143.697C783,-135.983 783,-126.712 783,-118.112"/>
<polygon fill="grey" stroke="grey" points="786.5,-118.104 783,-108.104 779.5,-118.104 786.5,-118.104"/>
</g>
</g>
</svg>
