<?xml version="1.0" encoding="UTF-8" standalone="no"?>
<!DOCTYPE svg PUBLIC "-//W3C//DTD SVG 1.1//EN"
 "http://www.w3.org/Graphics/SVG/1.1/DTD/svg11.dtd">
<!-- Generated by graphviz version 2.30.1 (20201013.1554)
 -->
<!-- Title: snakemake_dag Pages: 1 -->
<svg width="1754pt" height="914pt"
 viewBox="0.00 0.00 1754.00 914.00" xmlns="http://www.w3.org/2000/svg" xmlns:xlink="http://www.w3.org/1999/xlink">
<g id="graph0" class="graph" transform="scale(1 1) rotate(0) translate(4 910)">
<title>snakemake_dag</title>
<polygon fill="white" stroke="white" points="-4,5 -4,-910 1751,-910 1751,5 -4,5"/>
<!-- 0 -->
<g id="node1" class="node"><title>0</title>
<path fill="none" stroke="#56d863" stroke-width="2" d="M570,-36C570,-36 540,-36 540,-36 534,-36 528,-30 528,-24 528,-24 528,-12 528,-12 528,-6 534,-0 540,-0 540,-0 570,-0 570,-0 576,-0 582,-6 582,-12 582,-12 582,-24 582,-24 582,-30 576,-36 570,-36"/>
<text text-anchor="middle" x="555" y="-15.5" font-family="sans" font-size="10.00">all</text>
</g>
<!-- 1 -->
<g id="node2" class="node"><title>1</title>
<path fill="none" stroke="#56d8c1" stroke-width="2" d="M513,-108C513,-108 483,-108 483,-108 477,-108 471,-102 471,-96 471,-96 471,-84 471,-84 471,-78 477,-72 483,-72 483,-72 513,-72 513,-72 519,-72 525,-78 525,-84 525,-84 525,-96 525,-96 525,-102 519,-108 513,-108"/>
<text text-anchor="middle" x="498" y="-87.5" font-family="sans" font-size="10.00">busco</text>
</g>
<!-- 1&#45;&gt;0 -->
<g id="edge1" class="edge"><title>1&#45;&gt;0</title>
<path fill="none" stroke="grey" stroke-width="2" d="M512.09,-71.6966C518.923,-63.3046 527.257,-53.0705 534.756,-43.8613"/>
<polygon fill="grey" stroke="grey" points="537.472,-46.0687 541.072,-36.1043 532.044,-41.6487 537.472,-46.0687"/>
</g>
<!-- 2 -->
<g id="node3" class="node"><title>2</title>
<path fill="none" stroke="#bed856" stroke-width="2" d="M656,-252C656,-252 540,-252 540,-252 534,-252 528,-246 528,-240 528,-240 528,-228 528,-228 528,-222 534,-216 540,-216 540,-216 656,-216 656,-216 662,-216 668,-222 668,-228 668,-228 668,-240 668,-240 668,-246 662,-252 656,-252"/>
<text text-anchor="middle" x="598" y="-231.5" font-family="sans" font-size="10.00">extract_contiglenght_301</text>
</g>
<!-- 2&#45;&gt;1 -->
<g id="edge4" class="edge"><title>2&#45;&gt;1</title>
<path fill="none" stroke="grey" stroke-width="2" d="M557.67,-215.903C542.054,-207.325 525.455,-195.427 515,-180 502.696,-161.846 498.752,-137.069 497.711,-118.268"/>
<polygon fill="grey" stroke="grey" points="501.208,-118.135 497.394,-108.251 494.212,-118.356 501.208,-118.135"/>
</g>
<!-- 44 -->
<g id="node45" class="node"><title>44</title>
<path fill="none" stroke="#56d882" stroke-width="2" d="M573.25,-180C573.25,-180 536.75,-180 536.75,-180 530.75,-180 524.75,-174 524.75,-168 524.75,-168 524.75,-156 524.75,-156 524.75,-150 530.75,-144 536.75,-144 536.75,-144 573.25,-144 573.25,-144 579.25,-144 585.25,-150 585.25,-156 585.25,-156 585.25,-168 585.25,-168 585.25,-174 579.25,-180 573.25,-180"/>
<text text-anchor="middle" x="555" y="-159.5" font-family="sans" font-size="10.00">transrate</text>
</g>
<!-- 2&#45;&gt;44 -->
<g id="edge82" class="edge"><title>2&#45;&gt;44</title>
<path fill="none" stroke="grey" stroke-width="2" d="M587.371,-215.697C582.372,-207.559 576.309,-197.689 570.788,-188.701"/>
<polygon fill="grey" stroke="grey" points="573.723,-186.793 565.507,-180.104 567.759,-190.457 573.723,-186.793"/>
</g>
<!-- 46 -->
<g id="node47" class="node"><title>46</title>
<path fill="none" stroke="#56b1d8" stroke-width="2" d="M750,-180C750,-180 616,-180 616,-180 610,-180 604,-174 604,-168 604,-168 604,-156 604,-156 604,-150 610,-144 616,-144 616,-144 750,-144 750,-144 756,-144 762,-150 762,-156 762,-156 762,-168 762,-168 762,-174 756,-180 750,-180"/>
<text text-anchor="middle" x="683" y="-159.5" font-family="sans" font-size="10.00">salmon_transcriptome_index</text>
</g>
<!-- 2&#45;&gt;46 -->
<g id="edge87" class="edge"><title>2&#45;&gt;46</title>
<path fill="none" stroke="grey" stroke-width="2" d="M619.011,-215.697C629.716,-206.881 642.89,-196.032 654.496,-186.474"/>
<polygon fill="grey" stroke="grey" points="656.736,-189.163 662.23,-180.104 652.286,-183.76 656.736,-189.163"/>
</g>
<!-- 3 -->
<g id="node4" class="node"><title>3</title>
<path fill="none" stroke="#d85656" stroke-width="2" d="M706,-324C706,-324 664,-324 664,-324 658,-324 652,-318 652,-312 652,-312 652,-300 652,-300 652,-294 658,-288 664,-288 664,-288 706,-288 706,-288 712,-288 718,-294 718,-300 718,-300 718,-312 718,-312 718,-318 712,-324 706,-324"/>
<text text-anchor="middle" x="685" y="-303.5" font-family="sans" font-size="10.00">cd_hit_est</text>
</g>
<!-- 3&#45;&gt;2 -->
<g id="edge5" class="edge"><title>3&#45;&gt;2</title>
<path fill="none" stroke="grey" stroke-width="2" d="M663.494,-287.697C652.537,-278.881 639.054,-268.032 627.175,-258.474"/>
<polygon fill="grey" stroke="grey" points="629.244,-255.646 619.258,-252.104 624.855,-261.1 629.244,-255.646"/>
</g>
<!-- 4 -->
<g id="node5" class="node"><title>4</title>
<path fill="none" stroke="#68d856" stroke-width="2" d="M860,-396C860,-396 830,-396 830,-396 824,-396 818,-390 818,-384 818,-384 818,-372 818,-372 818,-366 824,-360 830,-360 830,-360 860,-360 860,-360 866,-360 872,-366 872,-372 872,-372 872,-384 872,-384 872,-390 866,-396 860,-396"/>
<text text-anchor="middle" x="845" y="-375.5" font-family="sans" font-size="10.00">trinity</text>
</g>
<!-- 4&#45;&gt;3 -->
<g id="edge6" class="edge"><title>4&#45;&gt;3</title>
<path fill="none" stroke="grey" stroke-width="2" d="M817.858,-365.125C793.106,-354.297 756.136,-338.122 727.474,-325.582"/>
<polygon fill="grey" stroke="grey" points="728.667,-322.284 718.102,-321.482 725.861,-328.697 728.667,-322.284"/>
</g>
<!-- 5 -->
<g id="node6" class="node"><title>5</title>
<path fill="none" stroke="#d87556" stroke-width="2" d="M398,-468C398,-468 368,-468 368,-468 362,-468 356,-462 356,-456 356,-456 356,-444 356,-444 356,-438 362,-432 368,-432 368,-432 398,-432 398,-432 404,-432 410,-438 410,-444 410,-444 410,-456 410,-456 410,-462 404,-468 398,-468"/>
<text text-anchor="middle" x="383" y="-447.5" font-family="sans" font-size="10.00">merge</text>
</g>
<!-- 5&#45;&gt;4 -->
<g id="edge7" class="edge"><title>5&#45;&gt;4</title>
<path fill="none" stroke="grey" stroke-width="2" d="M410.074,-448.095C477.648,-445.3 658.737,-434.51 804,-396 805.257,-395.667 806.526,-395.304 807.801,-394.916"/>
<polygon fill="grey" stroke="grey" points="809.246,-398.12 817.56,-391.553 806.965,-391.502 809.246,-398.12"/>
</g>
<!-- 45 -->
<g id="node46" class="node"><title>45</title>
<path fill="none" stroke="#5692d8" stroke-width="2" d="M857.25,-108C857.25,-108 722.75,-108 722.75,-108 716.75,-108 710.75,-102 710.75,-96 710.75,-96 710.75,-84 710.75,-84 710.75,-78 716.75,-72 722.75,-72 722.75,-72 857.25,-72 857.25,-72 863.25,-72 869.25,-78 869.25,-84 869.25,-84 869.25,-96 869.25,-96 869.25,-102 863.25,-108 857.25,-108"/>
<text text-anchor="middle" x="790" y="-87.5" font-family="sans" font-size="10.00">salmon_transcriptome_quant</text>
</g>
<!-- 5&#45;&gt;45 -->
<g id="edge84" class="edge"><title>5&#45;&gt;45</title>
<path fill="none" stroke="grey" stroke-width="2" d="M410.02,-445.56C500.921,-433.244 790,-387.73 790,-307 790,-307 790,-307 790,-233 790,-192.996 790,-146.653 790,-118.08"/>
<polygon fill="grey" stroke="grey" points="793.5,-118.049 790,-108.049 786.5,-118.049 793.5,-118.049"/>
</g>
<!-- 6 -->
<g id="node7" class="node"><title>6</title>
<path fill="none" stroke="#56d0d8" stroke-width="2" d="M362,-540C362,-540 306,-540 306,-540 300,-540 294,-534 294,-528 294,-528 294,-516 294,-516 294,-510 300,-504 306,-504 306,-504 362,-504 362,-504 368,-504 374,-510 374,-516 374,-516 374,-528 374,-528 374,-534 368,-540 362,-540"/>
<text text-anchor="middle" x="334" y="-525" font-family="sans" font-size="10.00">contfree_ngs</text>
<text text-anchor="middle" x="334" y="-514" font-family="sans" font-size="10.00">part: 00</text>
</g>
<!-- 6&#45;&gt;5 -->
<g id="edge10" class="edge"><title>6&#45;&gt;5</title>
<path fill="none" stroke="grey" stroke-width="2" d="M346.112,-503.697C351.868,-495.474 358.862,-485.483 365.206,-476.421"/>
<polygon fill="grey" stroke="grey" points="368.16,-478.304 371.027,-468.104 362.425,-474.29 368.16,-478.304"/>
</g>
<!-- 7 -->
<g id="node8" class="node"><title>7</title>
<path fill="none" stroke="#d8d356" stroke-width="2" d="M273,-612C273,-612 149,-612 149,-612 143,-612 137,-606 137,-600 137,-600 137,-588 137,-588 137,-582 143,-576 149,-576 149,-576 273,-576 273,-576 279,-576 285,-582 285,-588 285,-588 285,-600 285,-600 285,-606 279,-612 273,-612"/>
<text text-anchor="middle" x="211" y="-591.5" font-family="sans" font-size="10.00">create_index_contfree_ngs</text>
</g>
<!-- 7&#45;&gt;6 -->
<g id="edge16" class="edge"><title>7&#45;&gt;6</title>
<path fill="none" stroke="grey" stroke-width="2" d="M241.089,-575.876C257.32,-566.639 277.542,-555.131 294.971,-545.212"/>
<polygon fill="grey" stroke="grey" points="296.835,-548.178 303.795,-540.19 293.373,-542.094 296.835,-548.178"/>
</g>
<!-- 13 -->
<g id="node14" class="node"><title>13</title>
<path fill="none" stroke="#56d0d8" stroke-width="2" d="M460,-540C460,-540 404,-540 404,-540 398,-540 392,-534 392,-528 392,-528 392,-516 392,-516 392,-510 398,-504 404,-504 404,-504 460,-504 460,-504 466,-504 472,-510 472,-516 472,-516 472,-528 472,-528 472,-534 466,-540 460,-540"/>
<text text-anchor="middle" x="432" y="-525" font-family="sans" font-size="10.00">contfree_ngs</text>
<text text-anchor="middle" x="432" y="-514" font-family="sans" font-size="10.00">part: 01</text>
</g>
<!-- 7&#45;&gt;13 -->
<g id="edge24" class="edge"><title>7&#45;&gt;13</title>
<path fill="none" stroke="grey" stroke-width="2" d="M268.1,-575.953C299.36,-566.493 338.982,-554.298 382.328,-540.171"/>
<polygon fill="grey" stroke="grey" points="383.511,-543.467 391.927,-537.031 381.335,-536.814 383.511,-543.467"/>
</g>
<!-- 14 -->
<g id="node15" class="node"><title>14</title>
<path fill="none" stroke="#56d0d8" stroke-width="2" d="M558,-540C558,-540 502,-540 502,-540 496,-540 490,-534 490,-528 490,-528 490,-516 490,-516 490,-510 496,-504 502,-504 502,-504 558,-504 558,-504 564,-504 570,-510 570,-516 570,-516 570,-528 570,-528 570,-534 564,-540 558,-540"/>
<text text-anchor="middle" x="530" y="-525" font-family="sans" font-size="10.00">contfree_ngs</text>
<text text-anchor="middle" x="530" y="-514" font-family="sans" font-size="10.00">part: 02</text>
</g>
<!-- 7&#45;&gt;14 -->
<g id="edge26" class="edge"><title>7&#45;&gt;14</title>
<path fill="none" stroke="grey" stroke-width="2" d="M285.203,-577.756C288.173,-577.161 291.115,-576.573 294,-576 373.934,-560.12 397.518,-561.774 479.965,-540.087"/>
<polygon fill="grey" stroke="grey" points="481.006,-543.432 489.766,-537.473 479.202,-536.668 481.006,-543.432"/>
</g>
<!-- 15 -->
<g id="node16" class="node"><title>15</title>
<path fill="none" stroke="#56d0d8" stroke-width="2" d="M68,-540C68,-540 12,-540 12,-540 6,-540 0,-534 0,-528 0,-528 0,-516 0,-516 0,-510 6,-504 12,-504 12,-504 68,-504 68,-504 74,-504 80,-510 80,-516 80,-516 80,-528 80,-528 80,-534 74,-540 68,-540"/>
<text text-anchor="middle" x="40" y="-525" font-family="sans" font-size="10.00">contfree_ngs</text>
<text text-anchor="middle" x="40" y="-514" font-family="sans" font-size="10.00">part: 03</text>
</g>
<!-- 7&#45;&gt;15 -->
<g id="edge28" class="edge"><title>7&#45;&gt;15</title>
<path fill="none" stroke="grey" stroke-width="2" d="M169.169,-575.876C145.146,-566.042 114.836,-553.635 89.6151,-543.31"/>
<polygon fill="grey" stroke="grey" points="90.8025,-540.014 80.2219,-539.465 88.1505,-546.493 90.8025,-540.014"/>
</g>
<!-- 16 -->
<g id="node17" class="node"><title>16</title>
<path fill="none" stroke="#56d0d8" stroke-width="2" d="M166,-540C166,-540 110,-540 110,-540 104,-540 98,-534 98,-528 98,-528 98,-516 98,-516 98,-510 104,-504 110,-504 110,-504 166,-504 166,-504 172,-504 178,-510 178,-516 178,-516 178,-528 178,-528 178,-534 172,-540 166,-540"/>
<text text-anchor="middle" x="138" y="-525" font-family="sans" font-size="10.00">contfree_ngs</text>
<text text-anchor="middle" x="138" y="-514" font-family="sans" font-size="10.00">part: 04</text>
</g>
<!-- 7&#45;&gt;16 -->
<g id="edge30" class="edge"><title>7&#45;&gt;16</title>
<path fill="none" stroke="grey" stroke-width="2" d="M192.955,-575.697C183.938,-567.05 172.882,-556.449 163.057,-547.027"/>
<polygon fill="grey" stroke="grey" points="165.478,-544.499 155.837,-540.104 160.633,-549.552 165.478,-544.499"/>
</g>
<!-- 17 -->
<g id="node18" class="node"><title>17</title>
<path fill="none" stroke="#56d0d8" stroke-width="2" d="M264,-540C264,-540 208,-540 208,-540 202,-540 196,-534 196,-528 196,-528 196,-516 196,-516 196,-510 202,-504 208,-504 208,-504 264,-504 264,-504 270,-504 276,-510 276,-516 276,-516 276,-528 276,-528 276,-534 270,-540 264,-540"/>
<text text-anchor="middle" x="236" y="-525" font-family="sans" font-size="10.00">contfree_ngs</text>
<text text-anchor="middle" x="236" y="-514" font-family="sans" font-size="10.00">part: 05</text>
</g>
<!-- 7&#45;&gt;17 -->
<g id="edge32" class="edge"><title>7&#45;&gt;17</title>
<path fill="none" stroke="grey" stroke-width="2" d="M217.18,-575.697C219.995,-567.813 223.391,-558.304 226.519,-549.546"/>
<polygon fill="grey" stroke="grey" points="229.824,-550.699 229.891,-540.104 223.232,-548.345 229.824,-550.699"/>
</g>
<!-- 8 -->
<g id="node9" class="node"><title>8</title>
<path fill="none" stroke="#88d856" stroke-width="2" d="M309,-828C309,-828 279,-828 279,-828 273,-828 267,-822 267,-816 267,-816 267,-804 267,-804 267,-798 273,-792 279,-792 279,-792 309,-792 309,-792 315,-792 321,-798 321,-804 321,-804 321,-816 321,-816 321,-822 315,-828 309,-828"/>
<text text-anchor="middle" x="294" y="-807.5" font-family="sans" font-size="10.00">bbduk</text>
</g>
<!-- 8&#45;&gt;7 -->
<g id="edge18" class="edge"><title>8&#45;&gt;7</title>
<path fill="none" stroke="grey" stroke-width="2" d="M266.993,-793.569C253.586,-784.431 238.481,-771.587 230,-756 206.938,-713.614 206.244,-655.791 208.301,-622.217"/>
<polygon fill="grey" stroke="grey" points="211.793,-622.45 209.041,-612.219 204.813,-621.934 211.793,-622.45"/>
</g>
<!-- 11 -->
<g id="node12" class="node"><title>11</title>
<path fill="none" stroke="#56d8a2" stroke-width="2" d="M375,-684C375,-684 345,-684 345,-684 339,-684 333,-678 333,-672 333,-672 333,-660 333,-660 333,-654 339,-648 345,-648 345,-648 375,-648 375,-648 381,-648 387,-654 387,-660 387,-660 387,-672 387,-672 387,-678 381,-684 375,-684"/>
<text text-anchor="middle" x="360" y="-663.5" font-family="sans" font-size="10.00">kraken</text>
</g>
<!-- 8&#45;&gt;11 -->
<g id="edge22" class="edge"><title>8&#45;&gt;11</title>
<path fill="none" stroke="grey" stroke-width="2" d="M321.283,-794.101C334.947,-785.04 350.206,-772.102 358,-756 367.288,-736.812 367.148,-712.465 365.043,-694.088"/>
<polygon fill="grey" stroke="grey" points="368.489,-693.458 363.633,-684.041 361.557,-694.431 368.489,-693.458"/>
</g>
<!-- 12 -->
<g id="node13" class="node"><title>12</title>
<path fill="none" stroke="#9fd856" stroke-width="2" d="M337,-756C337,-756 251,-756 251,-756 245,-756 239,-750 239,-744 239,-744 239,-732 239,-732 239,-726 245,-720 251,-720 251,-720 337,-720 337,-720 343,-720 349,-726 349,-732 349,-732 349,-744 349,-744 349,-750 343,-756 337,-756"/>
<text text-anchor="middle" x="294" y="-735.5" font-family="sans" font-size="10.00">fastqc_after_bbduk</text>
</g>
<!-- 8&#45;&gt;12 -->
<g id="edge23" class="edge"><title>8&#45;&gt;12</title>
<path fill="none" stroke="grey" stroke-width="2" d="M294,-791.697C294,-783.983 294,-774.712 294,-766.112"/>
<polygon fill="grey" stroke="grey" points="297.5,-766.104 294,-756.104 290.5,-766.104 297.5,-766.104"/>
</g>
<!-- 9 -->
<g id="node10" class="node"><title>9</title>
<path fill="none" stroke="#d8b456" stroke-width="2" d="M342,-905.5C342,-905.5 246,-905.5 246,-905.5 240,-905.5 234,-899.5 234,-893.5 234,-893.5 234,-876.5 234,-876.5 234,-870.5 240,-864.5 246,-864.5 246,-864.5 342,-864.5 342,-864.5 348,-864.5 354,-870.5 354,-876.5 354,-876.5 354,-893.5 354,-893.5 354,-899.5 348,-905.5 342,-905.5"/>
<text text-anchor="middle" x="294" y="-893.5" font-family="sans" font-size="10.00">download_fastq</text>
<text text-anchor="middle" x="294" y="-882.5" font-family="sans" font-size="10.00">genotype: Rio</text>
<text text-anchor="middle" x="294" y="-871.5" font-family="sans" font-size="10.00">sample: SRR6257144</text>
</g>
<!-- 9&#45;&gt;8 -->
<g id="edge19" class="edge"><title>9&#45;&gt;8</title>
<path fill="none" stroke="grey" stroke-width="2" d="M294,-864.437C294,-856.391 294,-846.933 294,-838.228"/>
<polygon fill="grey" stroke="grey" points="297.5,-838.13 294,-828.13 290.5,-838.13 297.5,-838.13"/>
</g>
<!-- 10 -->
<g id="node11" class="node"><title>10</title>
<path fill="none" stroke="#d89556" stroke-width="2" d="M404.25,-612C404.25,-612 315.75,-612 315.75,-612 309.75,-612 303.75,-606 303.75,-600 303.75,-600 303.75,-588 303.75,-588 303.75,-582 309.75,-576 315.75,-576 315.75,-576 404.25,-576 404.25,-576 410.25,-576 416.25,-582 416.25,-588 416.25,-588 416.25,-600 416.25,-600 416.25,-606 410.25,-612 404.25,-612"/>
<text text-anchor="middle" x="360" y="-591.5" font-family="sans" font-size="10.00">split_kraken_output</text>
</g>
<!-- 10&#45;&gt;6 -->
<g id="edge17" class="edge"><title>10&#45;&gt;6</title>
<path fill="none" stroke="grey" stroke-width="2" d="M353.573,-575.697C350.645,-567.813 347.113,-558.304 343.86,-549.546"/>
<polygon fill="grey" stroke="grey" points="347.116,-548.26 340.353,-540.104 340.554,-550.697 347.116,-548.26"/>
</g>
<!-- 10&#45;&gt;13 -->
<g id="edge25" class="edge"><title>10&#45;&gt;13</title>
<path fill="none" stroke="grey" stroke-width="2" d="M377.798,-575.697C386.604,-567.135 397.382,-556.656 407.001,-547.304"/>
<polygon fill="grey" stroke="grey" points="409.677,-549.585 414.407,-540.104 404.797,-544.566 409.677,-549.585"/>
</g>
<!-- 10&#45;&gt;14 -->
<g id="edge27" class="edge"><title>10&#45;&gt;14</title>
<path fill="none" stroke="grey" stroke-width="2" d="M401.587,-575.876C425.382,-566.078 455.382,-553.725 480.4,-543.423"/>
<polygon fill="grey" stroke="grey" points="481.807,-546.629 489.722,-539.585 479.142,-540.156 481.807,-546.629"/>
</g>
<!-- 10&#45;&gt;15 -->
<g id="edge29" class="edge"><title>10&#45;&gt;15</title>
<path fill="none" stroke="grey" stroke-width="2" d="M303.543,-578.148C300.321,-577.397 297.123,-576.675 294,-576 206.675,-557.116 180.328,-562.802 90.0502,-540.051"/>
<polygon fill="grey" stroke="grey" points="90.7762,-536.624 80.2199,-537.526 89.0349,-543.404 90.7762,-536.624"/>
</g>
<!-- 10&#45;&gt;16 -->
<g id="edge31" class="edge"><title>10&#45;&gt;16</title>
<path fill="none" stroke="grey" stroke-width="2" d="M303.739,-576.333C272.143,-566.841 231.789,-554.502 187.809,-540.213"/>
<polygon fill="grey" stroke="grey" points="188.663,-536.81 178.071,-537.036 186.492,-543.465 188.663,-536.81"/>
</g>
<!-- 10&#45;&gt;17 -->
<g id="edge33" class="edge"><title>10&#45;&gt;17</title>
<path fill="none" stroke="grey" stroke-width="2" d="M329.666,-575.876C313.303,-566.639 292.917,-555.131 275.346,-545.212"/>
<polygon fill="grey" stroke="grey" points="276.879,-542.058 266.45,-540.19 273.438,-548.154 276.879,-542.058"/>
</g>
<!-- 11&#45;&gt;10 -->
<g id="edge20" class="edge"><title>11&#45;&gt;10</title>
<path fill="none" stroke="grey" stroke-width="2" d="M360,-647.697C360,-639.983 360,-630.712 360,-622.112"/>
<polygon fill="grey" stroke="grey" points="363.5,-622.104 360,-612.104 356.5,-622.104 363.5,-622.104"/>
</g>
<!-- 12&#45;&gt;11 -->
<g id="edge21" class="edge"><title>12&#45;&gt;11</title>
<path fill="none" stroke="grey" stroke-width="2" d="M310.315,-719.697C318.307,-711.22 328.072,-700.864 336.822,-691.583"/>
<polygon fill="grey" stroke="grey" points="339.559,-693.781 343.873,-684.104 334.466,-688.979 339.559,-693.781"/>
</g>
<!-- 13&#45;&gt;5 -->
<g id="edge11" class="edge"><title>13&#45;&gt;5</title>
<path fill="none" stroke="grey" stroke-width="2" d="M419.888,-503.697C414.132,-495.474 407.138,-485.483 400.794,-476.421"/>
<polygon fill="grey" stroke="grey" points="403.575,-474.29 394.973,-468.104 397.84,-478.304 403.575,-474.29"/>
</g>
<!-- 14&#45;&gt;5 -->
<g id="edge12" class="edge"><title>14&#45;&gt;5</title>
<path fill="none" stroke="grey" stroke-width="2" d="M494.04,-503.876C471.43,-493.11 442.342,-479.258 419.61,-468.433"/>
<polygon fill="grey" stroke="grey" points="420.828,-465.137 410.294,-463.997 417.818,-471.457 420.828,-465.137"/>
</g>
<!-- 15&#45;&gt;5 -->
<g id="edge13" class="edge"><title>15&#45;&gt;5</title>
<path fill="none" stroke="grey" stroke-width="2" d="M80.2237,-506.488C83.1779,-505.594 86.1255,-504.753 89,-504 179.969,-480.175 289.559,-463.512 345.759,-455.817"/>
<polygon fill="grey" stroke="grey" points="346.499,-459.249 355.941,-454.442 345.562,-452.312 346.499,-459.249"/>
</g>
<!-- 16&#45;&gt;5 -->
<g id="edge14" class="edge"><title>16&#45;&gt;5</title>
<path fill="none" stroke="grey" stroke-width="2" d="M178.036,-506.855C181.062,-505.864 184.074,-504.902 187,-504 242.004,-487.044 306.581,-470.156 346.141,-460.148"/>
<polygon fill="grey" stroke="grey" points="347.038,-463.531 355.88,-457.695 345.328,-456.743 347.038,-463.531"/>
</g>
<!-- 17&#45;&gt;5 -->
<g id="edge15" class="edge"><title>17&#45;&gt;5</title>
<path fill="none" stroke="grey" stroke-width="2" d="M271.96,-503.876C294.57,-493.11 323.658,-479.258 346.39,-468.433"/>
<polygon fill="grey" stroke="grey" points="348.182,-471.457 355.706,-463.997 345.172,-465.137 348.182,-471.457"/>
</g>
<!-- 18 -->
<g id="node19" class="node"><title>18</title>
<path fill="none" stroke="#d87556" stroke-width="2" d="M888,-468C888,-468 858,-468 858,-468 852,-468 846,-462 846,-456 846,-456 846,-444 846,-444 846,-438 852,-432 858,-432 858,-432 888,-432 888,-432 894,-432 900,-438 900,-444 900,-444 900,-456 900,-456 900,-462 894,-468 888,-468"/>
<text text-anchor="middle" x="873" y="-447.5" font-family="sans" font-size="10.00">merge</text>
</g>
<!-- 18&#45;&gt;4 -->
<g id="edge8" class="edge"><title>18&#45;&gt;4</title>
<path fill="none" stroke="grey" stroke-width="2" d="M866.079,-431.697C862.925,-423.813 859.122,-414.304 855.619,-405.546"/>
<polygon fill="grey" stroke="grey" points="858.805,-404.089 851.842,-396.104 852.306,-406.689 858.805,-404.089"/>
</g>
<!-- 18&#45;&gt;45 -->
<g id="edge85" class="edge"><title>18&#45;&gt;45</title>
<path fill="none" stroke="grey" stroke-width="2" d="M878.464,-431.713C886.353,-405.175 900,-352.672 900,-307 900,-307 900,-307 900,-233 900,-182.761 856.436,-139.517 824.139,-114.361"/>
<polygon fill="grey" stroke="grey" points="825.88,-111.289 815.79,-108.058 821.663,-116.876 825.88,-111.289"/>
</g>
<!-- 19 -->
<g id="node20" class="node"><title>19</title>
<path fill="none" stroke="#56d0d8" stroke-width="2" d="M950,-540C950,-540 894,-540 894,-540 888,-540 882,-534 882,-528 882,-528 882,-516 882,-516 882,-510 888,-504 894,-504 894,-504 950,-504 950,-504 956,-504 962,-510 962,-516 962,-516 962,-528 962,-528 962,-534 956,-540 950,-540"/>
<text text-anchor="middle" x="922" y="-525" font-family="sans" font-size="10.00">contfree_ngs</text>
<text text-anchor="middle" x="922" y="-514" font-family="sans" font-size="10.00">part: 00</text>
</g>
<!-- 19&#45;&gt;18 -->
<g id="edge34" class="edge"><title>19&#45;&gt;18</title>
<path fill="none" stroke="grey" stroke-width="2" d="M909.888,-503.697C904.132,-495.474 897.138,-485.483 890.794,-476.421"/>
<polygon fill="grey" stroke="grey" points="893.575,-474.29 884.973,-468.104 887.84,-478.304 893.575,-474.29"/>
</g>
<!-- 20 -->
<g id="node21" class="node"><title>20</title>
<path fill="none" stroke="#d8d356" stroke-width="2" d="M861,-612C861,-612 737,-612 737,-612 731,-612 725,-606 725,-600 725,-600 725,-588 725,-588 725,-582 731,-576 737,-576 737,-576 861,-576 861,-576 867,-576 873,-582 873,-588 873,-588 873,-600 873,-600 873,-606 867,-612 861,-612"/>
<text text-anchor="middle" x="799" y="-591.5" font-family="sans" font-size="10.00">create_index_contfree_ngs</text>
</g>
<!-- 20&#45;&gt;19 -->
<g id="edge40" class="edge"><title>20&#45;&gt;19</title>
<path fill="none" stroke="grey" stroke-width="2" d="M829.089,-575.876C845.32,-566.639 865.542,-555.131 882.971,-545.212"/>
<polygon fill="grey" stroke="grey" points="884.835,-548.178 891.795,-540.19 881.373,-542.094 884.835,-548.178"/>
</g>
<!-- 26 -->
<g id="node27" class="node"><title>26</title>
<path fill="none" stroke="#56d0d8" stroke-width="2" d="M1048,-540C1048,-540 992,-540 992,-540 986,-540 980,-534 980,-528 980,-528 980,-516 980,-516 980,-510 986,-504 992,-504 992,-504 1048,-504 1048,-504 1054,-504 1060,-510 1060,-516 1060,-516 1060,-528 1060,-528 1060,-534 1054,-540 1048,-540"/>
<text text-anchor="middle" x="1020" y="-525" font-family="sans" font-size="10.00">contfree_ngs</text>
<text text-anchor="middle" x="1020" y="-514" font-family="sans" font-size="10.00">part: 01</text>
</g>
<!-- 20&#45;&gt;26 -->
<g id="edge48" class="edge"><title>20&#45;&gt;26</title>
<path fill="none" stroke="grey" stroke-width="2" d="M856.1,-575.953C887.36,-566.493 926.982,-554.298 970.328,-540.171"/>
<polygon fill="grey" stroke="grey" points="971.511,-543.467 979.927,-537.031 969.335,-536.814 971.511,-543.467"/>
</g>
<!-- 27 -->
<g id="node28" class="node"><title>27</title>
<path fill="none" stroke="#56d0d8" stroke-width="2" d="M1146,-540C1146,-540 1090,-540 1090,-540 1084,-540 1078,-534 1078,-528 1078,-528 1078,-516 1078,-516 1078,-510 1084,-504 1090,-504 1090,-504 1146,-504 1146,-504 1152,-504 1158,-510 1158,-516 1158,-516 1158,-528 1158,-528 1158,-534 1152,-540 1146,-540"/>
<text text-anchor="middle" x="1118" y="-525" font-family="sans" font-size="10.00">contfree_ngs</text>
<text text-anchor="middle" x="1118" y="-514" font-family="sans" font-size="10.00">part: 02</text>
</g>
<!-- 20&#45;&gt;27 -->
<g id="edge50" class="edge"><title>20&#45;&gt;27</title>
<path fill="none" stroke="grey" stroke-width="2" d="M873.203,-577.756C876.173,-577.161 879.115,-576.573 882,-576 961.934,-560.12 985.518,-561.774 1067.96,-540.087"/>
<polygon fill="grey" stroke="grey" points="1069.01,-543.432 1077.77,-537.473 1067.2,-536.668 1069.01,-543.432"/>
</g>
<!-- 28 -->
<g id="node29" class="node"><title>28</title>
<path fill="none" stroke="#56d0d8" stroke-width="2" d="M656,-540C656,-540 600,-540 600,-540 594,-540 588,-534 588,-528 588,-528 588,-516 588,-516 588,-510 594,-504 600,-504 600,-504 656,-504 656,-504 662,-504 668,-510 668,-516 668,-516 668,-528 668,-528 668,-534 662,-540 656,-540"/>
<text text-anchor="middle" x="628" y="-525" font-family="sans" font-size="10.00">contfree_ngs</text>
<text text-anchor="middle" x="628" y="-514" font-family="sans" font-size="10.00">part: 03</text>
</g>
<!-- 20&#45;&gt;28 -->
<g id="edge52" class="edge"><title>20&#45;&gt;28</title>
<path fill="none" stroke="grey" stroke-width="2" d="M757.169,-575.876C733.146,-566.042 702.836,-553.635 677.615,-543.31"/>
<polygon fill="grey" stroke="grey" points="678.802,-540.014 668.222,-539.465 676.151,-546.493 678.802,-540.014"/>
</g>
<!-- 29 -->
<g id="node30" class="node"><title>29</title>
<path fill="none" stroke="#56d0d8" stroke-width="2" d="M754,-540C754,-540 698,-540 698,-540 692,-540 686,-534 686,-528 686,-528 686,-516 686,-516 686,-510 692,-504 698,-504 698,-504 754,-504 754,-504 760,-504 766,-510 766,-516 766,-516 766,-528 766,-528 766,-534 760,-540 754,-540"/>
<text text-anchor="middle" x="726" y="-525" font-family="sans" font-size="10.00">contfree_ngs</text>
<text text-anchor="middle" x="726" y="-514" font-family="sans" font-size="10.00">part: 04</text>
</g>
<!-- 20&#45;&gt;29 -->
<g id="edge54" class="edge"><title>20&#45;&gt;29</title>
<path fill="none" stroke="grey" stroke-width="2" d="M780.955,-575.697C771.938,-567.05 760.882,-556.449 751.057,-547.027"/>
<polygon fill="grey" stroke="grey" points="753.478,-544.499 743.837,-540.104 748.633,-549.552 753.478,-544.499"/>
</g>
<!-- 30 -->
<g id="node31" class="node"><title>30</title>
<path fill="none" stroke="#56d0d8" stroke-width="2" d="M852,-540C852,-540 796,-540 796,-540 790,-540 784,-534 784,-528 784,-528 784,-516 784,-516 784,-510 790,-504 796,-504 796,-504 852,-504 852,-504 858,-504 864,-510 864,-516 864,-516 864,-528 864,-528 864,-534 858,-540 852,-540"/>
<text text-anchor="middle" x="824" y="-525" font-family="sans" font-size="10.00">contfree_ngs</text>
<text text-anchor="middle" x="824" y="-514" font-family="sans" font-size="10.00">part: 05</text>
</g>
<!-- 20&#45;&gt;30 -->
<g id="edge56" class="edge"><title>20&#45;&gt;30</title>
<path fill="none" stroke="grey" stroke-width="2" d="M805.18,-575.697C807.995,-567.813 811.391,-558.304 814.519,-549.546"/>
<polygon fill="grey" stroke="grey" points="817.824,-550.699 817.891,-540.104 811.232,-548.345 817.824,-550.699"/>
</g>
<!-- 21 -->
<g id="node22" class="node"><title>21</title>
<path fill="none" stroke="#88d856" stroke-width="2" d="M897,-828C897,-828 867,-828 867,-828 861,-828 855,-822 855,-816 855,-816 855,-804 855,-804 855,-798 861,-792 867,-792 867,-792 897,-792 897,-792 903,-792 909,-798 909,-804 909,-804 909,-816 909,-816 909,-822 903,-828 897,-828"/>
<text text-anchor="middle" x="882" y="-807.5" font-family="sans" font-size="10.00">bbduk</text>
</g>
<!-- 21&#45;&gt;20 -->
<g id="edge42" class="edge"><title>21&#45;&gt;20</title>
<path fill="none" stroke="grey" stroke-width="2" d="M854.993,-793.569C841.586,-784.431 826.481,-771.587 818,-756 794.938,-713.614 794.244,-655.791 796.301,-622.217"/>
<polygon fill="grey" stroke="grey" points="799.793,-622.45 797.041,-612.219 792.813,-621.934 799.793,-622.45"/>
</g>
<!-- 24 -->
<g id="node25" class="node"><title>24</title>
<path fill="none" stroke="#56d8a2" stroke-width="2" d="M963,-684C963,-684 933,-684 933,-684 927,-684 921,-678 921,-672 921,-672 921,-660 921,-660 921,-654 927,-648 933,-648 933,-648 963,-648 963,-648 969,-648 975,-654 975,-660 975,-660 975,-672 975,-672 975,-678 969,-684 963,-684"/>
<text text-anchor="middle" x="948" y="-663.5" font-family="sans" font-size="10.00">kraken</text>
</g>
<!-- 21&#45;&gt;24 -->
<g id="edge46" class="edge"><title>21&#45;&gt;24</title>
<path fill="none" stroke="grey" stroke-width="2" d="M909.283,-794.101C922.947,-785.04 938.206,-772.102 946,-756 955.288,-736.812 955.148,-712.465 953.043,-694.088"/>
<polygon fill="grey" stroke="grey" points="956.489,-693.458 951.633,-684.041 949.557,-694.431 956.489,-693.458"/>
</g>
<!-- 25 -->
<g id="node26" class="node"><title>25</title>
<path fill="none" stroke="#9fd856" stroke-width="2" d="M925,-756C925,-756 839,-756 839,-756 833,-756 827,-750 827,-744 827,-744 827,-732 827,-732 827,-726 833,-720 839,-720 839,-720 925,-720 925,-720 931,-720 937,-726 937,-732 937,-732 937,-744 937,-744 937,-750 931,-756 925,-756"/>
<text text-anchor="middle" x="882" y="-735.5" font-family="sans" font-size="10.00">fastqc_after_bbduk</text>
</g>
<!-- 21&#45;&gt;25 -->
<g id="edge47" class="edge"><title>21&#45;&gt;25</title>
<path fill="none" stroke="grey" stroke-width="2" d="M882,-791.697C882,-783.983 882,-774.712 882,-766.112"/>
<polygon fill="grey" stroke="grey" points="885.5,-766.104 882,-756.104 878.5,-766.104 885.5,-766.104"/>
</g>
<!-- 22 -->
<g id="node23" class="node"><title>22</title>
<path fill="none" stroke="#d8b456" stroke-width="2" d="M930,-905.5C930,-905.5 834,-905.5 834,-905.5 828,-905.5 822,-899.5 822,-893.5 822,-893.5 822,-876.5 822,-876.5 822,-870.5 828,-864.5 834,-864.5 834,-864.5 930,-864.5 930,-864.5 936,-864.5 942,-870.5 942,-876.5 942,-876.5 942,-893.5 942,-893.5 942,-899.5 936,-905.5 930,-905.5"/>
<text text-anchor="middle" x="882" y="-893.5" font-family="sans" font-size="10.00">download_fastq</text>
<text text-anchor="middle" x="882" y="-882.5" font-family="sans" font-size="10.00">genotype: Rio</text>
<text text-anchor="middle" x="882" y="-871.5" font-family="sans" font-size="10.00">sample: SRR6257146</text>
</g>
<!-- 22&#45;&gt;21 -->
<g id="edge43" class="edge"><title>22&#45;&gt;21</title>
<path fill="none" stroke="grey" stroke-width="2" d="M882,-864.437C882,-856.391 882,-846.933 882,-838.228"/>
<polygon fill="grey" stroke="grey" points="885.5,-838.13 882,-828.13 878.5,-838.13 885.5,-838.13"/>
</g>
<!-- 23 -->
<g id="node24" class="node"><title>23</title>
<path fill="none" stroke="#d89556" stroke-width="2" d="M992.25,-612C992.25,-612 903.75,-612 903.75,-612 897.75,-612 891.75,-606 891.75,-600 891.75,-600 891.75,-588 891.75,-588 891.75,-582 897.75,-576 903.75,-576 903.75,-576 992.25,-576 992.25,-576 998.25,-576 1004.25,-582 1004.25,-588 1004.25,-588 1004.25,-600 1004.25,-600 1004.25,-606 998.25,-612 992.25,-612"/>
<text text-anchor="middle" x="948" y="-591.5" font-family="sans" font-size="10.00">split_kraken_output</text>
</g>
<!-- 23&#45;&gt;19 -->
<g id="edge41" class="edge"><title>23&#45;&gt;19</title>
<path fill="none" stroke="grey" stroke-width="2" d="M941.573,-575.697C938.645,-567.813 935.113,-558.304 931.86,-549.546"/>
<polygon fill="grey" stroke="grey" points="935.116,-548.26 928.353,-540.104 928.554,-550.697 935.116,-548.26"/>
</g>
<!-- 23&#45;&gt;26 -->
<g id="edge49" class="edge"><title>23&#45;&gt;26</title>
<path fill="none" stroke="grey" stroke-width="2" d="M965.798,-575.697C974.604,-567.135 985.382,-556.656 995.001,-547.304"/>
<polygon fill="grey" stroke="grey" points="997.677,-549.585 1002.41,-540.104 992.797,-544.566 997.677,-549.585"/>
</g>
<!-- 23&#45;&gt;27 -->
<g id="edge51" class="edge"><title>23&#45;&gt;27</title>
<path fill="none" stroke="grey" stroke-width="2" d="M989.587,-575.876C1013.38,-566.078 1043.38,-553.725 1068.4,-543.423"/>
<polygon fill="grey" stroke="grey" points="1069.81,-546.629 1077.72,-539.585 1067.14,-540.156 1069.81,-546.629"/>
</g>
<!-- 23&#45;&gt;28 -->
<g id="edge53" class="edge"><title>23&#45;&gt;28</title>
<path fill="none" stroke="grey" stroke-width="2" d="M891.543,-578.148C888.321,-577.397 885.123,-576.675 882,-576 794.675,-557.116 768.328,-562.802 678.05,-540.051"/>
<polygon fill="grey" stroke="grey" points="678.776,-536.624 668.22,-537.526 677.035,-543.404 678.776,-536.624"/>
</g>
<!-- 23&#45;&gt;29 -->
<g id="edge55" class="edge"><title>23&#45;&gt;29</title>
<path fill="none" stroke="grey" stroke-width="2" d="M891.739,-576.333C860.143,-566.841 819.789,-554.502 775.809,-540.213"/>
<polygon fill="grey" stroke="grey" points="776.663,-536.81 766.071,-537.036 774.492,-543.465 776.663,-536.81"/>
</g>
<!-- 23&#45;&gt;30 -->
<g id="edge57" class="edge"><title>23&#45;&gt;30</title>
<path fill="none" stroke="grey" stroke-width="2" d="M917.666,-575.876C901.303,-566.639 880.917,-555.131 863.346,-545.212"/>
<polygon fill="grey" stroke="grey" points="864.879,-542.058 854.45,-540.19 861.438,-548.154 864.879,-542.058"/>
</g>
<!-- 24&#45;&gt;23 -->
<g id="edge44" class="edge"><title>24&#45;&gt;23</title>
<path fill="none" stroke="grey" stroke-width="2" d="M948,-647.697C948,-639.983 948,-630.712 948,-622.112"/>
<polygon fill="grey" stroke="grey" points="951.5,-622.104 948,-612.104 944.5,-622.104 951.5,-622.104"/>
</g>
<!-- 25&#45;&gt;24 -->
<g id="edge45" class="edge"><title>25&#45;&gt;24</title>
<path fill="none" stroke="grey" stroke-width="2" d="M898.315,-719.697C906.307,-711.22 916.072,-700.864 924.822,-691.583"/>
<polygon fill="grey" stroke="grey" points="927.559,-693.781 931.873,-684.104 922.466,-688.979 927.559,-693.781"/>
</g>
<!-- 26&#45;&gt;18 -->
<g id="edge35" class="edge"><title>26&#45;&gt;18</title>
<path fill="none" stroke="grey" stroke-width="2" d="M984.04,-503.876C961.43,-493.11 932.342,-479.258 909.61,-468.433"/>
<polygon fill="grey" stroke="grey" points="910.828,-465.137 900.294,-463.997 907.818,-471.457 910.828,-465.137"/>
</g>
<!-- 27&#45;&gt;18 -->
<g id="edge36" class="edge"><title>27&#45;&gt;18</title>
<path fill="none" stroke="grey" stroke-width="2" d="M1077.96,-506.855C1074.94,-505.864 1071.93,-504.902 1069,-504 1014,-487.044 949.419,-470.156 909.859,-460.148"/>
<polygon fill="grey" stroke="grey" points="910.672,-456.743 900.12,-457.695 908.962,-463.531 910.672,-456.743"/>
</g>
<!-- 28&#45;&gt;18 -->
<g id="edge37" class="edge"><title>28&#45;&gt;18</title>
<path fill="none" stroke="grey" stroke-width="2" d="M668.036,-506.855C671.062,-505.864 674.074,-504.902 677,-504 732.004,-487.044 796.581,-470.156 836.141,-460.148"/>
<polygon fill="grey" stroke="grey" points="837.038,-463.531 845.88,-457.695 835.328,-456.743 837.038,-463.531"/>
</g>
<!-- 29&#45;&gt;18 -->
<g id="edge38" class="edge"><title>29&#45;&gt;18</title>
<path fill="none" stroke="grey" stroke-width="2" d="M761.96,-503.876C784.57,-493.11 813.658,-479.258 836.39,-468.433"/>
<polygon fill="grey" stroke="grey" points="838.182,-471.457 845.706,-463.997 835.172,-465.137 838.182,-471.457"/>
</g>
<!-- 30&#45;&gt;18 -->
<g id="edge39" class="edge"><title>30&#45;&gt;18</title>
<path fill="none" stroke="grey" stroke-width="2" d="M836.112,-503.697C841.868,-495.474 848.862,-485.483 855.206,-476.421"/>
<polygon fill="grey" stroke="grey" points="858.16,-478.304 861.027,-468.104 852.425,-474.29 858.16,-478.304"/>
</g>
<!-- 31 -->
<g id="node32" class="node"><title>31</title>
<path fill="none" stroke="#d87556" stroke-width="2" d="M1378,-468C1378,-468 1348,-468 1348,-468 1342,-468 1336,-462 1336,-456 1336,-456 1336,-444 1336,-444 1336,-438 1342,-432 1348,-432 1348,-432 1378,-432 1378,-432 1384,-432 1390,-438 1390,-444 1390,-444 1390,-456 1390,-456 1390,-462 1384,-468 1378,-468"/>
<text text-anchor="middle" x="1363" y="-447.5" font-family="sans" font-size="10.00">merge</text>
</g>
<!-- 31&#45;&gt;4 -->
<g id="edge9" class="edge"><title>31&#45;&gt;4</title>
<path fill="none" stroke="grey" stroke-width="2" d="M1335.88,-445.335C1249.61,-433.678 981.421,-397.435 882.308,-384.042"/>
<polygon fill="grey" stroke="grey" points="882.542,-380.542 872.164,-382.671 881.605,-387.479 882.542,-380.542"/>
</g>
<!-- 31&#45;&gt;45 -->
<g id="edge86" class="edge"><title>31&#45;&gt;45</title>
<path fill="none" stroke="grey" stroke-width="2" d="M1335.59,-444.079C1278.06,-432.005 1150,-395.22 1150,-307 1150,-307 1150,-307 1150,-233 1150,-174.933 985.873,-130.542 879.259,-107.832"/>
<polygon fill="grey" stroke="grey" points="879.955,-104.402 869.449,-105.768 878.515,-111.252 879.955,-104.402"/>
</g>
<!-- 32 -->
<g id="node33" class="node"><title>32</title>
<path fill="none" stroke="#56d0d8" stroke-width="2" d="M1538,-540C1538,-540 1482,-540 1482,-540 1476,-540 1470,-534 1470,-528 1470,-528 1470,-516 1470,-516 1470,-510 1476,-504 1482,-504 1482,-504 1538,-504 1538,-504 1544,-504 1550,-510 1550,-516 1550,-516 1550,-528 1550,-528 1550,-534 1544,-540 1538,-540"/>
<text text-anchor="middle" x="1510" y="-525" font-family="sans" font-size="10.00">contfree_ngs</text>
<text text-anchor="middle" x="1510" y="-514" font-family="sans" font-size="10.00">part: 00</text>
</g>
<!-- 32&#45;&gt;31 -->
<g id="edge58" class="edge"><title>32&#45;&gt;31</title>
<path fill="none" stroke="grey" stroke-width="2" d="M1474.04,-503.876C1451.43,-493.11 1422.34,-479.258 1399.61,-468.433"/>
<polygon fill="grey" stroke="grey" points="1400.83,-465.137 1390.29,-463.997 1397.82,-471.457 1400.83,-465.137"/>
</g>
<!-- 33 -->
<g id="node34" class="node"><title>33</title>
<path fill="none" stroke="#d8d356" stroke-width="2" d="M1448,-612C1448,-612 1324,-612 1324,-612 1318,-612 1312,-606 1312,-600 1312,-600 1312,-588 1312,-588 1312,-582 1318,-576 1324,-576 1324,-576 1448,-576 1448,-576 1454,-576 1460,-582 1460,-588 1460,-588 1460,-600 1460,-600 1460,-606 1454,-612 1448,-612"/>
<text text-anchor="middle" x="1386" y="-591.5" font-family="sans" font-size="10.00">create_index_contfree_ngs</text>
</g>
<!-- 33&#45;&gt;32 -->
<g id="edge64" class="edge"><title>33&#45;&gt;32</title>
<path fill="none" stroke="grey" stroke-width="2" d="M1416.33,-575.876C1432.7,-566.639 1453.08,-555.131 1470.65,-545.212"/>
<polygon fill="grey" stroke="grey" points="1472.56,-548.154 1479.55,-540.19 1469.12,-542.058 1472.56,-548.154"/>
</g>
<!-- 39 -->
<g id="node40" class="node"><title>39</title>
<path fill="none" stroke="#56d0d8" stroke-width="2" d="M1636,-540C1636,-540 1580,-540 1580,-540 1574,-540 1568,-534 1568,-528 1568,-528 1568,-516 1568,-516 1568,-510 1574,-504 1580,-504 1580,-504 1636,-504 1636,-504 1642,-504 1648,-510 1648,-516 1648,-516 1648,-528 1648,-528 1648,-534 1642,-540 1636,-540"/>
<text text-anchor="middle" x="1608" y="-525" font-family="sans" font-size="10.00">contfree_ngs</text>
<text text-anchor="middle" x="1608" y="-514" font-family="sans" font-size="10.00">part: 01</text>
</g>
<!-- 33&#45;&gt;39 -->
<g id="edge72" class="edge"><title>33&#45;&gt;39</title>
<path fill="none" stroke="grey" stroke-width="2" d="M1443.44,-575.979C1474.88,-566.528 1514.74,-554.334 1558.28,-540.182"/>
<polygon fill="grey" stroke="grey" points="1559.51,-543.465 1567.93,-537.036 1557.34,-536.81 1559.51,-543.465"/>
</g>
<!-- 40 -->
<g id="node41" class="node"><title>40</title>
<path fill="none" stroke="#56d0d8" stroke-width="2" d="M1734,-540C1734,-540 1678,-540 1678,-540 1672,-540 1666,-534 1666,-528 1666,-528 1666,-516 1666,-516 1666,-510 1672,-504 1678,-504 1678,-504 1734,-504 1734,-504 1740,-504 1746,-510 1746,-516 1746,-516 1746,-528 1746,-528 1746,-534 1740,-540 1734,-540"/>
<text text-anchor="middle" x="1706" y="-525" font-family="sans" font-size="10.00">contfree_ngs</text>
<text text-anchor="middle" x="1706" y="-514" font-family="sans" font-size="10.00">part: 02</text>
</g>
<!-- 33&#45;&gt;40 -->
<g id="edge74" class="edge"><title>33&#45;&gt;40</title>
<path fill="none" stroke="grey" stroke-width="2" d="M1460.2,-577.944C1463.51,-577.285 1466.79,-576.634 1470,-576 1549.95,-560.214 1573.52,-561.781 1655.96,-540.087"/>
<polygon fill="grey" stroke="grey" points="1657.01,-543.432 1665.77,-537.473 1655.2,-536.668 1657.01,-543.432"/>
</g>
<!-- 41 -->
<g id="node42" class="node"><title>41</title>
<path fill="none" stroke="#56d0d8" stroke-width="2" d="M1244,-540C1244,-540 1188,-540 1188,-540 1182,-540 1176,-534 1176,-528 1176,-528 1176,-516 1176,-516 1176,-510 1182,-504 1188,-504 1188,-504 1244,-504 1244,-504 1250,-504 1256,-510 1256,-516 1256,-516 1256,-528 1256,-528 1256,-534 1250,-540 1244,-540"/>
<text text-anchor="middle" x="1216" y="-525" font-family="sans" font-size="10.00">contfree_ngs</text>
<text text-anchor="middle" x="1216" y="-514" font-family="sans" font-size="10.00">part: 03</text>
</g>
<!-- 33&#45;&gt;41 -->
<g id="edge76" class="edge"><title>33&#45;&gt;41</title>
<path fill="none" stroke="grey" stroke-width="2" d="M1344.41,-575.876C1320.62,-566.078 1290.62,-553.725 1265.6,-543.423"/>
<polygon fill="grey" stroke="grey" points="1266.86,-540.156 1256.28,-539.585 1264.19,-546.629 1266.86,-540.156"/>
</g>
<!-- 42 -->
<g id="node43" class="node"><title>42</title>
<path fill="none" stroke="#56d0d8" stroke-width="2" d="M1342,-540C1342,-540 1286,-540 1286,-540 1280,-540 1274,-534 1274,-528 1274,-528 1274,-516 1274,-516 1274,-510 1280,-504 1286,-504 1286,-504 1342,-504 1342,-504 1348,-504 1354,-510 1354,-516 1354,-516 1354,-528 1354,-528 1354,-534 1348,-540 1342,-540"/>
<text text-anchor="middle" x="1314" y="-525" font-family="sans" font-size="10.00">contfree_ngs</text>
<text text-anchor="middle" x="1314" y="-514" font-family="sans" font-size="10.00">part: 04</text>
</g>
<!-- 33&#45;&gt;42 -->
<g id="edge78" class="edge"><title>33&#45;&gt;42</title>
<path fill="none" stroke="grey" stroke-width="2" d="M1368.2,-575.697C1359.4,-567.135 1348.62,-556.656 1339,-547.304"/>
<polygon fill="grey" stroke="grey" points="1341.2,-544.566 1331.59,-540.104 1336.32,-549.585 1341.2,-544.566"/>
</g>
<!-- 43 -->
<g id="node44" class="node"><title>43</title>
<path fill="none" stroke="#56d0d8" stroke-width="2" d="M1440,-540C1440,-540 1384,-540 1384,-540 1378,-540 1372,-534 1372,-528 1372,-528 1372,-516 1372,-516 1372,-510 1378,-504 1384,-504 1384,-504 1440,-504 1440,-504 1446,-504 1452,-510 1452,-516 1452,-516 1452,-528 1452,-528 1452,-534 1446,-540 1440,-540"/>
<text text-anchor="middle" x="1412" y="-525" font-family="sans" font-size="10.00">contfree_ngs</text>
<text text-anchor="middle" x="1412" y="-514" font-family="sans" font-size="10.00">part: 05</text>
</g>
<!-- 33&#45;&gt;43 -->
<g id="edge80" class="edge"><title>33&#45;&gt;43</title>
<path fill="none" stroke="grey" stroke-width="2" d="M1392.43,-575.697C1395.36,-567.813 1398.89,-558.304 1402.14,-549.546"/>
<polygon fill="grey" stroke="grey" points="1405.45,-550.697 1405.65,-540.104 1398.88,-548.26 1405.45,-550.697"/>
</g>
<!-- 34 -->
<g id="node35" class="node"><title>34</title>
<path fill="none" stroke="#88d856" stroke-width="2" d="M1484,-828C1484,-828 1454,-828 1454,-828 1448,-828 1442,-822 1442,-816 1442,-816 1442,-804 1442,-804 1442,-798 1448,-792 1454,-792 1454,-792 1484,-792 1484,-792 1490,-792 1496,-798 1496,-804 1496,-804 1496,-816 1496,-816 1496,-822 1490,-828 1484,-828"/>
<text text-anchor="middle" x="1469" y="-807.5" font-family="sans" font-size="10.00">bbduk</text>
</g>
<!-- 34&#45;&gt;33 -->
<g id="edge66" class="edge"><title>34&#45;&gt;33</title>
<path fill="none" stroke="grey" stroke-width="2" d="M1441.99,-793.569C1428.59,-784.431 1413.48,-771.587 1405,-756 1381.94,-713.614 1381.24,-655.791 1383.3,-622.217"/>
<polygon fill="grey" stroke="grey" points="1386.79,-622.45 1384.04,-612.219 1379.81,-621.934 1386.79,-622.45"/>
</g>
<!-- 37 -->
<g id="node38" class="node"><title>37</title>
<path fill="none" stroke="#56d8a2" stroke-width="2" d="M1550,-684C1550,-684 1520,-684 1520,-684 1514,-684 1508,-678 1508,-672 1508,-672 1508,-660 1508,-660 1508,-654 1514,-648 1520,-648 1520,-648 1550,-648 1550,-648 1556,-648 1562,-654 1562,-660 1562,-660 1562,-672 1562,-672 1562,-678 1556,-684 1550,-684"/>
<text text-anchor="middle" x="1535" y="-663.5" font-family="sans" font-size="10.00">kraken</text>
</g>
<!-- 34&#45;&gt;37 -->
<g id="edge70" class="edge"><title>34&#45;&gt;37</title>
<path fill="none" stroke="grey" stroke-width="2" d="M1496.28,-794.101C1509.95,-785.04 1525.21,-772.102 1533,-756 1542.29,-736.812 1542.15,-712.465 1540.04,-694.088"/>
<polygon fill="grey" stroke="grey" points="1543.49,-693.458 1538.63,-684.041 1536.56,-694.431 1543.49,-693.458"/>
</g>
<!-- 38 -->
<g id="node39" class="node"><title>38</title>
<path fill="none" stroke="#9fd856" stroke-width="2" d="M1512,-756C1512,-756 1426,-756 1426,-756 1420,-756 1414,-750 1414,-744 1414,-744 1414,-732 1414,-732 1414,-726 1420,-720 1426,-720 1426,-720 1512,-720 1512,-720 1518,-720 1524,-726 1524,-732 1524,-732 1524,-744 1524,-744 1524,-750 1518,-756 1512,-756"/>
<text text-anchor="middle" x="1469" y="-735.5" font-family="sans" font-size="10.00">fastqc_after_bbduk</text>
</g>
<!-- 34&#45;&gt;38 -->
<g id="edge71" class="edge"><title>34&#45;&gt;38</title>
<path fill="none" stroke="grey" stroke-width="2" d="M1469,-791.697C1469,-783.983 1469,-774.712 1469,-766.112"/>
<polygon fill="grey" stroke="grey" points="1472.5,-766.104 1469,-756.104 1465.5,-766.104 1472.5,-766.104"/>
</g>
<!-- 35 -->
<g id="node36" class="node"><title>35</title>
<path fill="none" stroke="#d8b456" stroke-width="2" d="M1517,-905.5C1517,-905.5 1421,-905.5 1421,-905.5 1415,-905.5 1409,-899.5 1409,-893.5 1409,-893.5 1409,-876.5 1409,-876.5 1409,-870.5 1415,-864.5 1421,-864.5 1421,-864.5 1517,-864.5 1517,-864.5 1523,-864.5 1529,-870.5 1529,-876.5 1529,-876.5 1529,-893.5 1529,-893.5 1529,-899.5 1523,-905.5 1517,-905.5"/>
<text text-anchor="middle" x="1469" y="-893.5" font-family="sans" font-size="10.00">download_fastq</text>
<text text-anchor="middle" x="1469" y="-882.5" font-family="sans" font-size="10.00">genotype: Rio</text>
<text text-anchor="middle" x="1469" y="-871.5" font-family="sans" font-size="10.00">sample: SRR6257142</text>
</g>
<!-- 35&#45;&gt;34 -->
<g id="edge67" class="edge"><title>35&#45;&gt;34</title>
<path fill="none" stroke="grey" stroke-width="2" d="M1469,-864.437C1469,-856.391 1469,-846.933 1469,-838.228"/>
<polygon fill="grey" stroke="grey" points="1472.5,-838.13 1469,-828.13 1465.5,-838.13 1472.5,-838.13"/>
</g>
<!-- 36 -->
<g id="node37" class="node"><title>36</title>
<path fill="none" stroke="#d89556" stroke-width="2" d="M1579.25,-612C1579.25,-612 1490.75,-612 1490.75,-612 1484.75,-612 1478.75,-606 1478.75,-600 1478.75,-600 1478.75,-588 1478.75,-588 1478.75,-582 1484.75,-576 1490.75,-576 1490.75,-576 1579.25,-576 1579.25,-576 1585.25,-576 1591.25,-582 1591.25,-588 1591.25,-588 1591.25,-600 1591.25,-600 1591.25,-606 1585.25,-612 1579.25,-612"/>
<text text-anchor="middle" x="1535" y="-591.5" font-family="sans" font-size="10.00">split_kraken_output</text>
</g>
<!-- 36&#45;&gt;32 -->
<g id="edge65" class="edge"><title>36&#45;&gt;32</title>
<path fill="none" stroke="grey" stroke-width="2" d="M1528.82,-575.697C1526,-567.813 1522.61,-558.304 1519.48,-549.546"/>
<polygon fill="grey" stroke="grey" points="1522.77,-548.345 1516.11,-540.104 1516.18,-550.699 1522.77,-548.345"/>
</g>
<!-- 36&#45;&gt;39 -->
<g id="edge73" class="edge"><title>36&#45;&gt;39</title>
<path fill="none" stroke="grey" stroke-width="2" d="M1553.04,-575.697C1562.06,-567.05 1573.12,-556.449 1582.94,-547.027"/>
<polygon fill="grey" stroke="grey" points="1585.37,-549.552 1590.16,-540.104 1580.52,-544.499 1585.37,-549.552"/>
</g>
<!-- 36&#45;&gt;40 -->
<g id="edge75" class="edge"><title>36&#45;&gt;40</title>
<path fill="none" stroke="grey" stroke-width="2" d="M1576.83,-575.876C1600.85,-566.042 1631.16,-553.635 1656.38,-543.31"/>
<polygon fill="grey" stroke="grey" points="1657.85,-546.493 1665.78,-539.465 1655.2,-540.014 1657.85,-546.493"/>
</g>
<!-- 36&#45;&gt;41 -->
<g id="edge77" class="edge"><title>36&#45;&gt;41</title>
<path fill="none" stroke="grey" stroke-width="2" d="M1478.54,-578.151C1475.32,-577.399 1472.12,-576.677 1469,-576 1382.1,-557.169 1355.89,-562.737 1266.01,-540.042"/>
<polygon fill="grey" stroke="grey" points="1266.78,-536.626 1256.22,-537.524 1265.03,-543.405 1266.78,-536.626"/>
</g>
<!-- 36&#45;&gt;42 -->
<g id="edge79" class="edge"><title>36&#45;&gt;42</title>
<path fill="none" stroke="grey" stroke-width="2" d="M1478.68,-576.189C1447.32,-566.702 1407.37,-554.41 1363.73,-540.192"/>
<polygon fill="grey" stroke="grey" points="1364.67,-536.814 1354.07,-537.031 1362.49,-543.467 1364.67,-536.814"/>
</g>
<!-- 36&#45;&gt;43 -->
<g id="edge81" class="edge"><title>36&#45;&gt;43</title>
<path fill="none" stroke="grey" stroke-width="2" d="M1504.91,-575.876C1488.68,-566.639 1468.46,-555.131 1451.03,-545.212"/>
<polygon fill="grey" stroke="grey" points="1452.63,-542.094 1442.2,-540.19 1449.16,-548.178 1452.63,-542.094"/>
</g>
<!-- 37&#45;&gt;36 -->
<g id="edge68" class="edge"><title>37&#45;&gt;36</title>
<path fill="none" stroke="grey" stroke-width="2" d="M1535,-647.697C1535,-639.983 1535,-630.712 1535,-622.112"/>
<polygon fill="grey" stroke="grey" points="1538.5,-622.104 1535,-612.104 1531.5,-622.104 1538.5,-622.104"/>
</g>
<!-- 38&#45;&gt;37 -->
<g id="edge69" class="edge"><title>38&#45;&gt;37</title>
<path fill="none" stroke="grey" stroke-width="2" d="M1485.31,-719.697C1493.31,-711.22 1503.07,-700.864 1511.82,-691.583"/>
<polygon fill="grey" stroke="grey" points="1514.56,-693.781 1518.87,-684.104 1509.47,-688.979 1514.56,-693.781"/>
</g>
<!-- 39&#45;&gt;31 -->
<g id="edge59" class="edge"><title>39&#45;&gt;31</title>
<path fill="none" stroke="grey" stroke-width="2" d="M1567.96,-506.855C1564.94,-505.864 1561.93,-504.902 1559,-504 1504,-487.044 1439.42,-470.156 1399.86,-460.148"/>
<polygon fill="grey" stroke="grey" points="1400.67,-456.743 1390.12,-457.695 1398.96,-463.531 1400.67,-456.743"/>
</g>
<!-- 40&#45;&gt;31 -->
<g id="edge60" class="edge"><title>40&#45;&gt;31</title>
<path fill="none" stroke="grey" stroke-width="2" d="M1665.78,-506.488C1662.82,-505.594 1659.87,-504.753 1657,-504 1566.03,-480.175 1456.44,-463.512 1400.24,-455.817"/>
<polygon fill="grey" stroke="grey" points="1400.44,-452.312 1390.06,-454.442 1399.5,-459.249 1400.44,-452.312"/>
</g>
<!-- 41&#45;&gt;31 -->
<g id="edge61" class="edge"><title>41&#45;&gt;31</title>
<path fill="none" stroke="grey" stroke-width="2" d="M1251.96,-503.876C1274.57,-493.11 1303.66,-479.258 1326.39,-468.433"/>
<polygon fill="grey" stroke="grey" points="1328.18,-471.457 1335.71,-463.997 1325.17,-465.137 1328.18,-471.457"/>
</g>
<!-- 42&#45;&gt;31 -->
<g id="edge62" class="edge"><title>42&#45;&gt;31</title>
<path fill="none" stroke="grey" stroke-width="2" d="M1326.11,-503.697C1331.87,-495.474 1338.86,-485.483 1345.21,-476.421"/>
<polygon fill="grey" stroke="grey" points="1348.16,-478.304 1351.03,-468.104 1342.42,-474.29 1348.16,-478.304"/>
</g>
<!-- 43&#45;&gt;31 -->
<g id="edge63" class="edge"><title>43&#45;&gt;31</title>
<path fill="none" stroke="grey" stroke-width="2" d="M1399.89,-503.697C1394.13,-495.474 1387.14,-485.483 1380.79,-476.421"/>
<polygon fill="grey" stroke="grey" points="1383.58,-474.29 1374.97,-468.104 1377.84,-478.304 1383.58,-474.29"/>
</g>
<!-- 44&#45;&gt;0 -->
<g id="edge2" class="edge"><title>44&#45;&gt;0</title>
<path fill="none" stroke="grey" stroke-width="2" d="M555,-143.871C555,-119.67 555,-75.2108 555,-46.3932"/>
<polygon fill="grey" stroke="grey" points="558.5,-46.1892 555,-36.1893 551.5,-46.1893 558.5,-46.1892"/>
</g>
<!-- 45&#45;&gt;0 -->
<g id="edge3" class="edge"><title>45&#45;&gt;0</title>
<path fill="none" stroke="grey" stroke-width="2" d="M732.813,-71.9656C688.913,-58.889 629.603,-41.222 591.818,-29.967"/>
<polygon fill="grey" stroke="grey" points="592.813,-26.6116 582.23,-27.1111 590.815,-33.3203 592.813,-26.6116"/>
</g>
<!-- 46&#45;&gt;45 -->
<g id="edge83" class="edge"><title>46&#45;&gt;45</title>
<path fill="none" stroke="grey" stroke-width="2" d="M709.175,-143.876C723.036,-134.808 740.241,-123.552 755.211,-113.759"/>
<polygon fill="grey" stroke="grey" points="757.272,-116.593 763.724,-108.19 753.44,-110.735 757.272,-116.593"/>
</g>
</g>
</svg>
