<?xml version="1.0" encoding="UTF-8" standalone="no"?>
<!DOCTYPE svg PUBLIC "-//W3C//DTD SVG 1.1//EN"
 "http://www.w3.org/Graphics/SVG/1.1/DTD/svg11.dtd">
<!-- Generated by graphviz version 2.30.1 (20201013.1554)
 -->
<!-- Title: snakemake_dag Pages: 1 -->
<svg width="1892pt" height="914pt"
 viewBox="0.00 0.00 1892.00 914.00" xmlns="http://www.w3.org/2000/svg" xmlns:xlink="http://www.w3.org/1999/xlink">
<g id="graph0" class="graph" transform="scale(1 1) rotate(0) translate(4 910)">
<title>snakemake_dag</title>
<polygon fill="white" stroke="white" points="-4,5 -4,-910 1889,-910 1889,5 -4,5"/>
<!-- 0 -->
<g id="node1" class="node"><title>0</title>
<path fill="none" stroke="#56c9d8" stroke-width="2" d="M749,-36C749,-36 719,-36 719,-36 713,-36 707,-30 707,-24 707,-24 707,-12 707,-12 707,-6 713,-0 719,-0 719,-0 749,-0 749,-0 755,-0 761,-6 761,-12 761,-12 761,-24 761,-24 761,-30 755,-36 749,-36"/>
<text text-anchor="middle" x="734" y="-15.5" font-family="sans" font-size="10.00">all</text>
</g>
<!-- 1 -->
<g id="node2" class="node"><title>1</title>
<path fill="none" stroke="#c6d856" stroke-width="2" d="M320,-324C320,-324 290,-324 290,-324 284,-324 278,-318 278,-312 278,-312 278,-300 278,-300 278,-294 284,-288 290,-288 290,-288 320,-288 320,-288 326,-288 332,-294 332,-300 332,-300 332,-312 332,-312 332,-318 326,-324 320,-324"/>
<text text-anchor="middle" x="305" y="-303.5" font-family="sans" font-size="10.00">fastqc</text>
</g>
<!-- 1&#45;&gt;0 -->
<g id="edge1" class="edge"><title>1&#45;&gt;0</title>
<path fill="none" stroke="grey" stroke-width="2" d="M327.348,-287.998C379.998,-248.239 516.482,-146.889 637,-72 656.661,-59.7829 679.329,-47.3123 697.805,-37.5393"/>
<polygon fill="grey" stroke="grey" points="699.548,-40.5773 706.777,-32.8311 696.295,-34.379 699.548,-40.5773"/>
</g>
<!-- 2 -->
<g id="node3" class="node"><title>2</title>
<path fill="none" stroke="#afd856" stroke-width="2" d="M740,-905.5C740,-905.5 644,-905.5 644,-905.5 638,-905.5 632,-899.5 632,-893.5 632,-893.5 632,-876.5 632,-876.5 632,-870.5 638,-864.5 644,-864.5 644,-864.5 740,-864.5 740,-864.5 746,-864.5 752,-870.5 752,-876.5 752,-876.5 752,-893.5 752,-893.5 752,-899.5 746,-905.5 740,-905.5"/>
<text text-anchor="middle" x="692" y="-893.5" font-family="sans" font-size="10.00">download_fastq</text>
<text text-anchor="middle" x="692" y="-882.5" font-family="sans" font-size="10.00">genotype: Rio</text>
<text text-anchor="middle" x="692" y="-871.5" font-family="sans" font-size="10.00">sample: SRR6257144</text>
</g>
<!-- 2&#45;&gt;1 -->
<g id="edge10" class="edge"><title>2&#45;&gt;1</title>
<path fill="none" stroke="grey" stroke-width="2" d="M631.841,-882.418C477.948,-876.749 82,-851.255 82,-739 82,-739 82,-739 82,-449 82,-362.045 204.132,-326.022 267.628,-313.17"/>
<polygon fill="grey" stroke="grey" points="268.501,-316.566 277.656,-311.234 267.174,-309.693 268.501,-316.566"/>
</g>
<!-- 14 -->
<g id="node15" class="node"><title>14</title>
<path fill="none" stroke="#d87556" stroke-width="2" d="M932,-828C932,-828 902,-828 902,-828 896,-828 890,-822 890,-816 890,-816 890,-804 890,-804 890,-798 896,-792 902,-792 902,-792 932,-792 932,-792 938,-792 944,-798 944,-804 944,-804 944,-816 944,-816 944,-822 938,-828 932,-828"/>
<text text-anchor="middle" x="917" y="-807.5" font-family="sans" font-size="10.00">bbduk</text>
</g>
<!-- 2&#45;&gt;14 -->
<g id="edge28" class="edge"><title>2&#45;&gt;14</title>
<path fill="none" stroke="grey" stroke-width="2" d="M752,-864.533C792.759,-851.309 845.37,-834.24 880.096,-822.973"/>
<polygon fill="grey" stroke="grey" points="881.397,-826.231 889.828,-819.816 879.236,-819.573 881.397,-826.231"/>
</g>
<!-- 3 -->
<g id="node4" class="node"><title>3</title>
<path fill="none" stroke="#c6d856" stroke-width="2" d="M1645,-324C1645,-324 1615,-324 1615,-324 1609,-324 1603,-318 1603,-312 1603,-312 1603,-300 1603,-300 1603,-294 1609,-288 1615,-288 1615,-288 1645,-288 1645,-288 1651,-288 1657,-294 1657,-300 1657,-300 1657,-312 1657,-312 1657,-318 1651,-324 1645,-324"/>
<text text-anchor="middle" x="1630" y="-303.5" font-family="sans" font-size="10.00">fastqc</text>
</g>
<!-- 3&#45;&gt;0 -->
<g id="edge2" class="edge"><title>3&#45;&gt;0</title>
<path fill="none" stroke="grey" stroke-width="2" d="M1602.73,-290.611C1523.85,-249.628 1287.67,-131.416 1078,-72 968.958,-41.0996 835.044,-27.0284 771.234,-21.7132"/>
<polygon fill="grey" stroke="grey" points="771.495,-18.223 761.246,-20.9055 770.931,-25.2002 771.495,-18.223"/>
</g>
<!-- 4 -->
<g id="node5" class="node"><title>4</title>
<path fill="none" stroke="#afd856" stroke-width="2" d="M1862,-905.5C1862,-905.5 1766,-905.5 1766,-905.5 1760,-905.5 1754,-899.5 1754,-893.5 1754,-893.5 1754,-876.5 1754,-876.5 1754,-870.5 1760,-864.5 1766,-864.5 1766,-864.5 1862,-864.5 1862,-864.5 1868,-864.5 1874,-870.5 1874,-876.5 1874,-876.5 1874,-893.5 1874,-893.5 1874,-899.5 1868,-905.5 1862,-905.5"/>
<text text-anchor="middle" x="1814" y="-893.5" font-family="sans" font-size="10.00">download_fastq</text>
<text text-anchor="middle" x="1814" y="-882.5" font-family="sans" font-size="10.00">genotype: Rio</text>
<text text-anchor="middle" x="1814" y="-871.5" font-family="sans" font-size="10.00">sample: SRR6257146</text>
</g>
<!-- 4&#45;&gt;3 -->
<g id="edge11" class="edge"><title>4&#45;&gt;3</title>
<path fill="none" stroke="grey" stroke-width="2" d="M1830.59,-864.329C1851.29,-837.715 1884,-787.919 1884,-739 1884,-739 1884,-739 1884,-449 1884,-350.97 1738.07,-319.966 1667.44,-310.701"/>
<polygon fill="grey" stroke="grey" points="1667.53,-307.187 1657.18,-309.44 1666.68,-314.134 1667.53,-307.187"/>
</g>
<!-- 26 -->
<g id="node27" class="node"><title>26</title>
<path fill="none" stroke="#d87556" stroke-width="2" d="M1719,-828C1719,-828 1689,-828 1689,-828 1683,-828 1677,-822 1677,-816 1677,-816 1677,-804 1677,-804 1677,-798 1683,-792 1689,-792 1689,-792 1719,-792 1719,-792 1725,-792 1731,-798 1731,-804 1731,-804 1731,-816 1731,-816 1731,-822 1725,-828 1719,-828"/>
<text text-anchor="middle" x="1704" y="-807.5" font-family="sans" font-size="10.00">bbduk</text>
</g>
<!-- 4&#45;&gt;26 -->
<g id="edge52" class="edge"><title>4&#45;&gt;26</title>
<path fill="none" stroke="grey" stroke-width="2" d="M1784.52,-864.437C1770.26,-854.976 1753.07,-843.563 1738.23,-833.718"/>
<polygon fill="grey" stroke="grey" points="1740.08,-830.743 1729.81,-828.13 1736.21,-836.575 1740.08,-830.743"/>
</g>
<!-- 5 -->
<g id="node6" class="node"><title>5</title>
<path fill="none" stroke="#c6d856" stroke-width="2" d="M42,-396C42,-396 12,-396 12,-396 6,-396 0,-390 0,-384 0,-384 0,-372 0,-372 0,-366 6,-360 12,-360 12,-360 42,-360 42,-360 48,-360 54,-366 54,-372 54,-372 54,-384 54,-384 54,-390 48,-396 42,-396"/>
<text text-anchor="middle" x="27" y="-375.5" font-family="sans" font-size="10.00">fastqc</text>
</g>
<!-- 5&#45;&gt;0 -->
<g id="edge3" class="edge"><title>5&#45;&gt;0</title>
<path fill="none" stroke="grey" stroke-width="2" d="M36.324,-359.63C49.5048,-333.412 72,-281.809 72,-235 72,-235 72,-235 72,-161 72,-32.2628 556.662,-19.87 696.595,-18.9748"/>
<polygon fill="grey" stroke="grey" points="696.831,-22.4738 706.815,-18.9264 696.798,-15.4739 696.831,-22.4738"/>
</g>
<!-- 6 -->
<g id="node7" class="node"><title>6</title>
<path fill="none" stroke="#afd856" stroke-width="2" d="M206,-905.5C206,-905.5 110,-905.5 110,-905.5 104,-905.5 98,-899.5 98,-893.5 98,-893.5 98,-876.5 98,-876.5 98,-870.5 104,-864.5 110,-864.5 110,-864.5 206,-864.5 206,-864.5 212,-864.5 218,-870.5 218,-876.5 218,-876.5 218,-893.5 218,-893.5 218,-899.5 212,-905.5 206,-905.5"/>
<text text-anchor="middle" x="158" y="-893.5" font-family="sans" font-size="10.00">download_fastq</text>
<text text-anchor="middle" x="158" y="-882.5" font-family="sans" font-size="10.00">genotype: Rio</text>
<text text-anchor="middle" x="158" y="-871.5" font-family="sans" font-size="10.00">sample: SRR6257142</text>
</g>
<!-- 6&#45;&gt;5 -->
<g id="edge12" class="edge"><title>6&#45;&gt;5</title>
<path fill="none" stroke="grey" stroke-width="2" d="M114.218,-864.416C97.8865,-855.309 80.336,-843.111 68,-828 41.3213,-795.32 35,-781.187 35,-739 35,-739 35,-739 35,-521 35,-480.933 31.7857,-434.606 29.432,-406.054"/>
<polygon fill="grey" stroke="grey" points="32.9146,-405.7 28.5805,-396.032 25.9397,-406.292 32.9146,-405.7"/>
</g>
<!-- 38 -->
<g id="node39" class="node"><title>38</title>
<path fill="none" stroke="#d87556" stroke-width="2" d="M344,-828C344,-828 314,-828 314,-828 308,-828 302,-822 302,-816 302,-816 302,-804 302,-804 302,-798 308,-792 314,-792 314,-792 344,-792 344,-792 350,-792 356,-798 356,-804 356,-804 356,-816 356,-816 356,-822 350,-828 344,-828"/>
<text text-anchor="middle" x="329" y="-807.5" font-family="sans" font-size="10.00">bbduk</text>
</g>
<!-- 6&#45;&gt;38 -->
<g id="edge76" class="edge"><title>6&#45;&gt;38</title>
<path fill="none" stroke="grey" stroke-width="2" d="M203.825,-864.437C231.545,-852.603 266.415,-837.717 292.307,-826.664"/>
<polygon fill="grey" stroke="grey" points="293.934,-829.775 301.757,-822.63 291.186,-823.337 293.934,-829.775"/>
</g>
<!-- 7 -->
<g id="node8" class="node"><title>7</title>
<path fill="none" stroke="#8fd856" stroke-width="2" d="M749,-108C749,-108 719,-108 719,-108 713,-108 707,-102 707,-96 707,-96 707,-84 707,-84 707,-78 713,-72 719,-72 719,-72 749,-72 749,-72 755,-72 761,-78 761,-84 761,-84 761,-96 761,-96 761,-102 755,-108 749,-108"/>
<text text-anchor="middle" x="734" y="-87.5" font-family="sans" font-size="10.00">busco</text>
</g>
<!-- 7&#45;&gt;0 -->
<g id="edge4" class="edge"><title>7&#45;&gt;0</title>
<path fill="none" stroke="grey" stroke-width="2" d="M734,-71.6966C734,-63.9827 734,-54.7125 734,-46.1124"/>
<polygon fill="grey" stroke="grey" points="737.5,-46.1043 734,-36.1043 730.5,-46.1044 737.5,-46.1043"/>
</g>
<!-- 8 -->
<g id="node9" class="node"><title>8</title>
<path fill="none" stroke="#56d8a9" stroke-width="2" d="M846,-252C846,-252 730,-252 730,-252 724,-252 718,-246 718,-240 718,-240 718,-228 718,-228 718,-222 724,-216 730,-216 730,-216 846,-216 846,-216 852,-216 858,-222 858,-228 858,-228 858,-240 858,-240 858,-246 852,-252 846,-252"/>
<text text-anchor="middle" x="788" y="-231.5" font-family="sans" font-size="10.00">extract_contiglenght_301</text>
</g>
<!-- 8&#45;&gt;7 -->
<g id="edge13" class="edge"><title>8&#45;&gt;7</title>
<path fill="none" stroke="grey" stroke-width="2" d="M774.709,-215.712C767.629,-205.748 759.31,-192.71 754,-180 745.721,-160.182 740.601,-136.383 737.616,-118.384"/>
<polygon fill="grey" stroke="grey" points="741.04,-117.624 736.061,-108.273 734.122,-118.688 741.04,-117.624"/>
</g>
<!-- 47 -->
<g id="node48" class="node"><title>47</title>
<path fill="none" stroke="#5673d8" stroke-width="2" d="M694.25,-180C694.25,-180 657.75,-180 657.75,-180 651.75,-180 645.75,-174 645.75,-168 645.75,-168 645.75,-156 645.75,-156 645.75,-150 651.75,-144 657.75,-144 657.75,-144 694.25,-144 694.25,-144 700.25,-144 706.25,-150 706.25,-156 706.25,-156 706.25,-168 706.25,-168 706.25,-174 700.25,-180 694.25,-180"/>
<text text-anchor="middle" x="676" y="-159.5" font-family="sans" font-size="10.00">transrate</text>
</g>
<!-- 8&#45;&gt;47 -->
<g id="edge91" class="edge"><title>8&#45;&gt;47</title>
<path fill="none" stroke="grey" stroke-width="2" d="M760.602,-215.876C746.093,-206.808 728.084,-195.552 712.415,-185.759"/>
<polygon fill="grey" stroke="grey" points="713.839,-182.522 703.504,-180.19 710.129,-188.458 713.839,-182.522"/>
</g>
<!-- 49 -->
<g id="node50" class="node"><title>49</title>
<path fill="none" stroke="#d8cb56" stroke-width="2" d="M909,-180C909,-180 775,-180 775,-180 769,-180 763,-174 763,-168 763,-168 763,-156 763,-156 763,-150 769,-144 775,-144 775,-144 909,-144 909,-144 915,-144 921,-150 921,-156 921,-156 921,-168 921,-168 921,-174 915,-180 909,-180"/>
<text text-anchor="middle" x="842" y="-159.5" font-family="sans" font-size="10.00">salmon_transcriptome_index</text>
</g>
<!-- 8&#45;&gt;49 -->
<g id="edge96" class="edge"><title>8&#45;&gt;49</title>
<path fill="none" stroke="grey" stroke-width="2" d="M801.348,-215.697C807.757,-207.389 815.558,-197.277 822.606,-188.141"/>
<polygon fill="grey" stroke="grey" points="825.468,-190.16 828.805,-180.104 819.926,-185.884 825.468,-190.16"/>
</g>
<!-- 9 -->
<g id="node10" class="node"><title>9</title>
<path fill="none" stroke="#5692d8" stroke-width="2" d="M835,-324C835,-324 793,-324 793,-324 787,-324 781,-318 781,-312 781,-312 781,-300 781,-300 781,-294 787,-288 793,-288 793,-288 835,-288 835,-288 841,-288 847,-294 847,-300 847,-300 847,-312 847,-312 847,-318 841,-324 835,-324"/>
<text text-anchor="middle" x="814" y="-303.5" font-family="sans" font-size="10.00">cd_hit_est</text>
</g>
<!-- 9&#45;&gt;8 -->
<g id="edge14" class="edge"><title>9&#45;&gt;8</title>
<path fill="none" stroke="grey" stroke-width="2" d="M807.573,-287.697C804.645,-279.813 801.113,-270.304 797.86,-261.546"/>
<polygon fill="grey" stroke="grey" points="801.116,-260.26 794.353,-252.104 794.554,-262.697 801.116,-260.26"/>
</g>
<!-- 10 -->
<g id="node11" class="node"><title>10</title>
<path fill="none" stroke="#56d8c9" stroke-width="2" d="M856,-396C856,-396 826,-396 826,-396 820,-396 814,-390 814,-384 814,-384 814,-372 814,-372 814,-366 820,-360 826,-360 826,-360 856,-360 856,-360 862,-360 868,-366 868,-372 868,-372 868,-384 868,-384 868,-390 862,-396 856,-396"/>
<text text-anchor="middle" x="841" y="-375.5" font-family="sans" font-size="10.00">trinity</text>
</g>
<!-- 10&#45;&gt;9 -->
<g id="edge15" class="edge"><title>10&#45;&gt;9</title>
<path fill="none" stroke="grey" stroke-width="2" d="M834.326,-359.697C831.285,-351.813 827.617,-342.304 824.239,-333.546"/>
<polygon fill="grey" stroke="grey" points="827.462,-332.175 820.597,-324.104 820.931,-334.694 827.462,-332.175"/>
</g>
<!-- 11 -->
<g id="node12" class="node"><title>11</title>
<path fill="none" stroke="#d85656" stroke-width="2" d="M964,-468C964,-468 934,-468 934,-468 928,-468 922,-462 922,-456 922,-456 922,-444 922,-444 922,-438 928,-432 934,-432 934,-432 964,-432 964,-432 970,-432 976,-438 976,-444 976,-444 976,-456 976,-456 976,-462 970,-468 964,-468"/>
<text text-anchor="middle" x="949" y="-447.5" font-family="sans" font-size="10.00">merge</text>
</g>
<!-- 11&#45;&gt;10 -->
<g id="edge16" class="edge"><title>11&#45;&gt;10</title>
<path fill="none" stroke="grey" stroke-width="2" d="M922.58,-431.876C908.59,-422.808 891.224,-411.552 876.114,-401.759"/>
<polygon fill="grey" stroke="grey" points="877.817,-398.692 867.521,-396.19 874.009,-404.566 877.817,-398.692"/>
</g>
<!-- 48 -->
<g id="node49" class="node"><title>48</title>
<path fill="none" stroke="#59d856" stroke-width="2" d="M926.25,-108C926.25,-108 791.75,-108 791.75,-108 785.75,-108 779.75,-102 779.75,-96 779.75,-96 779.75,-84 779.75,-84 779.75,-78 785.75,-72 791.75,-72 791.75,-72 926.25,-72 926.25,-72 932.25,-72 938.25,-78 938.25,-84 938.25,-84 938.25,-96 938.25,-96 938.25,-102 932.25,-108 926.25,-108"/>
<text text-anchor="middle" x="859" y="-87.5" font-family="sans" font-size="10.00">salmon_transcriptome_quant</text>
</g>
<!-- 11&#45;&gt;48 -->
<g id="edge93" class="edge"><title>11&#45;&gt;48</title>
<path fill="none" stroke="grey" stroke-width="2" d="M949,-431.951C949,-405.292 949,-352.115 949,-307 949,-307 949,-307 949,-233 949,-192.553 951.824,-178.054 930,-144 922.46,-132.235 911.331,-122.146 900.109,-114.025"/>
<polygon fill="grey" stroke="grey" points="901.802,-110.943 891.567,-108.203 897.859,-116.727 901.802,-110.943"/>
</g>
<!-- 50 -->
<g id="node51" class="node"><title>50</title>
<path fill="none" stroke="#56a9d8" stroke-width="2" d="M1162.25,-180C1162.25,-180 1065.75,-180 1065.75,-180 1059.75,-180 1053.75,-174 1053.75,-168 1053.75,-168 1053.75,-156 1053.75,-156 1053.75,-150 1059.75,-144 1065.75,-144 1065.75,-144 1162.25,-144 1162.25,-144 1168.25,-144 1174.25,-150 1174.25,-156 1174.25,-156 1174.25,-168 1174.25,-168 1174.25,-174 1168.25,-180 1162.25,-180"/>
<text text-anchor="middle" x="1114" y="-159.5" font-family="sans" font-size="10.00">fastqc_after_contfree</text>
</g>
<!-- 11&#45;&gt;50 -->
<g id="edge97" class="edge"><title>11&#45;&gt;50</title>
<path fill="none" stroke="grey" stroke-width="2" d="M958.827,-431.966C986.561,-383.894 1065.58,-246.932 1098.89,-189.185"/>
<polygon fill="grey" stroke="grey" points="1102.05,-190.717 1104.02,-180.306 1095.99,-187.219 1102.05,-190.717"/>
</g>
<!-- 12 -->
<g id="node13" class="node"><title>12</title>
<path fill="none" stroke="#56d892" stroke-width="2" d="M1060,-540C1060,-540 1004,-540 1004,-540 998,-540 992,-534 992,-528 992,-528 992,-516 992,-516 992,-510 998,-504 1004,-504 1004,-504 1060,-504 1060,-504 1066,-504 1072,-510 1072,-516 1072,-516 1072,-528 1072,-528 1072,-534 1066,-540 1060,-540"/>
<text text-anchor="middle" x="1032" y="-525" font-family="sans" font-size="10.00">contfree_ngs</text>
<text text-anchor="middle" x="1032" y="-514" font-family="sans" font-size="10.00">part: 00</text>
</g>
<!-- 12&#45;&gt;11 -->
<g id="edge19" class="edge"><title>12&#45;&gt;11</title>
<path fill="none" stroke="grey" stroke-width="2" d="M1011.48,-503.697C1001.13,-494.965 988.414,-484.24 977.161,-474.75"/>
<polygon fill="grey" stroke="grey" points="979.182,-471.876 969.281,-468.104 974.669,-477.227 979.182,-471.876"/>
</g>
<!-- 13 -->
<g id="node14" class="node"><title>13</title>
<path fill="none" stroke="#d8ac56" stroke-width="2" d="M945,-612C945,-612 821,-612 821,-612 815,-612 809,-606 809,-600 809,-600 809,-588 809,-588 809,-582 815,-576 821,-576 821,-576 945,-576 945,-576 951,-576 957,-582 957,-588 957,-588 957,-600 957,-600 957,-606 951,-612 945,-612"/>
<text text-anchor="middle" x="883" y="-591.5" font-family="sans" font-size="10.00">create_index_contfree_ngs</text>
</g>
<!-- 13&#45;&gt;12 -->
<g id="edge25" class="edge"><title>13&#45;&gt;12</title>
<path fill="none" stroke="grey" stroke-width="2" d="M919.45,-575.876C939.638,-566.392 964.921,-554.513 986.408,-544.419"/>
<polygon fill="grey" stroke="grey" points="988.106,-547.488 995.669,-540.068 985.13,-541.153 988.106,-547.488"/>
</g>
<!-- 18 -->
<g id="node19" class="node"><title>18</title>
<path fill="none" stroke="#56d892" stroke-width="2" d="M1158,-540C1158,-540 1102,-540 1102,-540 1096,-540 1090,-534 1090,-528 1090,-528 1090,-516 1090,-516 1090,-510 1096,-504 1102,-504 1102,-504 1158,-504 1158,-504 1164,-504 1170,-510 1170,-516 1170,-516 1170,-528 1170,-528 1170,-534 1164,-540 1158,-540"/>
<text text-anchor="middle" x="1130" y="-525" font-family="sans" font-size="10.00">contfree_ngs</text>
<text text-anchor="middle" x="1130" y="-514" font-family="sans" font-size="10.00">part: 01</text>
</g>
<!-- 13&#45;&gt;18 -->
<g id="edge33" class="edge"><title>13&#45;&gt;18</title>
<path fill="none" stroke="grey" stroke-width="2" d="M951.616,-575.937C987.495,-566.71 1032.29,-554.713 1080.32,-540.109"/>
<polygon fill="grey" stroke="grey" points="1081.43,-543.43 1089.97,-537.154 1079.38,-536.737 1081.43,-543.43"/>
</g>
<!-- 19 -->
<g id="node20" class="node"><title>19</title>
<path fill="none" stroke="#56d892" stroke-width="2" d="M1256,-540C1256,-540 1200,-540 1200,-540 1194,-540 1188,-534 1188,-528 1188,-528 1188,-516 1188,-516 1188,-510 1194,-504 1200,-504 1200,-504 1256,-504 1256,-504 1262,-504 1268,-510 1268,-516 1268,-516 1268,-528 1268,-528 1268,-534 1262,-540 1256,-540"/>
<text text-anchor="middle" x="1228" y="-525" font-family="sans" font-size="10.00">contfree_ngs</text>
<text text-anchor="middle" x="1228" y="-514" font-family="sans" font-size="10.00">part: 02</text>
</g>
<!-- 13&#45;&gt;19 -->
<g id="edge35" class="edge"><title>13&#45;&gt;19</title>
<path fill="none" stroke="grey" stroke-width="2" d="M957.187,-577.673C960.162,-577.1 963.108,-576.54 966,-576 1057.24,-558.951 1084.21,-563.481 1177.89,-540.061"/>
<polygon fill="grey" stroke="grey" points="1178.96,-543.402 1187.79,-537.547 1177.23,-536.618 1178.96,-543.402"/>
</g>
<!-- 20 -->
<g id="node21" class="node"><title>20</title>
<path fill="none" stroke="#56d892" stroke-width="2" d="M766,-540C766,-540 710,-540 710,-540 704,-540 698,-534 698,-528 698,-528 698,-516 698,-516 698,-510 704,-504 710,-504 710,-504 766,-504 766,-504 772,-504 778,-510 778,-516 778,-516 778,-528 778,-528 778,-534 772,-540 766,-540"/>
<text text-anchor="middle" x="738" y="-525" font-family="sans" font-size="10.00">contfree_ngs</text>
<text text-anchor="middle" x="738" y="-514" font-family="sans" font-size="10.00">part: 03</text>
</g>
<!-- 13&#45;&gt;20 -->
<g id="edge37" class="edge"><title>13&#45;&gt;20</title>
<path fill="none" stroke="grey" stroke-width="2" d="M847.529,-575.876C827.883,-566.392 803.278,-554.513 782.368,-544.419"/>
<polygon fill="grey" stroke="grey" points="783.883,-541.264 773.356,-540.068 780.84,-547.568 783.883,-541.264"/>
</g>
<!-- 21 -->
<g id="node22" class="node"><title>21</title>
<path fill="none" stroke="#56d892" stroke-width="2" d="M864,-540C864,-540 808,-540 808,-540 802,-540 796,-534 796,-528 796,-528 796,-516 796,-516 796,-510 802,-504 808,-504 808,-504 864,-504 864,-504 870,-504 876,-510 876,-516 876,-516 876,-528 876,-528 876,-534 870,-540 864,-540"/>
<text text-anchor="middle" x="836" y="-525" font-family="sans" font-size="10.00">contfree_ngs</text>
<text text-anchor="middle" x="836" y="-514" font-family="sans" font-size="10.00">part: 04</text>
</g>
<!-- 13&#45;&gt;21 -->
<g id="edge39" class="edge"><title>13&#45;&gt;21</title>
<path fill="none" stroke="grey" stroke-width="2" d="M871.382,-575.697C865.861,-567.474 859.153,-557.483 853.068,-548.421"/>
<polygon fill="grey" stroke="grey" points="855.965,-546.456 847.484,-540.104 850.153,-550.358 855.965,-546.456"/>
</g>
<!-- 22 -->
<g id="node23" class="node"><title>22</title>
<path fill="none" stroke="#56d892" stroke-width="2" d="M962,-540C962,-540 906,-540 906,-540 900,-540 894,-534 894,-528 894,-528 894,-516 894,-516 894,-510 900,-504 906,-504 906,-504 962,-504 962,-504 968,-504 974,-510 974,-516 974,-516 974,-528 974,-528 974,-534 968,-540 962,-540"/>
<text text-anchor="middle" x="934" y="-525" font-family="sans" font-size="10.00">contfree_ngs</text>
<text text-anchor="middle" x="934" y="-514" font-family="sans" font-size="10.00">part: 05</text>
</g>
<!-- 13&#45;&gt;22 -->
<g id="edge41" class="edge"><title>13&#45;&gt;22</title>
<path fill="none" stroke="grey" stroke-width="2" d="M895.607,-575.697C901.597,-567.474 908.876,-557.483 915.479,-548.421"/>
<polygon fill="grey" stroke="grey" points="918.478,-550.248 921.538,-540.104 912.821,-546.126 918.478,-550.248"/>
</g>
<!-- 14&#45;&gt;13 -->
<g id="edge27" class="edge"><title>14&#45;&gt;13</title>
<path fill="none" stroke="grey" stroke-width="2" d="M907.778,-791.856C902.787,-781.725 897.037,-768.475 894,-756 882.805,-710.021 881.594,-654.628 882.066,-622.259"/>
<polygon fill="grey" stroke="grey" points="885.566,-622.283 882.279,-612.212 878.568,-622.135 885.566,-622.283"/>
</g>
<!-- 16 -->
<g id="node17" class="node"><title>16</title>
<path fill="none" stroke="#56d873" stroke-width="2" d="M1047,-684C1047,-684 1017,-684 1017,-684 1011,-684 1005,-678 1005,-672 1005,-672 1005,-660 1005,-660 1005,-654 1011,-648 1017,-648 1017,-648 1047,-648 1047,-648 1053,-648 1059,-654 1059,-660 1059,-660 1059,-672 1059,-672 1059,-678 1053,-684 1047,-684"/>
<text text-anchor="middle" x="1032" y="-663.5" font-family="sans" font-size="10.00">kraken</text>
</g>
<!-- 14&#45;&gt;16 -->
<g id="edge31" class="edge"><title>14&#45;&gt;16</title>
<path fill="none" stroke="grey" stroke-width="2" d="M944.223,-803.029C968.801,-796.113 1003.81,-782.153 1022,-756 1034.45,-738.096 1036.26,-713.096 1035.35,-694.149"/>
<polygon fill="grey" stroke="grey" points="1038.83,-693.77 1034.59,-684.061 1031.85,-694.297 1038.83,-693.77"/>
</g>
<!-- 17 -->
<g id="node18" class="node"><title>17</title>
<path fill="none" stroke="#d88d56" stroke-width="2" d="M1001,-756C1001,-756 915,-756 915,-756 909,-756 903,-750 903,-744 903,-744 903,-732 903,-732 903,-726 909,-720 915,-720 915,-720 1001,-720 1001,-720 1007,-720 1013,-726 1013,-732 1013,-732 1013,-744 1013,-744 1013,-750 1007,-756 1001,-756"/>
<text text-anchor="middle" x="958" y="-735.5" font-family="sans" font-size="10.00">fastqc_after_bbduk</text>
</g>
<!-- 14&#45;&gt;17 -->
<g id="edge32" class="edge"><title>14&#45;&gt;17</title>
<path fill="none" stroke="grey" stroke-width="2" d="M927.135,-791.697C931.852,-783.644 937.562,-773.894 942.782,-764.982"/>
<polygon fill="grey" stroke="grey" points="945.948,-766.502 947.982,-756.104 939.908,-762.964 945.948,-766.502"/>
</g>
<!-- 15 -->
<g id="node16" class="node"><title>15</title>
<path fill="none" stroke="#70d856" stroke-width="2" d="M1076.25,-612C1076.25,-612 987.75,-612 987.75,-612 981.75,-612 975.75,-606 975.75,-600 975.75,-600 975.75,-588 975.75,-588 975.75,-582 981.75,-576 987.75,-576 987.75,-576 1076.25,-576 1076.25,-576 1082.25,-576 1088.25,-582 1088.25,-588 1088.25,-588 1088.25,-600 1088.25,-600 1088.25,-606 1082.25,-612 1076.25,-612"/>
<text text-anchor="middle" x="1032" y="-591.5" font-family="sans" font-size="10.00">split_kraken_output</text>
</g>
<!-- 15&#45;&gt;12 -->
<g id="edge26" class="edge"><title>15&#45;&gt;12</title>
<path fill="none" stroke="grey" stroke-width="2" d="M1032,-575.697C1032,-567.983 1032,-558.712 1032,-550.112"/>
<polygon fill="grey" stroke="grey" points="1035.5,-550.104 1032,-540.104 1028.5,-550.104 1035.5,-550.104"/>
</g>
<!-- 15&#45;&gt;18 -->
<g id="edge34" class="edge"><title>15&#45;&gt;18</title>
<path fill="none" stroke="grey" stroke-width="2" d="M1055.97,-575.876C1068.55,-566.893 1084.13,-555.763 1097.75,-546.034"/>
<polygon fill="grey" stroke="grey" points="1099.83,-548.85 1105.93,-540.19 1095.76,-543.154 1099.83,-548.85"/>
</g>
<!-- 15&#45;&gt;19 -->
<g id="edge36" class="edge"><title>15&#45;&gt;19</title>
<path fill="none" stroke="grey" stroke-width="2" d="M1079.7,-575.966C1109.55,-565.303 1147.96,-551.587 1178.2,-540.785"/>
<polygon fill="grey" stroke="grey" points="1179.47,-544.048 1187.71,-537.388 1177.12,-537.455 1179.47,-544.048"/>
</g>
<!-- 15&#45;&gt;20 -->
<g id="edge38" class="edge"><title>15&#45;&gt;20</title>
<path fill="none" stroke="grey" stroke-width="2" d="M975.523,-578.241C972.305,-577.466 969.114,-576.714 966,-576 889.992,-558.581 867.066,-561.11 788.15,-540.125"/>
<polygon fill="grey" stroke="grey" points="788.808,-536.677 778.241,-537.446 786.981,-543.434 788.808,-536.677"/>
</g>
<!-- 15&#45;&gt;21 -->
<g id="edge40" class="edge"><title>15&#45;&gt;21</title>
<path fill="none" stroke="grey" stroke-width="2" d="M984.304,-575.966C954.447,-565.303 916.045,-551.587 885.799,-540.785"/>
<polygon fill="grey" stroke="grey" points="886.881,-537.455 876.287,-537.388 884.527,-544.048 886.881,-537.455"/>
</g>
<!-- 15&#45;&gt;22 -->
<g id="edge42" class="edge"><title>15&#45;&gt;22</title>
<path fill="none" stroke="grey" stroke-width="2" d="M1008.03,-575.876C995.45,-566.893 979.868,-555.763 966.248,-546.034"/>
<polygon fill="grey" stroke="grey" points="968.237,-543.154 958.066,-540.19 964.169,-548.85 968.237,-543.154"/>
</g>
<!-- 16&#45;&gt;15 -->
<g id="edge29" class="edge"><title>16&#45;&gt;15</title>
<path fill="none" stroke="grey" stroke-width="2" d="M1032,-647.697C1032,-639.983 1032,-630.712 1032,-622.112"/>
<polygon fill="grey" stroke="grey" points="1035.5,-622.104 1032,-612.104 1028.5,-622.104 1035.5,-622.104"/>
</g>
<!-- 17&#45;&gt;16 -->
<g id="edge30" class="edge"><title>17&#45;&gt;16</title>
<path fill="none" stroke="grey" stroke-width="2" d="M976.292,-719.697C985.433,-711.05 996.64,-700.449 1006.6,-691.027"/>
<polygon fill="grey" stroke="grey" points="1009.06,-693.519 1013.92,-684.104 1004.25,-688.434 1009.06,-693.519"/>
</g>
<!-- 18&#45;&gt;11 -->
<g id="edge20" class="edge"><title>18&#45;&gt;11</title>
<path fill="none" stroke="grey" stroke-width="2" d="M1089.83,-505.465C1058.63,-493.398 1015.73,-476.806 985.497,-465.115"/>
<polygon fill="grey" stroke="grey" points="986.748,-461.846 976.159,-461.503 984.223,-468.375 986.748,-461.846"/>
</g>
<!-- 19&#45;&gt;11 -->
<g id="edge21" class="edge"><title>19&#45;&gt;11</title>
<path fill="none" stroke="grey" stroke-width="2" d="M1187.73,-506.645C1184.79,-505.714 1181.86,-504.822 1179,-504 1111.78,-484.655 1031.94,-467.543 986.198,-458.288"/>
<polygon fill="grey" stroke="grey" points="986.645,-454.808 976.152,-456.271 985.267,-461.671 986.645,-454.808"/>
</g>
<!-- 20&#45;&gt;11 -->
<g id="edge22" class="edge"><title>20&#45;&gt;11</title>
<path fill="none" stroke="grey" stroke-width="2" d="M778.091,-507.026C781.104,-505.996 784.099,-504.978 787,-504 829.821,-489.568 879.198,-473.496 912.073,-462.875"/>
<polygon fill="grey" stroke="grey" points="913.279,-466.163 921.721,-459.761 911.129,-459.502 913.279,-466.163"/>
</g>
<!-- 21&#45;&gt;11 -->
<g id="edge23" class="edge"><title>21&#45;&gt;11</title>
<path fill="none" stroke="grey" stroke-width="2" d="M863.643,-503.876C878.528,-494.655 897.066,-483.172 913.059,-473.265"/>
<polygon fill="grey" stroke="grey" points="914.985,-476.189 921.642,-467.947 911.298,-470.238 914.985,-476.189"/>
</g>
<!-- 22&#45;&gt;11 -->
<g id="edge24" class="edge"><title>22&#45;&gt;11</title>
<path fill="none" stroke="grey" stroke-width="2" d="M937.708,-503.697C939.361,-495.983 941.347,-486.712 943.19,-478.112"/>
<polygon fill="grey" stroke="grey" points="946.662,-478.616 945.335,-468.104 939.817,-477.149 946.662,-478.616"/>
</g>
<!-- 23 -->
<g id="node24" class="node"><title>23</title>
<path fill="none" stroke="#d85656" stroke-width="2" d="M1439,-468C1439,-468 1409,-468 1409,-468 1403,-468 1397,-462 1397,-456 1397,-456 1397,-444 1397,-444 1397,-438 1403,-432 1409,-432 1409,-432 1439,-432 1439,-432 1445,-432 1451,-438 1451,-444 1451,-444 1451,-456 1451,-456 1451,-462 1445,-468 1439,-468"/>
<text text-anchor="middle" x="1424" y="-447.5" font-family="sans" font-size="10.00">merge</text>
</g>
<!-- 23&#45;&gt;10 -->
<g id="edge17" class="edge"><title>23&#45;&gt;10</title>
<path fill="none" stroke="grey" stroke-width="2" d="M1396.66,-445.718C1301.89,-434.339 987.306,-396.567 878.452,-383.497"/>
<polygon fill="grey" stroke="grey" points="878.624,-379.992 868.278,-382.275 877.79,-386.943 878.624,-379.992"/>
</g>
<!-- 23&#45;&gt;48 -->
<g id="edge94" class="edge"><title>23&#45;&gt;48</title>
<path fill="none" stroke="grey" stroke-width="2" d="M1396.89,-445.367C1307.08,-432.584 1025,-386.133 1025,-307 1025,-307 1025,-307 1025,-233 1025,-174.157 964.023,-134.48 915.983,-112.351"/>
<polygon fill="grey" stroke="grey" points="917.128,-109.03 906.569,-108.159 914.28,-115.425 917.128,-109.03"/>
</g>
<!-- 51 -->
<g id="node52" class="node"><title>51</title>
<path fill="none" stroke="#56a9d8" stroke-width="2" d="M1339.25,-252C1339.25,-252 1242.75,-252 1242.75,-252 1236.75,-252 1230.75,-246 1230.75,-240 1230.75,-240 1230.75,-228 1230.75,-228 1230.75,-222 1236.75,-216 1242.75,-216 1242.75,-216 1339.25,-216 1339.25,-216 1345.25,-216 1351.25,-222 1351.25,-228 1351.25,-228 1351.25,-240 1351.25,-240 1351.25,-246 1345.25,-252 1339.25,-252"/>
<text text-anchor="middle" x="1291" y="-231.5" font-family="sans" font-size="10.00">fastqc_after_contfree</text>
</g>
<!-- 23&#45;&gt;51 -->
<g id="edge98" class="edge"><title>23&#45;&gt;51</title>
<path fill="none" stroke="grey" stroke-width="2" d="M1413.34,-431.849C1390.09,-394.44 1334.7,-305.322 1307.15,-260.98"/>
<polygon fill="grey" stroke="grey" points="1309.96,-258.878 1301.71,-252.232 1304.02,-262.573 1309.96,-258.878"/>
</g>
<!-- 24 -->
<g id="node25" class="node"><title>24</title>
<path fill="none" stroke="#56d892" stroke-width="2" d="M1648,-540C1648,-540 1592,-540 1592,-540 1586,-540 1580,-534 1580,-528 1580,-528 1580,-516 1580,-516 1580,-510 1586,-504 1592,-504 1592,-504 1648,-504 1648,-504 1654,-504 1660,-510 1660,-516 1660,-516 1660,-528 1660,-528 1660,-534 1654,-540 1648,-540"/>
<text text-anchor="middle" x="1620" y="-525" font-family="sans" font-size="10.00">contfree_ngs</text>
<text text-anchor="middle" x="1620" y="-514" font-family="sans" font-size="10.00">part: 00</text>
</g>
<!-- 24&#45;&gt;23 -->
<g id="edge43" class="edge"><title>24&#45;&gt;23</title>
<path fill="none" stroke="grey" stroke-width="2" d="M1579.86,-506.666C1544.9,-494.179 1494.63,-476.224 1460.71,-464.112"/>
<polygon fill="grey" stroke="grey" points="1461.77,-460.774 1451.18,-460.706 1459.42,-467.366 1461.77,-460.774"/>
</g>
<!-- 25 -->
<g id="node26" class="node"><title>25</title>
<path fill="none" stroke="#d8ac56" stroke-width="2" d="M1584,-612C1584,-612 1460,-612 1460,-612 1454,-612 1448,-606 1448,-600 1448,-600 1448,-588 1448,-588 1448,-582 1454,-576 1460,-576 1460,-576 1584,-576 1584,-576 1590,-576 1596,-582 1596,-588 1596,-588 1596,-600 1596,-600 1596,-606 1590,-612 1584,-612"/>
<text text-anchor="middle" x="1522" y="-591.5" font-family="sans" font-size="10.00">create_index_contfree_ngs</text>
</g>
<!-- 25&#45;&gt;24 -->
<g id="edge49" class="edge"><title>25&#45;&gt;24</title>
<path fill="none" stroke="grey" stroke-width="2" d="M1545.97,-575.876C1558.55,-566.893 1574.13,-555.763 1587.75,-546.034"/>
<polygon fill="grey" stroke="grey" points="1589.83,-548.85 1595.93,-540.19 1585.76,-543.154 1589.83,-548.85"/>
</g>
<!-- 30 -->
<g id="node31" class="node"><title>30</title>
<path fill="none" stroke="#56d892" stroke-width="2" d="M1746,-540C1746,-540 1690,-540 1690,-540 1684,-540 1678,-534 1678,-528 1678,-528 1678,-516 1678,-516 1678,-510 1684,-504 1690,-504 1690,-504 1746,-504 1746,-504 1752,-504 1758,-510 1758,-516 1758,-516 1758,-528 1758,-528 1758,-534 1752,-540 1746,-540"/>
<text text-anchor="middle" x="1718" y="-525" font-family="sans" font-size="10.00">contfree_ngs</text>
<text text-anchor="middle" x="1718" y="-514" font-family="sans" font-size="10.00">part: 01</text>
</g>
<!-- 25&#45;&gt;30 -->
<g id="edge57" class="edge"><title>25&#45;&gt;30</title>
<path fill="none" stroke="grey" stroke-width="2" d="M1569.7,-575.966C1599.55,-565.303 1637.96,-551.587 1668.2,-540.785"/>
<polygon fill="grey" stroke="grey" points="1669.47,-544.048 1677.71,-537.388 1667.12,-537.455 1669.47,-544.048"/>
</g>
<!-- 31 -->
<g id="node32" class="node"><title>31</title>
<path fill="none" stroke="#56d892" stroke-width="2" d="M1844,-540C1844,-540 1788,-540 1788,-540 1782,-540 1776,-534 1776,-528 1776,-528 1776,-516 1776,-516 1776,-510 1782,-504 1788,-504 1788,-504 1844,-504 1844,-504 1850,-504 1856,-510 1856,-516 1856,-516 1856,-528 1856,-528 1856,-534 1850,-540 1844,-540"/>
<text text-anchor="middle" x="1816" y="-525" font-family="sans" font-size="10.00">contfree_ngs</text>
<text text-anchor="middle" x="1816" y="-514" font-family="sans" font-size="10.00">part: 02</text>
</g>
<!-- 25&#45;&gt;31 -->
<g id="edge59" class="edge"><title>25&#45;&gt;31</title>
<path fill="none" stroke="grey" stroke-width="2" d="M1596.2,-577.422C1655.18,-564.97 1732.15,-548.543 1765.77,-540.051"/>
<polygon fill="grey" stroke="grey" points="1766.98,-543.35 1775.75,-537.398 1765.18,-536.585 1766.98,-543.35"/>
</g>
<!-- 32 -->
<g id="node33" class="node"><title>32</title>
<path fill="none" stroke="#56d892" stroke-width="2" d="M1354,-540C1354,-540 1298,-540 1298,-540 1292,-540 1286,-534 1286,-528 1286,-528 1286,-516 1286,-516 1286,-510 1292,-504 1298,-504 1298,-504 1354,-504 1354,-504 1360,-504 1366,-510 1366,-516 1366,-516 1366,-528 1366,-528 1366,-534 1360,-540 1354,-540"/>
<text text-anchor="middle" x="1326" y="-525" font-family="sans" font-size="10.00">contfree_ngs</text>
<text text-anchor="middle" x="1326" y="-514" font-family="sans" font-size="10.00">part: 03</text>
</g>
<!-- 25&#45;&gt;32 -->
<g id="edge61" class="edge"><title>25&#45;&gt;32</title>
<path fill="none" stroke="grey" stroke-width="2" d="M1474.3,-575.966C1444.45,-565.303 1406.04,-551.587 1375.8,-540.785"/>
<polygon fill="grey" stroke="grey" points="1376.88,-537.455 1366.29,-537.388 1374.53,-544.048 1376.88,-537.455"/>
</g>
<!-- 33 -->
<g id="node34" class="node"><title>33</title>
<path fill="none" stroke="#56d892" stroke-width="2" d="M1452,-540C1452,-540 1396,-540 1396,-540 1390,-540 1384,-534 1384,-528 1384,-528 1384,-516 1384,-516 1384,-510 1390,-504 1396,-504 1396,-504 1452,-504 1452,-504 1458,-504 1464,-510 1464,-516 1464,-516 1464,-528 1464,-528 1464,-534 1458,-540 1452,-540"/>
<text text-anchor="middle" x="1424" y="-525" font-family="sans" font-size="10.00">contfree_ngs</text>
<text text-anchor="middle" x="1424" y="-514" font-family="sans" font-size="10.00">part: 04</text>
</g>
<!-- 25&#45;&gt;33 -->
<g id="edge63" class="edge"><title>25&#45;&gt;33</title>
<path fill="none" stroke="grey" stroke-width="2" d="M1498.03,-575.876C1485.45,-566.893 1469.87,-555.763 1456.25,-546.034"/>
<polygon fill="grey" stroke="grey" points="1458.24,-543.154 1448.07,-540.19 1454.17,-548.85 1458.24,-543.154"/>
</g>
<!-- 34 -->
<g id="node35" class="node"><title>34</title>
<path fill="none" stroke="#56d892" stroke-width="2" d="M1550,-540C1550,-540 1494,-540 1494,-540 1488,-540 1482,-534 1482,-528 1482,-528 1482,-516 1482,-516 1482,-510 1488,-504 1494,-504 1494,-504 1550,-504 1550,-504 1556,-504 1562,-510 1562,-516 1562,-516 1562,-528 1562,-528 1562,-534 1556,-540 1550,-540"/>
<text text-anchor="middle" x="1522" y="-525" font-family="sans" font-size="10.00">contfree_ngs</text>
<text text-anchor="middle" x="1522" y="-514" font-family="sans" font-size="10.00">part: 05</text>
</g>
<!-- 25&#45;&gt;34 -->
<g id="edge65" class="edge"><title>25&#45;&gt;34</title>
<path fill="none" stroke="grey" stroke-width="2" d="M1522,-575.697C1522,-567.983 1522,-558.712 1522,-550.112"/>
<polygon fill="grey" stroke="grey" points="1525.5,-550.104 1522,-540.104 1518.5,-550.104 1525.5,-550.104"/>
</g>
<!-- 26&#45;&gt;25 -->
<g id="edge51" class="edge"><title>26&#45;&gt;25</title>
<path fill="none" stroke="grey" stroke-width="2" d="M1689.41,-791.849C1657.33,-754.127 1580.54,-663.827 1543.16,-619.876"/>
<polygon fill="grey" stroke="grey" points="1545.8,-617.583 1536.66,-612.232 1540.47,-622.118 1545.8,-617.583"/>
</g>
<!-- 28 -->
<g id="node29" class="node"><title>28</title>
<path fill="none" stroke="#56d873" stroke-width="2" d="M1686,-684C1686,-684 1656,-684 1656,-684 1650,-684 1644,-678 1644,-672 1644,-672 1644,-660 1644,-660 1644,-654 1650,-648 1656,-648 1656,-648 1686,-648 1686,-648 1692,-648 1698,-654 1698,-660 1698,-660 1698,-672 1698,-672 1698,-678 1692,-684 1686,-684"/>
<text text-anchor="middle" x="1671" y="-663.5" font-family="sans" font-size="10.00">kraken</text>
</g>
<!-- 26&#45;&gt;28 -->
<g id="edge55" class="edge"><title>26&#45;&gt;28</title>
<path fill="none" stroke="grey" stroke-width="2" d="M1695.44,-791.747C1690.76,-781.579 1685.26,-768.329 1682,-756 1676.64,-735.71 1673.88,-712.114 1672.46,-694.317"/>
<polygon fill="grey" stroke="grey" points="1675.95,-694.052 1671.76,-684.323 1668.97,-694.544 1675.95,-694.052"/>
</g>
<!-- 29 -->
<g id="node30" class="node"><title>29</title>
<path fill="none" stroke="#d88d56" stroke-width="2" d="M1789,-756C1789,-756 1703,-756 1703,-756 1697,-756 1691,-750 1691,-744 1691,-744 1691,-732 1691,-732 1691,-726 1697,-720 1703,-720 1703,-720 1789,-720 1789,-720 1795,-720 1801,-726 1801,-732 1801,-732 1801,-744 1801,-744 1801,-750 1795,-756 1789,-756"/>
<text text-anchor="middle" x="1746" y="-735.5" font-family="sans" font-size="10.00">fastqc_after_bbduk</text>
</g>
<!-- 26&#45;&gt;29 -->
<g id="edge56" class="edge"><title>26&#45;&gt;29</title>
<path fill="none" stroke="grey" stroke-width="2" d="M1714.38,-791.697C1719.26,-783.559 1725.19,-773.689 1730.58,-764.701"/>
<polygon fill="grey" stroke="grey" points="1733.59,-766.48 1735.74,-756.104 1727.59,-762.879 1733.59,-766.48"/>
</g>
<!-- 27 -->
<g id="node28" class="node"><title>27</title>
<path fill="none" stroke="#70d856" stroke-width="2" d="M1715.25,-612C1715.25,-612 1626.75,-612 1626.75,-612 1620.75,-612 1614.75,-606 1614.75,-600 1614.75,-600 1614.75,-588 1614.75,-588 1614.75,-582 1620.75,-576 1626.75,-576 1626.75,-576 1715.25,-576 1715.25,-576 1721.25,-576 1727.25,-582 1727.25,-588 1727.25,-588 1727.25,-600 1727.25,-600 1727.25,-606 1721.25,-612 1715.25,-612"/>
<text text-anchor="middle" x="1671" y="-591.5" font-family="sans" font-size="10.00">split_kraken_output</text>
</g>
<!-- 27&#45;&gt;24 -->
<g id="edge50" class="edge"><title>27&#45;&gt;24</title>
<path fill="none" stroke="grey" stroke-width="2" d="M1658.39,-575.697C1652.4,-567.474 1645.12,-557.483 1638.52,-548.421"/>
<polygon fill="grey" stroke="grey" points="1641.18,-546.126 1632.46,-540.104 1635.52,-550.248 1641.18,-546.126"/>
</g>
<!-- 27&#45;&gt;30 -->
<g id="edge58" class="edge"><title>27&#45;&gt;30</title>
<path fill="none" stroke="grey" stroke-width="2" d="M1682.62,-575.697C1688.14,-567.474 1694.85,-557.483 1700.93,-548.421"/>
<polygon fill="grey" stroke="grey" points="1703.85,-550.358 1706.52,-540.104 1698.04,-546.456 1703.85,-550.358"/>
</g>
<!-- 27&#45;&gt;31 -->
<g id="edge60" class="edge"><title>27&#45;&gt;31</title>
<path fill="none" stroke="grey" stroke-width="2" d="M1706.47,-575.876C1726.12,-566.392 1750.72,-554.513 1771.63,-544.419"/>
<polygon fill="grey" stroke="grey" points="1773.16,-547.568 1780.64,-540.068 1770.12,-541.264 1773.16,-547.568"/>
</g>
<!-- 27&#45;&gt;32 -->
<g id="edge62" class="edge"><title>27&#45;&gt;32</title>
<path fill="none" stroke="grey" stroke-width="2" d="M1614.56,-578.079C1611.33,-577.345 1608.13,-576.646 1605,-576 1506.84,-555.725 1477.23,-564.463 1376.21,-540.055"/>
<polygon fill="grey" stroke="grey" points="1376.75,-536.584 1366.2,-537.587 1375.08,-543.38 1376.75,-536.584"/>
</g>
<!-- 27&#45;&gt;33 -->
<g id="edge64" class="edge"><title>27&#45;&gt;33</title>
<path fill="none" stroke="grey" stroke-width="2" d="M1614.7,-578.415C1570.15,-566.792 1510.61,-551.059 1473.79,-540.108"/>
<polygon fill="grey" stroke="grey" points="1474.62,-536.704 1464.03,-537.154 1472.59,-543.403 1474.62,-536.704"/>
</g>
<!-- 27&#45;&gt;34 -->
<g id="edge66" class="edge"><title>27&#45;&gt;34</title>
<path fill="none" stroke="grey" stroke-width="2" d="M1634.55,-575.876C1614.36,-566.392 1589.08,-554.513 1567.59,-544.419"/>
<polygon fill="grey" stroke="grey" points="1568.87,-541.153 1558.33,-540.068 1565.89,-547.488 1568.87,-541.153"/>
</g>
<!-- 28&#45;&gt;27 -->
<g id="edge53" class="edge"><title>28&#45;&gt;27</title>
<path fill="none" stroke="grey" stroke-width="2" d="M1671,-647.697C1671,-639.983 1671,-630.712 1671,-622.112"/>
<polygon fill="grey" stroke="grey" points="1674.5,-622.104 1671,-612.104 1667.5,-622.104 1674.5,-622.104"/>
</g>
<!-- 29&#45;&gt;28 -->
<g id="edge54" class="edge"><title>29&#45;&gt;28</title>
<path fill="none" stroke="grey" stroke-width="2" d="M1727.46,-719.697C1718.2,-711.05 1706.84,-700.449 1696.74,-691.027"/>
<polygon fill="grey" stroke="grey" points="1699.02,-688.369 1689.33,-684.104 1694.25,-693.486 1699.02,-688.369"/>
</g>
<!-- 30&#45;&gt;23 -->
<g id="edge44" class="edge"><title>30&#45;&gt;23</title>
<path fill="none" stroke="grey" stroke-width="2" d="M1677.75,-506.602C1674.8,-505.681 1671.86,-504.803 1669,-504 1596.2,-483.577 1509.36,-466.462 1461.07,-457.573"/>
<polygon fill="grey" stroke="grey" points="1461.55,-454.103 1451.09,-455.751 1460.3,-460.989 1461.55,-454.103"/>
</g>
<!-- 31&#45;&gt;23 -->
<g id="edge45" class="edge"><title>31&#45;&gt;23</title>
<path fill="none" stroke="grey" stroke-width="2" d="M1775.8,-506.406C1772.84,-505.531 1769.88,-504.717 1767,-504 1657.55,-476.795 1524.79,-461.039 1461.31,-454.534"/>
<polygon fill="grey" stroke="grey" points="1461.31,-451.016 1451.01,-453.497 1460.61,-457.981 1461.31,-451.016"/>
</g>
<!-- 32&#45;&gt;23 -->
<g id="edge46" class="edge"><title>32&#45;&gt;23</title>
<path fill="none" stroke="grey" stroke-width="2" d="M1349.97,-503.876C1362.55,-494.893 1378.13,-483.763 1391.75,-474.034"/>
<polygon fill="grey" stroke="grey" points="1393.83,-476.85 1399.93,-468.19 1389.76,-471.154 1393.83,-476.85"/>
</g>
<!-- 33&#45;&gt;23 -->
<g id="edge47" class="edge"><title>33&#45;&gt;23</title>
<path fill="none" stroke="grey" stroke-width="2" d="M1424,-503.697C1424,-495.983 1424,-486.712 1424,-478.112"/>
<polygon fill="grey" stroke="grey" points="1427.5,-478.104 1424,-468.104 1420.5,-478.104 1427.5,-478.104"/>
</g>
<!-- 34&#45;&gt;23 -->
<g id="edge48" class="edge"><title>34&#45;&gt;23</title>
<path fill="none" stroke="grey" stroke-width="2" d="M1498.03,-503.876C1485.45,-494.893 1469.87,-483.763 1456.25,-474.034"/>
<polygon fill="grey" stroke="grey" points="1458.24,-471.154 1448.07,-468.19 1454.17,-476.85 1458.24,-471.154"/>
</g>
<!-- 35 -->
<g id="node36" class="node"><title>35</title>
<path fill="none" stroke="#d85656" stroke-width="2" d="M543,-468C543,-468 513,-468 513,-468 507,-468 501,-462 501,-456 501,-456 501,-444 501,-444 501,-438 507,-432 513,-432 513,-432 543,-432 543,-432 549,-432 555,-438 555,-444 555,-444 555,-456 555,-456 555,-462 549,-468 543,-468"/>
<text text-anchor="middle" x="528" y="-447.5" font-family="sans" font-size="10.00">merge</text>
</g>
<!-- 35&#45;&gt;10 -->
<g id="edge18" class="edge"><title>35&#45;&gt;10</title>
<path fill="none" stroke="grey" stroke-width="2" d="M555.229,-442.91C611.303,-430.37 739.745,-401.645 803.575,-387.37"/>
<polygon fill="grey" stroke="grey" points="804.616,-390.724 813.611,-385.125 803.088,-383.892 804.616,-390.724"/>
</g>
<!-- 35&#45;&gt;48 -->
<g id="edge95" class="edge"><title>35&#45;&gt;48</title>
<path fill="none" stroke="grey" stroke-width="2" d="M547.752,-431.909C573.972,-407.21 617,-358.789 617,-307 617,-307 617,-307 617,-233 617,-192.553 607.731,-172.927 636,-144 640.965,-138.92 709.778,-123.016 769.665,-109.944"/>
<polygon fill="grey" stroke="grey" points="770.543,-113.335 779.571,-107.79 769.055,-106.495 770.543,-113.335"/>
</g>
<!-- 52 -->
<g id="node53" class="node"><title>52</title>
<path fill="none" stroke="#56a9d8" stroke-width="2" d="M576.25,-252C576.25,-252 479.75,-252 479.75,-252 473.75,-252 467.75,-246 467.75,-240 467.75,-240 467.75,-228 467.75,-228 467.75,-222 473.75,-216 479.75,-216 479.75,-216 576.25,-216 576.25,-216 582.25,-216 588.25,-222 588.25,-228 588.25,-228 588.25,-240 588.25,-240 588.25,-246 582.25,-252 576.25,-252"/>
<text text-anchor="middle" x="528" y="-231.5" font-family="sans" font-size="10.00">fastqc_after_contfree</text>
</g>
<!-- 35&#45;&gt;52 -->
<g id="edge99" class="edge"><title>35&#45;&gt;52</title>
<path fill="none" stroke="grey" stroke-width="2" d="M528,-431.849C528,-394.832 528,-307.181 528,-262.386"/>
<polygon fill="grey" stroke="grey" points="531.5,-262.232 528,-252.232 524.5,-262.232 531.5,-262.232"/>
</g>
<!-- 36 -->
<g id="node37" class="node"><title>36</title>
<path fill="none" stroke="#56d892" stroke-width="2" d="M668,-540C668,-540 612,-540 612,-540 606,-540 600,-534 600,-528 600,-528 600,-516 600,-516 600,-510 606,-504 612,-504 612,-504 668,-504 668,-504 674,-504 680,-510 680,-516 680,-516 680,-528 680,-528 680,-534 674,-540 668,-540"/>
<text text-anchor="middle" x="640" y="-525" font-family="sans" font-size="10.00">contfree_ngs</text>
<text text-anchor="middle" x="640" y="-514" font-family="sans" font-size="10.00">part: 00</text>
</g>
<!-- 36&#45;&gt;35 -->
<g id="edge67" class="edge"><title>36&#45;&gt;35</title>
<path fill="none" stroke="grey" stroke-width="2" d="M612.602,-503.876C597.848,-494.655 579.475,-483.172 563.623,-473.265"/>
<polygon fill="grey" stroke="grey" points="565.45,-470.279 555.115,-467.947 561.74,-476.215 565.45,-470.279"/>
</g>
<!-- 37 -->
<g id="node38" class="node"><title>37</title>
<path fill="none" stroke="#d8ac56" stroke-width="2" d="M357,-612C357,-612 233,-612 233,-612 227,-612 221,-606 221,-600 221,-600 221,-588 221,-588 221,-582 227,-576 233,-576 233,-576 357,-576 357,-576 363,-576 369,-582 369,-588 369,-588 369,-600 369,-600 369,-606 363,-612 357,-612"/>
<text text-anchor="middle" x="295" y="-591.5" font-family="sans" font-size="10.00">create_index_contfree_ngs</text>
</g>
<!-- 37&#45;&gt;36 -->
<g id="edge73" class="edge"><title>37&#45;&gt;36</title>
<path fill="none" stroke="grey" stroke-width="2" d="M369.187,-577.673C372.162,-577.1 375.108,-576.54 378,-576 469.242,-558.951 496.215,-563.481 589.893,-540.061"/>
<polygon fill="grey" stroke="grey" points="590.956,-543.402 599.786,-537.547 589.232,-536.618 590.956,-543.402"/>
</g>
<!-- 42 -->
<g id="node43" class="node"><title>42</title>
<path fill="none" stroke="#56d892" stroke-width="2" d="M178,-540C178,-540 122,-540 122,-540 116,-540 110,-534 110,-528 110,-528 110,-516 110,-516 110,-510 116,-504 122,-504 122,-504 178,-504 178,-504 184,-504 190,-510 190,-516 190,-516 190,-528 190,-528 190,-534 184,-540 178,-540"/>
<text text-anchor="middle" x="150" y="-525" font-family="sans" font-size="10.00">contfree_ngs</text>
<text text-anchor="middle" x="150" y="-514" font-family="sans" font-size="10.00">part: 01</text>
</g>
<!-- 37&#45;&gt;42 -->
<g id="edge81" class="edge"><title>37&#45;&gt;42</title>
<path fill="none" stroke="grey" stroke-width="2" d="M259.529,-575.876C239.883,-566.392 215.278,-554.513 194.368,-544.419"/>
<polygon fill="grey" stroke="grey" points="195.883,-541.264 185.356,-540.068 192.84,-547.568 195.883,-541.264"/>
</g>
<!-- 43 -->
<g id="node44" class="node"><title>43</title>
<path fill="none" stroke="#56d892" stroke-width="2" d="M276,-540C276,-540 220,-540 220,-540 214,-540 208,-534 208,-528 208,-528 208,-516 208,-516 208,-510 214,-504 220,-504 220,-504 276,-504 276,-504 282,-504 288,-510 288,-516 288,-516 288,-528 288,-528 288,-534 282,-540 276,-540"/>
<text text-anchor="middle" x="248" y="-525" font-family="sans" font-size="10.00">contfree_ngs</text>
<text text-anchor="middle" x="248" y="-514" font-family="sans" font-size="10.00">part: 02</text>
</g>
<!-- 37&#45;&gt;43 -->
<g id="edge83" class="edge"><title>37&#45;&gt;43</title>
<path fill="none" stroke="grey" stroke-width="2" d="M283.382,-575.697C277.861,-567.474 271.153,-557.483 265.068,-548.421"/>
<polygon fill="grey" stroke="grey" points="267.965,-546.456 259.484,-540.104 262.153,-550.358 267.965,-546.456"/>
</g>
<!-- 44 -->
<g id="node45" class="node"><title>44</title>
<path fill="none" stroke="#56d892" stroke-width="2" d="M374,-540C374,-540 318,-540 318,-540 312,-540 306,-534 306,-528 306,-528 306,-516 306,-516 306,-510 312,-504 318,-504 318,-504 374,-504 374,-504 380,-504 386,-510 386,-516 386,-516 386,-528 386,-528 386,-534 380,-540 374,-540"/>
<text text-anchor="middle" x="346" y="-525" font-family="sans" font-size="10.00">contfree_ngs</text>
<text text-anchor="middle" x="346" y="-514" font-family="sans" font-size="10.00">part: 03</text>
</g>
<!-- 37&#45;&gt;44 -->
<g id="edge85" class="edge"><title>37&#45;&gt;44</title>
<path fill="none" stroke="grey" stroke-width="2" d="M307.607,-575.697C313.597,-567.474 320.876,-557.483 327.479,-548.421"/>
<polygon fill="grey" stroke="grey" points="330.478,-550.248 333.538,-540.104 324.821,-546.126 330.478,-550.248"/>
</g>
<!-- 45 -->
<g id="node46" class="node"><title>45</title>
<path fill="none" stroke="#56d892" stroke-width="2" d="M472,-540C472,-540 416,-540 416,-540 410,-540 404,-534 404,-528 404,-528 404,-516 404,-516 404,-510 410,-504 416,-504 416,-504 472,-504 472,-504 478,-504 484,-510 484,-516 484,-516 484,-528 484,-528 484,-534 478,-540 472,-540"/>
<text text-anchor="middle" x="444" y="-525" font-family="sans" font-size="10.00">contfree_ngs</text>
<text text-anchor="middle" x="444" y="-514" font-family="sans" font-size="10.00">part: 04</text>
</g>
<!-- 37&#45;&gt;45 -->
<g id="edge87" class="edge"><title>37&#45;&gt;45</title>
<path fill="none" stroke="grey" stroke-width="2" d="M331.45,-575.876C351.638,-566.392 376.921,-554.513 398.408,-544.419"/>
<polygon fill="grey" stroke="grey" points="400.106,-547.488 407.669,-540.068 397.13,-541.153 400.106,-547.488"/>
</g>
<!-- 46 -->
<g id="node47" class="node"><title>46</title>
<path fill="none" stroke="#56d892" stroke-width="2" d="M570,-540C570,-540 514,-540 514,-540 508,-540 502,-534 502,-528 502,-528 502,-516 502,-516 502,-510 508,-504 514,-504 514,-504 570,-504 570,-504 576,-504 582,-510 582,-516 582,-516 582,-528 582,-528 582,-534 576,-540 570,-540"/>
<text text-anchor="middle" x="542" y="-525" font-family="sans" font-size="10.00">contfree_ngs</text>
<text text-anchor="middle" x="542" y="-514" font-family="sans" font-size="10.00">part: 05</text>
</g>
<!-- 37&#45;&gt;46 -->
<g id="edge89" class="edge"><title>37&#45;&gt;46</title>
<path fill="none" stroke="grey" stroke-width="2" d="M363.616,-575.937C399.495,-566.71 444.293,-554.713 492.32,-540.109"/>
<polygon fill="grey" stroke="grey" points="493.43,-543.43 501.966,-537.154 491.38,-536.737 493.43,-543.43"/>
</g>
<!-- 38&#45;&gt;37 -->
<g id="edge75" class="edge"><title>38&#45;&gt;37</title>
<path fill="none" stroke="grey" stroke-width="2" d="M319.778,-791.856C314.787,-781.725 309.037,-768.475 306,-756 294.805,-710.021 293.594,-654.628 294.066,-622.259"/>
<polygon fill="grey" stroke="grey" points="297.566,-622.283 294.279,-612.212 290.568,-622.135 297.566,-622.283"/>
</g>
<!-- 40 -->
<g id="node41" class="node"><title>40</title>
<path fill="none" stroke="#56d873" stroke-width="2" d="M459,-684C459,-684 429,-684 429,-684 423,-684 417,-678 417,-672 417,-672 417,-660 417,-660 417,-654 423,-648 429,-648 429,-648 459,-648 459,-648 465,-648 471,-654 471,-660 471,-660 471,-672 471,-672 471,-678 465,-684 459,-684"/>
<text text-anchor="middle" x="444" y="-663.5" font-family="sans" font-size="10.00">kraken</text>
</g>
<!-- 38&#45;&gt;40 -->
<g id="edge79" class="edge"><title>38&#45;&gt;40</title>
<path fill="none" stroke="grey" stroke-width="2" d="M356.223,-803.029C380.801,-796.113 415.814,-782.153 434,-756 446.45,-738.096 448.26,-713.096 447.351,-694.149"/>
<polygon fill="grey" stroke="grey" points="450.833,-693.77 446.59,-684.061 443.852,-694.297 450.833,-693.77"/>
</g>
<!-- 41 -->
<g id="node42" class="node"><title>41</title>
<path fill="none" stroke="#d88d56" stroke-width="2" d="M413,-756C413,-756 327,-756 327,-756 321,-756 315,-750 315,-744 315,-744 315,-732 315,-732 315,-726 321,-720 327,-720 327,-720 413,-720 413,-720 419,-720 425,-726 425,-732 425,-732 425,-744 425,-744 425,-750 419,-756 413,-756"/>
<text text-anchor="middle" x="370" y="-735.5" font-family="sans" font-size="10.00">fastqc_after_bbduk</text>
</g>
<!-- 38&#45;&gt;41 -->
<g id="edge80" class="edge"><title>38&#45;&gt;41</title>
<path fill="none" stroke="grey" stroke-width="2" d="M339.135,-791.697C343.852,-783.644 349.562,-773.894 354.782,-764.982"/>
<polygon fill="grey" stroke="grey" points="357.948,-766.502 359.982,-756.104 351.908,-762.964 357.948,-766.502"/>
</g>
<!-- 39 -->
<g id="node40" class="node"><title>39</title>
<path fill="none" stroke="#70d856" stroke-width="2" d="M488.25,-612C488.25,-612 399.75,-612 399.75,-612 393.75,-612 387.75,-606 387.75,-600 387.75,-600 387.75,-588 387.75,-588 387.75,-582 393.75,-576 399.75,-576 399.75,-576 488.25,-576 488.25,-576 494.25,-576 500.25,-582 500.25,-588 500.25,-588 500.25,-600 500.25,-600 500.25,-606 494.25,-612 488.25,-612"/>
<text text-anchor="middle" x="444" y="-591.5" font-family="sans" font-size="10.00">split_kraken_output</text>
</g>
<!-- 39&#45;&gt;36 -->
<g id="edge74" class="edge"><title>39&#45;&gt;36</title>
<path fill="none" stroke="grey" stroke-width="2" d="M491.696,-575.966C521.553,-565.303 559.955,-551.587 590.201,-540.785"/>
<polygon fill="grey" stroke="grey" points="591.473,-544.048 599.713,-537.388 589.119,-537.455 591.473,-544.048"/>
</g>
<!-- 39&#45;&gt;42 -->
<g id="edge82" class="edge"><title>39&#45;&gt;42</title>
<path fill="none" stroke="grey" stroke-width="2" d="M387.523,-578.241C384.305,-577.466 381.114,-576.714 378,-576 301.992,-558.581 279.066,-561.11 200.15,-540.125"/>
<polygon fill="grey" stroke="grey" points="200.808,-536.677 190.241,-537.446 198.981,-543.434 200.808,-536.677"/>
</g>
<!-- 39&#45;&gt;43 -->
<g id="edge84" class="edge"><title>39&#45;&gt;43</title>
<path fill="none" stroke="grey" stroke-width="2" d="M396.304,-575.966C366.447,-565.303 328.045,-551.587 297.799,-540.785"/>
<polygon fill="grey" stroke="grey" points="298.881,-537.455 288.287,-537.388 296.527,-544.048 298.881,-537.455"/>
</g>
<!-- 39&#45;&gt;44 -->
<g id="edge86" class="edge"><title>39&#45;&gt;44</title>
<path fill="none" stroke="grey" stroke-width="2" d="M420.027,-575.876C407.45,-566.893 391.868,-555.763 378.248,-546.034"/>
<polygon fill="grey" stroke="grey" points="380.237,-543.154 370.066,-540.19 376.169,-548.85 380.237,-543.154"/>
</g>
<!-- 39&#45;&gt;45 -->
<g id="edge88" class="edge"><title>39&#45;&gt;45</title>
<path fill="none" stroke="grey" stroke-width="2" d="M444,-575.697C444,-567.983 444,-558.712 444,-550.112"/>
<polygon fill="grey" stroke="grey" points="447.5,-550.104 444,-540.104 440.5,-550.104 447.5,-550.104"/>
</g>
<!-- 39&#45;&gt;46 -->
<g id="edge90" class="edge"><title>39&#45;&gt;46</title>
<path fill="none" stroke="grey" stroke-width="2" d="M467.973,-575.876C480.55,-566.893 496.132,-555.763 509.752,-546.034"/>
<polygon fill="grey" stroke="grey" points="511.831,-548.85 517.934,-540.19 507.763,-543.154 511.831,-548.85"/>
</g>
<!-- 40&#45;&gt;39 -->
<g id="edge77" class="edge"><title>40&#45;&gt;39</title>
<path fill="none" stroke="grey" stroke-width="2" d="M444,-647.697C444,-639.983 444,-630.712 444,-622.112"/>
<polygon fill="grey" stroke="grey" points="447.5,-622.104 444,-612.104 440.5,-622.104 447.5,-622.104"/>
</g>
<!-- 41&#45;&gt;40 -->
<g id="edge78" class="edge"><title>41&#45;&gt;40</title>
<path fill="none" stroke="grey" stroke-width="2" d="M388.292,-719.697C397.433,-711.05 408.64,-700.449 418.6,-691.027"/>
<polygon fill="grey" stroke="grey" points="421.059,-693.519 425.918,-684.104 416.248,-688.434 421.059,-693.519"/>
</g>
<!-- 42&#45;&gt;35 -->
<g id="edge68" class="edge"><title>42&#45;&gt;35</title>
<path fill="none" stroke="grey" stroke-width="2" d="M190.208,-506.427C193.166,-505.547 196.119,-504.726 199,-504 303.21,-477.742 429.408,-461.685 490.818,-454.851"/>
<polygon fill="grey" stroke="grey" points="491.249,-458.324 500.809,-453.757 490.487,-451.366 491.249,-458.324"/>
</g>
<!-- 43&#45;&gt;35 -->
<g id="edge69" class="edge"><title>43&#45;&gt;35</title>
<path fill="none" stroke="grey" stroke-width="2" d="M288.266,-506.642C291.21,-505.712 294.144,-504.82 297,-504 364.508,-484.607 444.696,-467.511 490.638,-458.272"/>
<polygon fill="grey" stroke="grey" points="491.607,-461.648 500.729,-456.258 490.237,-454.783 491.607,-461.648"/>
</g>
<!-- 44&#45;&gt;35 -->
<g id="edge70" class="edge"><title>44&#45;&gt;35</title>
<path fill="none" stroke="grey" stroke-width="2" d="M386.392,-505.465C417.859,-493.362 461.165,-476.706 491.575,-465.009"/>
<polygon fill="grey" stroke="grey" points="492.888,-468.255 500.965,-461.398 490.375,-461.721 492.888,-468.255"/>
</g>
<!-- 45&#45;&gt;35 -->
<g id="edge71" class="edge"><title>45&#45;&gt;35</title>
<path fill="none" stroke="grey" stroke-width="2" d="M464.764,-503.697C475.241,-494.965 488.111,-484.24 499.5,-474.75"/>
<polygon fill="grey" stroke="grey" points="502.033,-477.195 507.475,-468.104 497.552,-471.817 502.033,-477.195"/>
</g>
<!-- 46&#45;&gt;35 -->
<g id="edge72" class="edge"><title>46&#45;&gt;35</title>
<path fill="none" stroke="grey" stroke-width="2" d="M538.539,-503.697C536.997,-495.983 535.142,-486.712 533.422,-478.112"/>
<polygon fill="grey" stroke="grey" points="536.814,-477.224 531.421,-468.104 529.95,-478.597 536.814,-477.224"/>
</g>
<!-- 47&#45;&gt;0 -->
<g id="edge5" class="edge"><title>47&#45;&gt;0</title>
<path fill="none" stroke="grey" stroke-width="2" d="M678.417,-143.678C681.403,-125.297 687.433,-95.6943 698,-72 702.237,-62.4999 708.182,-52.8681 714.022,-44.4686"/>
<polygon fill="grey" stroke="grey" points="716.966,-46.3713 719.994,-36.2186 711.295,-42.2666 716.966,-46.3713"/>
</g>
<!-- 48&#45;&gt;0 -->
<g id="edge6" class="edge"><title>48&#45;&gt;0</title>
<path fill="none" stroke="grey" stroke-width="2" d="M828.422,-71.8761C810.781,-61.9975 788.504,-49.522 770.018,-39.17"/>
<polygon fill="grey" stroke="grey" points="771.72,-36.1117 761.285,-34.2793 768.299,-42.2192 771.72,-36.1117"/>
</g>
<!-- 49&#45;&gt;48 -->
<g id="edge92" class="edge"><title>49&#45;&gt;48</title>
<path fill="none" stroke="grey" stroke-width="2" d="M846.202,-143.697C848.096,-135.898 850.377,-126.509 852.484,-117.829"/>
<polygon fill="grey" stroke="grey" points="855.887,-118.648 854.846,-108.104 849.085,-116.996 855.887,-118.648"/>
</g>
<!-- 50&#45;&gt;0 -->
<g id="edge7" class="edge"><title>50&#45;&gt;0</title>
<path fill="none" stroke="grey" stroke-width="2" d="M1086.92,-143.873C1054.68,-124.128 998.676,-91.8509 947,-72 887.354,-49.0876 814.465,-33.4526 771.269,-25.3913"/>
<polygon fill="grey" stroke="grey" points="771.681,-21.9085 761.214,-23.5519 770.421,-28.7943 771.681,-21.9085"/>
</g>
<!-- 51&#45;&gt;0 -->
<g id="edge8" class="edge"><title>51&#45;&gt;0</title>
<path fill="none" stroke="grey" stroke-width="2" d="M1273.6,-215.66C1253.29,-196.164 1217.99,-164.551 1183,-144 1044.78,-62.8091 851.604,-32.4219 771.298,-22.8302"/>
<polygon fill="grey" stroke="grey" points="771.514,-19.332 761.179,-21.6613 770.711,-26.2857 771.514,-19.332"/>
</g>
<!-- 52&#45;&gt;0 -->
<g id="edge9" class="edge"><title>52&#45;&gt;0</title>
<path fill="none" stroke="grey" stroke-width="2" d="M541.571,-215.798C556.203,-197.517 580.44,-167.997 603,-144 637.491,-107.311 680.11,-67.5945 707.18,-43.0044"/>
<polygon fill="grey" stroke="grey" points="709.653,-45.487 714.719,-36.182 704.956,-40.2967 709.653,-45.487"/>
</g>
</g>
</svg>
