<?xml version="1.0" encoding="UTF-8" standalone="no"?>
<!DOCTYPE svg PUBLIC "-//W3C//DTD SVG 1.1//EN"
 "http://www.w3.org/Graphics/SVG/1.1/DTD/svg11.dtd">
<!-- Generated by graphviz version 2.30.1 (20201013.1554)
 -->
<!-- Title: snakemake_dag Pages: 1 -->
<svg width="1754pt" height="1058pt"
 viewBox="0.00 0.00 1754.00 1058.00" xmlns="http://www.w3.org/2000/svg" xmlns:xlink="http://www.w3.org/1999/xlink">
<g id="graph0" class="graph" transform="scale(1 1) rotate(0) translate(4 1054)">
<title>snakemake_dag</title>
<polygon fill="white" stroke="white" points="-4,5 -4,-1054 1751,-1054 1751,5 -4,5"/>
<!-- 0 -->
<g id="node1" class="node"><title>0</title>
<path fill="none" stroke="#56d8d8" stroke-width="2" d="M1184,-36C1184,-36 1154,-36 1154,-36 1148,-36 1142,-30 1142,-24 1142,-24 1142,-12 1142,-12 1142,-6 1148,-0 1154,-0 1154,-0 1184,-0 1184,-0 1190,-0 1196,-6 1196,-12 1196,-12 1196,-24 1196,-24 1196,-30 1190,-36 1184,-36"/>
<text text-anchor="middle" x="1169" y="-15.5" font-family="sans" font-size="10.00">all</text>
</g>
<!-- 1 -->
<g id="node2" class="node"><title>1</title>
<path fill="none" stroke="#d85656" stroke-width="2" d="M1184,-108C1184,-108 1154,-108 1154,-108 1148,-108 1142,-102 1142,-96 1142,-96 1142,-84 1142,-84 1142,-78 1148,-72 1154,-72 1154,-72 1184,-72 1184,-72 1190,-72 1196,-78 1196,-84 1196,-84 1196,-96 1196,-96 1196,-102 1190,-108 1184,-108"/>
<text text-anchor="middle" x="1169" y="-87.5" font-family="sans" font-size="10.00">busco</text>
</g>
<!-- 1&#45;&gt;0 -->
<g id="edge1" class="edge"><title>1&#45;&gt;0</title>
<path fill="none" stroke="grey" stroke-width="2" d="M1169,-71.6966C1169,-63.9827 1169,-54.7125 1169,-46.1124"/>
<polygon fill="grey" stroke="grey" points="1172.5,-46.1043 1169,-36.1043 1165.5,-46.1044 1172.5,-46.1043"/>
</g>
<!-- 2 -->
<g id="node3" class="node"><title>2</title>
<path fill="none" stroke="#56d88a" stroke-width="2" d="M1173,-252C1173,-252 1057,-252 1057,-252 1051,-252 1045,-246 1045,-240 1045,-240 1045,-228 1045,-228 1045,-222 1051,-216 1057,-216 1057,-216 1173,-216 1173,-216 1179,-216 1185,-222 1185,-228 1185,-228 1185,-240 1185,-240 1185,-246 1179,-252 1173,-252"/>
<text text-anchor="middle" x="1115" y="-231.5" font-family="sans" font-size="10.00">extract_contiglenght_301</text>
</g>
<!-- 2&#45;&gt;1 -->
<g id="edge4" class="edge"><title>2&#45;&gt;1</title>
<path fill="none" stroke="grey" stroke-width="2" d="M1128.75,-215.791C1136.07,-205.853 1144.63,-192.813 1150,-180 1158.28,-160.239 1163.12,-136.437 1165.84,-118.422"/>
<polygon fill="grey" stroke="grey" points="1169.34,-118.685 1167.24,-108.3 1162.41,-117.726 1169.34,-118.685"/>
</g>
<!-- 48 -->
<g id="node49" class="node"><title>48</title>
<path fill="none" stroke="#d8a456" stroke-width="2" d="M1246.25,-180C1246.25,-180 1209.75,-180 1209.75,-180 1203.75,-180 1197.75,-174 1197.75,-168 1197.75,-168 1197.75,-156 1197.75,-156 1197.75,-150 1203.75,-144 1209.75,-144 1209.75,-144 1246.25,-144 1246.25,-144 1252.25,-144 1258.25,-150 1258.25,-156 1258.25,-156 1258.25,-168 1258.25,-168 1258.25,-174 1252.25,-180 1246.25,-180"/>
<text text-anchor="middle" x="1228" y="-159.5" font-family="sans" font-size="10.00">transrate</text>
</g>
<!-- 2&#45;&gt;48 -->
<g id="edge91" class="edge"><title>2&#45;&gt;48</title>
<path fill="none" stroke="grey" stroke-width="2" d="M1142.64,-215.876C1157.42,-206.724 1175.79,-195.342 1191.7,-185.485"/>
<polygon fill="grey" stroke="grey" points="1193.59,-188.431 1200.25,-180.19 1189.91,-182.481 1193.59,-188.431"/>
</g>
<!-- 50 -->
<g id="node51" class="node"><title>50</title>
<path fill="none" stroke="#d6d856" stroke-width="2" d="M1129,-180C1129,-180 995,-180 995,-180 989,-180 983,-174 983,-168 983,-168 983,-156 983,-156 983,-150 989,-144 995,-144 995,-144 1129,-144 1129,-144 1135,-144 1141,-150 1141,-156 1141,-156 1141,-168 1141,-168 1141,-174 1135,-180 1129,-180"/>
<text text-anchor="middle" x="1062" y="-159.5" font-family="sans" font-size="10.00">salmon_transcriptome_index</text>
</g>
<!-- 2&#45;&gt;50 -->
<g id="edge96" class="edge"><title>2&#45;&gt;50</title>
<path fill="none" stroke="grey" stroke-width="2" d="M1101.9,-215.697C1095.61,-207.389 1087.95,-197.277 1081.04,-188.141"/>
<polygon fill="grey" stroke="grey" points="1083.78,-185.964 1074.95,-180.104 1078.2,-190.19 1083.78,-185.964"/>
</g>
<!-- 3 -->
<g id="node4" class="node"><title>3</title>
<path fill="none" stroke="#d88d56" stroke-width="2" d="M1060,-324C1060,-324 1018,-324 1018,-324 1012,-324 1006,-318 1006,-312 1006,-312 1006,-300 1006,-300 1006,-294 1012,-288 1018,-288 1018,-288 1060,-288 1060,-288 1066,-288 1072,-294 1072,-300 1072,-300 1072,-312 1072,-312 1072,-318 1066,-324 1060,-324"/>
<text text-anchor="middle" x="1039" y="-303.5" font-family="sans" font-size="10.00">cd_hit_est</text>
</g>
<!-- 3&#45;&gt;2 -->
<g id="edge5" class="edge"><title>3&#45;&gt;2</title>
<path fill="none" stroke="grey" stroke-width="2" d="M1057.79,-287.697C1067.17,-279.05 1078.68,-268.449 1088.91,-259.027"/>
<polygon fill="grey" stroke="grey" points="1091.45,-261.454 1096.43,-252.104 1086.7,-256.305 1091.45,-261.454"/>
</g>
<!-- 4 -->
<g id="node5" class="node"><title>4</title>
<path fill="none" stroke="#56c1d8" stroke-width="2" d="M915,-396C915,-396 885,-396 885,-396 879,-396 873,-390 873,-384 873,-384 873,-372 873,-372 873,-366 879,-360 885,-360 885,-360 915,-360 915,-360 921,-360 927,-366 927,-372 927,-372 927,-384 927,-384 927,-390 921,-396 915,-396"/>
<text text-anchor="middle" x="900" y="-375.5" font-family="sans" font-size="10.00">trinity</text>
</g>
<!-- 4&#45;&gt;3 -->
<g id="edge6" class="edge"><title>4&#45;&gt;3</title>
<path fill="none" stroke="grey" stroke-width="2" d="M927.131,-363.337C946.921,-353.371 974.123,-339.672 996.748,-328.278"/>
<polygon fill="grey" stroke="grey" points="998.45,-331.34 1005.81,-323.716 995.302,-325.088 998.45,-331.34"/>
</g>
<!-- 5 -->
<g id="node6" class="node"><title>5</title>
<path fill="none" stroke="#5673d8" stroke-width="2" d="M1378,-468C1378,-468 1348,-468 1348,-468 1342,-468 1336,-462 1336,-456 1336,-456 1336,-444 1336,-444 1336,-438 1342,-432 1348,-432 1348,-432 1378,-432 1378,-432 1384,-432 1390,-438 1390,-444 1390,-444 1390,-456 1390,-456 1390,-462 1384,-468 1378,-468"/>
<text text-anchor="middle" x="1363" y="-447.5" font-family="sans" font-size="10.00">merge</text>
</g>
<!-- 5&#45;&gt;4 -->
<g id="edge7" class="edge"><title>5&#45;&gt;4</title>
<path fill="none" stroke="grey" stroke-width="2" d="M1335.86,-448.103C1268.13,-445.328 1086.61,-434.579 941,-396 939.743,-395.667 938.474,-395.304 937.199,-394.916"/>
<polygon fill="grey" stroke="grey" points="938.035,-391.502 927.44,-391.554 935.754,-398.121 938.035,-391.502"/>
</g>
<!-- 49 -->
<g id="node50" class="node"><title>49</title>
<path fill="none" stroke="#56d8c1" stroke-width="2" d="M1022.25,-108C1022.25,-108 887.75,-108 887.75,-108 881.75,-108 875.75,-102 875.75,-96 875.75,-96 875.75,-84 875.75,-84 875.75,-78 881.75,-72 887.75,-72 887.75,-72 1022.25,-72 1022.25,-72 1028.25,-72 1034.25,-78 1034.25,-84 1034.25,-84 1034.25,-96 1034.25,-96 1034.25,-102 1028.25,-108 1022.25,-108"/>
<text text-anchor="middle" x="955" y="-87.5" font-family="sans" font-size="10.00">salmon_transcriptome_quant</text>
</g>
<!-- 5&#45;&gt;49 -->
<g id="edge93" class="edge"><title>5&#45;&gt;49</title>
<path fill="none" stroke="grey" stroke-width="2" d="M1335.91,-445.573C1244.79,-433.299 955,-387.907 955,-307 955,-307 955,-307 955,-233 955,-192.996 955,-146.653 955,-118.08"/>
<polygon fill="grey" stroke="grey" points="958.5,-118.049 955,-108.049 951.5,-118.049 958.5,-118.049"/>
</g>
<!-- 6 -->
<g id="node7" class="node"><title>6</title>
<path fill="none" stroke="#88d856" stroke-width="2" d="M1538,-540C1538,-540 1482,-540 1482,-540 1476,-540 1470,-534 1470,-528 1470,-528 1470,-516 1470,-516 1470,-510 1476,-504 1482,-504 1482,-504 1538,-504 1538,-504 1544,-504 1550,-510 1550,-516 1550,-516 1550,-528 1550,-528 1550,-534 1544,-540 1538,-540"/>
<text text-anchor="middle" x="1510" y="-525" font-family="sans" font-size="10.00">contfree_ngs</text>
<text text-anchor="middle" x="1510" y="-514" font-family="sans" font-size="10.00">part: 00</text>
</g>
<!-- 6&#45;&gt;5 -->
<g id="edge10" class="edge"><title>6&#45;&gt;5</title>
<path fill="none" stroke="grey" stroke-width="2" d="M1474.04,-503.876C1451.43,-493.11 1422.34,-479.258 1399.61,-468.433"/>
<polygon fill="grey" stroke="grey" points="1400.83,-465.137 1390.29,-463.997 1397.82,-471.457 1400.83,-465.137"/>
</g>
<!-- 7 -->
<g id="node8" class="node"><title>7</title>
<path fill="none" stroke="#59d856" stroke-width="2" d="M1399,-612C1399,-612 1275,-612 1275,-612 1269,-612 1263,-606 1263,-600 1263,-600 1263,-588 1263,-588 1263,-582 1269,-576 1275,-576 1275,-576 1399,-576 1399,-576 1405,-576 1411,-582 1411,-588 1411,-588 1411,-600 1411,-600 1411,-606 1405,-612 1399,-612"/>
<text text-anchor="middle" x="1337" y="-591.5" font-family="sans" font-size="10.00">create_index_contfree_ngs</text>
</g>
<!-- 7&#45;&gt;6 -->
<g id="edge16" class="edge"><title>7&#45;&gt;6</title>
<path fill="none" stroke="grey" stroke-width="2" d="M1379.32,-575.876C1403.8,-565.97 1434.74,-553.453 1460.36,-543.085"/>
<polygon fill="grey" stroke="grey" points="1461.94,-546.221 1469.9,-539.226 1459.32,-539.732 1461.94,-546.221"/>
</g>
<!-- 19 -->
<g id="node20" class="node"><title>19</title>
<path fill="none" stroke="#88d856" stroke-width="2" d="M1636,-540C1636,-540 1580,-540 1580,-540 1574,-540 1568,-534 1568,-528 1568,-528 1568,-516 1568,-516 1568,-510 1574,-504 1580,-504 1580,-504 1636,-504 1636,-504 1642,-504 1648,-510 1648,-516 1648,-516 1648,-528 1648,-528 1648,-534 1642,-540 1636,-540"/>
<text text-anchor="middle" x="1608" y="-525" font-family="sans" font-size="10.00">contfree_ngs</text>
<text text-anchor="middle" x="1608" y="-514" font-family="sans" font-size="10.00">part: 01</text>
</g>
<!-- 7&#45;&gt;19 -->
<g id="edge31" class="edge"><title>7&#45;&gt;19</title>
<path fill="none" stroke="grey" stroke-width="2" d="M1411.23,-577.221C1452.14,-568.07 1503.96,-555.739 1558.2,-540.097"/>
<polygon fill="grey" stroke="grey" points="1559.37,-543.401 1567.99,-537.244 1557.41,-536.68 1559.37,-543.401"/>
</g>
<!-- 20 -->
<g id="node21" class="node"><title>20</title>
<path fill="none" stroke="#88d856" stroke-width="2" d="M1734,-540C1734,-540 1678,-540 1678,-540 1672,-540 1666,-534 1666,-528 1666,-528 1666,-516 1666,-516 1666,-510 1672,-504 1678,-504 1678,-504 1734,-504 1734,-504 1740,-504 1746,-510 1746,-516 1746,-516 1746,-528 1746,-528 1746,-534 1740,-540 1734,-540"/>
<text text-anchor="middle" x="1706" y="-525" font-family="sans" font-size="10.00">contfree_ngs</text>
<text text-anchor="middle" x="1706" y="-514" font-family="sans" font-size="10.00">part: 02</text>
</g>
<!-- 7&#45;&gt;20 -->
<g id="edge33" class="edge"><title>7&#45;&gt;20</title>
<path fill="none" stroke="grey" stroke-width="2" d="M1411.18,-577.611C1414.15,-577.056 1417.1,-576.516 1420,-576 1521.71,-557.871 1551.77,-565.092 1655.83,-540.044"/>
<polygon fill="grey" stroke="grey" points="1656.92,-543.381 1665.8,-537.602 1655.25,-536.582 1656.92,-543.381"/>
</g>
<!-- 21 -->
<g id="node22" class="node"><title>21</title>
<path fill="none" stroke="#88d856" stroke-width="2" d="M1244,-540C1244,-540 1188,-540 1188,-540 1182,-540 1176,-534 1176,-528 1176,-528 1176,-516 1176,-516 1176,-510 1182,-504 1188,-504 1188,-504 1244,-504 1244,-504 1250,-504 1256,-510 1256,-516 1256,-516 1256,-528 1256,-528 1256,-534 1250,-540 1244,-540"/>
<text text-anchor="middle" x="1216" y="-525" font-family="sans" font-size="10.00">contfree_ngs</text>
<text text-anchor="middle" x="1216" y="-514" font-family="sans" font-size="10.00">part: 03</text>
</g>
<!-- 7&#45;&gt;21 -->
<g id="edge35" class="edge"><title>7&#45;&gt;21</title>
<path fill="none" stroke="grey" stroke-width="2" d="M1307.4,-575.876C1291.43,-566.639 1271.54,-555.131 1254.39,-545.212"/>
<polygon fill="grey" stroke="grey" points="1256.12,-542.168 1245.71,-540.19 1252.62,-548.227 1256.12,-542.168"/>
</g>
<!-- 22 -->
<g id="node23" class="node"><title>22</title>
<path fill="none" stroke="#88d856" stroke-width="2" d="M1342,-540C1342,-540 1286,-540 1286,-540 1280,-540 1274,-534 1274,-528 1274,-528 1274,-516 1274,-516 1274,-510 1280,-504 1286,-504 1286,-504 1342,-504 1342,-504 1348,-504 1354,-510 1354,-516 1354,-516 1354,-528 1354,-528 1354,-534 1348,-540 1342,-540"/>
<text text-anchor="middle" x="1314" y="-525" font-family="sans" font-size="10.00">contfree_ngs</text>
<text text-anchor="middle" x="1314" y="-514" font-family="sans" font-size="10.00">part: 04</text>
</g>
<!-- 7&#45;&gt;22 -->
<g id="edge37" class="edge"><title>7&#45;&gt;22</title>
<path fill="none" stroke="grey" stroke-width="2" d="M1331.31,-575.697C1328.75,-567.898 1325.67,-558.509 1322.82,-549.829"/>
<polygon fill="grey" stroke="grey" points="1326.07,-548.512 1319.62,-540.104 1319.42,-550.697 1326.07,-548.512"/>
</g>
<!-- 23 -->
<g id="node24" class="node"><title>23</title>
<path fill="none" stroke="#88d856" stroke-width="2" d="M1440,-540C1440,-540 1384,-540 1384,-540 1378,-540 1372,-534 1372,-528 1372,-528 1372,-516 1372,-516 1372,-510 1378,-504 1384,-504 1384,-504 1440,-504 1440,-504 1446,-504 1452,-510 1452,-516 1452,-516 1452,-528 1452,-528 1452,-534 1446,-540 1440,-540"/>
<text text-anchor="middle" x="1412" y="-525" font-family="sans" font-size="10.00">contfree_ngs</text>
<text text-anchor="middle" x="1412" y="-514" font-family="sans" font-size="10.00">part: 05</text>
</g>
<!-- 7&#45;&gt;23 -->
<g id="edge39" class="edge"><title>7&#45;&gt;23</title>
<path fill="none" stroke="grey" stroke-width="2" d="M1355.54,-575.697C1364.8,-567.05 1376.16,-556.449 1386.26,-547.027"/>
<polygon fill="grey" stroke="grey" points="1388.75,-549.486 1393.67,-540.104 1383.98,-544.369 1388.75,-549.486"/>
</g>
<!-- 8 -->
<g id="node9" class="node"><title>8</title>
<path fill="none" stroke="#568ad8" stroke-width="2" d="M1334,-828C1334,-828 1304,-828 1304,-828 1298,-828 1292,-822 1292,-816 1292,-816 1292,-804 1292,-804 1292,-798 1298,-792 1304,-792 1304,-792 1334,-792 1334,-792 1340,-792 1346,-798 1346,-804 1346,-804 1346,-816 1346,-816 1346,-822 1340,-828 1334,-828"/>
<text text-anchor="middle" x="1319" y="-807.5" font-family="sans" font-size="10.00">bbduk</text>
</g>
<!-- 8&#45;&gt;7 -->
<g id="edge18" class="edge"><title>8&#45;&gt;7</title>
<path fill="none" stroke="grey" stroke-width="2" d="M1320.44,-791.849C1323.56,-754.832 1330.93,-667.181 1334.7,-622.386"/>
<polygon fill="grey" stroke="grey" points="1338.2,-622.491 1335.55,-612.232 1331.22,-621.904 1338.2,-622.491"/>
</g>
<!-- 17 -->
<g id="node18" class="node"><title>17</title>
<path fill="none" stroke="#bed856" stroke-width="2" d="M1455,-684C1455,-684 1425,-684 1425,-684 1419,-684 1413,-678 1413,-672 1413,-672 1413,-660 1413,-660 1413,-654 1419,-648 1425,-648 1425,-648 1455,-648 1455,-648 1461,-648 1467,-654 1467,-660 1467,-660 1467,-672 1467,-672 1467,-678 1461,-684 1455,-684"/>
<text text-anchor="middle" x="1440" y="-663.5" font-family="sans" font-size="10.00">kraken</text>
</g>
<!-- 8&#45;&gt;17 -->
<g id="edge29" class="edge"><title>8&#45;&gt;17</title>
<path fill="none" stroke="grey" stroke-width="2" d="M1327.88,-791.852C1338.06,-773.092 1355.94,-742.673 1376,-720 1385.45,-709.324 1397.14,-698.994 1407.93,-690.332"/>
<polygon fill="grey" stroke="grey" points="1410.23,-692.973 1415.96,-684.056 1405.92,-687.459 1410.23,-692.973"/>
</g>
<!-- 18 -->
<g id="node19" class="node"><title>18</title>
<path fill="none" stroke="#70d856" stroke-width="2" d="M1483,-756C1483,-756 1397,-756 1397,-756 1391,-756 1385,-750 1385,-744 1385,-744 1385,-732 1385,-732 1385,-726 1391,-720 1397,-720 1397,-720 1483,-720 1483,-720 1489,-720 1495,-726 1495,-732 1495,-732 1495,-744 1495,-744 1495,-750 1489,-756 1483,-756"/>
<text text-anchor="middle" x="1440" y="-735.5" font-family="sans" font-size="10.00">fastqc_after_bbduk</text>
</g>
<!-- 8&#45;&gt;18 -->
<g id="edge30" class="edge"><title>8&#45;&gt;18</title>
<path fill="none" stroke="grey" stroke-width="2" d="M1346.15,-793.291C1362.41,-783.885 1383.34,-771.777 1401.31,-761.383"/>
<polygon fill="grey" stroke="grey" points="1403.49,-764.165 1410.39,-756.127 1399.99,-758.105 1403.49,-764.165"/>
</g>
<!-- 9 -->
<g id="node10" class="node"><title>9</title>
<path fill="none" stroke="#56d873" stroke-width="2" d="M1212,-1049.5C1212,-1049.5 1116,-1049.5 1116,-1049.5 1110,-1049.5 1104,-1043.5 1104,-1037.5 1104,-1037.5 1104,-1020.5 1104,-1020.5 1104,-1014.5 1110,-1008.5 1116,-1008.5 1116,-1008.5 1212,-1008.5 1212,-1008.5 1218,-1008.5 1224,-1014.5 1224,-1020.5 1224,-1020.5 1224,-1037.5 1224,-1037.5 1224,-1043.5 1218,-1049.5 1212,-1049.5"/>
<text text-anchor="middle" x="1164" y="-1037.5" font-family="sans" font-size="10.00">download_fastq</text>
<text text-anchor="middle" x="1164" y="-1026.5" font-family="sans" font-size="10.00">genotype: Rio</text>
<text text-anchor="middle" x="1164" y="-1015.5" font-family="sans" font-size="10.00">sample: SRR6257144</text>
</g>
<!-- 9&#45;&gt;8 -->
<g id="edge19" class="edge"><title>9&#45;&gt;8</title>
<path fill="none" stroke="grey" stroke-width="2" d="M1178.03,-1008.36C1206.19,-968.928 1269.6,-880.163 1300.86,-836.389"/>
<polygon fill="grey" stroke="grey" points="1303.88,-838.185 1306.85,-828.013 1298.19,-834.116 1303.88,-838.185"/>
</g>
<!-- 11 -->
<g id="node12" class="node"><title>11</title>
<path fill="none" stroke="#a7d856" stroke-width="2" d="M1164,-972C1164,-972 1102,-972 1102,-972 1096,-972 1090,-966 1090,-960 1090,-960 1090,-948 1090,-948 1090,-942 1096,-936 1102,-936 1102,-936 1164,-936 1164,-936 1170,-936 1176,-942 1176,-948 1176,-948 1176,-960 1176,-960 1176,-966 1170,-972 1164,-972"/>
<text text-anchor="middle" x="1133" y="-951.5" font-family="sans" font-size="10.00">salmon_quant</text>
</g>
<!-- 9&#45;&gt;11 -->
<g id="edge24" class="edge"><title>9&#45;&gt;11</title>
<path fill="none" stroke="grey" stroke-width="2" d="M1155.69,-1008.44C1152.16,-1000.13 1147.99,-990.307 1144.2,-981.37"/>
<polygon fill="grey" stroke="grey" points="1147.4,-979.966 1140.27,-972.13 1140.96,-982.702 1147.4,-979.966"/>
</g>
<!-- 10 -->
<g id="node11" class="node"><title>10</title>
<path fill="none" stroke="#d86e56" stroke-width="2" d="M999.25,-900C999.25,-900 936.75,-900 936.75,-900 930.75,-900 924.75,-894 924.75,-888 924.75,-888 924.75,-876 924.75,-876 924.75,-870 930.75,-864 936.75,-864 936.75,-864 999.25,-864 999.25,-864 1005.25,-864 1011.25,-870 1011.25,-876 1011.25,-876 1011.25,-888 1011.25,-888 1011.25,-894 1005.25,-900 999.25,-900"/>
<text text-anchor="middle" x="968" y="-879.5" font-family="sans" font-size="10.00">filter_stranded</text>
</g>
<!-- 10&#45;&gt;8 -->
<g id="edge20" class="edge"><title>10&#45;&gt;8</title>
<path fill="none" stroke="grey" stroke-width="2" d="M1011.39,-872.346C1081.03,-858.458 1216.55,-831.431 1281.94,-818.391"/>
<polygon fill="grey" stroke="grey" points="1282.69,-821.81 1291.81,-816.422 1281.32,-814.945 1282.69,-821.81"/>
</g>
<!-- 27 -->
<g id="node28" class="node"><title>27</title>
<path fill="none" stroke="#568ad8" stroke-width="2" d="M896,-828C896,-828 866,-828 866,-828 860,-828 854,-822 854,-816 854,-816 854,-804 854,-804 854,-798 860,-792 866,-792 866,-792 896,-792 896,-792 902,-792 908,-798 908,-804 908,-804 908,-816 908,-816 908,-822 902,-828 896,-828"/>
<text text-anchor="middle" x="881" y="-807.5" font-family="sans" font-size="10.00">bbduk</text>
</g>
<!-- 10&#45;&gt;27 -->
<g id="edge51" class="edge"><title>10&#45;&gt;27</title>
<path fill="none" stroke="grey" stroke-width="2" d="M946.494,-863.697C935.537,-854.881 922.054,-844.032 910.175,-834.474"/>
<polygon fill="grey" stroke="grey" points="912.244,-831.646 902.258,-828.104 907.855,-837.1 912.244,-831.646"/>
</g>
<!-- 39 -->
<g id="node40" class="node"><title>39</title>
<path fill="none" stroke="#568ad8" stroke-width="2" d="M583,-828C583,-828 553,-828 553,-828 547,-828 541,-822 541,-816 541,-816 541,-804 541,-804 541,-798 547,-792 553,-792 553,-792 583,-792 583,-792 589,-792 595,-798 595,-804 595,-804 595,-816 595,-816 595,-822 589,-828 583,-828"/>
<text text-anchor="middle" x="568" y="-807.5" font-family="sans" font-size="10.00">bbduk</text>
</g>
<!-- 10&#45;&gt;39 -->
<g id="edge76" class="edge"><title>10&#45;&gt;39</title>
<path fill="none" stroke="grey" stroke-width="2" d="M924.432,-873.376C845.498,-859.562 680.137,-830.624 605.715,-817.6"/>
<polygon fill="grey" stroke="grey" points="605.87,-814.074 595.416,-815.798 604.663,-820.969 605.87,-814.074"/>
</g>
<!-- 11&#45;&gt;10 -->
<g id="edge21" class="edge"><title>11&#45;&gt;10</title>
<path fill="none" stroke="grey" stroke-width="2" d="M1092.64,-935.876C1069.98,-926.264 1041.53,-914.193 1017.53,-904.013"/>
<polygon fill="grey" stroke="grey" points="1018.81,-900.752 1008.23,-900.068 1016.07,-907.196 1018.81,-900.752"/>
</g>
<!-- 12 -->
<g id="node13" class="node"><title>12</title>
<path fill="none" stroke="#a7d856" stroke-width="2" d="M1043,-972C1043,-972 981,-972 981,-972 975,-972 969,-966 969,-960 969,-960 969,-948 969,-948 969,-942 975,-936 981,-936 981,-936 1043,-936 1043,-936 1049,-936 1055,-942 1055,-948 1055,-948 1055,-960 1055,-960 1055,-966 1049,-972 1043,-972"/>
<text text-anchor="middle" x="1012" y="-951.5" font-family="sans" font-size="10.00">salmon_quant</text>
</g>
<!-- 12&#45;&gt;10 -->
<g id="edge22" class="edge"><title>12&#45;&gt;10</title>
<path fill="none" stroke="grey" stroke-width="2" d="M1001.12,-935.697C996.008,-927.559 989.805,-917.689 984.155,-908.701"/>
<polygon fill="grey" stroke="grey" points="987.036,-906.708 978.751,-900.104 981.11,-910.433 987.036,-906.708"/>
</g>
<!-- 13 -->
<g id="node14" class="node"><title>13</title>
<path fill="none" stroke="#56d873" stroke-width="2" d="M1029,-1049.5C1029,-1049.5 933,-1049.5 933,-1049.5 927,-1049.5 921,-1043.5 921,-1037.5 921,-1037.5 921,-1020.5 921,-1020.5 921,-1014.5 927,-1008.5 933,-1008.5 933,-1008.5 1029,-1008.5 1029,-1008.5 1035,-1008.5 1041,-1014.5 1041,-1020.5 1041,-1020.5 1041,-1037.5 1041,-1037.5 1041,-1043.5 1035,-1049.5 1029,-1049.5"/>
<text text-anchor="middle" x="981" y="-1037.5" font-family="sans" font-size="10.00">download_fastq</text>
<text text-anchor="middle" x="981" y="-1026.5" font-family="sans" font-size="10.00">genotype: Rio</text>
<text text-anchor="middle" x="981" y="-1015.5" font-family="sans" font-size="10.00">sample: SRR6257146</text>
</g>
<!-- 13&#45;&gt;12 -->
<g id="edge25" class="edge"><title>13&#45;&gt;12</title>
<path fill="none" stroke="grey" stroke-width="2" d="M989.307,-1008.44C992.837,-1000.13 997.006,-990.307 1000.8,-981.37"/>
<polygon fill="grey" stroke="grey" points="1004.04,-982.702 1004.73,-972.13 997.595,-979.966 1004.04,-982.702"/>
</g>
<!-- 13&#45;&gt;27 -->
<g id="edge50" class="edge"><title>13&#45;&gt;27</title>
<path fill="none" stroke="grey" stroke-width="2" d="M920.913,-1016.1C896.445,-1007.99 870.544,-994.453 856,-972 829.266,-930.729 850.368,-871.268 866.667,-837.352"/>
<polygon fill="grey" stroke="grey" points="869.953,-838.606 871.302,-828.098 863.695,-835.471 869.953,-838.606"/>
</g>
<!-- 14 -->
<g id="node15" class="node"><title>14</title>
<path fill="none" stroke="#a7d856" stroke-width="2" d="M939,-972C939,-972 877,-972 877,-972 871,-972 865,-966 865,-960 865,-960 865,-948 865,-948 865,-942 871,-936 877,-936 877,-936 939,-936 939,-936 945,-936 951,-942 951,-948 951,-948 951,-960 951,-960 951,-966 945,-972 939,-972"/>
<text text-anchor="middle" x="908" y="-951.5" font-family="sans" font-size="10.00">salmon_quant</text>
</g>
<!-- 14&#45;&gt;10 -->
<g id="edge23" class="edge"><title>14&#45;&gt;10</title>
<path fill="none" stroke="grey" stroke-width="2" d="M922.831,-935.697C930.025,-927.305 938.797,-917.07 946.69,-907.861"/>
<polygon fill="grey" stroke="grey" points="949.489,-909.975 953.339,-900.104 944.174,-905.419 949.489,-909.975"/>
</g>
<!-- 15 -->
<g id="node16" class="node"><title>15</title>
<path fill="none" stroke="#56d873" stroke-width="2" d="M800,-1049.5C800,-1049.5 704,-1049.5 704,-1049.5 698,-1049.5 692,-1043.5 692,-1037.5 692,-1037.5 692,-1020.5 692,-1020.5 692,-1014.5 698,-1008.5 704,-1008.5 704,-1008.5 800,-1008.5 800,-1008.5 806,-1008.5 812,-1014.5 812,-1020.5 812,-1020.5 812,-1037.5 812,-1037.5 812,-1043.5 806,-1049.5 800,-1049.5"/>
<text text-anchor="middle" x="752" y="-1037.5" font-family="sans" font-size="10.00">download_fastq</text>
<text text-anchor="middle" x="752" y="-1026.5" font-family="sans" font-size="10.00">genotype: Rio</text>
<text text-anchor="middle" x="752" y="-1015.5" font-family="sans" font-size="10.00">sample: SRR6257142</text>
</g>
<!-- 15&#45;&gt;14 -->
<g id="edge26" class="edge"><title>15&#45;&gt;14</title>
<path fill="none" stroke="grey" stroke-width="2" d="M793.805,-1008.44C814.953,-998.541 840.663,-986.51 862.329,-976.372"/>
<polygon fill="grey" stroke="grey" points="864.08,-979.417 871.654,-972.008 861.113,-973.076 864.08,-979.417"/>
</g>
<!-- 15&#45;&gt;39 -->
<g id="edge75" class="edge"><title>15&#45;&gt;39</title>
<path fill="none" stroke="grey" stroke-width="2" d="M735.347,-1008.36C701.771,-968.763 626.016,-879.421 589.065,-835.843"/>
<polygon fill="grey" stroke="grey" points="591.563,-833.377 582.426,-828.013 586.224,-837.904 591.563,-833.377"/>
</g>
<!-- 16 -->
<g id="node17" class="node"><title>16</title>
<path fill="none" stroke="#56a2d8" stroke-width="2" d="M1530.25,-612C1530.25,-612 1441.75,-612 1441.75,-612 1435.75,-612 1429.75,-606 1429.75,-600 1429.75,-600 1429.75,-588 1429.75,-588 1429.75,-582 1435.75,-576 1441.75,-576 1441.75,-576 1530.25,-576 1530.25,-576 1536.25,-576 1542.25,-582 1542.25,-588 1542.25,-588 1542.25,-600 1542.25,-600 1542.25,-606 1536.25,-612 1530.25,-612"/>
<text text-anchor="middle" x="1486" y="-591.5" font-family="sans" font-size="10.00">split_kraken_output</text>
</g>
<!-- 16&#45;&gt;6 -->
<g id="edge17" class="edge"><title>16&#45;&gt;6</title>
<path fill="none" stroke="grey" stroke-width="2" d="M1491.93,-575.697C1494.61,-567.898 1497.83,-558.509 1500.8,-549.829"/>
<polygon fill="grey" stroke="grey" points="1504.2,-550.699 1504.14,-540.104 1497.58,-548.429 1504.2,-550.699"/>
</g>
<!-- 16&#45;&gt;19 -->
<g id="edge32" class="edge"><title>16&#45;&gt;19</title>
<path fill="none" stroke="grey" stroke-width="2" d="M1515.84,-575.876C1531.94,-566.639 1552,-555.131 1569.29,-545.212"/>
<polygon fill="grey" stroke="grey" points="1571.11,-548.202 1578.04,-540.19 1567.63,-542.131 1571.11,-548.202"/>
</g>
<!-- 16&#45;&gt;20 -->
<g id="edge34" class="edge"><title>16&#45;&gt;20</title>
<path fill="none" stroke="grey" stroke-width="2" d="M1542.37,-576.045C1573.5,-566.563 1613.06,-554.319 1656.34,-540.17"/>
<polygon fill="grey" stroke="grey" points="1657.51,-543.468 1665.93,-537.025 1655.33,-536.817 1657.51,-543.468"/>
</g>
<!-- 16&#45;&gt;21 -->
<g id="edge36" class="edge"><title>16&#45;&gt;21</title>
<path fill="none" stroke="grey" stroke-width="2" d="M1429.5,-578.352C1426.29,-577.549 1423.1,-576.76 1420,-576 1354.39,-559.934 1334.7,-559.613 1266.03,-540.142"/>
<polygon fill="grey" stroke="grey" points="1266.58,-536.66 1256,-537.264 1264.65,-543.388 1266.58,-536.66"/>
</g>
<!-- 16&#45;&gt;22 -->
<g id="edge38" class="edge"><title>16&#45;&gt;22</title>
<path fill="none" stroke="grey" stroke-width="2" d="M1443.92,-575.876C1419.67,-566.006 1389.05,-553.544 1363.63,-543.197"/>
<polygon fill="grey" stroke="grey" points="1364.74,-539.873 1354.16,-539.345 1362.11,-546.357 1364.74,-539.873"/>
</g>
<!-- 16&#45;&gt;23 -->
<g id="edge40" class="edge"><title>16&#45;&gt;23</title>
<path fill="none" stroke="grey" stroke-width="2" d="M1467.71,-575.697C1458.57,-567.05 1447.36,-556.449 1437.4,-547.027"/>
<polygon fill="grey" stroke="grey" points="1439.75,-544.434 1430.08,-540.104 1434.94,-549.519 1439.75,-544.434"/>
</g>
<!-- 17&#45;&gt;16 -->
<g id="edge27" class="edge"><title>17&#45;&gt;16</title>
<path fill="none" stroke="grey" stroke-width="2" d="M1451.37,-647.697C1456.72,-639.559 1463.2,-629.689 1469.11,-620.701"/>
<polygon fill="grey" stroke="grey" points="1472.19,-622.384 1474.76,-612.104 1466.34,-618.539 1472.19,-622.384"/>
</g>
<!-- 18&#45;&gt;17 -->
<g id="edge28" class="edge"><title>18&#45;&gt;17</title>
<path fill="none" stroke="grey" stroke-width="2" d="M1440,-719.697C1440,-711.983 1440,-702.712 1440,-694.112"/>
<polygon fill="grey" stroke="grey" points="1443.5,-694.104 1440,-684.104 1436.5,-694.104 1443.5,-694.104"/>
</g>
<!-- 19&#45;&gt;5 -->
<g id="edge11" class="edge"><title>19&#45;&gt;5</title>
<path fill="none" stroke="grey" stroke-width="2" d="M1567.96,-506.855C1564.94,-505.864 1561.93,-504.902 1559,-504 1504,-487.044 1439.42,-470.156 1399.86,-460.148"/>
<polygon fill="grey" stroke="grey" points="1400.67,-456.743 1390.12,-457.695 1398.96,-463.531 1400.67,-456.743"/>
</g>
<!-- 20&#45;&gt;5 -->
<g id="edge12" class="edge"><title>20&#45;&gt;5</title>
<path fill="none" stroke="grey" stroke-width="2" d="M1665.78,-506.488C1662.82,-505.594 1659.87,-504.753 1657,-504 1566.03,-480.175 1456.44,-463.512 1400.24,-455.817"/>
<polygon fill="grey" stroke="grey" points="1400.44,-452.312 1390.06,-454.442 1399.5,-459.249 1400.44,-452.312"/>
</g>
<!-- 21&#45;&gt;5 -->
<g id="edge13" class="edge"><title>21&#45;&gt;5</title>
<path fill="none" stroke="grey" stroke-width="2" d="M1251.96,-503.876C1274.57,-493.11 1303.66,-479.258 1326.39,-468.433"/>
<polygon fill="grey" stroke="grey" points="1328.18,-471.457 1335.71,-463.997 1325.17,-465.137 1328.18,-471.457"/>
</g>
<!-- 22&#45;&gt;5 -->
<g id="edge14" class="edge"><title>22&#45;&gt;5</title>
<path fill="none" stroke="grey" stroke-width="2" d="M1326.11,-503.697C1331.87,-495.474 1338.86,-485.483 1345.21,-476.421"/>
<polygon fill="grey" stroke="grey" points="1348.16,-478.304 1351.03,-468.104 1342.42,-474.29 1348.16,-478.304"/>
</g>
<!-- 23&#45;&gt;5 -->
<g id="edge15" class="edge"><title>23&#45;&gt;5</title>
<path fill="none" stroke="grey" stroke-width="2" d="M1399.89,-503.697C1394.13,-495.474 1387.14,-485.483 1380.79,-476.421"/>
<polygon fill="grey" stroke="grey" points="1383.58,-474.29 1374.97,-468.104 1377.84,-478.304 1383.58,-474.29"/>
</g>
<!-- 24 -->
<g id="node25" class="node"><title>24</title>
<path fill="none" stroke="#5673d8" stroke-width="2" d="M888,-468C888,-468 858,-468 858,-468 852,-468 846,-462 846,-456 846,-456 846,-444 846,-444 846,-438 852,-432 858,-432 858,-432 888,-432 888,-432 894,-432 900,-438 900,-444 900,-444 900,-456 900,-456 900,-462 894,-468 888,-468"/>
<text text-anchor="middle" x="873" y="-447.5" font-family="sans" font-size="10.00">merge</text>
</g>
<!-- 24&#45;&gt;4 -->
<g id="edge8" class="edge"><title>24&#45;&gt;4</title>
<path fill="none" stroke="grey" stroke-width="2" d="M879.674,-431.697C882.715,-423.813 886.383,-414.304 889.761,-405.546"/>
<polygon fill="grey" stroke="grey" points="893.069,-406.694 893.403,-396.104 886.538,-404.175 893.069,-406.694"/>
</g>
<!-- 24&#45;&gt;49 -->
<g id="edge94" class="edge"><title>24&#45;&gt;49</title>
<path fill="none" stroke="grey" stroke-width="2" d="M867.334,-431.728C859.152,-405.21 845,-352.732 845,-307 845,-307 845,-307 845,-233 845,-182.761 888.564,-139.517 920.861,-114.361"/>
<polygon fill="grey" stroke="grey" points="923.337,-116.876 929.21,-108.058 919.12,-111.289 923.337,-116.876"/>
</g>
<!-- 25 -->
<g id="node26" class="node"><title>25</title>
<path fill="none" stroke="#88d856" stroke-width="2" d="M950,-540C950,-540 894,-540 894,-540 888,-540 882,-534 882,-528 882,-528 882,-516 882,-516 882,-510 888,-504 894,-504 894,-504 950,-504 950,-504 956,-504 962,-510 962,-516 962,-516 962,-528 962,-528 962,-534 956,-540 950,-540"/>
<text text-anchor="middle" x="922" y="-525" font-family="sans" font-size="10.00">contfree_ngs</text>
<text text-anchor="middle" x="922" y="-514" font-family="sans" font-size="10.00">part: 00</text>
</g>
<!-- 25&#45;&gt;24 -->
<g id="edge41" class="edge"><title>25&#45;&gt;24</title>
<path fill="none" stroke="grey" stroke-width="2" d="M909.888,-503.697C904.132,-495.474 897.138,-485.483 890.794,-476.421"/>
<polygon fill="grey" stroke="grey" points="893.575,-474.29 884.973,-468.104 887.84,-478.304 893.575,-474.29"/>
</g>
<!-- 26 -->
<g id="node27" class="node"><title>26</title>
<path fill="none" stroke="#59d856" stroke-width="2" d="M860,-612C860,-612 736,-612 736,-612 730,-612 724,-606 724,-600 724,-600 724,-588 724,-588 724,-582 730,-576 736,-576 736,-576 860,-576 860,-576 866,-576 872,-582 872,-588 872,-588 872,-600 872,-600 872,-606 866,-612 860,-612"/>
<text text-anchor="middle" x="798" y="-591.5" font-family="sans" font-size="10.00">create_index_contfree_ngs</text>
</g>
<!-- 26&#45;&gt;25 -->
<g id="edge47" class="edge"><title>26&#45;&gt;25</title>
<path fill="none" stroke="grey" stroke-width="2" d="M828.334,-575.876C844.697,-566.639 865.083,-555.131 882.654,-545.212"/>
<polygon fill="grey" stroke="grey" points="884.562,-548.154 891.55,-540.19 881.121,-542.058 884.562,-548.154"/>
</g>
<!-- 31 -->
<g id="node32" class="node"><title>31</title>
<path fill="none" stroke="#88d856" stroke-width="2" d="M1048,-540C1048,-540 992,-540 992,-540 986,-540 980,-534 980,-528 980,-528 980,-516 980,-516 980,-510 986,-504 992,-504 992,-504 1048,-504 1048,-504 1054,-504 1060,-510 1060,-516 1060,-516 1060,-528 1060,-528 1060,-534 1054,-540 1048,-540"/>
<text text-anchor="middle" x="1020" y="-525" font-family="sans" font-size="10.00">contfree_ngs</text>
<text text-anchor="middle" x="1020" y="-514" font-family="sans" font-size="10.00">part: 01</text>
</g>
<!-- 26&#45;&gt;31 -->
<g id="edge56" class="edge"><title>26&#45;&gt;31</title>
<path fill="none" stroke="grey" stroke-width="2" d="M855.439,-575.979C886.883,-566.528 926.735,-554.334 970.285,-540.182"/>
<polygon fill="grey" stroke="grey" points="971.508,-543.465 979.929,-537.036 969.337,-536.81 971.508,-543.465"/>
</g>
<!-- 32 -->
<g id="node33" class="node"><title>32</title>
<path fill="none" stroke="#88d856" stroke-width="2" d="M1146,-540C1146,-540 1090,-540 1090,-540 1084,-540 1078,-534 1078,-528 1078,-528 1078,-516 1078,-516 1078,-510 1084,-504 1090,-504 1090,-504 1146,-504 1146,-504 1152,-504 1158,-510 1158,-516 1158,-516 1158,-528 1158,-528 1158,-534 1152,-540 1146,-540"/>
<text text-anchor="middle" x="1118" y="-525" font-family="sans" font-size="10.00">contfree_ngs</text>
<text text-anchor="middle" x="1118" y="-514" font-family="sans" font-size="10.00">part: 02</text>
</g>
<!-- 26&#45;&gt;32 -->
<g id="edge58" class="edge"><title>26&#45;&gt;32</title>
<path fill="none" stroke="grey" stroke-width="2" d="M872.202,-577.753C875.173,-577.158 878.114,-576.572 881,-576 961.354,-560.078 985.076,-561.838 1067.92,-540.097"/>
<polygon fill="grey" stroke="grey" points="1069,-543.43 1077.77,-537.476 1067.2,-536.666 1069,-543.43"/>
</g>
<!-- 33 -->
<g id="node34" class="node"><title>33</title>
<path fill="none" stroke="#88d856" stroke-width="2" d="M656,-540C656,-540 600,-540 600,-540 594,-540 588,-534 588,-528 588,-528 588,-516 588,-516 588,-510 594,-504 600,-504 600,-504 656,-504 656,-504 662,-504 668,-510 668,-516 668,-516 668,-528 668,-528 668,-534 662,-540 656,-540"/>
<text text-anchor="middle" x="628" y="-525" font-family="sans" font-size="10.00">contfree_ngs</text>
<text text-anchor="middle" x="628" y="-514" font-family="sans" font-size="10.00">part: 03</text>
</g>
<!-- 26&#45;&gt;33 -->
<g id="edge60" class="edge"><title>26&#45;&gt;33</title>
<path fill="none" stroke="grey" stroke-width="2" d="M756.413,-575.876C732.618,-566.078 702.618,-553.725 677.6,-543.423"/>
<polygon fill="grey" stroke="grey" points="678.858,-540.156 668.278,-539.585 676.193,-546.629 678.858,-540.156"/>
</g>
<!-- 34 -->
<g id="node35" class="node"><title>34</title>
<path fill="none" stroke="#88d856" stroke-width="2" d="M754,-540C754,-540 698,-540 698,-540 692,-540 686,-534 686,-528 686,-528 686,-516 686,-516 686,-510 692,-504 698,-504 698,-504 754,-504 754,-504 760,-504 766,-510 766,-516 766,-516 766,-528 766,-528 766,-534 760,-540 754,-540"/>
<text text-anchor="middle" x="726" y="-525" font-family="sans" font-size="10.00">contfree_ngs</text>
<text text-anchor="middle" x="726" y="-514" font-family="sans" font-size="10.00">part: 04</text>
</g>
<!-- 26&#45;&gt;34 -->
<g id="edge62" class="edge"><title>26&#45;&gt;34</title>
<path fill="none" stroke="grey" stroke-width="2" d="M780.202,-575.697C771.396,-567.135 760.618,-556.656 750.999,-547.304"/>
<polygon fill="grey" stroke="grey" points="753.203,-544.566 743.593,-540.104 748.323,-549.585 753.203,-544.566"/>
</g>
<!-- 35 -->
<g id="node36" class="node"><title>35</title>
<path fill="none" stroke="#88d856" stroke-width="2" d="M852,-540C852,-540 796,-540 796,-540 790,-540 784,-534 784,-528 784,-528 784,-516 784,-516 784,-510 790,-504 796,-504 796,-504 852,-504 852,-504 858,-504 864,-510 864,-516 864,-516 864,-528 864,-528 864,-534 858,-540 852,-540"/>
<text text-anchor="middle" x="824" y="-525" font-family="sans" font-size="10.00">contfree_ngs</text>
<text text-anchor="middle" x="824" y="-514" font-family="sans" font-size="10.00">part: 05</text>
</g>
<!-- 26&#45;&gt;35 -->
<g id="edge64" class="edge"><title>26&#45;&gt;35</title>
<path fill="none" stroke="grey" stroke-width="2" d="M804.427,-575.697C807.355,-567.813 810.887,-558.304 814.14,-549.546"/>
<polygon fill="grey" stroke="grey" points="817.446,-550.697 817.647,-540.104 810.884,-548.26 817.446,-550.697"/>
</g>
<!-- 27&#45;&gt;26 -->
<g id="edge49" class="edge"><title>27&#45;&gt;26</title>
<path fill="none" stroke="grey" stroke-width="2" d="M853.993,-793.569C840.586,-784.431 825.481,-771.587 817,-756 793.938,-713.614 793.244,-655.791 795.301,-622.217"/>
<polygon fill="grey" stroke="grey" points="798.793,-622.45 796.041,-612.219 791.813,-621.934 798.793,-622.45"/>
</g>
<!-- 29 -->
<g id="node30" class="node"><title>29</title>
<path fill="none" stroke="#bed856" stroke-width="2" d="M962,-684C962,-684 932,-684 932,-684 926,-684 920,-678 920,-672 920,-672 920,-660 920,-660 920,-654 926,-648 932,-648 932,-648 962,-648 962,-648 968,-648 974,-654 974,-660 974,-660 974,-672 974,-672 974,-678 968,-684 962,-684"/>
<text text-anchor="middle" x="947" y="-663.5" font-family="sans" font-size="10.00">kraken</text>
</g>
<!-- 27&#45;&gt;29 -->
<g id="edge54" class="edge"><title>27&#45;&gt;29</title>
<path fill="none" stroke="grey" stroke-width="2" d="M908.283,-794.101C921.947,-785.04 937.206,-772.102 945,-756 954.288,-736.812 954.148,-712.465 952.043,-694.088"/>
<polygon fill="grey" stroke="grey" points="955.489,-693.458 950.633,-684.041 948.557,-694.431 955.489,-693.458"/>
</g>
<!-- 30 -->
<g id="node31" class="node"><title>30</title>
<path fill="none" stroke="#70d856" stroke-width="2" d="M924,-756C924,-756 838,-756 838,-756 832,-756 826,-750 826,-744 826,-744 826,-732 826,-732 826,-726 832,-720 838,-720 838,-720 924,-720 924,-720 930,-720 936,-726 936,-732 936,-732 936,-744 936,-744 936,-750 930,-756 924,-756"/>
<text text-anchor="middle" x="881" y="-735.5" font-family="sans" font-size="10.00">fastqc_after_bbduk</text>
</g>
<!-- 27&#45;&gt;30 -->
<g id="edge55" class="edge"><title>27&#45;&gt;30</title>
<path fill="none" stroke="grey" stroke-width="2" d="M881,-791.697C881,-783.983 881,-774.712 881,-766.112"/>
<polygon fill="grey" stroke="grey" points="884.5,-766.104 881,-756.104 877.5,-766.104 884.5,-766.104"/>
</g>
<!-- 28 -->
<g id="node29" class="node"><title>28</title>
<path fill="none" stroke="#56a2d8" stroke-width="2" d="M991.25,-612C991.25,-612 902.75,-612 902.75,-612 896.75,-612 890.75,-606 890.75,-600 890.75,-600 890.75,-588 890.75,-588 890.75,-582 896.75,-576 902.75,-576 902.75,-576 991.25,-576 991.25,-576 997.25,-576 1003.25,-582 1003.25,-588 1003.25,-588 1003.25,-600 1003.25,-600 1003.25,-606 997.25,-612 991.25,-612"/>
<text text-anchor="middle" x="947" y="-591.5" font-family="sans" font-size="10.00">split_kraken_output</text>
</g>
<!-- 28&#45;&gt;25 -->
<g id="edge48" class="edge"><title>28&#45;&gt;25</title>
<path fill="none" stroke="grey" stroke-width="2" d="M940.82,-575.697C938.005,-567.813 934.609,-558.304 931.481,-549.546"/>
<polygon fill="grey" stroke="grey" points="934.768,-548.345 928.109,-540.104 928.176,-550.699 934.768,-548.345"/>
</g>
<!-- 28&#45;&gt;31 -->
<g id="edge57" class="edge"><title>28&#45;&gt;31</title>
<path fill="none" stroke="grey" stroke-width="2" d="M965.045,-575.697C974.062,-567.05 985.118,-556.449 994.943,-547.027"/>
<polygon fill="grey" stroke="grey" points="997.367,-549.552 1002.16,-540.104 992.522,-544.499 997.367,-549.552"/>
</g>
<!-- 28&#45;&gt;32 -->
<g id="edge59" class="edge"><title>28&#45;&gt;32</title>
<path fill="none" stroke="grey" stroke-width="2" d="M988.831,-575.876C1012.85,-566.042 1043.16,-553.635 1068.38,-543.31"/>
<polygon fill="grey" stroke="grey" points="1069.85,-546.493 1077.78,-539.465 1067.2,-540.014 1069.85,-546.493"/>
</g>
<!-- 28&#45;&gt;33 -->
<g id="edge61" class="edge"><title>28&#45;&gt;33</title>
<path fill="none" stroke="grey" stroke-width="2" d="M890.543,-578.151C887.32,-577.399 884.122,-576.677 881,-576 794.096,-557.169 767.886,-562.737 678.007,-540.042"/>
<polygon fill="grey" stroke="grey" points="678.777,-536.626 668.221,-537.524 677.033,-543.405 678.777,-536.626"/>
</g>
<!-- 28&#45;&gt;34 -->
<g id="edge63" class="edge"><title>28&#45;&gt;34</title>
<path fill="none" stroke="grey" stroke-width="2" d="M890.681,-576.189C859.32,-566.702 819.365,-554.41 775.734,-540.192"/>
<polygon fill="grey" stroke="grey" points="776.665,-536.814 766.073,-537.031 774.489,-543.467 776.665,-536.814"/>
</g>
<!-- 28&#45;&gt;35 -->
<g id="edge65" class="edge"><title>28&#45;&gt;35</title>
<path fill="none" stroke="grey" stroke-width="2" d="M916.911,-575.876C900.68,-566.639 880.458,-555.131 863.029,-545.212"/>
<polygon fill="grey" stroke="grey" points="864.627,-542.094 854.205,-540.19 861.165,-548.178 864.627,-542.094"/>
</g>
<!-- 29&#45;&gt;28 -->
<g id="edge52" class="edge"><title>29&#45;&gt;28</title>
<path fill="none" stroke="grey" stroke-width="2" d="M947,-647.697C947,-639.983 947,-630.712 947,-622.112"/>
<polygon fill="grey" stroke="grey" points="950.5,-622.104 947,-612.104 943.5,-622.104 950.5,-622.104"/>
</g>
<!-- 30&#45;&gt;29 -->
<g id="edge53" class="edge"><title>30&#45;&gt;29</title>
<path fill="none" stroke="grey" stroke-width="2" d="M897.315,-719.697C905.307,-711.22 915.072,-700.864 923.822,-691.583"/>
<polygon fill="grey" stroke="grey" points="926.559,-693.781 930.873,-684.104 921.466,-688.979 926.559,-693.781"/>
</g>
<!-- 31&#45;&gt;24 -->
<g id="edge42" class="edge"><title>31&#45;&gt;24</title>
<path fill="none" stroke="grey" stroke-width="2" d="M984.04,-503.876C961.43,-493.11 932.342,-479.258 909.61,-468.433"/>
<polygon fill="grey" stroke="grey" points="910.828,-465.137 900.294,-463.997 907.818,-471.457 910.828,-465.137"/>
</g>
<!-- 32&#45;&gt;24 -->
<g id="edge43" class="edge"><title>32&#45;&gt;24</title>
<path fill="none" stroke="grey" stroke-width="2" d="M1077.96,-506.855C1074.94,-505.864 1071.93,-504.902 1069,-504 1014,-487.044 949.419,-470.156 909.859,-460.148"/>
<polygon fill="grey" stroke="grey" points="910.672,-456.743 900.12,-457.695 908.962,-463.531 910.672,-456.743"/>
</g>
<!-- 33&#45;&gt;24 -->
<g id="edge44" class="edge"><title>33&#45;&gt;24</title>
<path fill="none" stroke="grey" stroke-width="2" d="M668.036,-506.855C671.062,-505.864 674.074,-504.902 677,-504 732.004,-487.044 796.581,-470.156 836.141,-460.148"/>
<polygon fill="grey" stroke="grey" points="837.038,-463.531 845.88,-457.695 835.328,-456.743 837.038,-463.531"/>
</g>
<!-- 34&#45;&gt;24 -->
<g id="edge45" class="edge"><title>34&#45;&gt;24</title>
<path fill="none" stroke="grey" stroke-width="2" d="M761.96,-503.876C784.57,-493.11 813.658,-479.258 836.39,-468.433"/>
<polygon fill="grey" stroke="grey" points="838.182,-471.457 845.706,-463.997 835.172,-465.137 838.182,-471.457"/>
</g>
<!-- 35&#45;&gt;24 -->
<g id="edge46" class="edge"><title>35&#45;&gt;24</title>
<path fill="none" stroke="grey" stroke-width="2" d="M836.112,-503.697C841.868,-495.474 848.862,-485.483 855.206,-476.421"/>
<polygon fill="grey" stroke="grey" points="858.16,-478.304 861.027,-468.104 852.425,-474.29 858.16,-478.304"/>
</g>
<!-- 36 -->
<g id="node37" class="node"><title>36</title>
<path fill="none" stroke="#5673d8" stroke-width="2" d="M398,-468C398,-468 368,-468 368,-468 362,-468 356,-462 356,-456 356,-456 356,-444 356,-444 356,-438 362,-432 368,-432 368,-432 398,-432 398,-432 404,-432 410,-438 410,-444 410,-444 410,-456 410,-456 410,-462 404,-468 398,-468"/>
<text text-anchor="middle" x="383" y="-447.5" font-family="sans" font-size="10.00">merge</text>
</g>
<!-- 36&#45;&gt;4 -->
<g id="edge9" class="edge"><title>36&#45;&gt;4</title>
<path fill="none" stroke="grey" stroke-width="2" d="M410.068,-445.335C496.167,-433.678 763.842,-397.435 862.764,-384.042"/>
<polygon fill="grey" stroke="grey" points="863.449,-387.481 872.889,-382.671 862.509,-380.544 863.449,-387.481"/>
</g>
<!-- 36&#45;&gt;49 -->
<g id="edge95" class="edge"><title>36&#45;&gt;49</title>
<path fill="none" stroke="grey" stroke-width="2" d="M410.281,-444.035C467.539,-431.876 595,-394.934 595,-307 595,-307 595,-307 595,-233 595,-174.933 759.127,-130.542 865.741,-107.832"/>
<polygon fill="grey" stroke="grey" points="866.485,-111.252 875.551,-105.768 865.045,-104.402 866.485,-111.252"/>
</g>
<!-- 37 -->
<g id="node38" class="node"><title>37</title>
<path fill="none" stroke="#88d856" stroke-width="2" d="M362,-540C362,-540 306,-540 306,-540 300,-540 294,-534 294,-528 294,-528 294,-516 294,-516 294,-510 300,-504 306,-504 306,-504 362,-504 362,-504 368,-504 374,-510 374,-516 374,-516 374,-528 374,-528 374,-534 368,-540 362,-540"/>
<text text-anchor="middle" x="334" y="-525" font-family="sans" font-size="10.00">contfree_ngs</text>
<text text-anchor="middle" x="334" y="-514" font-family="sans" font-size="10.00">part: 00</text>
</g>
<!-- 37&#45;&gt;36 -->
<g id="edge66" class="edge"><title>37&#45;&gt;36</title>
<path fill="none" stroke="grey" stroke-width="2" d="M346.112,-503.697C351.868,-495.474 358.862,-485.483 365.206,-476.421"/>
<polygon fill="grey" stroke="grey" points="368.16,-478.304 371.027,-468.104 362.425,-474.29 368.16,-478.304"/>
</g>
<!-- 38 -->
<g id="node39" class="node"><title>38</title>
<path fill="none" stroke="#59d856" stroke-width="2" d="M322,-612C322,-612 198,-612 198,-612 192,-612 186,-606 186,-600 186,-600 186,-588 186,-588 186,-582 192,-576 198,-576 198,-576 322,-576 322,-576 328,-576 334,-582 334,-588 334,-588 334,-600 334,-600 334,-606 328,-612 322,-612"/>
<text text-anchor="middle" x="260" y="-591.5" font-family="sans" font-size="10.00">create_index_contfree_ngs</text>
</g>
<!-- 38&#45;&gt;37 -->
<g id="edge72" class="edge"><title>38&#45;&gt;37</title>
<path fill="none" stroke="grey" stroke-width="2" d="M278.292,-575.697C287.433,-567.05 298.64,-556.449 308.6,-547.027"/>
<polygon fill="grey" stroke="grey" points="311.059,-549.519 315.918,-540.104 306.248,-544.434 311.059,-549.519"/>
</g>
<!-- 43 -->
<g id="node44" class="node"><title>43</title>
<path fill="none" stroke="#88d856" stroke-width="2" d="M460,-540C460,-540 404,-540 404,-540 398,-540 392,-534 392,-528 392,-528 392,-516 392,-516 392,-510 398,-504 404,-504 404,-504 460,-504 460,-504 466,-504 472,-510 472,-516 472,-516 472,-528 472,-528 472,-534 466,-540 460,-540"/>
<text text-anchor="middle" x="432" y="-525" font-family="sans" font-size="10.00">contfree_ngs</text>
<text text-anchor="middle" x="432" y="-514" font-family="sans" font-size="10.00">part: 01</text>
</g>
<!-- 38&#45;&gt;43 -->
<g id="edge81" class="edge"><title>38&#45;&gt;43</title>
<path fill="none" stroke="grey" stroke-width="2" d="M302.076,-575.876C326.328,-566.006 356.949,-553.544 382.372,-543.197"/>
<polygon fill="grey" stroke="grey" points="383.894,-546.357 391.837,-539.345 381.256,-539.873 383.894,-546.357"/>
</g>
<!-- 44 -->
<g id="node45" class="node"><title>44</title>
<path fill="none" stroke="#88d856" stroke-width="2" d="M558,-540C558,-540 502,-540 502,-540 496,-540 490,-534 490,-528 490,-528 490,-516 490,-516 490,-510 496,-504 502,-504 502,-504 558,-504 558,-504 564,-504 570,-510 570,-516 570,-516 570,-528 570,-528 570,-534 564,-540 558,-540"/>
<text text-anchor="middle" x="530" y="-525" font-family="sans" font-size="10.00">contfree_ngs</text>
<text text-anchor="middle" x="530" y="-514" font-family="sans" font-size="10.00">part: 02</text>
</g>
<!-- 38&#45;&gt;44 -->
<g id="edge83" class="edge"><title>38&#45;&gt;44</title>
<path fill="none" stroke="grey" stroke-width="2" d="M334.147,-577.137C374.836,-567.983 426.309,-555.673 480.251,-540.084"/>
<polygon fill="grey" stroke="grey" points="481.374,-543.402 489.992,-537.24 479.412,-536.683 481.374,-543.402"/>
</g>
<!-- 45 -->
<g id="node46" class="node"><title>45</title>
<path fill="none" stroke="#88d856" stroke-width="2" d="M68,-540C68,-540 12,-540 12,-540 6,-540 0,-534 0,-528 0,-528 0,-516 0,-516 0,-510 6,-504 12,-504 12,-504 68,-504 68,-504 74,-504 80,-510 80,-516 80,-516 80,-528 80,-528 80,-534 74,-540 68,-540"/>
<text text-anchor="middle" x="40" y="-525" font-family="sans" font-size="10.00">contfree_ngs</text>
<text text-anchor="middle" x="40" y="-514" font-family="sans" font-size="10.00">part: 03</text>
</g>
<!-- 38&#45;&gt;45 -->
<g id="edge85" class="edge"><title>38&#45;&gt;45</title>
<path fill="none" stroke="grey" stroke-width="2" d="M203.238,-575.927C172.162,-566.459 132.771,-554.263 89.6298,-540.16"/>
<polygon fill="grey" stroke="grey" points="90.6672,-536.817 80.0745,-537.025 88.4851,-543.468 90.6672,-536.817"/>
</g>
<!-- 46 -->
<g id="node47" class="node"><title>46</title>
<path fill="none" stroke="#88d856" stroke-width="2" d="M166,-540C166,-540 110,-540 110,-540 104,-540 98,-534 98,-528 98,-528 98,-516 98,-516 98,-510 104,-504 110,-504 110,-504 166,-504 166,-504 172,-504 178,-510 178,-516 178,-516 178,-528 178,-528 178,-534 172,-540 166,-540"/>
<text text-anchor="middle" x="138" y="-525" font-family="sans" font-size="10.00">contfree_ngs</text>
<text text-anchor="middle" x="138" y="-514" font-family="sans" font-size="10.00">part: 04</text>
</g>
<!-- 38&#45;&gt;46 -->
<g id="edge87" class="edge"><title>38&#45;&gt;46</title>
<path fill="none" stroke="grey" stroke-width="2" d="M230.155,-575.876C214.056,-566.639 193.999,-555.131 176.712,-545.212"/>
<polygon fill="grey" stroke="grey" points="178.375,-542.131 167.959,-540.19 174.891,-548.202 178.375,-542.131"/>
</g>
<!-- 47 -->
<g id="node48" class="node"><title>47</title>
<path fill="none" stroke="#88d856" stroke-width="2" d="M264,-540C264,-540 208,-540 208,-540 202,-540 196,-534 196,-528 196,-528 196,-516 196,-516 196,-510 202,-504 208,-504 208,-504 264,-504 264,-504 270,-504 276,-510 276,-516 276,-516 276,-528 276,-528 276,-534 270,-540 264,-540"/>
<text text-anchor="middle" x="236" y="-525" font-family="sans" font-size="10.00">contfree_ngs</text>
<text text-anchor="middle" x="236" y="-514" font-family="sans" font-size="10.00">part: 05</text>
</g>
<!-- 38&#45;&gt;47 -->
<g id="edge89" class="edge"><title>38&#45;&gt;47</title>
<path fill="none" stroke="grey" stroke-width="2" d="M254.067,-575.697C251.394,-567.898 248.174,-558.509 245.199,-549.829"/>
<polygon fill="grey" stroke="grey" points="248.418,-548.429 241.864,-540.104 241.797,-550.699 248.418,-548.429"/>
</g>
<!-- 39&#45;&gt;38 -->
<g id="edge74" class="edge"><title>39&#45;&gt;38</title>
<path fill="none" stroke="grey" stroke-width="2" d="M540.92,-803.042C510.15,-795.44 459.247,-780.285 421,-756 361.626,-718.301 307.014,-655.235 279.225,-620.273"/>
<polygon fill="grey" stroke="grey" points="281.677,-617.729 272.751,-612.023 276.17,-622.05 281.677,-617.729"/>
</g>
<!-- 41 -->
<g id="node42" class="node"><title>41</title>
<path fill="none" stroke="#bed856" stroke-width="2" d="M500,-684C500,-684 470,-684 470,-684 464,-684 458,-678 458,-672 458,-672 458,-660 458,-660 458,-654 464,-648 470,-648 470,-648 500,-648 500,-648 506,-648 512,-654 512,-660 512,-660 512,-672 512,-672 512,-678 506,-684 500,-684"/>
<text text-anchor="middle" x="485" y="-663.5" font-family="sans" font-size="10.00">kraken</text>
</g>
<!-- 39&#45;&gt;41 -->
<g id="edge79" class="edge"><title>39&#45;&gt;41</title>
<path fill="none" stroke="grey" stroke-width="2" d="M567.625,-791.709C566.497,-772.824 562.509,-742.296 549,-720 541.792,-708.103 530.934,-697.649 520.199,-689.239"/>
<polygon fill="grey" stroke="grey" points="522.193,-686.361 512.076,-683.216 518.024,-691.984 522.193,-686.361"/>
</g>
<!-- 42 -->
<g id="node43" class="node"><title>42</title>
<path fill="none" stroke="#70d856" stroke-width="2" d="M528,-756C528,-756 442,-756 442,-756 436,-756 430,-750 430,-744 430,-744 430,-732 430,-732 430,-726 436,-720 442,-720 442,-720 528,-720 528,-720 534,-720 540,-726 540,-732 540,-732 540,-744 540,-744 540,-750 534,-756 528,-756"/>
<text text-anchor="middle" x="485" y="-735.5" font-family="sans" font-size="10.00">fastqc_after_bbduk</text>
</g>
<!-- 39&#45;&gt;42 -->
<g id="edge80" class="edge"><title>39&#45;&gt;42</title>
<path fill="none" stroke="grey" stroke-width="2" d="M547.483,-791.697C537.131,-782.965 524.414,-772.24 513.161,-762.75"/>
<polygon fill="grey" stroke="grey" points="515.182,-759.876 505.281,-756.104 510.669,-765.227 515.182,-759.876"/>
</g>
<!-- 40 -->
<g id="node41" class="node"><title>40</title>
<path fill="none" stroke="#56a2d8" stroke-width="2" d="M453.25,-612C453.25,-612 364.75,-612 364.75,-612 358.75,-612 352.75,-606 352.75,-600 352.75,-600 352.75,-588 352.75,-588 352.75,-582 358.75,-576 364.75,-576 364.75,-576 453.25,-576 453.25,-576 459.25,-576 465.25,-582 465.25,-588 465.25,-588 465.25,-600 465.25,-600 465.25,-606 459.25,-612 453.25,-612"/>
<text text-anchor="middle" x="409" y="-591.5" font-family="sans" font-size="10.00">split_kraken_output</text>
</g>
<!-- 40&#45;&gt;37 -->
<g id="edge73" class="edge"><title>40&#45;&gt;37</title>
<path fill="none" stroke="grey" stroke-width="2" d="M390.461,-575.697C381.197,-567.05 369.838,-556.449 359.743,-547.027"/>
<polygon fill="grey" stroke="grey" points="362.025,-544.369 352.326,-540.104 357.249,-549.486 362.025,-544.369"/>
</g>
<!-- 40&#45;&gt;43 -->
<g id="edge82" class="edge"><title>40&#45;&gt;43</title>
<path fill="none" stroke="grey" stroke-width="2" d="M414.685,-575.697C417.248,-567.898 420.333,-558.509 423.185,-549.829"/>
<polygon fill="grey" stroke="grey" points="426.584,-550.697 426.38,-540.104 419.933,-548.512 426.584,-550.697"/>
</g>
<!-- 40&#45;&gt;44 -->
<g id="edge84" class="edge"><title>40&#45;&gt;44</title>
<path fill="none" stroke="grey" stroke-width="2" d="M438.6,-575.876C454.567,-566.639 474.46,-555.131 491.606,-545.212"/>
<polygon fill="grey" stroke="grey" points="493.383,-548.227 500.286,-540.19 489.878,-542.168 493.383,-548.227"/>
</g>
<!-- 40&#45;&gt;45 -->
<g id="edge86" class="edge"><title>40&#45;&gt;45</title>
<path fill="none" stroke="grey" stroke-width="2" d="M352.569,-578.024C349.34,-577.305 346.133,-576.624 343,-576 234.343,-554.376 201.661,-566.099 90.1478,-540.014"/>
<polygon fill="grey" stroke="grey" points="90.7323,-536.555 80.1927,-537.635 89.1053,-543.363 90.7323,-536.555"/>
</g>
<!-- 40&#45;&gt;46 -->
<g id="edge88" class="edge"><title>40&#45;&gt;46</title>
<path fill="none" stroke="grey" stroke-width="2" d="M352.498,-578.346C349.287,-577.545 346.104,-576.758 343,-576 276.845,-559.849 257.06,-559.673 187.891,-540.109"/>
<polygon fill="grey" stroke="grey" points="188.844,-536.742 178.267,-537.354 186.917,-543.471 188.844,-536.742"/>
</g>
<!-- 40&#45;&gt;47 -->
<g id="edge90" class="edge"><title>40&#45;&gt;47</title>
<path fill="none" stroke="grey" stroke-width="2" d="M366.679,-575.876C342.198,-565.97 311.263,-553.453 285.637,-543.085"/>
<polygon fill="grey" stroke="grey" points="286.683,-539.732 276.101,-539.226 284.058,-546.221 286.683,-539.732"/>
</g>
<!-- 41&#45;&gt;40 -->
<g id="edge77" class="edge"><title>41&#45;&gt;40</title>
<path fill="none" stroke="grey" stroke-width="2" d="M466.213,-647.697C456.826,-639.05 445.316,-628.449 435.087,-619.027"/>
<polygon fill="grey" stroke="grey" points="437.297,-616.305 427.57,-612.104 432.555,-621.454 437.297,-616.305"/>
</g>
<!-- 42&#45;&gt;41 -->
<g id="edge78" class="edge"><title>42&#45;&gt;41</title>
<path fill="none" stroke="grey" stroke-width="2" d="M485,-719.697C485,-711.983 485,-702.712 485,-694.112"/>
<polygon fill="grey" stroke="grey" points="488.5,-694.104 485,-684.104 481.5,-694.104 488.5,-694.104"/>
</g>
<!-- 43&#45;&gt;36 -->
<g id="edge67" class="edge"><title>43&#45;&gt;36</title>
<path fill="none" stroke="grey" stroke-width="2" d="M419.888,-503.697C414.132,-495.474 407.138,-485.483 400.794,-476.421"/>
<polygon fill="grey" stroke="grey" points="403.575,-474.29 394.973,-468.104 397.84,-478.304 403.575,-474.29"/>
</g>
<!-- 44&#45;&gt;36 -->
<g id="edge68" class="edge"><title>44&#45;&gt;36</title>
<path fill="none" stroke="grey" stroke-width="2" d="M494.04,-503.876C471.43,-493.11 442.342,-479.258 419.61,-468.433"/>
<polygon fill="grey" stroke="grey" points="420.828,-465.137 410.294,-463.997 417.818,-471.457 420.828,-465.137"/>
</g>
<!-- 45&#45;&gt;36 -->
<g id="edge69" class="edge"><title>45&#45;&gt;36</title>
<path fill="none" stroke="grey" stroke-width="2" d="M80.2237,-506.488C83.1779,-505.594 86.1255,-504.753 89,-504 179.969,-480.175 289.559,-463.512 345.759,-455.817"/>
<polygon fill="grey" stroke="grey" points="346.499,-459.249 355.941,-454.442 345.562,-452.312 346.499,-459.249"/>
</g>
<!-- 46&#45;&gt;36 -->
<g id="edge70" class="edge"><title>46&#45;&gt;36</title>
<path fill="none" stroke="grey" stroke-width="2" d="M178.036,-506.855C181.062,-505.864 184.074,-504.902 187,-504 242.004,-487.044 306.581,-470.156 346.141,-460.148"/>
<polygon fill="grey" stroke="grey" points="347.038,-463.531 355.88,-457.695 345.328,-456.743 347.038,-463.531"/>
</g>
<!-- 47&#45;&gt;36 -->
<g id="edge71" class="edge"><title>47&#45;&gt;36</title>
<path fill="none" stroke="grey" stroke-width="2" d="M271.96,-503.876C294.57,-493.11 323.658,-479.258 346.39,-468.433"/>
<polygon fill="grey" stroke="grey" points="348.182,-471.457 355.706,-463.997 345.172,-465.137 348.182,-471.457"/>
</g>
<!-- 48&#45;&gt;0 -->
<g id="edge2" class="edge"><title>48&#45;&gt;0</title>
<path fill="none" stroke="grey" stroke-width="2" d="M1225.34,-143.681C1222.11,-125.302 1215.72,-95.7014 1205,-72 1200.71,-62.5224 1194.75,-52.8967 1188.92,-44.4958"/>
<polygon fill="grey" stroke="grey" points="1191.65,-42.2977 1182.95,-36.242 1185.97,-46.3974 1191.65,-42.2977"/>
</g>
<!-- 49&#45;&gt;0 -->
<g id="edge3" class="edge"><title>49&#45;&gt;0</title>
<path fill="none" stroke="grey" stroke-width="2" d="M1007.08,-71.9656C1045.81,-59.295 1097.72,-42.3145 1132.21,-31.0334"/>
<polygon fill="grey" stroke="grey" points="1133.47,-34.3044 1141.89,-27.8689 1131.29,-27.6513 1133.47,-34.3044"/>
</g>
<!-- 50&#45;&gt;49 -->
<g id="edge92" class="edge"><title>50&#45;&gt;49</title>
<path fill="none" stroke="grey" stroke-width="2" d="M1035.82,-143.876C1021.96,-134.808 1004.76,-123.552 989.789,-113.759"/>
<polygon fill="grey" stroke="grey" points="991.56,-110.735 981.276,-108.19 987.728,-116.593 991.56,-110.735"/>
</g>
</g>
</svg>
