<?xml version="1.0" encoding="UTF-8" standalone="no"?>
<!DOCTYPE svg PUBLIC "-//W3C//DTD SVG 1.1//EN"
 "http://www.w3.org/Graphics/SVG/1.1/DTD/svg11.dtd">
<!-- Generated by graphviz version 2.30.1 (20201013.1554)
 -->
<!-- Title: snakemake_dag Pages: 1 -->
<svg width="1754pt" height="698pt"
 viewBox="0.00 0.00 1754.00 698.00" xmlns="http://www.w3.org/2000/svg" xmlns:xlink="http://www.w3.org/1999/xlink">
<g id="graph0" class="graph" transform="scale(1 1) rotate(0) translate(4 694)">
<title>snakemake_dag</title>
<polygon fill="white" stroke="white" points="-4,5 -4,-694 1751,-694 1751,5 -4,5"/>
<!-- 0 -->
<g id="node1" class="node"><title>0</title>
<path fill="none" stroke="#56c1d8" stroke-width="2" d="M888,-36C888,-36 858,-36 858,-36 852,-36 846,-30 846,-24 846,-24 846,-12 846,-12 846,-6 852,-0 858,-0 858,-0 888,-0 888,-0 894,-0 900,-6 900,-12 900,-12 900,-24 900,-24 900,-30 894,-36 888,-36"/>
<text text-anchor="middle" x="873" y="-15.5" font-family="sans" font-size="10.00">all</text>
</g>
<!-- 1 -->
<g id="node2" class="node"><title>1</title>
<path fill="none" stroke="#56d8a2" stroke-width="2" d="M349,-108C349,-108 319,-108 319,-108 313,-108 307,-102 307,-96 307,-96 307,-84 307,-84 307,-78 313,-72 319,-72 319,-72 349,-72 349,-72 355,-72 361,-78 361,-84 361,-84 361,-96 361,-96 361,-102 355,-108 349,-108"/>
<text text-anchor="middle" x="334" y="-87.5" font-family="sans" font-size="10.00">merge</text>
</g>
<!-- 1&#45;&gt;0 -->
<g id="edge1" class="edge"><title>1&#45;&gt;0</title>
<path fill="none" stroke="grey" stroke-width="2" d="M361.098,-85.4807C450.065,-73.9266 733.357,-37.1355 835.681,-23.8467"/>
<polygon fill="grey" stroke="grey" points="836.382,-27.2851 845.848,-22.5263 835.48,-20.3434 836.382,-27.2851"/>
</g>
<!-- 2 -->
<g id="node3" class="node"><title>2</title>
<path fill="none" stroke="#a7d856" stroke-width="2" d="M68,-180C68,-180 12,-180 12,-180 6,-180 0,-174 0,-168 0,-168 0,-156 0,-156 0,-150 6,-144 12,-144 12,-144 68,-144 68,-144 74,-144 80,-150 80,-156 80,-156 80,-168 80,-168 80,-174 74,-180 68,-180"/>
<text text-anchor="middle" x="40" y="-165" font-family="sans" font-size="10.00">contfree_ngs</text>
<text text-anchor="middle" x="40" y="-154" font-family="sans" font-size="10.00">part: 00</text>
</g>
<!-- 2&#45;&gt;1 -->
<g id="edge4" class="edge"><title>2&#45;&gt;1</title>
<path fill="none" stroke="grey" stroke-width="2" d="M80.2544,-146.602C83.2014,-145.681 86.139,-144.803 89,-144 161.804,-123.577 248.642,-106.462 296.926,-97.5727"/>
<polygon fill="grey" stroke="grey" points="297.702,-100.989 306.911,-95.7508 296.445,-94.1027 297.702,-100.989"/>
</g>
<!-- 3 -->
<g id="node4" class="node"><title>3</title>
<path fill="none" stroke="#56a2d8" stroke-width="2" d="M322,-252C322,-252 198,-252 198,-252 192,-252 186,-246 186,-240 186,-240 186,-228 186,-228 186,-222 192,-216 198,-216 198,-216 322,-216 322,-216 328,-216 334,-222 334,-228 334,-228 334,-240 334,-240 334,-246 328,-252 322,-252"/>
<text text-anchor="middle" x="260" y="-231.5" font-family="sans" font-size="10.00">create_index_contfree_ngs</text>
</g>
<!-- 3&#45;&gt;2 -->
<g id="edge10" class="edge"><title>3&#45;&gt;2</title>
<path fill="none" stroke="grey" stroke-width="2" d="M203.238,-215.927C172.162,-206.459 132.771,-194.263 89.6298,-180.16"/>
<polygon fill="grey" stroke="grey" points="90.6672,-176.817 80.0745,-177.025 88.4851,-183.468 90.6672,-176.817"/>
</g>
<!-- 16 -->
<g id="node17" class="node"><title>16</title>
<path fill="none" stroke="#a7d856" stroke-width="2" d="M166,-180C166,-180 110,-180 110,-180 104,-180 98,-174 98,-168 98,-168 98,-156 98,-156 98,-150 104,-144 110,-144 110,-144 166,-144 166,-144 172,-144 178,-150 178,-156 178,-156 178,-168 178,-168 178,-174 172,-180 166,-180"/>
<text text-anchor="middle" x="138" y="-165" font-family="sans" font-size="10.00">contfree_ngs</text>
<text text-anchor="middle" x="138" y="-154" font-family="sans" font-size="10.00">part: 01</text>
</g>
<!-- 3&#45;&gt;16 -->
<g id="edge27" class="edge"><title>3&#45;&gt;16</title>
<path fill="none" stroke="grey" stroke-width="2" d="M230.155,-215.876C214.056,-206.639 193.999,-195.131 176.712,-185.212"/>
<polygon fill="grey" stroke="grey" points="178.375,-182.131 167.959,-180.19 174.891,-188.202 178.375,-182.131"/>
</g>
<!-- 17 -->
<g id="node18" class="node"><title>17</title>
<path fill="none" stroke="#a7d856" stroke-width="2" d="M264,-180C264,-180 208,-180 208,-180 202,-180 196,-174 196,-168 196,-168 196,-156 196,-156 196,-150 202,-144 208,-144 208,-144 264,-144 264,-144 270,-144 276,-150 276,-156 276,-156 276,-168 276,-168 276,-174 270,-180 264,-180"/>
<text text-anchor="middle" x="236" y="-165" font-family="sans" font-size="10.00">contfree_ngs</text>
<text text-anchor="middle" x="236" y="-154" font-family="sans" font-size="10.00">part: 02</text>
</g>
<!-- 3&#45;&gt;17 -->
<g id="edge29" class="edge"><title>3&#45;&gt;17</title>
<path fill="none" stroke="grey" stroke-width="2" d="M254.067,-215.697C251.394,-207.898 248.174,-198.509 245.199,-189.829"/>
<polygon fill="grey" stroke="grey" points="248.418,-188.429 241.864,-180.104 241.797,-190.699 248.418,-188.429"/>
</g>
<!-- 18 -->
<g id="node19" class="node"><title>18</title>
<path fill="none" stroke="#a7d856" stroke-width="2" d="M362,-180C362,-180 306,-180 306,-180 300,-180 294,-174 294,-168 294,-168 294,-156 294,-156 294,-150 300,-144 306,-144 306,-144 362,-144 362,-144 368,-144 374,-150 374,-156 374,-156 374,-168 374,-168 374,-174 368,-180 362,-180"/>
<text text-anchor="middle" x="334" y="-165" font-family="sans" font-size="10.00">contfree_ngs</text>
<text text-anchor="middle" x="334" y="-154" font-family="sans" font-size="10.00">part: 03</text>
</g>
<!-- 3&#45;&gt;18 -->
<g id="edge31" class="edge"><title>3&#45;&gt;18</title>
<path fill="none" stroke="grey" stroke-width="2" d="M278.292,-215.697C287.433,-207.05 298.64,-196.449 308.6,-187.027"/>
<polygon fill="grey" stroke="grey" points="311.059,-189.519 315.918,-180.104 306.248,-184.434 311.059,-189.519"/>
</g>
<!-- 19 -->
<g id="node20" class="node"><title>19</title>
<path fill="none" stroke="#a7d856" stroke-width="2" d="M460,-180C460,-180 404,-180 404,-180 398,-180 392,-174 392,-168 392,-168 392,-156 392,-156 392,-150 398,-144 404,-144 404,-144 460,-144 460,-144 466,-144 472,-150 472,-156 472,-156 472,-168 472,-168 472,-174 466,-180 460,-180"/>
<text text-anchor="middle" x="432" y="-165" font-family="sans" font-size="10.00">contfree_ngs</text>
<text text-anchor="middle" x="432" y="-154" font-family="sans" font-size="10.00">part: 04</text>
</g>
<!-- 3&#45;&gt;19 -->
<g id="edge33" class="edge"><title>3&#45;&gt;19</title>
<path fill="none" stroke="grey" stroke-width="2" d="M302.076,-215.876C326.328,-206.006 356.949,-193.544 382.372,-183.197"/>
<polygon fill="grey" stroke="grey" points="383.894,-186.357 391.837,-179.345 381.256,-179.873 383.894,-186.357"/>
</g>
<!-- 20 -->
<g id="node21" class="node"><title>20</title>
<path fill="none" stroke="#a7d856" stroke-width="2" d="M558,-180C558,-180 502,-180 502,-180 496,-180 490,-174 490,-168 490,-168 490,-156 490,-156 490,-150 496,-144 502,-144 502,-144 558,-144 558,-144 564,-144 570,-150 570,-156 570,-156 570,-168 570,-168 570,-174 564,-180 558,-180"/>
<text text-anchor="middle" x="530" y="-165" font-family="sans" font-size="10.00">contfree_ngs</text>
<text text-anchor="middle" x="530" y="-154" font-family="sans" font-size="10.00">part: 05</text>
</g>
<!-- 3&#45;&gt;20 -->
<g id="edge35" class="edge"><title>3&#45;&gt;20</title>
<path fill="none" stroke="grey" stroke-width="2" d="M334.147,-217.137C374.836,-207.983 426.309,-195.673 480.251,-180.084"/>
<polygon fill="grey" stroke="grey" points="481.374,-183.402 489.992,-177.24 479.412,-176.683 481.374,-183.402"/>
</g>
<!-- 4 -->
<g id="node5" class="node"><title>4</title>
<path fill="none" stroke="#56d8c1" stroke-width="2" d="M531,-468C531,-468 501,-468 501,-468 495,-468 489,-462 489,-456 489,-456 489,-444 489,-444 489,-438 495,-432 501,-432 501,-432 531,-432 531,-432 537,-432 543,-438 543,-444 543,-444 543,-456 543,-456 543,-462 537,-468 531,-468"/>
<text text-anchor="middle" x="516" y="-447.5" font-family="sans" font-size="10.00">bbduk</text>
</g>
<!-- 4&#45;&gt;3 -->
<g id="edge12" class="edge"><title>4&#45;&gt;3</title>
<path fill="none" stroke="grey" stroke-width="2" d="M488.868,-444.491C457.355,-438.141 405.088,-424.058 369,-396 321.988,-359.45 288.008,-296.818 271.423,-261.409"/>
<polygon fill="grey" stroke="grey" points="274.549,-259.829 267.21,-252.187 268.182,-262.738 274.549,-259.829"/>
</g>
<!-- 14 -->
<g id="node15" class="node"><title>14</title>
<path fill="none" stroke="#d86e56" stroke-width="2" d="M448,-324C448,-324 418,-324 418,-324 412,-324 406,-318 406,-312 406,-312 406,-300 406,-300 406,-294 412,-288 418,-288 418,-288 448,-288 448,-288 454,-288 460,-294 460,-300 460,-300 460,-312 460,-312 460,-318 454,-324 448,-324"/>
<text text-anchor="middle" x="433" y="-303.5" font-family="sans" font-size="10.00">kraken</text>
</g>
<!-- 4&#45;&gt;14 -->
<g id="edge25" class="edge"><title>4&#45;&gt;14</title>
<path fill="none" stroke="grey" stroke-width="2" d="M515.625,-431.709C514.497,-412.824 510.509,-382.296 497,-360 489.792,-348.103 478.934,-337.649 468.199,-329.239"/>
<polygon fill="grey" stroke="grey" points="470.193,-326.361 460.076,-323.216 466.024,-331.984 470.193,-326.361"/>
</g>
<!-- 15 -->
<g id="node16" class="node"><title>15</title>
<path fill="none" stroke="#d8a456" stroke-width="2" d="M476,-396C476,-396 390,-396 390,-396 384,-396 378,-390 378,-384 378,-384 378,-372 378,-372 378,-366 384,-360 390,-360 390,-360 476,-360 476,-360 482,-360 488,-366 488,-372 488,-372 488,-384 488,-384 488,-390 482,-396 476,-396"/>
<text text-anchor="middle" x="433" y="-375.5" font-family="sans" font-size="10.00">fastqc_after_bbduk</text>
</g>
<!-- 4&#45;&gt;15 -->
<g id="edge26" class="edge"><title>4&#45;&gt;15</title>
<path fill="none" stroke="grey" stroke-width="2" d="M495.483,-431.697C485.131,-422.965 472.414,-412.24 461.161,-402.75"/>
<polygon fill="grey" stroke="grey" points="463.182,-399.876 453.281,-396.104 458.669,-405.227 463.182,-399.876"/>
</g>
<!-- 5 -->
<g id="node6" class="node"><title>5</title>
<path fill="none" stroke="#d8bc56" stroke-width="2" stroke-dasharray="5,2" d="M531,-540C531,-540 501,-540 501,-540 495,-540 489,-534 489,-528 489,-528 489,-516 489,-516 489,-510 495,-504 501,-504 501,-504 531,-504 531,-504 537,-504 543,-510 543,-516 543,-516 543,-528 543,-528 543,-534 537,-540 531,-540"/>
<text text-anchor="middle" x="516" y="-519.5" font-family="sans" font-size="10.00">fastqc</text>
</g>
<!-- 5&#45;&gt;4 -->
<g id="edge13" class="edge"><title>5&#45;&gt;4</title>
<path fill="none" stroke="grey" stroke-width="2" d="M516,-503.697C516,-495.983 516,-486.712 516,-478.112"/>
<polygon fill="grey" stroke="grey" points="519.5,-478.104 516,-468.104 512.5,-478.104 519.5,-478.104"/>
</g>
<!-- 6 -->
<g id="node7" class="node"><title>6</title>
<path fill="none" stroke="#d6d856" stroke-width="2" stroke-dasharray="5,2" d="M619,-689.5C619,-689.5 523,-689.5 523,-689.5 517,-689.5 511,-683.5 511,-677.5 511,-677.5 511,-660.5 511,-660.5 511,-654.5 517,-648.5 523,-648.5 523,-648.5 619,-648.5 619,-648.5 625,-648.5 631,-654.5 631,-660.5 631,-660.5 631,-677.5 631,-677.5 631,-683.5 625,-689.5 619,-689.5"/>
<text text-anchor="middle" x="571" y="-677.5" font-family="sans" font-size="10.00">download_fastq</text>
<text text-anchor="middle" x="571" y="-666.5" font-family="sans" font-size="10.00">genotype: Rio</text>
<text text-anchor="middle" x="571" y="-655.5" font-family="sans" font-size="10.00">sample: SRR6257144</text>
</g>
<!-- 6&#45;&gt;4 -->
<g id="edge14" class="edge"><title>6&#45;&gt;4</title>
<path fill="none" stroke="grey" stroke-width="2" d="M571.695,-648.366C572.164,-616.871 570.431,-553.567 552,-504 548.432,-494.405 542.777,-484.859 536.996,-476.567"/>
<polygon fill="grey" stroke="grey" points="539.755,-474.41 531.009,-468.43 534.117,-478.559 539.755,-474.41"/>
</g>
<!-- 6&#45;&gt;5 -->
<g id="edge16" class="edge"><title>6&#45;&gt;5</title>
<path fill="none" stroke="grey" stroke-width="2" d="M563.582,-648.445C553.93,-622.998 537.02,-578.417 526.175,-549.825"/>
<polygon fill="grey" stroke="grey" points="529.433,-548.545 522.614,-540.436 522.888,-551.028 529.433,-548.545"/>
</g>
<!-- 8 -->
<g id="node9" class="node"><title>8</title>
<path fill="none" stroke="#56d8d8" stroke-width="2" stroke-dasharray="5,2" d="M732,-612C732,-612 670,-612 670,-612 664,-612 658,-606 658,-600 658,-600 658,-588 658,-588 658,-582 664,-576 670,-576 670,-576 732,-576 732,-576 738,-576 744,-582 744,-588 744,-588 744,-600 744,-600 744,-606 738,-612 732,-612"/>
<text text-anchor="middle" x="701" y="-591.5" font-family="sans" font-size="10.00">salmon_quant</text>
</g>
<!-- 6&#45;&gt;8 -->
<g id="edge20" class="edge"><title>6&#45;&gt;8</title>
<path fill="none" stroke="grey" stroke-width="2" d="M605.838,-648.437C623.002,-638.799 643.772,-627.136 661.523,-617.168"/>
<polygon fill="grey" stroke="grey" points="663.489,-620.078 670.495,-612.13 660.062,-613.974 663.489,-620.078"/>
</g>
<!-- 7 -->
<g id="node8" class="node"><title>7</title>
<path fill="none" stroke="#59d856" stroke-width="2" d="M912.25,-540C912.25,-540 849.75,-540 849.75,-540 843.75,-540 837.75,-534 837.75,-528 837.75,-528 837.75,-516 837.75,-516 837.75,-510 843.75,-504 849.75,-504 849.75,-504 912.25,-504 912.25,-504 918.25,-504 924.25,-510 924.25,-516 924.25,-516 924.25,-528 924.25,-528 924.25,-534 918.25,-540 912.25,-540"/>
<text text-anchor="middle" x="881" y="-519.5" font-family="sans" font-size="10.00">filter_stranded</text>
</g>
<!-- 7&#45;&gt;4 -->
<g id="edge15" class="edge"><title>7&#45;&gt;4</title>
<path fill="none" stroke="grey" stroke-width="2" d="M837.467,-506.495C834.278,-505.599 831.098,-504.756 828,-504 730.063,-480.103 612.239,-463.235 553.346,-455.596"/>
<polygon fill="grey" stroke="grey" points="553.757,-452.12 543.393,-454.321 552.867,-459.064 553.757,-452.12"/>
</g>
<!-- 24 -->
<g id="node25" class="node"><title>24</title>
<path fill="none" stroke="#56d8c1" stroke-width="2" d="M896,-468C896,-468 866,-468 866,-468 860,-468 854,-462 854,-456 854,-456 854,-444 854,-444 854,-438 860,-432 866,-432 866,-432 896,-432 896,-432 902,-432 908,-438 908,-444 908,-444 908,-456 908,-456 908,-462 902,-468 896,-468"/>
<text text-anchor="middle" x="881" y="-447.5" font-family="sans" font-size="10.00">bbduk</text>
</g>
<!-- 7&#45;&gt;24 -->
<g id="edge48" class="edge"><title>7&#45;&gt;24</title>
<path fill="none" stroke="grey" stroke-width="2" d="M881,-503.697C881,-495.983 881,-486.712 881,-478.112"/>
<polygon fill="grey" stroke="grey" points="884.5,-478.104 881,-468.104 877.5,-478.104 884.5,-478.104"/>
</g>
<!-- 37 -->
<g id="node38" class="node"><title>37</title>
<path fill="none" stroke="#56d8c1" stroke-width="2" d="M1292,-468C1292,-468 1262,-468 1262,-468 1256,-468 1250,-462 1250,-456 1250,-456 1250,-444 1250,-444 1250,-438 1256,-432 1262,-432 1262,-432 1292,-432 1292,-432 1298,-432 1304,-438 1304,-444 1304,-444 1304,-456 1304,-456 1304,-462 1298,-468 1292,-468"/>
<text text-anchor="middle" x="1277" y="-447.5" font-family="sans" font-size="10.00">bbduk</text>
</g>
<!-- 7&#45;&gt;37 -->
<g id="edge75" class="edge"><title>7&#45;&gt;37</title>
<path fill="none" stroke="grey" stroke-width="2" d="M924.512,-513.309C1002.84,-499.463 1166.23,-470.581 1239.75,-457.585"/>
<polygon fill="grey" stroke="grey" points="1240.68,-460.974 1249.92,-455.787 1239.46,-454.081 1240.68,-460.974"/>
</g>
<!-- 8&#45;&gt;7 -->
<g id="edge17" class="edge"><title>8&#45;&gt;7</title>
<path fill="none" stroke="grey" stroke-width="2" d="M744.114,-576.233C769.31,-566.435 801.307,-553.992 828.03,-543.6"/>
<polygon fill="grey" stroke="grey" points="829.562,-546.759 837.613,-539.873 827.025,-540.235 829.562,-546.759"/>
</g>
<!-- 9 -->
<g id="node10" class="node"><title>9</title>
<path fill="none" stroke="#56d8d8" stroke-width="2" stroke-dasharray="5,2" d="M912,-612C912,-612 850,-612 850,-612 844,-612 838,-606 838,-600 838,-600 838,-588 838,-588 838,-582 844,-576 850,-576 850,-576 912,-576 912,-576 918,-576 924,-582 924,-588 924,-588 924,-600 924,-600 924,-606 918,-612 912,-612"/>
<text text-anchor="middle" x="881" y="-591.5" font-family="sans" font-size="10.00">salmon_quant</text>
</g>
<!-- 9&#45;&gt;7 -->
<g id="edge18" class="edge"><title>9&#45;&gt;7</title>
<path fill="none" stroke="grey" stroke-width="2" d="M881,-575.697C881,-567.983 881,-558.712 881,-550.112"/>
<polygon fill="grey" stroke="grey" points="884.5,-550.104 881,-540.104 877.5,-550.104 884.5,-550.104"/>
</g>
<!-- 10 -->
<g id="node11" class="node"><title>10</title>
<path fill="none" stroke="#d6d856" stroke-width="2" stroke-dasharray="5,2" d="M929,-689.5C929,-689.5 833,-689.5 833,-689.5 827,-689.5 821,-683.5 821,-677.5 821,-677.5 821,-660.5 821,-660.5 821,-654.5 827,-648.5 833,-648.5 833,-648.5 929,-648.5 929,-648.5 935,-648.5 941,-654.5 941,-660.5 941,-660.5 941,-677.5 941,-677.5 941,-683.5 935,-689.5 929,-689.5"/>
<text text-anchor="middle" x="881" y="-677.5" font-family="sans" font-size="10.00">download_fastq</text>
<text text-anchor="middle" x="881" y="-666.5" font-family="sans" font-size="10.00">genotype: Rio</text>
<text text-anchor="middle" x="881" y="-655.5" font-family="sans" font-size="10.00">sample: SRR6257146</text>
</g>
<!-- 10&#45;&gt;9 -->
<g id="edge21" class="edge"><title>10&#45;&gt;9</title>
<path fill="none" stroke="grey" stroke-width="2" d="M881,-648.437C881,-640.391 881,-630.933 881,-622.228"/>
<polygon fill="grey" stroke="grey" points="884.5,-622.13 881,-612.13 877.5,-622.13 884.5,-622.13"/>
</g>
<!-- 10&#45;&gt;24 -->
<g id="edge47" class="edge"><title>10&#45;&gt;24</title>
<path fill="none" stroke="grey" stroke-width="2" d="M906.146,-648.419C916.555,-638.723 927.472,-626.078 933,-612 950.545,-567.321 951.157,-548.433 933,-504 928.512,-493.017 920.53,-483.081 912.146,-474.858"/>
<polygon fill="grey" stroke="grey" points="914.492,-472.261 904.752,-468.09 909.765,-477.424 914.492,-472.261"/>
</g>
<!-- 25 -->
<g id="node26" class="node"><title>25</title>
<path fill="none" stroke="#d8bc56" stroke-width="2" stroke-dasharray="5,2" d="M807,-540C807,-540 777,-540 777,-540 771,-540 765,-534 765,-528 765,-528 765,-516 765,-516 765,-510 771,-504 777,-504 777,-504 807,-504 807,-504 813,-504 819,-510 819,-516 819,-516 819,-528 819,-528 819,-534 813,-540 807,-540"/>
<text text-anchor="middle" x="792" y="-519.5" font-family="sans" font-size="10.00">fastqc</text>
</g>
<!-- 10&#45;&gt;25 -->
<g id="edge49" class="edge"><title>10&#45;&gt;25</title>
<path fill="none" stroke="grey" stroke-width="2" d="M859.596,-648.463C849.372,-638.316 837.536,-625.282 829,-612 816.482,-592.521 806.686,-568.096 800.327,-549.764"/>
<polygon fill="grey" stroke="grey" points="803.645,-548.649 797.153,-540.277 797.007,-550.87 803.645,-548.649"/>
</g>
<!-- 11 -->
<g id="node12" class="node"><title>11</title>
<path fill="none" stroke="#56d8d8" stroke-width="2" d="M1140,-612C1140,-612 1078,-612 1078,-612 1072,-612 1066,-606 1066,-600 1066,-600 1066,-588 1066,-588 1066,-582 1072,-576 1078,-576 1078,-576 1140,-576 1140,-576 1146,-576 1152,-582 1152,-588 1152,-588 1152,-600 1152,-600 1152,-606 1146,-612 1140,-612"/>
<text text-anchor="middle" x="1109" y="-591.5" font-family="sans" font-size="10.00">salmon_quant</text>
</g>
<!-- 11&#45;&gt;7 -->
<g id="edge19" class="edge"><title>11&#45;&gt;7</title>
<path fill="none" stroke="grey" stroke-width="2" d="M1065.85,-579.751C1028.4,-568.253 974.047,-551.567 933.969,-539.262"/>
<polygon fill="grey" stroke="grey" points="934.951,-535.903 924.364,-536.313 932.896,-542.594 934.951,-535.903"/>
</g>
<!-- 12 -->
<g id="node13" class="node"><title>12</title>
<path fill="none" stroke="#d6d856" stroke-width="2" stroke-dasharray="5,2" d="M1270,-689.5C1270,-689.5 1174,-689.5 1174,-689.5 1168,-689.5 1162,-683.5 1162,-677.5 1162,-677.5 1162,-660.5 1162,-660.5 1162,-654.5 1168,-648.5 1174,-648.5 1174,-648.5 1270,-648.5 1270,-648.5 1276,-648.5 1282,-654.5 1282,-660.5 1282,-660.5 1282,-677.5 1282,-677.5 1282,-683.5 1276,-689.5 1270,-689.5"/>
<text text-anchor="middle" x="1222" y="-677.5" font-family="sans" font-size="10.00">download_fastq</text>
<text text-anchor="middle" x="1222" y="-666.5" font-family="sans" font-size="10.00">genotype: Rio</text>
<text text-anchor="middle" x="1222" y="-655.5" font-family="sans" font-size="10.00">sample: SRR6257142</text>
</g>
<!-- 12&#45;&gt;11 -->
<g id="edge22" class="edge"><title>12&#45;&gt;11</title>
<path fill="none" stroke="grey" stroke-width="2" d="M1191.72,-648.437C1177.07,-638.976 1159.41,-627.563 1144.17,-617.718"/>
<polygon fill="grey" stroke="grey" points="1145.81,-614.616 1135.52,-612.13 1142.02,-620.496 1145.81,-614.616"/>
</g>
<!-- 12&#45;&gt;37 -->
<g id="edge74" class="edge"><title>12&#45;&gt;37</title>
<path fill="none" stroke="grey" stroke-width="2" d="M1228.01,-648.15C1235.5,-623.077 1248.48,-578.546 1258,-540 1263.08,-519.423 1268.06,-495.971 1271.64,-478.308"/>
<polygon fill="grey" stroke="grey" points="1275.15,-478.629 1273.68,-468.136 1268.28,-477.253 1275.15,-478.629"/>
</g>
<!-- 38 -->
<g id="node39" class="node"><title>38</title>
<path fill="none" stroke="#d8bc56" stroke-width="2" stroke-dasharray="5,2" d="M1237,-540C1237,-540 1207,-540 1207,-540 1201,-540 1195,-534 1195,-528 1195,-528 1195,-516 1195,-516 1195,-510 1201,-504 1207,-504 1207,-504 1237,-504 1237,-504 1243,-504 1249,-510 1249,-516 1249,-516 1249,-528 1249,-528 1249,-534 1243,-540 1237,-540"/>
<text text-anchor="middle" x="1222" y="-519.5" font-family="sans" font-size="10.00">fastqc</text>
</g>
<!-- 12&#45;&gt;38 -->
<g id="edge76" class="edge"><title>12&#45;&gt;38</title>
<path fill="none" stroke="grey" stroke-width="2" d="M1222,-648.445C1222,-623.22 1222,-579.194 1222,-550.578"/>
<polygon fill="grey" stroke="grey" points="1225.5,-550.436 1222,-540.436 1218.5,-550.436 1225.5,-550.436"/>
</g>
<!-- 13 -->
<g id="node14" class="node"><title>13</title>
<path fill="none" stroke="#d85656" stroke-width="2" d="M453.25,-252C453.25,-252 364.75,-252 364.75,-252 358.75,-252 352.75,-246 352.75,-240 352.75,-240 352.75,-228 352.75,-228 352.75,-222 358.75,-216 364.75,-216 364.75,-216 453.25,-216 453.25,-216 459.25,-216 465.25,-222 465.25,-228 465.25,-228 465.25,-240 465.25,-240 465.25,-246 459.25,-252 453.25,-252"/>
<text text-anchor="middle" x="409" y="-231.5" font-family="sans" font-size="10.00">split_kraken_output</text>
</g>
<!-- 13&#45;&gt;2 -->
<g id="edge11" class="edge"><title>13&#45;&gt;2</title>
<path fill="none" stroke="grey" stroke-width="2" d="M352.569,-218.024C349.34,-217.305 346.133,-216.624 343,-216 234.343,-194.376 201.661,-206.099 90.1478,-180.014"/>
<polygon fill="grey" stroke="grey" points="90.7323,-176.555 80.1927,-177.635 89.1053,-183.363 90.7323,-176.555"/>
</g>
<!-- 13&#45;&gt;16 -->
<g id="edge28" class="edge"><title>13&#45;&gt;16</title>
<path fill="none" stroke="grey" stroke-width="2" d="M352.498,-218.346C349.287,-217.545 346.104,-216.758 343,-216 276.845,-199.849 257.06,-199.673 187.891,-180.109"/>
<polygon fill="grey" stroke="grey" points="188.844,-176.742 178.267,-177.354 186.917,-183.471 188.844,-176.742"/>
</g>
<!-- 13&#45;&gt;17 -->
<g id="edge30" class="edge"><title>13&#45;&gt;17</title>
<path fill="none" stroke="grey" stroke-width="2" d="M366.679,-215.876C342.198,-205.97 311.263,-193.453 285.637,-183.085"/>
<polygon fill="grey" stroke="grey" points="286.683,-179.732 276.101,-179.226 284.058,-186.221 286.683,-179.732"/>
</g>
<!-- 13&#45;&gt;18 -->
<g id="edge32" class="edge"><title>13&#45;&gt;18</title>
<path fill="none" stroke="grey" stroke-width="2" d="M390.461,-215.697C381.197,-207.05 369.838,-196.449 359.743,-187.027"/>
<polygon fill="grey" stroke="grey" points="362.025,-184.369 352.326,-180.104 357.249,-189.486 362.025,-184.369"/>
</g>
<!-- 13&#45;&gt;19 -->
<g id="edge34" class="edge"><title>13&#45;&gt;19</title>
<path fill="none" stroke="grey" stroke-width="2" d="M414.685,-215.697C417.248,-207.898 420.333,-198.509 423.185,-189.829"/>
<polygon fill="grey" stroke="grey" points="426.584,-190.697 426.38,-180.104 419.933,-188.512 426.584,-190.697"/>
</g>
<!-- 13&#45;&gt;20 -->
<g id="edge36" class="edge"><title>13&#45;&gt;20</title>
<path fill="none" stroke="grey" stroke-width="2" d="M438.6,-215.876C454.567,-206.639 474.46,-195.131 491.606,-185.212"/>
<polygon fill="grey" stroke="grey" points="493.383,-188.227 500.286,-180.19 489.878,-182.168 493.383,-188.227"/>
</g>
<!-- 14&#45;&gt;13 -->
<g id="edge23" class="edge"><title>14&#45;&gt;13</title>
<path fill="none" stroke="grey" stroke-width="2" d="M427.067,-287.697C424.394,-279.898 421.174,-270.509 418.199,-261.829"/>
<polygon fill="grey" stroke="grey" points="421.418,-260.429 414.864,-252.104 414.797,-262.699 421.418,-260.429"/>
</g>
<!-- 15&#45;&gt;14 -->
<g id="edge24" class="edge"><title>15&#45;&gt;14</title>
<path fill="none" stroke="grey" stroke-width="2" d="M433,-359.697C433,-351.983 433,-342.712 433,-334.112"/>
<polygon fill="grey" stroke="grey" points="436.5,-334.104 433,-324.104 429.5,-334.104 436.5,-334.104"/>
</g>
<!-- 16&#45;&gt;1 -->
<g id="edge5" class="edge"><title>16&#45;&gt;1</title>
<path fill="none" stroke="grey" stroke-width="2" d="M178.136,-146.666C213.1,-134.179 263.373,-116.224 297.287,-104.112"/>
<polygon fill="grey" stroke="grey" points="298.582,-107.366 306.822,-100.706 296.227,-100.774 298.582,-107.366"/>
</g>
<!-- 17&#45;&gt;1 -->
<g id="edge6" class="edge"><title>17&#45;&gt;1</title>
<path fill="none" stroke="grey" stroke-width="2" d="M259.973,-143.876C272.55,-134.893 288.132,-123.763 301.752,-114.034"/>
<polygon fill="grey" stroke="grey" points="303.831,-116.85 309.934,-108.19 299.763,-111.154 303.831,-116.85"/>
</g>
<!-- 18&#45;&gt;1 -->
<g id="edge7" class="edge"><title>18&#45;&gt;1</title>
<path fill="none" stroke="grey" stroke-width="2" d="M334,-143.697C334,-135.983 334,-126.712 334,-118.112"/>
<polygon fill="grey" stroke="grey" points="337.5,-118.104 334,-108.104 330.5,-118.104 337.5,-118.104"/>
</g>
<!-- 19&#45;&gt;1 -->
<g id="edge8" class="edge"><title>19&#45;&gt;1</title>
<path fill="none" stroke="grey" stroke-width="2" d="M408.027,-143.876C395.45,-134.893 379.868,-123.763 366.248,-114.034"/>
<polygon fill="grey" stroke="grey" points="368.237,-111.154 358.066,-108.19 364.169,-116.85 368.237,-111.154"/>
</g>
<!-- 20&#45;&gt;1 -->
<g id="edge9" class="edge"><title>20&#45;&gt;1</title>
<path fill="none" stroke="grey" stroke-width="2" d="M489.864,-146.666C454.9,-134.179 404.627,-116.224 370.713,-104.112"/>
<polygon fill="grey" stroke="grey" points="371.773,-100.774 361.178,-100.706 369.418,-107.366 371.773,-100.774"/>
</g>
<!-- 21 -->
<g id="node22" class="node"><title>21</title>
<path fill="none" stroke="#56d8a2" stroke-width="2" d="M888,-108C888,-108 858,-108 858,-108 852,-108 846,-102 846,-96 846,-96 846,-84 846,-84 846,-78 852,-72 858,-72 858,-72 888,-72 888,-72 894,-72 900,-78 900,-84 900,-84 900,-96 900,-96 900,-102 894,-108 888,-108"/>
<text text-anchor="middle" x="873" y="-87.5" font-family="sans" font-size="10.00">merge</text>
</g>
<!-- 21&#45;&gt;0 -->
<g id="edge2" class="edge"><title>21&#45;&gt;0</title>
<path fill="none" stroke="grey" stroke-width="2" d="M873,-71.6966C873,-63.9827 873,-54.7125 873,-46.1124"/>
<polygon fill="grey" stroke="grey" points="876.5,-46.1043 873,-36.1043 869.5,-46.1044 876.5,-46.1043"/>
</g>
<!-- 22 -->
<g id="node23" class="node"><title>22</title>
<path fill="none" stroke="#a7d856" stroke-width="2" d="M656,-180C656,-180 600,-180 600,-180 594,-180 588,-174 588,-168 588,-168 588,-156 588,-156 588,-150 594,-144 600,-144 600,-144 656,-144 656,-144 662,-144 668,-150 668,-156 668,-156 668,-168 668,-168 668,-174 662,-180 656,-180"/>
<text text-anchor="middle" x="628" y="-165" font-family="sans" font-size="10.00">contfree_ngs</text>
<text text-anchor="middle" x="628" y="-154" font-family="sans" font-size="10.00">part: 00</text>
</g>
<!-- 22&#45;&gt;21 -->
<g id="edge37" class="edge"><title>22&#45;&gt;21</title>
<path fill="none" stroke="grey" stroke-width="2" d="M668.036,-146.855C671.062,-145.864 674.074,-144.902 677,-144 732.004,-127.044 796.581,-110.156 836.141,-100.148"/>
<polygon fill="grey" stroke="grey" points="837.038,-103.531 845.88,-97.6949 835.328,-96.7432 837.038,-103.531"/>
</g>
<!-- 23 -->
<g id="node24" class="node"><title>23</title>
<path fill="none" stroke="#56a2d8" stroke-width="2" d="M860,-252C860,-252 736,-252 736,-252 730,-252 724,-246 724,-240 724,-240 724,-228 724,-228 724,-222 730,-216 736,-216 736,-216 860,-216 860,-216 866,-216 872,-222 872,-228 872,-228 872,-240 872,-240 872,-246 866,-252 860,-252"/>
<text text-anchor="middle" x="798" y="-231.5" font-family="sans" font-size="10.00">create_index_contfree_ngs</text>
</g>
<!-- 23&#45;&gt;22 -->
<g id="edge43" class="edge"><title>23&#45;&gt;22</title>
<path fill="none" stroke="grey" stroke-width="2" d="M756.413,-215.876C732.618,-206.078 702.618,-193.725 677.6,-183.423"/>
<polygon fill="grey" stroke="grey" points="678.858,-180.156 668.278,-179.585 676.193,-186.629 678.858,-180.156"/>
</g>
<!-- 29 -->
<g id="node30" class="node"><title>29</title>
<path fill="none" stroke="#a7d856" stroke-width="2" d="M754,-180C754,-180 698,-180 698,-180 692,-180 686,-174 686,-168 686,-168 686,-156 686,-156 686,-150 692,-144 698,-144 698,-144 754,-144 754,-144 760,-144 766,-150 766,-156 766,-156 766,-168 766,-168 766,-174 760,-180 754,-180"/>
<text text-anchor="middle" x="726" y="-165" font-family="sans" font-size="10.00">contfree_ngs</text>
<text text-anchor="middle" x="726" y="-154" font-family="sans" font-size="10.00">part: 01</text>
</g>
<!-- 23&#45;&gt;29 -->
<g id="edge54" class="edge"><title>23&#45;&gt;29</title>
<path fill="none" stroke="grey" stroke-width="2" d="M780.202,-215.697C771.396,-207.135 760.618,-196.656 750.999,-187.304"/>
<polygon fill="grey" stroke="grey" points="753.203,-184.566 743.593,-180.104 748.323,-189.585 753.203,-184.566"/>
</g>
<!-- 30 -->
<g id="node31" class="node"><title>30</title>
<path fill="none" stroke="#a7d856" stroke-width="2" d="M852,-180C852,-180 796,-180 796,-180 790,-180 784,-174 784,-168 784,-168 784,-156 784,-156 784,-150 790,-144 796,-144 796,-144 852,-144 852,-144 858,-144 864,-150 864,-156 864,-156 864,-168 864,-168 864,-174 858,-180 852,-180"/>
<text text-anchor="middle" x="824" y="-165" font-family="sans" font-size="10.00">contfree_ngs</text>
<text text-anchor="middle" x="824" y="-154" font-family="sans" font-size="10.00">part: 02</text>
</g>
<!-- 23&#45;&gt;30 -->
<g id="edge56" class="edge"><title>23&#45;&gt;30</title>
<path fill="none" stroke="grey" stroke-width="2" d="M804.427,-215.697C807.355,-207.813 810.887,-198.304 814.14,-189.546"/>
<polygon fill="grey" stroke="grey" points="817.446,-190.697 817.647,-180.104 810.884,-188.26 817.446,-190.697"/>
</g>
<!-- 31 -->
<g id="node32" class="node"><title>31</title>
<path fill="none" stroke="#a7d856" stroke-width="2" d="M950,-180C950,-180 894,-180 894,-180 888,-180 882,-174 882,-168 882,-168 882,-156 882,-156 882,-150 888,-144 894,-144 894,-144 950,-144 950,-144 956,-144 962,-150 962,-156 962,-156 962,-168 962,-168 962,-174 956,-180 950,-180"/>
<text text-anchor="middle" x="922" y="-165" font-family="sans" font-size="10.00">contfree_ngs</text>
<text text-anchor="middle" x="922" y="-154" font-family="sans" font-size="10.00">part: 03</text>
</g>
<!-- 23&#45;&gt;31 -->
<g id="edge58" class="edge"><title>23&#45;&gt;31</title>
<path fill="none" stroke="grey" stroke-width="2" d="M828.334,-215.876C844.697,-206.639 865.083,-195.131 882.654,-185.212"/>
<polygon fill="grey" stroke="grey" points="884.562,-188.154 891.55,-180.19 881.121,-182.058 884.562,-188.154"/>
</g>
<!-- 32 -->
<g id="node33" class="node"><title>32</title>
<path fill="none" stroke="#a7d856" stroke-width="2" d="M1048,-180C1048,-180 992,-180 992,-180 986,-180 980,-174 980,-168 980,-168 980,-156 980,-156 980,-150 986,-144 992,-144 992,-144 1048,-144 1048,-144 1054,-144 1060,-150 1060,-156 1060,-156 1060,-168 1060,-168 1060,-174 1054,-180 1048,-180"/>
<text text-anchor="middle" x="1020" y="-165" font-family="sans" font-size="10.00">contfree_ngs</text>
<text text-anchor="middle" x="1020" y="-154" font-family="sans" font-size="10.00">part: 04</text>
</g>
<!-- 23&#45;&gt;32 -->
<g id="edge60" class="edge"><title>23&#45;&gt;32</title>
<path fill="none" stroke="grey" stroke-width="2" d="M855.439,-215.979C886.883,-206.528 926.735,-194.334 970.285,-180.182"/>
<polygon fill="grey" stroke="grey" points="971.508,-183.465 979.929,-177.036 969.337,-176.81 971.508,-183.465"/>
</g>
<!-- 33 -->
<g id="node34" class="node"><title>33</title>
<path fill="none" stroke="#a7d856" stroke-width="2" d="M1146,-180C1146,-180 1090,-180 1090,-180 1084,-180 1078,-174 1078,-168 1078,-168 1078,-156 1078,-156 1078,-150 1084,-144 1090,-144 1090,-144 1146,-144 1146,-144 1152,-144 1158,-150 1158,-156 1158,-156 1158,-168 1158,-168 1158,-174 1152,-180 1146,-180"/>
<text text-anchor="middle" x="1118" y="-165" font-family="sans" font-size="10.00">contfree_ngs</text>
<text text-anchor="middle" x="1118" y="-154" font-family="sans" font-size="10.00">part: 05</text>
</g>
<!-- 23&#45;&gt;33 -->
<g id="edge62" class="edge"><title>23&#45;&gt;33</title>
<path fill="none" stroke="grey" stroke-width="2" d="M872.202,-217.753C875.173,-217.158 878.114,-216.572 881,-216 961.354,-200.078 985.076,-201.838 1067.92,-180.097"/>
<polygon fill="grey" stroke="grey" points="1069,-183.43 1077.77,-177.476 1067.2,-176.666 1069,-183.43"/>
</g>
<!-- 24&#45;&gt;23 -->
<g id="edge45" class="edge"><title>24&#45;&gt;23</title>
<path fill="none" stroke="grey" stroke-width="2" d="M853.993,-433.569C840.586,-424.431 825.481,-411.587 817,-396 793.938,-353.614 793.244,-295.791 795.301,-262.217"/>
<polygon fill="grey" stroke="grey" points="798.793,-262.45 796.041,-252.219 791.813,-261.934 798.793,-262.45"/>
</g>
<!-- 27 -->
<g id="node28" class="node"><title>27</title>
<path fill="none" stroke="#d86e56" stroke-width="2" d="M962,-324C962,-324 932,-324 932,-324 926,-324 920,-318 920,-312 920,-312 920,-300 920,-300 920,-294 926,-288 932,-288 932,-288 962,-288 962,-288 968,-288 974,-294 974,-300 974,-300 974,-312 974,-312 974,-318 968,-324 962,-324"/>
<text text-anchor="middle" x="947" y="-303.5" font-family="sans" font-size="10.00">kraken</text>
</g>
<!-- 24&#45;&gt;27 -->
<g id="edge52" class="edge"><title>24&#45;&gt;27</title>
<path fill="none" stroke="grey" stroke-width="2" d="M908.283,-434.101C921.947,-425.04 937.206,-412.102 945,-396 954.288,-376.812 954.148,-352.465 952.043,-334.088"/>
<polygon fill="grey" stroke="grey" points="955.489,-333.458 950.633,-324.041 948.557,-334.431 955.489,-333.458"/>
</g>
<!-- 28 -->
<g id="node29" class="node"><title>28</title>
<path fill="none" stroke="#d8a456" stroke-width="2" d="M924,-396C924,-396 838,-396 838,-396 832,-396 826,-390 826,-384 826,-384 826,-372 826,-372 826,-366 832,-360 838,-360 838,-360 924,-360 924,-360 930,-360 936,-366 936,-372 936,-372 936,-384 936,-384 936,-390 930,-396 924,-396"/>
<text text-anchor="middle" x="881" y="-375.5" font-family="sans" font-size="10.00">fastqc_after_bbduk</text>
</g>
<!-- 24&#45;&gt;28 -->
<g id="edge53" class="edge"><title>24&#45;&gt;28</title>
<path fill="none" stroke="grey" stroke-width="2" d="M881,-431.697C881,-423.983 881,-414.712 881,-406.112"/>
<polygon fill="grey" stroke="grey" points="884.5,-406.104 881,-396.104 877.5,-406.104 884.5,-406.104"/>
</g>
<!-- 25&#45;&gt;24 -->
<g id="edge46" class="edge"><title>25&#45;&gt;24</title>
<path fill="none" stroke="grey" stroke-width="2" d="M814,-503.697C825.209,-494.881 839.002,-484.032 851.154,-474.474"/>
<polygon fill="grey" stroke="grey" points="853.557,-477.038 859.253,-468.104 849.229,-471.535 853.557,-477.038"/>
</g>
<!-- 26 -->
<g id="node27" class="node"><title>26</title>
<path fill="none" stroke="#d85656" stroke-width="2" d="M991.25,-252C991.25,-252 902.75,-252 902.75,-252 896.75,-252 890.75,-246 890.75,-240 890.75,-240 890.75,-228 890.75,-228 890.75,-222 896.75,-216 902.75,-216 902.75,-216 991.25,-216 991.25,-216 997.25,-216 1003.25,-222 1003.25,-228 1003.25,-228 1003.25,-240 1003.25,-240 1003.25,-246 997.25,-252 991.25,-252"/>
<text text-anchor="middle" x="947" y="-231.5" font-family="sans" font-size="10.00">split_kraken_output</text>
</g>
<!-- 26&#45;&gt;22 -->
<g id="edge44" class="edge"><title>26&#45;&gt;22</title>
<path fill="none" stroke="grey" stroke-width="2" d="M890.543,-218.151C887.32,-217.399 884.122,-216.677 881,-216 794.096,-197.169 767.886,-202.737 678.007,-180.042"/>
<polygon fill="grey" stroke="grey" points="678.777,-176.626 668.221,-177.524 677.033,-183.405 678.777,-176.626"/>
</g>
<!-- 26&#45;&gt;29 -->
<g id="edge55" class="edge"><title>26&#45;&gt;29</title>
<path fill="none" stroke="grey" stroke-width="2" d="M890.681,-216.189C859.32,-206.702 819.365,-194.41 775.734,-180.192"/>
<polygon fill="grey" stroke="grey" points="776.665,-176.814 766.073,-177.031 774.489,-183.467 776.665,-176.814"/>
</g>
<!-- 26&#45;&gt;30 -->
<g id="edge57" class="edge"><title>26&#45;&gt;30</title>
<path fill="none" stroke="grey" stroke-width="2" d="M916.911,-215.876C900.68,-206.639 880.458,-195.131 863.029,-185.212"/>
<polygon fill="grey" stroke="grey" points="864.627,-182.094 854.205,-180.19 861.165,-188.178 864.627,-182.094"/>
</g>
<!-- 26&#45;&gt;31 -->
<g id="edge59" class="edge"><title>26&#45;&gt;31</title>
<path fill="none" stroke="grey" stroke-width="2" d="M940.82,-215.697C938.005,-207.813 934.609,-198.304 931.481,-189.546"/>
<polygon fill="grey" stroke="grey" points="934.768,-188.345 928.109,-180.104 928.176,-190.699 934.768,-188.345"/>
</g>
<!-- 26&#45;&gt;32 -->
<g id="edge61" class="edge"><title>26&#45;&gt;32</title>
<path fill="none" stroke="grey" stroke-width="2" d="M965.045,-215.697C974.062,-207.05 985.118,-196.449 994.943,-187.027"/>
<polygon fill="grey" stroke="grey" points="997.367,-189.552 1002.16,-180.104 992.522,-184.499 997.367,-189.552"/>
</g>
<!-- 26&#45;&gt;33 -->
<g id="edge63" class="edge"><title>26&#45;&gt;33</title>
<path fill="none" stroke="grey" stroke-width="2" d="M988.831,-215.876C1012.85,-206.042 1043.16,-193.635 1068.38,-183.31"/>
<polygon fill="grey" stroke="grey" points="1069.85,-186.493 1077.78,-179.465 1067.2,-180.014 1069.85,-186.493"/>
</g>
<!-- 27&#45;&gt;26 -->
<g id="edge50" class="edge"><title>27&#45;&gt;26</title>
<path fill="none" stroke="grey" stroke-width="2" d="M947,-287.697C947,-279.983 947,-270.712 947,-262.112"/>
<polygon fill="grey" stroke="grey" points="950.5,-262.104 947,-252.104 943.5,-262.104 950.5,-262.104"/>
</g>
<!-- 28&#45;&gt;27 -->
<g id="edge51" class="edge"><title>28&#45;&gt;27</title>
<path fill="none" stroke="grey" stroke-width="2" d="M897.315,-359.697C905.307,-351.22 915.072,-340.864 923.822,-331.583"/>
<polygon fill="grey" stroke="grey" points="926.559,-333.781 930.873,-324.104 921.466,-328.979 926.559,-333.781"/>
</g>
<!-- 29&#45;&gt;21 -->
<g id="edge38" class="edge"><title>29&#45;&gt;21</title>
<path fill="none" stroke="grey" stroke-width="2" d="M761.96,-143.876C784.57,-133.11 813.658,-119.258 836.39,-108.433"/>
<polygon fill="grey" stroke="grey" points="838.182,-111.457 845.706,-103.997 835.172,-105.137 838.182,-111.457"/>
</g>
<!-- 30&#45;&gt;21 -->
<g id="edge39" class="edge"><title>30&#45;&gt;21</title>
<path fill="none" stroke="grey" stroke-width="2" d="M836.112,-143.697C841.868,-135.474 848.862,-125.483 855.206,-116.421"/>
<polygon fill="grey" stroke="grey" points="858.16,-118.304 861.027,-108.104 852.425,-114.29 858.16,-118.304"/>
</g>
<!-- 31&#45;&gt;21 -->
<g id="edge40" class="edge"><title>31&#45;&gt;21</title>
<path fill="none" stroke="grey" stroke-width="2" d="M909.888,-143.697C904.132,-135.474 897.138,-125.483 890.794,-116.421"/>
<polygon fill="grey" stroke="grey" points="893.575,-114.29 884.973,-108.104 887.84,-118.304 893.575,-114.29"/>
</g>
<!-- 32&#45;&gt;21 -->
<g id="edge41" class="edge"><title>32&#45;&gt;21</title>
<path fill="none" stroke="grey" stroke-width="2" d="M984.04,-143.876C961.43,-133.11 932.342,-119.258 909.61,-108.433"/>
<polygon fill="grey" stroke="grey" points="910.828,-105.137 900.294,-103.997 907.818,-111.457 910.828,-105.137"/>
</g>
<!-- 33&#45;&gt;21 -->
<g id="edge42" class="edge"><title>33&#45;&gt;21</title>
<path fill="none" stroke="grey" stroke-width="2" d="M1077.96,-146.855C1074.94,-145.864 1071.93,-144.902 1069,-144 1014,-127.044 949.419,-110.156 909.859,-100.148"/>
<polygon fill="grey" stroke="grey" points="910.672,-96.7432 900.12,-97.6949 908.962,-103.531 910.672,-96.7432"/>
</g>
<!-- 34 -->
<g id="node35" class="node"><title>34</title>
<path fill="none" stroke="#56d8a2" stroke-width="2" d="M1427,-108C1427,-108 1397,-108 1397,-108 1391,-108 1385,-102 1385,-96 1385,-96 1385,-84 1385,-84 1385,-78 1391,-72 1397,-72 1397,-72 1427,-72 1427,-72 1433,-72 1439,-78 1439,-84 1439,-84 1439,-96 1439,-96 1439,-102 1433,-108 1427,-108"/>
<text text-anchor="middle" x="1412" y="-87.5" font-family="sans" font-size="10.00">merge</text>
</g>
<!-- 34&#45;&gt;0 -->
<g id="edge3" class="edge"><title>34&#45;&gt;0</title>
<path fill="none" stroke="grey" stroke-width="2" d="M1384.9,-85.4807C1295.93,-73.9266 1012.64,-37.1355 910.319,-23.8467"/>
<polygon fill="grey" stroke="grey" points="910.52,-20.3434 900.152,-22.5263 909.618,-27.2851 910.52,-20.3434"/>
</g>
<!-- 35 -->
<g id="node36" class="node"><title>35</title>
<path fill="none" stroke="#a7d856" stroke-width="2" d="M1244,-180C1244,-180 1188,-180 1188,-180 1182,-180 1176,-174 1176,-168 1176,-168 1176,-156 1176,-156 1176,-150 1182,-144 1188,-144 1188,-144 1244,-144 1244,-144 1250,-144 1256,-150 1256,-156 1256,-156 1256,-168 1256,-168 1256,-174 1250,-180 1244,-180"/>
<text text-anchor="middle" x="1216" y="-165" font-family="sans" font-size="10.00">contfree_ngs</text>
<text text-anchor="middle" x="1216" y="-154" font-family="sans" font-size="10.00">part: 00</text>
</g>
<!-- 35&#45;&gt;34 -->
<g id="edge64" class="edge"><title>35&#45;&gt;34</title>
<path fill="none" stroke="grey" stroke-width="2" d="M1256.14,-146.666C1291.1,-134.179 1341.37,-116.224 1375.29,-104.112"/>
<polygon fill="grey" stroke="grey" points="1376.58,-107.366 1384.82,-100.706 1374.23,-100.774 1376.58,-107.366"/>
</g>
<!-- 36 -->
<g id="node37" class="node"><title>36</title>
<path fill="none" stroke="#56a2d8" stroke-width="2" d="M1399,-252C1399,-252 1275,-252 1275,-252 1269,-252 1263,-246 1263,-240 1263,-240 1263,-228 1263,-228 1263,-222 1269,-216 1275,-216 1275,-216 1399,-216 1399,-216 1405,-216 1411,-222 1411,-228 1411,-228 1411,-240 1411,-240 1411,-246 1405,-252 1399,-252"/>
<text text-anchor="middle" x="1337" y="-231.5" font-family="sans" font-size="10.00">create_index_contfree_ngs</text>
</g>
<!-- 36&#45;&gt;35 -->
<g id="edge70" class="edge"><title>36&#45;&gt;35</title>
<path fill="none" stroke="grey" stroke-width="2" d="M1307.4,-215.876C1291.43,-206.639 1271.54,-195.131 1254.39,-185.212"/>
<polygon fill="grey" stroke="grey" points="1256.12,-182.168 1245.71,-180.19 1252.62,-188.227 1256.12,-182.168"/>
</g>
<!-- 42 -->
<g id="node43" class="node"><title>42</title>
<path fill="none" stroke="#a7d856" stroke-width="2" d="M1342,-180C1342,-180 1286,-180 1286,-180 1280,-180 1274,-174 1274,-168 1274,-168 1274,-156 1274,-156 1274,-150 1280,-144 1286,-144 1286,-144 1342,-144 1342,-144 1348,-144 1354,-150 1354,-156 1354,-156 1354,-168 1354,-168 1354,-174 1348,-180 1342,-180"/>
<text text-anchor="middle" x="1314" y="-165" font-family="sans" font-size="10.00">contfree_ngs</text>
<text text-anchor="middle" x="1314" y="-154" font-family="sans" font-size="10.00">part: 01</text>
</g>
<!-- 36&#45;&gt;42 -->
<g id="edge81" class="edge"><title>36&#45;&gt;42</title>
<path fill="none" stroke="grey" stroke-width="2" d="M1331.31,-215.697C1328.75,-207.898 1325.67,-198.509 1322.82,-189.829"/>
<polygon fill="grey" stroke="grey" points="1326.07,-188.512 1319.62,-180.104 1319.42,-190.697 1326.07,-188.512"/>
</g>
<!-- 43 -->
<g id="node44" class="node"><title>43</title>
<path fill="none" stroke="#a7d856" stroke-width="2" d="M1440,-180C1440,-180 1384,-180 1384,-180 1378,-180 1372,-174 1372,-168 1372,-168 1372,-156 1372,-156 1372,-150 1378,-144 1384,-144 1384,-144 1440,-144 1440,-144 1446,-144 1452,-150 1452,-156 1452,-156 1452,-168 1452,-168 1452,-174 1446,-180 1440,-180"/>
<text text-anchor="middle" x="1412" y="-165" font-family="sans" font-size="10.00">contfree_ngs</text>
<text text-anchor="middle" x="1412" y="-154" font-family="sans" font-size="10.00">part: 02</text>
</g>
<!-- 36&#45;&gt;43 -->
<g id="edge83" class="edge"><title>36&#45;&gt;43</title>
<path fill="none" stroke="grey" stroke-width="2" d="M1355.54,-215.697C1364.8,-207.05 1376.16,-196.449 1386.26,-187.027"/>
<polygon fill="grey" stroke="grey" points="1388.75,-189.486 1393.67,-180.104 1383.98,-184.369 1388.75,-189.486"/>
</g>
<!-- 44 -->
<g id="node45" class="node"><title>44</title>
<path fill="none" stroke="#a7d856" stroke-width="2" d="M1538,-180C1538,-180 1482,-180 1482,-180 1476,-180 1470,-174 1470,-168 1470,-168 1470,-156 1470,-156 1470,-150 1476,-144 1482,-144 1482,-144 1538,-144 1538,-144 1544,-144 1550,-150 1550,-156 1550,-156 1550,-168 1550,-168 1550,-174 1544,-180 1538,-180"/>
<text text-anchor="middle" x="1510" y="-165" font-family="sans" font-size="10.00">contfree_ngs</text>
<text text-anchor="middle" x="1510" y="-154" font-family="sans" font-size="10.00">part: 03</text>
</g>
<!-- 36&#45;&gt;44 -->
<g id="edge85" class="edge"><title>36&#45;&gt;44</title>
<path fill="none" stroke="grey" stroke-width="2" d="M1379.32,-215.876C1403.8,-205.97 1434.74,-193.453 1460.36,-183.085"/>
<polygon fill="grey" stroke="grey" points="1461.94,-186.221 1469.9,-179.226 1459.32,-179.732 1461.94,-186.221"/>
</g>
<!-- 45 -->
<g id="node46" class="node"><title>45</title>
<path fill="none" stroke="#a7d856" stroke-width="2" d="M1636,-180C1636,-180 1580,-180 1580,-180 1574,-180 1568,-174 1568,-168 1568,-168 1568,-156 1568,-156 1568,-150 1574,-144 1580,-144 1580,-144 1636,-144 1636,-144 1642,-144 1648,-150 1648,-156 1648,-156 1648,-168 1648,-168 1648,-174 1642,-180 1636,-180"/>
<text text-anchor="middle" x="1608" y="-165" font-family="sans" font-size="10.00">contfree_ngs</text>
<text text-anchor="middle" x="1608" y="-154" font-family="sans" font-size="10.00">part: 04</text>
</g>
<!-- 36&#45;&gt;45 -->
<g id="edge87" class="edge"><title>36&#45;&gt;45</title>
<path fill="none" stroke="grey" stroke-width="2" d="M1411.23,-217.221C1452.14,-208.07 1503.96,-195.739 1558.2,-180.097"/>
<polygon fill="grey" stroke="grey" points="1559.37,-183.401 1567.99,-177.244 1557.41,-176.68 1559.37,-183.401"/>
</g>
<!-- 46 -->
<g id="node47" class="node"><title>46</title>
<path fill="none" stroke="#a7d856" stroke-width="2" d="M1734,-180C1734,-180 1678,-180 1678,-180 1672,-180 1666,-174 1666,-168 1666,-168 1666,-156 1666,-156 1666,-150 1672,-144 1678,-144 1678,-144 1734,-144 1734,-144 1740,-144 1746,-150 1746,-156 1746,-156 1746,-168 1746,-168 1746,-174 1740,-180 1734,-180"/>
<text text-anchor="middle" x="1706" y="-165" font-family="sans" font-size="10.00">contfree_ngs</text>
<text text-anchor="middle" x="1706" y="-154" font-family="sans" font-size="10.00">part: 05</text>
</g>
<!-- 36&#45;&gt;46 -->
<g id="edge89" class="edge"><title>36&#45;&gt;46</title>
<path fill="none" stroke="grey" stroke-width="2" d="M1411.18,-217.611C1414.15,-217.056 1417.1,-216.516 1420,-216 1521.71,-197.871 1551.77,-205.092 1655.83,-180.044"/>
<polygon fill="grey" stroke="grey" points="1656.92,-183.381 1665.8,-177.602 1655.25,-176.582 1656.92,-183.381"/>
</g>
<!-- 37&#45;&gt;36 -->
<g id="edge72" class="edge"><title>37&#45;&gt;36</title>
<path fill="none" stroke="grey" stroke-width="2" d="M1280.11,-431.809C1283.49,-413.787 1289.33,-384.711 1296,-360 1305.26,-325.698 1318.41,-286.926 1327.3,-261.783"/>
<polygon fill="grey" stroke="grey" points="1330.65,-262.809 1330.71,-252.214 1324.05,-260.459 1330.65,-262.809"/>
</g>
<!-- 40 -->
<g id="node41" class="node"><title>40</title>
<path fill="none" stroke="#d86e56" stroke-width="2" d="M1458,-324C1458,-324 1428,-324 1428,-324 1422,-324 1416,-318 1416,-312 1416,-312 1416,-300 1416,-300 1416,-294 1422,-288 1428,-288 1428,-288 1458,-288 1458,-288 1464,-288 1470,-294 1470,-300 1470,-300 1470,-312 1470,-312 1470,-318 1464,-324 1458,-324"/>
<text text-anchor="middle" x="1443" y="-303.5" font-family="sans" font-size="10.00">kraken</text>
</g>
<!-- 37&#45;&gt;40 -->
<g id="edge79" class="edge"><title>37&#45;&gt;40</title>
<path fill="none" stroke="grey" stroke-width="2" d="M1304.18,-446.981C1337.51,-442.996 1393.32,-431.156 1424,-396 1438.73,-379.126 1442.97,-353.652 1443.82,-334.275"/>
<polygon fill="grey" stroke="grey" points="1447.32,-334.289 1444,-324.23 1440.33,-334.169 1447.32,-334.289"/>
</g>
<!-- 41 -->
<g id="node42" class="node"><title>41</title>
<path fill="none" stroke="#d8a456" stroke-width="2" d="M1403,-396C1403,-396 1317,-396 1317,-396 1311,-396 1305,-390 1305,-384 1305,-384 1305,-372 1305,-372 1305,-366 1311,-360 1317,-360 1317,-360 1403,-360 1403,-360 1409,-360 1415,-366 1415,-372 1415,-372 1415,-384 1415,-384 1415,-390 1409,-396 1403,-396"/>
<text text-anchor="middle" x="1360" y="-375.5" font-family="sans" font-size="10.00">fastqc_after_bbduk</text>
</g>
<!-- 37&#45;&gt;41 -->
<g id="edge80" class="edge"><title>37&#45;&gt;41</title>
<path fill="none" stroke="grey" stroke-width="2" d="M1297.52,-431.697C1307.87,-422.965 1320.59,-412.24 1331.84,-402.75"/>
<polygon fill="grey" stroke="grey" points="1334.33,-405.227 1339.72,-396.104 1329.82,-399.876 1334.33,-405.227"/>
</g>
<!-- 38&#45;&gt;37 -->
<g id="edge73" class="edge"><title>38&#45;&gt;37</title>
<path fill="none" stroke="grey" stroke-width="2" d="M1235.6,-503.697C1242.12,-495.389 1250.07,-485.277 1257.25,-476.141"/>
<polygon fill="grey" stroke="grey" points="1260.13,-478.13 1263.56,-468.104 1254.63,-473.805 1260.13,-478.13"/>
</g>
<!-- 39 -->
<g id="node40" class="node"><title>39</title>
<path fill="none" stroke="#d85656" stroke-width="2" d="M1530.25,-252C1530.25,-252 1441.75,-252 1441.75,-252 1435.75,-252 1429.75,-246 1429.75,-240 1429.75,-240 1429.75,-228 1429.75,-228 1429.75,-222 1435.75,-216 1441.75,-216 1441.75,-216 1530.25,-216 1530.25,-216 1536.25,-216 1542.25,-222 1542.25,-228 1542.25,-228 1542.25,-240 1542.25,-240 1542.25,-246 1536.25,-252 1530.25,-252"/>
<text text-anchor="middle" x="1486" y="-231.5" font-family="sans" font-size="10.00">split_kraken_output</text>
</g>
<!-- 39&#45;&gt;35 -->
<g id="edge71" class="edge"><title>39&#45;&gt;35</title>
<path fill="none" stroke="grey" stroke-width="2" d="M1429.5,-218.352C1426.29,-217.549 1423.1,-216.76 1420,-216 1354.39,-199.934 1334.7,-199.613 1266.03,-180.142"/>
<polygon fill="grey" stroke="grey" points="1266.58,-176.66 1256,-177.264 1264.65,-183.388 1266.58,-176.66"/>
</g>
<!-- 39&#45;&gt;42 -->
<g id="edge82" class="edge"><title>39&#45;&gt;42</title>
<path fill="none" stroke="grey" stroke-width="2" d="M1443.92,-215.876C1419.67,-206.006 1389.05,-193.544 1363.63,-183.197"/>
<polygon fill="grey" stroke="grey" points="1364.74,-179.873 1354.16,-179.345 1362.11,-186.357 1364.74,-179.873"/>
</g>
<!-- 39&#45;&gt;43 -->
<g id="edge84" class="edge"><title>39&#45;&gt;43</title>
<path fill="none" stroke="grey" stroke-width="2" d="M1467.71,-215.697C1458.57,-207.05 1447.36,-196.449 1437.4,-187.027"/>
<polygon fill="grey" stroke="grey" points="1439.75,-184.434 1430.08,-180.104 1434.94,-189.519 1439.75,-184.434"/>
</g>
<!-- 39&#45;&gt;44 -->
<g id="edge86" class="edge"><title>39&#45;&gt;44</title>
<path fill="none" stroke="grey" stroke-width="2" d="M1491.93,-215.697C1494.61,-207.898 1497.83,-198.509 1500.8,-189.829"/>
<polygon fill="grey" stroke="grey" points="1504.2,-190.699 1504.14,-180.104 1497.58,-188.429 1504.2,-190.699"/>
</g>
<!-- 39&#45;&gt;45 -->
<g id="edge88" class="edge"><title>39&#45;&gt;45</title>
<path fill="none" stroke="grey" stroke-width="2" d="M1515.84,-215.876C1531.94,-206.639 1552,-195.131 1569.29,-185.212"/>
<polygon fill="grey" stroke="grey" points="1571.11,-188.202 1578.04,-180.19 1567.63,-182.131 1571.11,-188.202"/>
</g>
<!-- 39&#45;&gt;46 -->
<g id="edge90" class="edge"><title>39&#45;&gt;46</title>
<path fill="none" stroke="grey" stroke-width="2" d="M1542.37,-216.045C1573.5,-206.563 1613.06,-194.319 1656.34,-180.17"/>
<polygon fill="grey" stroke="grey" points="1657.51,-183.468 1665.93,-177.025 1655.33,-176.817 1657.51,-183.468"/>
</g>
<!-- 40&#45;&gt;39 -->
<g id="edge77" class="edge"><title>40&#45;&gt;39</title>
<path fill="none" stroke="grey" stroke-width="2" d="M1453.63,-287.697C1458.63,-279.559 1464.69,-269.689 1470.21,-260.701"/>
<polygon fill="grey" stroke="grey" points="1473.24,-262.457 1475.49,-252.104 1467.28,-258.793 1473.24,-262.457"/>
</g>
<!-- 41&#45;&gt;40 -->
<g id="edge78" class="edge"><title>41&#45;&gt;40</title>
<path fill="none" stroke="grey" stroke-width="2" d="M1380.52,-359.697C1390.87,-350.965 1403.59,-340.24 1414.84,-330.75"/>
<polygon fill="grey" stroke="grey" points="1417.33,-333.227 1422.72,-324.104 1412.82,-327.876 1417.33,-333.227"/>
</g>
<!-- 42&#45;&gt;34 -->
<g id="edge65" class="edge"><title>42&#45;&gt;34</title>
<path fill="none" stroke="grey" stroke-width="2" d="M1337.97,-143.876C1350.55,-134.893 1366.13,-123.763 1379.75,-114.034"/>
<polygon fill="grey" stroke="grey" points="1381.83,-116.85 1387.93,-108.19 1377.76,-111.154 1381.83,-116.85"/>
</g>
<!-- 43&#45;&gt;34 -->
<g id="edge66" class="edge"><title>43&#45;&gt;34</title>
<path fill="none" stroke="grey" stroke-width="2" d="M1412,-143.697C1412,-135.983 1412,-126.712 1412,-118.112"/>
<polygon fill="grey" stroke="grey" points="1415.5,-118.104 1412,-108.104 1408.5,-118.104 1415.5,-118.104"/>
</g>
<!-- 44&#45;&gt;34 -->
<g id="edge67" class="edge"><title>44&#45;&gt;34</title>
<path fill="none" stroke="grey" stroke-width="2" d="M1486.03,-143.876C1473.45,-134.893 1457.87,-123.763 1444.25,-114.034"/>
<polygon fill="grey" stroke="grey" points="1446.24,-111.154 1436.07,-108.19 1442.17,-116.85 1446.24,-111.154"/>
</g>
<!-- 45&#45;&gt;34 -->
<g id="edge68" class="edge"><title>45&#45;&gt;34</title>
<path fill="none" stroke="grey" stroke-width="2" d="M1567.86,-146.666C1532.9,-134.179 1482.63,-116.224 1448.71,-104.112"/>
<polygon fill="grey" stroke="grey" points="1449.77,-100.774 1439.18,-100.706 1447.42,-107.366 1449.77,-100.774"/>
</g>
<!-- 46&#45;&gt;34 -->
<g id="edge69" class="edge"><title>46&#45;&gt;34</title>
<path fill="none" stroke="grey" stroke-width="2" d="M1665.75,-146.602C1662.8,-145.681 1659.86,-144.803 1657,-144 1584.2,-123.577 1497.36,-106.462 1449.07,-97.5727"/>
<polygon fill="grey" stroke="grey" points="1449.55,-94.1027 1439.09,-95.7508 1448.3,-100.989 1449.55,-94.1027"/>
</g>
</g>
</svg>
